<svg version="1.0" xmlns="http://www.w3.org/2000/svg" width="933.333" height="933.333" viewBox="0 0 700 700"><path d="M266.9 1.7c-1.3 1.6-1.2 1.7.4.4.9-.7 1.7-1.5 1.7-1.7 0-.8-.8-.3-2.1 1.3zM269.6 1.7c-.6 1.4-.5 1.5.5.6.7-.7 1-1.5.7-1.8-.3-.3-.9.2-1.2 1.2zM271.5 2.6c-.9 1.4-1.5 2.7-1.3 3 .2.2 1.2-1 2.2-2.6 2.1-3.7 1.5-4-.9-.4zM275.5 1c-.3.5-.1 1 .4 1 .6 0 1.1-.5 1.1-1 0-.6-.2-1-.4-1-.3 0-.8.4-1.1 1z"/><path d="M278.9 1.5c-.1.5-.1 1.6 0 2.3.2 1-.2 1-1.9 0-1.9-1.2-2.4-1-4.5 1.6-1.2 1.6-2.1 3.6-2 4.5.2.9.4 2 .4 2.4.1.5.6.5 1.2.1.8-.4.7-.9-.2-1.6-1.1-.7-1-.8.4-.4 1 .3 1.6.2 1.3-.2-.2-.4 1-.8 2.7-.9 2.7-.1 2.8 0 1.1 1-1 .6-2.2 1.2-2.6 1.3-.5.1-1.1.2-1.5.3-.5.1-.1.6.7 1.2 1.3.9 1.2 1-.2.5-1.1-.3-1.8 0-1.8.7-.1.7-1-.5-2.1-2.6-1.1-2.2-2.3-3.6-2.6-3.3-.3.3 0 1.2.7 2.1.7.8.9 1.5.5 1.5s-.1.8.6 1.7c1.2 1.4 1.2 1.6 0 .8-1.1-.6-1.3-.4-.8.9.4 1.1.3 1.5-.4 1.1-.6-.4-.8-1.2-.6-1.9.3-.7-.1-2.3-.9-3.7-.7-1.3-1.3-1.8-1.4-1 0 1.1-.3 1.1-1.5.1-1.3-1.1-1.4-1-1 .2.4.9 0 1.5-1 1.5s-1.4-.6-1-1.6c.3-.9-.3-.6-1.3.7-1.4 1.8-2 2-3.1 1-.7-.7-.6 0 .4 1.5s1.5 3 1.1 3.4c-.3.3-.6 0-.6-.7 0-.9-.5-.7-1.5.6-1.5 1.9-1.5 1.9-.8-.1.6-1.7.5-1.8-.9-.7-.9.7-2.4.9-3.4.5-1.7-.6-1.7-.5-.5 1 .9 1.1 1 1.7.2 1.7-.6 0-1.1-.5-1.1-1.1 0-.8-.4-.8-1.5.1-.8.6-2 .8-2.6.4-.9-.5-1-.2-.6.9.3 1 .2 1.7-.3 1.7-.9 0-1.4-2-1.1-4.6.1-.6-1-1.6-2.4-2.2-3.8-1.8-4.5-1.4-1 .5 1.8 1 2.5 1.8 1.7 2.1-.7.2-1.8 0-2.5-.5-.7-.4-.5-.1.5.9 2.7 2.4 2.2 3.3-.8 1.3-2.2-1.4-2.8-1.4-4.7-.3-1.2.8-3.2 1.3-4.4 1.2-1.2-.1-2 .2-1.7.7.2.4 1.1.6 1.9.2 1.1-.4 1.3-.1.9 1.1-.5 1.3-1 1.3-2.7.4-1.2-.6-1.9-.7-1.5-.3.4.4.3 1.7-.3 2.9-.9 1.9-.9 1.9.4.4 1.4-1.7 3.2-1.9 5.5-.5.6.5 1.2.6 1.2.3 0-.2.3-1.3.7-2.3.6-1.6.5-1.6-1-.4-1.9 1.5-2.3.1-.5-1.7 1.8-1.8 2.5-1.5 3.1 1.3.3 1.9-.1 2.9-1.6 3.6-1.1.6-2.2.7-2.6.3-1.1-1.5-2.9-1.4-4.2.3-1.2 1.4-1.1 1.5 1.1.9 2.1-.6 2.2-.5.7.4-.9.6-2.2.8-2.7.5-.6-.3-1-.1-1 .5s-.4.9-.9.6c-.5-.4-1.1-.1-1.3.6-.3.8-.7.6-1.1-.5-.3-.9-.1-1.9.5-2.3.7-.4.8-.3.4.4-.5.8-.1 1 .9.5 1.3-.5 1.4-.7.3-1.4-.7-.5-.8-.9-.2-.9.6 0 1.1-.7 1.1-1.6 0-1.4-.2-1.5-1.1-.2-.6.8-1.7 1.4-2.4 1.2-.7-.1-.8 0-.2.3.7.3.8.9.1 1.7-1.3 1.5-.7 5.2.9 4.8.6-.1.9.2.5.8-.5.8-1.1.7-2.1-.1-.8-.6-1.2-1.4-1-1.7.3-.2.1-1.4-.5-2.5-.8-1.4-.8-1.8 0-1.3.6.4 1.1.5 1.1.2s-.9-1-2-1.6c-1.6-.9-1.9-.8-1.3.7.5 1.2.2 1.5-.9 1.1-.8-.4-1.5-.1-1.5.7 0 1 .5 1.1 1.7.5 1.2-.7 1.6-.4 1.7 1.3 0 1.2-.1 1.6-.4.9-.3-.6-.9-1.2-1.4-1.2-.6 0-.7.5-.3 1.2.5.7.3.8-.6.3-.9-.6-1.2-.4-.8.7.4.8.1 1.5-.7 1.5-.7 0-1.1-.7-.8-1.4.3-.8 0-1.3-.8-1.1-.8.2-1.3-.4-1.1-1.4.1-.9-.2-1.9-.8-2.3-.6-.4-.7.1-.3 1.1.5 1.2.3 1.5-.6.9-1-.6-1.1-.3-.2 1.2 1 2 .6 3.3-1.1 3.3-.4 0-.8-.5-.8-1.1 0-.5.5-.7 1.2-.3.7.4.8.3.4-.5-.4-.6-1.2-.8-1.8-.5-.7.5-.9.1-.5-.9.5-1.3.2-1.4-2.4-.5-1.6.5-2.9 1.4-2.9 2 0 .5-.6.6-1.2.2-.9-.5-.9-.2.1.9 1.5 1.9.1 2.3-1.7.5-.9-.9-1.2-.9-1.2 0 0 .7.5 1.2 1.1 1.2.5 0 .7.5.3 1.2-.5.7-1.1.5-2.1-.8-1.1-1.4-1.4-1.5-1.3-.4.4 2.8 0 4.1-1 3.5-.6-.4-.7-1.2-.3-1.8.4-.7 0-.6-1 .2-.9.7-1.7 1.7-1.7 2.2 0 1.1 5 .3 6.3-1 .5-.5 1.7-.7 2.6-.4 1.2.4 1.3.3.3-.5-1.1-.7-1.1-1 .3-1.5.9-.4 1.3-.3 1 .3-.3.6-.2 1 .4 1 1.8 0 2.3-2 .6-2.6-1.2-.5-1.3-.9-.4-2 1.7-2.1 3.4-1.7 1.8.3-1.3 1.6-1.2 1.7.4.4 1.1-.9 1.7-1 1.7-.2 0 .6-.5 1.1-1.1 1.1-.5 0-.7.5-.4 1 .4.6 1.2.7 1.8.4.7-.4.8-.3.4.2-.5.5-1.2.9-1.5.9-.4.1-1.7.6-3 1.3-1.2.7-2.7 1-3.2.7-.6-.3-1-.1-1 .4 0 .6-.6 1.1-1.4 1.1-.8 0-1.8.5-2.2 1.2-.5.8-.1.9 1.2.4 1.5-.6 1.7-.5.7.5s-1.6 1-2.5.1c-.7-.7-1.7-1.2-2.2-1.2-.6 0-.5.5.2 1.2s1.2 1.6 1.2 2.2c0 .5-.6.2-1.3-.9-.9-1.1-1.9-1.5-2.8-1-1.1.6-1.2.5-.1-.6.6-.7 1.2-1.7 1.2-2.3 0-.5-.6-.2-1.3.9-1 1.2-1.6 1.4-2.1.7-.4-.7-1.2-1.2-1.9-1.2-.6 0-.3.6.8 1.3 1.1.9 1.5 1.9 1 2.7-.6 1-.2 1.1 1.9.6 1.4-.3 2.6-.3 2.6.2 0 1.4-4.3 1.1-6.4-.5-2-1.5-2-1.5-.1-.9 1.6.6 1.7.5.8-.5-.9-.9-1.6-.9-2.6-.1-.8.7-1.7.9-2 .5-.4-.3.1-1.2 1.1-2 1.5-1.3 1.5-1.3-.6-.3-1.2.6-2 1.5-1.7 1.9.2.5-.2 1.4-.9 2-.9.8-1.7.8-2 .2-.3-.5 0-1.2.6-1.4.9-.4 1-.6.1-.6-1.3-.1-2.8 1.7-2 2.5 1 1.1 4.7 1.3 4.1.2-.5-.7-.2-.8.6-.3s1.1.4.6-.3c-.3-.5 0-.9.6-.8 2.1.3 3.8 1.6 3.8 2.9 0 .7-.5.4-1.1-.6-1-1.7-2.9-1.5-2.9.4 0 .6.4.7 1 .4.6-.3.7.1.3 1-.3.9-.9 1.2-1.2.7-.7-1-4.1-1.2-4.1-.3 0 .4.9 1.2 2 1.9s2 1.7 2 2.2c0 .6-.9.1-2-1-2-2-4-1.9-4 .1 0 .6.4.8.9.5.5-.4.8.2.6 1.1-.1 1 .1 2.3.6 2.9.5.7.3 1.1-.5 1.1s-1.3-.8-1.1-1.8c.5-2.6-1.9-4.3-3.5-2.4-1 1.2-1 1.8.1 3.2 1.3 1.7 1.3 1.7-.5.3-1.1-.8-4-1.5-6.8-1.6-4.4 0-4.8.2-3.2 1.3 1 .7 2.3 1.3 2.8 1.3.6 0 .4-.5-.4-1-1.2-.7-1-.9.8-.7 1.2 0 2.2.5 2.2 1 0 .4.5.5 1 .2.6-.3 1-.2 1 .3 0 .6-1 1-2.2.9-1.3 0-3 .2-3.8.5-.8.2-1.1.3-.7 0 .5-.2-.2-1-1.5-1.6-2.2-1.2-3.3-.9-7.6 2-.7.5 1.5 3.6 2.4 3.4.5 0 1 .7 1.1 1.7.3 1.6.2 1.5-.5-.1-1-2.2-2.1-1-1.7 1.7.3 1.5.1 1.6-1.1.6-1.1-.9-1.6-.7-2.3 1.2-.5 1.3-.7 2.7-.5 3 .2.4-.6 1.5-1.9 2.5-1.2 1-1.9 1.5-1.5 1 .4-.5.3-1.7-.3-2.8-.8-1.6-1.3-1.7-2.5-.7-.8.7-1.3 1.7-1.1 2.4.9 2.1-4.1 1-6.9-1.5-1.6-1.4-2.2-1.7-1.5-.8 1.2 1.6.9 2.2-1.1 1.9-.4 0-.4.7-.1 1.6.5 1.2.3 1.4-.7.8-.8-.5-1.1-.4-.6.3.3.6-.2 1.2-1.1 1.4-1.5.3-1.4.5.5 1 1.4.4 2 .2 1.5-.4-.4-.7-.1-.8.7-.3.8.5 1.1.4.7-.3-.5-.6.1-.8 1.5-.4 1.4.3 1.9.2 1.4-.7-.4-.6-1.2-.9-1.7-.6-.5.4-.9.2-.9-.4 0-2 1.9-2.1 3-.1 1 1.8.8 2.2-.9 2.7-1.1.3-1.7 1.1-1.5 1.8.3.7.1 1.6-.5 2-.7.4-.8 0-.4-1.1.4-1.2.3-1.5-.6-1-.7.5-1 1.7-.8 2.8.3 1.1.3 1.7 0 1.4-.4-.3-1.3 0-2.1.7-1.3 1-1.4.9-.2-1.2 1.1-2.1 1-2.6-.6-3.8-1.1-.8-1.8-1.9-1.7-2.4.2-.5-.1-.9-.6-.9-.6 0-.9.9-.8 1.9 0 1.1.4 1.8.8 1.5.6-.3 1.9 1.9 1.9 3.3 0 .3-1.2-.3-2.7-1.3-2-1.3-2.5-1.3-1.6-.2 1.3 1.5.8 2.8-.9 2.8-.5 0-.6-.4-.3-1s-.1-.7-1-.3c-.9.3-1.2.9-.7 1.2.5.3.8 1.4.6 2.3-.1 1 .5 2.2 1.4 2.8 1 .6 1.2 1 .4 1-.7 0-2-1.3-3.1-3-1-1.6-2.1-2.7-2.4-2.3-1 1-.8 2.5.2 1.9.5-.3 1.1.4 1.5 1.7.8 3.1.7 3.2-1.2 2.9-1.2-.3-1.4-.1-.4 1 .9 1.1.6 1.4-1.3 1.4-1.3 0-2.1-.4-1.8-1 .3-.5.1-.6-.5-.2-.6.3-1.4.1-1.8-.5-.5-.9 0-1 1.4-.7 1.4.4 2 .2 1.5-.4-.3-.6-.2-.8.3-.5.6.3 1.6.2 2.3-.2.9-.6 1-1.1.2-1.5-.6-.4-1.1-.2-1.1.4 0 .6-.4.9-1 .5-.5-.3-.6-1.3-.3-2.2.6-1.5.5-1.6-.9-.3-.9.9-1.2 1.8-.6 2.1.5.3 0 .9-1.2 1.2-2.1.5-2.1.7-.5 3.1.9 1.3 2.2 2.4 2.8 2.2.7-.1.9-.1.5.1s-.4 1.2-.1 2.1c.5 1.4.4 1.4-.9-.1-1.3-1.8-1.4-1.8-3.2.2-1.3 1.5-1.5 2.1-.6 2.1.7 0 1.1.3.8.6-.4.3-1.6.1-2.7-.5-1.4-.8-1.8-1.7-1.4-2.9.6-1.5.5-1.5-.8-.2-1.7 1.6-2.1 5-.7 5 .4 0 .8-.5.8-1 0-.6 1-.4 2.3.5 1.3.8 2.7 1.2 3.2.8.4-.5.5-.2.1.5-.5.9-1.2.9-2.7.2-2.1-1.2-4.3-.4-3.4 1.1.4.5.3.9 0 .9s-1.3-1.5-2.1-3.3l-1.4-3.2.5 3.7c.3 2.1.1 3.8-.4 3.8-1.5 0-2.3-1.8-1.2-2.5.6-.3.8-1.2.5-2-.5-1.3-.8-1.2-2.1 0-.8.9-1.9 1.2-2.5.9-.7-.4-.8-.2-.4.4.4.6 1.3.9 2.1.5 1.1-.4 1.3-.1.9 1.1-.5 1.2-1 1.3-2.6.5-1.1-.6-2.2-.8-2.5-.6-.5.6 3.7 2.2 6.8 2.6.6 0 .3.8-.5 1.7-.9.8-1.6 2-1.6 2.5s-.7.9-1.6.9c-1 0-1.4.5-1 1.6.3.9.2 1.2-.5.9-.5-.4-1.6-.1-2.5.5-1.1 1-1.2 1.6-.3 2.6.6.8.8 1.4.4 1.4s-1.4-.8-2.1-1.8c-1.3-1.6-1.3-1.6-1.4 0 0 1-.5 1.8-1 1.8-.7 0-.7-.7 0-2 .6-1.1 1.6-1.7 2.2-1.4.7.5.9.2.5-.9s-.2-1.4.7-1.1c.8.3 1.7 0 2.1-.6.4-.7-.2-.9-1.9-.6-1.4.2-2.7-.1-3-.7-.3-.8-.5-.8-.5.1-.1.7-.6 1-1.3.6-.7-.4-.8-.3-.4.5.4.6 1.2.9 1.7.6.5-.4.9-.2.9.3 0 1.6-1.3 2.2-2.7 1.1-.8-.8-1.3-.8-1.3-.1 0 .6.6 1.2 1.3 1.5.6.2.9.8.5 1.2-.4.4-1.5.2-2.5-.6-1.1-.9-1.4-1-.9-.2.4.8.2 1.3-.6 1.3-1 0-.9.3.2.9.8.6 1.8.7 2.4.4.5-.3.6-.1.2.6-.4.6-.2 1.9.6 2.8.9 1.2.9 1.5.1.9-1.6-.9-1.7.6-.2 2.1.8.8.7 1.3-.2 1.8-.7.5-1 .4-.5-.3 1.1-1.8-1.5-2.5-3.2-.9-1.2 1.3-1.3 1.9-.4 3 1 1.2.8 1.4-1.4 1.1-1.8-.2-2.4.1-2 1.1.3.9 0 1.2-.9.8-.8-.3-1.3-.9-1-1.3.3-.5-.1-1.1-.7-1.4-.7-.3-.1-.3 1.4-.1 1.6.2 2.8-.1 2.8-.6s-.5-.9-1.2-.9c-1.5 0 0-1.5 1.5-1.5.7-.1 1.1-.7.9-1.4-.1-.7.2-1 .9-.5.8.5.9.3.4-.6-.5-.8-.4-1.1.3-.6.6.3.9 0 .8-.9-.4-2.6-1.4-2.7-3.8-.5-2 1.9-2.1 2-.3 1.4 1.8-.7 1.8-.6.6.9-.7.9-1.8 1.4-2.4 1-.6-.3-.7-.1-.3.5.3.6-.2 1.5-1.2 2.1-1.9 1-2.3 4.4-.7 5.8.4.5.5.2 0-.6-.6-1-.4-1.2.4-.7.7.5 1 1 .7 1.3-.3.3-.1 1.3.4 2.3.6 1.2.5 1.7-.6 1.7-.8 0-1.3-.6-1-1.4.3-.7-.3-1.7-1.4-2.3-1.2-.6-1.7-1.7-1.4-2.8.5-1.3.4-1.4-.4-.3-.5.7-1.6 1.8-2.3 2.3-1.1.8-1 .9.3.4 1-.3 2-.1 2.3.3.7 1.2-2.4 2.3-3.8 1.5-.9-.5-.8-.3 0 .6.9 1 .4 1.9-2.8 4.2-2.1 1.5-3.9 3.1-3.9 3.5 0 .3.9-.2 2-1.2s2.2-1.6 2.4-1.4c.6.6-2.7 4.5-3.9 4.7-1.4.3-1.2 2.2.8 5.9 1.6 3 1.6 3.2 0 2.6-1.2-.5-1.4-.3-.8.8.8 1.2.6 1.2-.8 0-1.4-1.1-1.7-1.1-2.1 0-1.4 4.3-1.4 4.4-1.5 2.6-.1-.9-.6-1.7-1.2-1.7-.5 0-.7-.5-.4-1 .4-.6 1-.8 1.5-.5 1.7 1 2.2-1.7.6-3.3-1-1.1-1.6-1.2-1.6-.4 0 .7.5 1.2 1 1.2.6 0 1 .4 1 .9 0 1.1-1.9.9-4-.4-1.2-.7-1.3-.6-.3.7 1.4 1.7.8 2.9-1.2 2.2-.7-.3-1.6-.1-2 .5-.3.7 0 .8.9.5.9-.3 1.6-.1 1.6.5s-.4 1.1-.9 1.1-.8.8-.6 1.7c.2 1 .4 2.2.4 2.6.1.5.7.5 1.4.2 1-.6-.6.9-4.8 4.3-.6.5-1.7.7-2.5.5-.9-.3-.8 0 .3.7 1.4.9 1.6 1.5.6 2.6-.6.7-1.5 1.1-2 .8-.5-.3-.6.3-.2 1.3.6 1.6.5 1.7-1.2.3-1.8-1.5-1.8-1.4-.1 1.2 1 1.6 1.5 2.8 1.2 2.8-.4 0 0 1.1.9 2.3 1.3 2 1.3 2.4.1 2.4-.9 0-1.2-.7-.9-1.6.5-1.3.3-1.3-.7-.4-.7.6-2 .9-2.9.5-1.4-.5-1.4-.4-.2 1.2 1 1.1 1.1 2 .5 2.4-1.2.8-2.8 4.3-2.6 5.4.1.5-.3.8-.9.8-.5 0-.7.5-.4 1 .4.6 1.1.7 1.7.4.7-.4.8-.2.4.5-.6.9-1.1.9-2.2 0s-1.1-1.5.1-3.9c.8-1.5 1.1-3 .8-3.4-.4-.3 0-.6.8-.6 1.1 0 1.1-.2-.1-1-.8-.5-1-1-.4-1 1.5 0 1.3-2.8-.2-3.4-.8-.3-1.1 0-.7 1.1.3.8 0 1.9-.8 2.4-1.1.7-1.1.9-.1.9.7 0 1 .5.7 1-.4.6-1.1.7-1.7.4-.7-.4-.8-.2-.4.4.4.7.2 1.2-.4 1.2-.6 0-.9.4-.5.9.3.5.1 1.2-.4 1.6-.6.3-.8 1.2-.5 2 .4.8 1 1.3 1.4 1 1.3-.8 1.9 2.2.7 3.4-.8.8-.8 1.1.1 1.1.7 0 1.2.5 1.2 1.1 0 .5-.4.8-.9.4-.5-.3-1.2-.1-1.5.4-.4.5.2 1.2 1.1 1.4 1.7.4 1.7.5.1.6-1 0-1.8.6-1.8 1.2 0 .5-.4.7-1 .4-1-.6-1.4.7-1.1 3.2.1.7-.3 1.3-.9 1.3-.6 0-.8.4-.5 1 .3.6-.1.7-1 .4-2-.8-1.6 1.5.5 3.4 1.3 1.1 1.2 1.1-.7.2-1.2-.5-2.6-.9-3-.8-.4.2-.9-.2-1-.7-.1-.6.6-.9 1.5-.7 1.5.2 1.5.1.2-.7-1.3-1-1.3-1.1 0-1.1 1.2 0 1.2-.2.2-.9-1-.6-.9-1.1.4-2.2 1.6-1.2 1.7-1.2 1.1.4-.5 1.3-.3 1.7.5 1.4.7-.2 1.2-1.1 1-2-.1-.8.8-2.3 2-3.1 1.2-.9 1.9-1.6 1.4-1.6s-.3-.7.4-1.5.9-1.5.5-1.5-.1-.8.6-1.8c.7-.9.9-1.4.5-1-.5.4-1.5.3-2.2-.3-1.4-1.1-1.4.6-.1 2.8.8 1.3-2.6 3.7-3.6 2.6-.4-.3-.9.2-1.2 1.1-.3.9-.7 2.3-1 3.1-.4 1.3-.9 1.4-2.6.5-1.6-.9-2.4-.9-3.3.1-.8.9-.8 1 .1.5 1.7-1 4.1.3 3.9 2.2-.2.9-.9 1.8-1.6 2-.8.3-1 0-.5-.9.5-.8.4-1.1 0-.6-1.1.9-1.4 4.8-.4 4.2.4-.3 1 .2 1.3 1.1.9 2.4.8 2.6-1.5 1.4-1.1-.7-2.3-.9-2.6-.7-.2.3.5.8 1.6 1.2 1.2.3 2.1 1.4 2.1 2.3 0 1.1-.3 1.3-.8.6-.5-.9-1.1-.8-2.1.3-1.1 1.2-1 1.4.4 1.1 1-.2 2 .2 2.2.9.3.8-.4 1-2 .7-1.6-.2-3 .2-3.8 1.4-1.3 1.5-1.2 1.6.4.3 1.3-1 2-1.1 3.1-.2 1.1.9 1.8.8 3-.4 1.5-1.5 1.6-1.5 1.2.7-.2 1.3.2 2.9.8 3.7.8 1.1.8 1.3-.1.8-.6-.4-1.4-.1-1.7.5-.3.7-.3 0-.1-1.5.3-1.9 0-2.7-.8-2.4-.7.3-1.1 1.1-.9 1.8.1.9-.3.8-1.1-.4-2-2.5-2.7-2.1-1.4.7.7 1.3 1.5 2.2 1.9 2 .4-.3.5.3.1 1.2-.4 1-.2 1.5.4 1.1.5-.3 1 0 1 .8s-.4 1.2-.8 1c-.3-.3-1.2.2-1.9 1-1 1.2-1 1.8.1 3.2.8.9.9 1.4.3 1-1.3-.8-2.8 1.9-2.5 4.3.1 1.1-.1 1-.9-.3-.6-.9-1.5-1.5-2-1.2-.5.3-1.2 0-1.6-.6-.5-.8-.3-.9.6-.4.9.6 1.1.4.5-.5-.5-.7-.4-1.1.1-.7.5.3 1.8-.1 2.9-.9 1-.8 1.4-1.4.9-1.4-1.3 0-1.6-3.8-.3-4.5.5-.4.9-.1.9.5s.5.8 1 .5c1.7-1 .2-2.3-2.6-2.3-1.8 0-2.2.3-1.3.9 1.3.8.6 1.3-1.6 1-.5-.1-.2.5.7 1.2 1 .8 1.5 1.7 1.1 2-.3.4-1.3.1-2.2-.6-1.4-1.1-1.4-1-.2.5 1.1 1.5 1.1 1.9-.3 2.4-1 .4-1.5 1.3-1.1 2.2.6 1.7-1.3 4.4-2.6 3.7-.4-.3-.6.3-.4 1.4.2 1.4-.1 1.8-1.1 1.4-.8-.3-1.4.1-1.4.8 0 .7.3.9.6.6.4-.3 1.5-.2 2.6.4 1.8.9 1.8.8.8-1-.8-1.6-.8-2.1.2-1.9.6.2 1.2-.2 1.3-.9 0-.6.4-1.5.9-2s.6-.3.2.4c-.4.7-.3 1.3.3 1.3.5 0 1.1-.6 1.4-1.3.3-.6.5-.3.4.9-.1 1.2-.7 2.1-1.5 2-.8-.1-1.7.6-1.9 1.4-.3 1-.2 1.1.4.3.6-.8 1.4-.9 2.3-.3 1.3.8 1.2 1-.3 1-1.4 0-1.7.5-1.1 2.2.6 2.1.6 2.1-1 .5-2.7-2.6-4.3-1.9-3.7 1.7.1.4-.4 1.5-1.1 2.4-.8 1-.9 1.3-.1.9.6-.4 1.3-.4 1.6 0 .2.5.3.3.1-.3-.1-.6.3-1.7.9-2.3.8-.8.7-1.1-.3-1.1-.7 0-1-.3-.7-.6.8-.9 3.7 1.5 3.7 3 0 .6-.5.4-1-.4-1.1-1.7-1.2-1.6-1.4 2.5-.1 1.6.3 3.4.9 3.8.6.5.3.7-.7.3-1.3-.4-1.8 0-1.8 1.4 0 1.8 1.1 2.5 3.3 2.1.5-.1.6.3.2.8-.3.6-1.3.7-2.3.4-1.5-.6-1.6-.5-.2 1.3 1.4 1.7 1.3 1.8-.1.7-.9-.7-1.8-1.1-2.1-.8-.2.3-.5-.2-.5-1s.5-1.1 1-.8c.6.3.7.1.3-.6-.4-.6-1.2-.9-1.7-.6-.5.4-.9.1-.9-.6s-.3-.9-.6-.6c-.4.4-.1 1.3.5 2.1.7.9.8 1.7.2 2-.5.3-1.2 0-1.5-.6-.2-.7-.4-.3-.2.9.1 1.2.5 2.6.9 2.9.4.4.2 1.3-.4 2-.7.9-.6 1.2.8 1 1.1-.2 1.8-1.1 1.7-2.5-.2-2.3.4-2.5 2.6-1.1 1.3.8 1.2 1-.4 1-1.1 0-1.6.3-1.3.7.4.3.2 1.2-.4 2-.9.9-.8 1.7 0 2.7.9 1 .8 1.6-.3 2.5-1.4 1.2-1.1 4.5.3 3.7.4-.3.7.4.7 1.4 0 1.1-.5 1.6-1.5 1.2-.9-.4-1.2-.1-.7.7.6 1 .4 1-1.2 0-1.2-.7-1.8-1.8-1.5-2.4.4-.5.3-.7-.2-.3-.4.4-1.5.2-2.4-.5-1.4-1.1-1.4-1-.2.5 1.8 2.4.5 2.3-2.5-.1-2.6-2-1.9-3.5 1.3-2.5 1.7.5 1.7.5-.1-.6-1.4-1-2.1-.9-3.2.2-1.2 1.2-1 1.7 1.8 3.8 1.7 1.3 3.8 2.3 4.5 2.3.7 0 2.3 1.2 3.5 2.5 1.3 1.4 1.7 2.2 1.1 1.8-1.6-.9-1.6-.1-.3 2.5.6 1.1.7 1.8.2 1.7-1.1-.3-5.6 4.3-6 6.1-.1.7.4 1.1 1.2.9 1.4-.3 1.6 0 1.6 2.4 0 .9-.3.8-1-.2-.5-.8-1.2-1.1-1.6-.7-.4.3-.1 1.4.7 2.3 1.3 1.6 1.2 1.6-.8.4-1.6-1.1-1.9-1.7-1.1-2.7.7-.9.7-1.3-.1-1.3-2 0-2.5 3.2-.8 4.5 1.8 1.3 2.2 2.5.8 2.5-.5 0-1.6-1.5-2.5-3.3-.8-1.7-1.6-2.6-1.6-1.9 0 .7-.4 1-1 .7-1.7-1.1-1.1.7.7 2.1 1.3 1 1.4 1.3.3.9-1.1-.4-1.6.2-1.8 2-.1 1.4.4 2.5 1.1 2.5.8 0 .7.3-.2.9-1.2.8-1.3 1.4-.3 3.6.8 1.6.8 2.4.2 2-1.6-1-.7 3.9 1 6.1 1.4 1.8 1.4 1.8-.2.5-1.6-1.2-1.8-1.1-1.8.8 0 1.2.4 2 .9 1.6.5-.3 1.3-.1 1.6.5.4.6.1.9-.7.8-1.1-.2-1.3 5.7-1.4 31.9 0 22.5.3 32.3 1 32.3.6 0 .5.4-.2.9-1.5.9-1.3 4.2.3 5.3.6.5.5.8-.2.8s-1.3.5-1.3 1.2c0 .6.3.8.7.5.3-.4 1.3.2 2 1.3.8 1.1 1.9 1.7 2.5 1.4.7-.4.5-1-.6-1.6-.9-.5-1.6-1.7-1.5-2.6 0-1.2.2-1.3.6-.3.9 2.2 4.1 5 4.7 4 .2-.5.3-.4.2.3-.2.7-1.4 1.3-2.8 1.2-2.1-.1-2.5.3-2.4 2.2.1 2.6 1.6 3.4 1.6.9 0-.8.3-1.5.8-1.5 1.4 0 5.2 3.1 5.2 4.3 0 .8-.3.8-.9-.2-.5-.8-1.1-.9-1.5-.3-.4.6.2 1.6 1.1 2.2 1.5.9 1.4 1-.7.4-2.2-.6-2.3-.5-1.2.9.8.9 1.9 1.4 2.7 1.1.7-.3 1.6-.1 2 .5.4.7 0 .8-1.2.4-1.5-.6-1.5-.2.4 3 1.4 2.2 1.8 3.9 1.2 4.3-.6.3-1.5 1.7-2 3.1-.8 2.2-1.1 2.4-2.7 1.2-1.6-1.3-1.6-1.2.1.7.9 1.1 1.5 2.4 1.2 2.7-.3.4-.2.5.1.2.4-.2 1.5.5 2.5 1.7 2.2 2.5 2.5 3.5.6 1.9-1-.8-1.7-.7-2.7.2-1 1-1.2.8-.6-.8s.5-1.7-.5-.8c-.9.9-.9 1.6-.1 2.6.7.8.9 1.7.5 2-.3.4-.1.7.6.7s1.1-.7.8-1.5c-.4-.8-.2-1.7.3-2 .6-.4 1 .1 1 .9 0 1 .6 1.3 1.7.9 1.5-.6 1.6-.4.6.9-.7.8-.9 1.9-.5 2.3.4.5 0 .6-.9.3-.9-.4-2.2-.2-3 .3-1.1.8-1 .9.6.7 1.4-.2 2 .3 2 1.7 0 1.1.6 1.9 1.3 1.8.6-.2 1.2.2 1.2.8 0 .6.9.9 2 .6 1.1-.3 1.8-.2 1.5.3-.3.4-1.4 1-2.5 1.3-1.1.3-1.8.1-1.5-.3.7-1.1-2.2-.7-3.2.5-.4.4-.3.5.4.1.6-.3 1.4-.2 1.8.4.3.5-.2 1-1.2 1.1-1.4 0-1.3.2.6 1 1.7.7 2.1 1.2 1.3 2.2-.7.8-.7 1.8-.2 2.7.5.8.7 1.7.4 2.1-.2.4.3 1.2 1.1 1.9 1.4 1.1 1.4 1.5-.1 3.1-1.6 1.7-1.5 1.8.9.6 1.7-.8 2.2-1.6 1.6-2.3-.5-.6-.4-1.5.2-2.1.8-.8.8-1.3 0-1.7-.6-.4-1.1 0-1.1.9s-.5 1.3-1 1c-.8-.5-.7-1.2.2-2.3 1-1.2 1-1.4 0-.8-.6.4-1.2.2-1.2-.3 0-1.6.9-1.4 3.7.9 1.4 1.1 2.1 2 1.5 2-1.4 0-.9 3 .7 4 .8.4 1 1.3.6 2-.5.9-.2 1 1.4.5 1.3-.4 2.1-.2 2.1.5 0 .6-.4.8-1 .5-.5-.3-1-.1-1 .5s-.4.9-.9.6c-.5-.4-1.1-.3-1.4.1-.2.5-.2.2-.1-.5.2-.6-.2-1.2-.9-1.2-.8 0-.8-.3.2-.9.9-.6 1-1.1.2-1.5-.6-.4-1.1-.2-1.1.4 0 .6-.5.8-1.2.4-.9-.6-.9-.3 0 .9.8.9 1.1 2.1.7 2.7-.6.9.8 1.4 2.8 1.1 1.7-.3 4.6 2 4.1 3.3-.3.7.7 2.4 2.3 3.6 1.6 1.4 2 2 1 1.7-1.3-.5-1.7-.3-1.4.5.2.7 1 1.2 1.6 1.1.6-.2 1 .2.8.9-.1.7.3 1.2 1 1.3.6 0 1.4.3 1.8.7.6.5-1.9.4-3.5-.2-.3-.1-.9-.2-1.3-.1-.5.1-.6-.3-.3-.8.4-.5.2-1.2-.4-1.6-.5-.3-1 .1-1 .9s.7 1.9 1.6 2.4c1 .5 1.8 2.1 1.8 3.4.1 1.4.9 3.7 1.9 5.1 2.3 3.6 2.2 3.8-2 3.2-3.5-.4-3.6-.4-1.3.7 1.4.6 3.2 1 4 .9 1.1-.1 1 .2-.3 1-1 .6-2.4.7-3 .2-.7-.4-.4 0 .8 1.1 1.1 1 1.9 2.5 1.7 3.2-.2.8.1 1.4.6 1.4 1.6 0 2.2-1.3 1.1-2.6-.7-.8-.7-1.4.1-1.9.5-.3 1-.3 1 .1 0 .3.8 0 1.7-.7 1.5-1.2 1.6-1.2.8.1-.5.8-1.1 2.1-1.2 2.8-.2.6-.4 1.8-.6 2.5-.1.6-.6 1.7-.9 2.3-.8 1.2-.5 4 .5 5 .3.4.4-.5.1-2-.3-2-.1-2.4 1.1-2 .8.3 1.3 1 1 1.4-.3.5-.1 1.2.5 1.5.8.5.7 1.2-.2 2.3-.7 1-.8 1.4-.3.9.4-.4 1.7 0 2.7.9 1.4 1.3 1.5 2 .7 3.1-1.8 2.1-.1 2.9 1.9.8.9-1 1.2-1.5.5-1.1-.6.3-1 0-.9-.6.6-3.4 1.8-5.7 3.3-6.3 1.6-.5 1.6-.5 0 1.2-1.7 1.9-1.8 3.8-.3 6.3.5.8.6 1.2.1.8-.5-.5-1.5.1-2.3 1.3-1.3 1.9-1.2 2.2.7 3.5 2.1 1.5 3.1 4.1 1.1 2.9-.6-.3-1-.2-1 .3 0 .6.7 1.2 1.5 1.5.8.4 1.2 1.5 1 2.7-.2 1.1 0 1.8.5 1.5 1.4-.8 4 .6 3.3 1.9-.5.8-.3.8.8-.1 2.6-2.1 6.1 2.8 3.6 5.3-1.2 1.3-.8 2 2.1 3.3l2.7 1.2L56 537c-2.5-2.1-2.5-2.1-.1-1 1.9 1 2.2.9 1.8-.2-.2-.7-.9-1.2-1.5-1.1-1.1.3-1-2.3.1-3.2.4-.3.5-.2.2.1-.2.4.3 1.3 1.1 2.1.8.9 1.3 2.2 1 2.9-.3.8 0 1.4.7 1.4.9 0 .8.3-.1.9-.8.4-1.3 1.1-1.3 1.5.3 2 0 2.6-.9 2.1-.6-.4-.5.5.2 1.9 1.1 2.6 1.9 3 4.7 2.6 1.3-.1 1.3.1.1 1.5-.7.9-1.9 1.4-2.7 1.1-.8-.3-1.1-.1-.8.4.9 1.5 1.9 1.2 4.4-.9 2.1-1.8 2.1-2 .4-2.5-1.8-.6-2.7-4.6-1.1-4.6.4 0 .8 1 .8 2.2 0 1.2.3 1.8.7 1.5.3-.4 1.3.2 2 1.3.8 1.1 1.9 1.8 2.4 1.4.5-.3.9-.2.8.3-.4 2.5.3 5.2 2.1 7.1 1.2 1.2 1.7 2.8 1.4 3.9-.5 1.6-.4 1.6 1-.1.9-1.1 1.6-1.6 1.6-1-.1 1.4-2.3 3.9-4 4.2-.8.2-2.1.7-3 1.2-1.2.7-1 .9.8.7 1.2-.1 2.2-.4 2.2-.8 0-.9 2.7-.6 3.6.4.4.4.2.7-.5.7-.8 0-.6.8.5 2.4 1 1.7 2.1 2.3 3.2 1.9 1.5-.6 1.5-.5.3 1-2.1 2.7 1.3 3.4 4 .8 2.1-1.9 4.6-2 3.3 0-.3.5-.9.7-1.3.5-1.3-.8-2.8 2.8-2 4.9.5 1.4.8 1.5.8.4.1-.9 1-1.5 2.5-1.5 1.4 0 2.2.4 2 .8-.3.4-.1.8.5.8.5 0 1.2-.6 1.4-1.3.4-.7.6-.8.6-.1.1.6-.6 1.7-1.4 2.4-1.1.9-1.5.9-1.5.1 0-.7-.5-.9-1.2-.5-.7.5-.8.3-.3-.6.5-.9.4-1.1-.4-.6-.6.4-.9 1.2-.6 1.7.4.5.2.9-.3.9-1.9 0-.7 2.6 1.2 2.8 4 .2 7.8 1 8.4 1.7.4.4 0 .5-.8.3-.9-.1-1.7.1-1.8.6-.1.5.9 1 2.2 1.1 1.7 0 2.2-.4 1.9-1.5-.2-.8.2-.5.9.8.8 1.2 1.8 1.9 2.3 1.5.4-.4.5-.2.1.4-.5.8-.1 1.3 1.1 1.4 1.6 0 1.6.1-.2.8-2.2.9-3.8.4-3-.9.8-1.3-1.8-1.8-4-.8-1.8.8-1.8.8.3.4 1.2-.2 2.2 0 2.2.5 0 .9-1.5 1.3-3.3 1-.5-.1-.6.3-.2.9.4.7 1.2.7 2.4 0 1.8-.9 3.1-.4 3.1 1.2 0 .5-.4.7-.9.3-.5-.3-1.2-.1-1.6.4-.3.6.3.8 1.4.6 1.1-.2 2.6.4 3.3 1.3 1.1 1.4 1 1.5-.7.8-1.5-.5-1.7-.4-.8.5.9.9 1.9.7 4.4-.5 1.8-.9 3-1.3 2.6-1-.4.4.1 1.3 1.1 2 1.1.9 1.3 1.3.4 1.4-.7 0-1 .5-.7 1 .4.6 1 .8 1.5.5 1.3-.8 5.2 1.4 4.5 2.4-.6 1.1 2.4 2.3 3.7 1.5.8-.5-.6 3-1.7 4.4-.1.1-.8-.5-1.6-1.5-1.2-1.5-1.2-1.6.6-1l2 .7-2-1.6c-1.1-.8-1.9-2-1.8-2.5.2-.5-.2-.9-.7-.9-.6 0-1 .5-1 1.1 0 .5-.5.7-1.1.3-.8-.4-.7-.9.2-1.5 1-.6.7-.8-.9-.6-1.2 0-2.2.2-2.2.3 0 .2 1.8 2 4 4.2 2.2 2.1 4 4.5 4.1 5.3 0 .8.4.5.8-.6.5-1.1 1.3-2.1 2-2.1 2.4-.3 2.6-.5 1.1-1.4-.9-.6-1-1-.3-1 2.1 0 2.3 1.7.3 3.5-1.1 1-2 2.3-2 2.8 0 .6 1.4-.2 3.2-1.9 1.8-1.6 2.7-2.2 2-1.2-1.1 1.4-1 1.7.7 2.3 1.2.3 2.1 1.1 2.1 1.6 0 .6.4.7 1 .4.6-.4.7.1.3 1.2-.6 1.6-.5 1.7 1.2.3 1.1-.9 1.6-1 1.1-.3-.4.8-.2 1.3.6 1.3s.9.3.3.8c-1.2.9-1.7 6.2-.6 6.2.5 0 1.5-.8 2.2-1.7 1.2-1.4 1.2-1.6 0-.8-1 .6-1.2.4-.6-.5s.4-1.1-.5-.5c-.9.5-1.1.4-.6-.3.5-.9 1.4-.7 3.1.5 1.2 1 2.1 2.2 1.8 2.7-.3.4-.8.4-1.2-.2-.3-.5-1.4 0-2.4 1.3-1.2 1.7-1.4 2.6-.5 3.1.6.4.9.3.6-.2-.3-.5-.1-1.4.6-1.9 1.6-1.4 4.8-1.5 4.3-.1-.2.6-.9 1.1-1.5 1.1-.7 0-1.2.4-1.1 1 .1.5.5.9 1 .8.9-.3 1.3 1.1 1 3.4-.1.6.3 1.4.9 1.8.6.4.7-.1.4-1.2-.5-1.7-.5-1.7.9 0 1 1.2 1.6 1.4 1.9.6.2-.7 1.4-1.3 2.6-1.4 1.8-.1 2 .1.9 1.3-1 1.3-.9 1.4.8.5 1.1-.6 2.3-1 2.7-1 .3.1 1-.1 1.4-.6.4-.4 0-.7-.9-.7-1 0-1.7-.5-1.7-1 0-.7.7-.7 2.1 0 1.7 1 1.8 1.4.8 2.7-1.1 1.2-1 1.4.7 1.1 1-.1 2.3-.8 2.7-1.3.5-.6.5.1.1 1.5-.6 2.3-.6 2.4 1.2 1 1.8-1.4 1.8-1.4.5.3-1.4 1.8-1.6 1.8-2.8.1-.9-1.2-1.3-1.3-1.3-.4 0 1-.5.9-1.9-.4-1.7-1.5-1.9-1.5-3.2.1-.7 1-.9 1.4-.4 1 .5-.4 1.5.3 2.2 1.5l1.4 2.3-.7-2.5c-.6-2.2-.5-2.3 1-1.1.9.8 1.4 2.1 1.1 3-.4 1.4-.4 1.4.7.1 1.3-1.5 6.1-2 7.4-.8 1.1 1.1-.6 2.7-2.2 2.1-1.3-.5-1.3-.7-.2-1.4.9-.6.9-.9.1-.9-1.7 0-2.5 1.7-1.2 2.6 1.3.7 4.9 1.4 8.6 1.7 1.2 0 2 .4 1.7.8-.2.4.2.9.8 1.2 1 .3.8.9-.4 2.4-1 1.1-1.8 2.4-1.8 2.9s.5.1 1.1-.8c.5-1 1.5-1.8 2.1-1.8.6 0 .5.7-.3 1.7-.8.9-.9 1.4-.3 1 .7-.4 1.5 0 1.8.9.4 1.1 1.2 1.3 2.8.8 2.1-.6 2.2-.5.8 1.2-1.1 1.5-1.1 1.6 0 .6 2.1-1.8 3.4-1.5 1.9.5-1.1 1.5-1.1 1.6.1.6 1.8-1.7 3.5-1.7 2.2 0-.7.8-.7 1.8-.2 2.7.6.9 1 1 1 .3s.9-1 2.1-.8c1.5.3 2.3-.2 2.6-1.6.5-1.9.6-1.9 1.7.3.9 1.7 1.9 2.2 4.1 2.1 2.7-.2 2.4.1-1.3 1.3-1 .3-1 .8.2 2.6.8 1.3 1.6 2.7 1.6 3.3.1.5.4 1.2.7 1.5.4.3.3-.1-.1-.8-.4-.7-.2-1.2.6-1.2 1 0 1-.2-.1-.9-.8-.5-1-1.4-.6-2.1.6-.9.4-1.1-.5-.5-.9.5-1.1.4-.6-.4.4-.6 1.1-.9 1.6-.6.5.3 1.1.1 1.5-.5.3-.5 1.1-1 1.8-1 .6 0 .1.7-1.2 1.6-2 1.5-2.1 1.8-.8 2.6.9.5 1.4 1.5 1.1 2.2-.3.8-.1 1.7.5 2.1.7.4.8 0 .4-1.1-.5-1.4-.3-1.5 1.5-.5 1.4.7 2.3.8 2.7.1.4-.6 1.1-.7 1.7-.4.7.4.7.9 0 1.3s-.8 1.2-.2 2.1c.8 1.2 1 1.1 1-.4 0-1.6.3-1.7 1.2-.8.9.9.9 1.5 0 2.4-.7.7-1.2 1.7-1.2 2.2 0 .6.5.3 1.1-.7 1.5-2.5 3.2-2.2 1.9.4-.7 1.1-.9 2.3-.7 2.6.3.2.8-.5 1.2-1.6.3-1.2 1.1-2.1 1.6-2.1.6 0 .6.7 0 1.8-.7 1.4-.6 1.9.4 1.9.8 0 1.1-.7.8-1.6-.5-1.3-.3-1.4.8-.4 1.8 1.8 2.9 1.6 2.9-.5 0-1.3-.2-1.4-.9-.3-.6.9-1.1 1-1.5.2-.4-.6-.2-1.1.3-1.1.6 0 1.1-.5 1.1-1.1 0-.8-.5-.8-1.5.1s-1.5.9-1.5.1c0-.6-.6-1-1.2-.9-.7.2-1.2-.3-1-1 .1-.8-.2-1.1-.9-.6-.8.5-.9.3-.4-.6.5-.8.4-1.1-.2-.7-.6.4-1.6 0-2.2-.7-1.6-1.9 1-1.6 3.4.4 1.6 1.4 1.7 1.3 1.1-.8-.4-1.2-.3-2.2.2-2.2s.9.7 1 1.5c.1.8.3 2.2.4 3 .1.9.7 1.4 1.5 1.1.8-.3 1.6.1 1.9.9.4.8 1 1.2 1.5.9.5-.3.6.1.3.9-.7 1.8 2.8 1.6 5.3-.4 1.6-1.3 1.7-1.2.5.2-1 1.3-.9 1.9.5 3 1.5 1.2 1.6 1.2.9-.6-.7-2-.7-2 1.2 0 1.1 1.1 1.7 2.4 1.4 2.9-.2.4-.7.4-1.1-.2-.3-.5-1.4-.8-2.4-.6-.9.1-1.5-.2-1.2-.6.3-.5-.4-.7-1.5-.5-1.1.2-1.8 0-1.5-.6.4-.5.2-.9-.4-.9-.5 0-1.3.4-1.6 1-.3.5-.1 1 .4 1 .6 0 1 .5.9 1.1-.2.6.3 1.3 1 1.4.7.2.8.1.2-.2-.5-.2-.7-.9-.4-1.4.3-.6 1.1-.6 2 .2.7.6 1.2 1.5.9 1.9-.3.5-.1 1.2.5 1.5.6.4.9.1.8-.6-.2-.6.3-1.4 1.1-1.7.9-.3 1.1 0 .6.9-.6 1.1-.5 1.2.6.2.7-.7 2-1.3 2.9-1.2 1 0 1.1.2.3.6-1 .3-1 .8.1 1.9 2 1.9 3.2 1.8 1.5-.2-1.2-1.5-1.1-1.6.8-1 1.5.5 2.5.2 3.3-1.1 1.1-1.6 1.1-1.7.6 0-.3 1.1 0 1.7 1 1.7.8 0 1.2-.4.9-1-.4-.6.1-.7 1.1-.3 1.4.5 1.3.8-.7 1.9-1.3.7-1.8 1.3-1.1 1.4.7 0 1 .5.6 1.2s-.3.8.5.4c.6-.4.9-1.2.6-1.7-.4-.5.1-.9.9-.9s1.9-.7 2.4-1.6c.8-1.5 1-1.5 1.6.1.3.9.3 2.1 0 2.6s-.7 2.2-.9 3.7c-.2 1.5-.2 2.1.1 1.4.3-.6 1-1.2 1.5-1.2.6 0 .7.6.3 1.2-.6 1-.4 1.1.7 0 2.3-2.1 3.3-1.3 1.3 1-1.3 1.6-1.4 1.9-.2 1 1.3-1 1.7-1 2.1 0 .3.7.4.2.2-1.2s-.4-2.6-.6-2.8c-.1-.1-.2-.7-.3-1.2 0-.6-.8-1.5-1.6-2s-1-1-.4-1c.5 0 1.9.7 3 1.5 1.3 1 1.5 1.4.5 1.5-2 0-.5 1.3 2 1.7 1.1.2 1.8-.1 1.5-.5-.3-.5.1-.9.9-.9 1.2 0 1.2.4-.2 1.9-1.1 1.3-1.9 1.5-2.4.7-.3-.6-.6.1-.6 1.5 0 3.2 1.1 4.1 2.9 2.4 2-1.9 3.8-2 4.4-.3.5 1.2 1 1.3 2 .4 1.1-.9 1.6-.6 2.3 1.2.8 2 1 2.1 1 .5.1-1.8.2-1.9 2.1-.1 1.1 1 2.3 1.5 2.7 1.2.3-.4 0-.7-.8-.7s-.4-.6.9-1.6c1.2-.8 2-2 1.7-2.5-.3-.5.1-.6.9-.3 1.4.5 1.4.8.1 2.1-1.6 1.6-2 3.3-.7 3.3.4 0 1.3-.5 1.9-1.1.8-.8 1.4-.5 2.3 1.2l1.3 2.2 1.2-2.4c.8-1.4 1-3 .5-4-.6-1.1-.5-1.6.5-1.6.7 0 1.1.7.7 1.5-.3.9-.1 1.3.5.9s1.3 0 1.7.8c.3.8 0 1.7-.6 2.1-.7.4-.8.3-.4-.4s.2-1.2-.3-1.2c-1.5 0-1.4 1.3.4 3.6 1.1 1.3 1.3 1.4.9.3-.3-1 .2-1.9 1.2-2.3 1.4-.5 1.4-.9.3-2.4-1.3-1.5-1.2-1.6.3-.3 1 .7 1.5 1.7 1.2 2.2-.6 1.1 2.5.7 4.4-.5.7-.4 1.9-.3 2.6.3.9.7 1.9.6 3.5-.5 1.2-.9 2.5-1.3 2.8-1 .4.3.1.6-.6.6s-.9.5-.5 1.2.4 1-.1.6c-.9-.9-4.5.9-4.5 2.3 0 .6.7.6 1.9-.1 2.6-1.3 3.1-1.3 3.1.5 0 .8-.5 1.5-1.1 1.5-.5 0-.7-.6-.3-1.3.5-.6-.7 0-2.5 1.6-1.8 1.5-3.7 2.5-4.2 2.1-1.1-.6-1.2-2.4-.1-2.3 2.1.4 2.9-.3 2.7-2.3-.1-1.2-.7-2.4-1.3-2.6-.7-.2-.9.7-.6 2.4l.5 2.7-2-2.4-2-2.4.3 2.7c.2 1.5.9 3.4 1.6 4.3.8.9.8 1.5.2 1.5-1.6 0-4.1-4-3.6-5.5.3-.7.1-1.6-.5-1.9-.6-.4-.9.3-.7 1.6.4 3.6 1.6 5.7 3.7 6.3 1.1.4 1.7 1 1.5 1.3-.6 1 13.8.9 14.5 0 .3-.5.4-2.9.3-5.4-.2-3.7 0-4.3.9-3 .7.8 2.4 1.9 3.8 2.5 1.7.6 2.5 1.6 2.4 3-.2 2.9-1.2 3.6-2.9 2.2-1.4-1.2-3.6-.8-3.6.7 0 1.2 6.3 1.2 7.9-.1.9-.7 1.2-.8.8-.1-.5.8 12.1 1.2 46.4 1.2 36.4.1 46.8-.2 46.2-1.1-.5-.9-.3-.9.8 0 2 1.6 11.1 1.5 10.2-.1-.4-.6.1-.5 1 .3 1.2.9 1.7 1 1.7.2 0-.7.5-.9 1.3-.4 1.6 1.1 20.7 1.1 20.7 0 0-.5-.7-.6-1.6-.3-1 .4-1.4.2-1.1-.6.2-.7 1-1.2 1.6-1 .8.1.9-.2.5-.9-.5-.9-.2-1 1-.6 1.1.4 1.5.3 1.1-.4-.4-.6-1.4-.8-2.2-.5-.9.4-1.3.1-1.1-.6.5-1.5 3.8-1.9 3.8-.5.1.7.6.3 1.3-.8 1.4-2.3 4.2-3.3 3.4-1.2-.3.7.1 1.4.8 1.4 1.6 0 .4-3.1-1.7-4.3-.6-.4-.8-.3-.5.3.3.5 0 1-.8 1.1-.8.1-2.2.3-3 .4-.8.1-1.1.6-.8 1.2.4.6-.2.4-1.2-.4s-1.6-1-1.2-.3c.5.8.1 1.1-1.4.8-3-.6-3-.7-.8-3.4 1-1.3 1.9-1.8 1.9-1.3 0 .6-.4 1.4-1 1.7-.6.3-1 1.2-1 1.8 0 .7 1.1 0 2.4-1.4 1.9-2.3 2.4-2.4 3.3-1.1.6 1 1.4 1.2 2.3.7 1.1-.7 1-1-.6-1.6-1.6-.6-1.6-.8-.2-.8.9-.1 2 .4 2.4 1.1.5.7 1.1.5 2.1-.7.7-1.1 1.3-1.3 1.3-.6 0 .7.5.9 1 .6.8-.5.7-1.1-.1-2.1-1.8-2.2-.2-1.7 1.9.6 1.9 2 1.9 2 3.7 0 2.3-2.6 5.9-1 5.1 2.3-.3 1.2-.3 1.6 0 .9.3-.6 1-1.2 1.5-1.2.6 0 .8.4.5.8-.3.5.1.9.9.9s1.3-.5 1.2-1.1c-.1-.5.3-1 .8-1.1.6 0 1.6-.4 2.3-.8 1.4-1 3.5.1 2.7 1.4-.3.5.1.6.9.3 1.2-.5 1.2-.8-.2-2.3-2.1-2.1-5.6-2.6-4.8-.6.3.9 0 1.2-.9.9-1.1-.5-1.2-1-.3-2.4 1.2-1.8 2.4-2 4.6-.6.9.5 2.2 0 3.6-1.3 2.2-2 2.4-2.1 3.7-.4.8.9.9 1.4.2 1-.6-.4-1.4-.3-1.8.3-.4.6-1.1.7-1.7.4-.7-.5-.8-.2-.3.6.5.9.4 1.1-.3.6-.7-.4-1.2-.2-1.2.3 0 1.5 1.7 1.4 2.6-.1.5-.7 1.1-.5 2.1.7.7 1.1 1.3 1.3 1.3.6 0-.7.5-.9 1.3-.5.9.6.9.5 0-.8-.7-.8-1-1.8-.6-2.1.3-.4 1.2.1 2 1.1 1.2 1.6 1.3 1.6.6-.2-.5-1.4-.3-1.7.7-1.1.8.5 1.1.4.7-.1-.3-.6.3-1.5 1.4-2.2 1.6-1.1 1.9-.9 1.9.9 0 1.3-.4 1.8-1.2 1.3-.7-.4-.8-.3-.4.5 1.2 1.9 2.6.2 2.4-3-.1-1.7-.6-2.5-1.1-2-.5.5-1.7.7-2.6.4-1.4-.4-1.4-.3-.1.7 1.3 1 1.3 1.1 0 .7-.8-.2-2.2.2-3 .9-1.3 1.1-1.8 1-2.8-.6-.7-1.2-.8-2-.2-2 .5 0 1 .4 1 1 0 .5.5 1 1.1 1 .6 0 .8-.9.4-2.3-.4-1.5-.3-1.8.3-.8.7 1 1.4 1.1 3.1.2 1.1-.7 2.1-1.6 2.1-2.1 0-.6.8-.2 1.8.8 1 .9 1.7 2.7 1.6 3.9-.1 1.3.1 2.5.6 2.8.5.3.7-.3.5-1.2-.1-1 .2-2.6.7-3.5.7-1.5 1.2-1.6 2.8-.6 1 .7 1.6 1.6 1.3 2.2-.4.5-.1.6.7.1 1-.6.7-1.3-1.1-2.7-1.5-1.1-1.8-1.8-.9-1.7 2.2.3 5.1-1.2 4.4-2.2-.5-.9 1.1-1.4 3.1-.9.6.1 1.5.3 2 .4.6.1 2.1.8 3.5 1.5l2.5 1.2-2.4-1.9c-1.3-1.1-2.1-2.4-1.7-3.1.4-.6.2-1.1-.5-1.1s-.9-.3-.6-.6c.4-.4 1.3-.1 2.2.6 1.2 1 1.8 1 3 0 .8-.7 1.2-1.6.9-2.1-.3-.5.2-.6 1-.3 1.1.4 1.3 0 1-1.8-.3-1.7-.2-1.9.3-.5.8 1.6 1 1.6 2.6-.3 1-1.2 2.2-1.8 2.7-1.5.6.3 1 .1 1-.5s.5-.8 1-.5c.6.3 1 0 1-.8 0-.7 1.1-2 2.5-2.7 1.3-.7 2.2-1.7 1.9-2.1-.2-.4 0-1 .5-1.3.5-.4.8.2.7 1.1-.2.9-.8 1.9-1.4 2.1-.7.2-.9.8-.6 1.3.4.6 1.1.6 1.9-.1 1-.8 1.9-.8 3.4-.1 1.1.6 2.6 1.1 3.3 1 .7 0 .3-.4-.9-.9-1.3-.5-2.3-1.7-2.2-2.7 0-1.6.1-1.6.8.1.7 1.7.8 1.8 1.4.3.3-.9 1.2-1.4 2-1.1 1.5.5 1.6 3.1.2 5.4-.8 1.3-.6 1.3.8.1 1.6-1.3 1.8-3.5.4-5.8-.4-.6-.3-1.4.3-1.8.9-.6 1.4.1 1.1 1.7 0 .5.3.8.9.8.5 0 .8.6.6 1.2-.1.7-.1 1 .1.5.3-.4 1-.4 1.5-.1.7.5.8.2.2-.7-.5-.8-.9-1.8-.9-2.4 0-.5-1.1-1.5-2.5-2.2-1.5-.8-1.9-1.3-1-1.3.9 0 2.1.5 2.7 1.1.8.8 1.3.8 1.7 0 .4-.6.3-1.1-.2-1.1s-.9-.7-.9-1.6c0-1.4.2-1.5 1.1-.2.6.8 1.5 1.5 1.9 1.6.5 0 1.2.4 1.5.8.4.4.1.4-.7-.1-1-.6-1.2-.4-.6.5s.4 1.1-.5.5c-.9-.6-1.1-.4-.5.5.6.9.4 1.1-.4.5-1-.6-1.1-.3-.2 1.4 1.4 2.5 2.3 2.8 1.4.5-.5-1.4-.3-1.5 1.8-.5 2.3 1.1 2.3 1.1.5-.3-1.8-1.5-1.5-2.1.7-1.7.5.1.6-.3.3-.8-.4-.5-.2-1.2.4-1.6 1-.6 1.3.3 1.3 3.7 0 1 .3 1.5.8 1.3.8-.6.5-3.8-.6-5.4-.3-.5-.1-1.2.5-1.6.5-.3 1 .2 1 1.1 0 1 .3 1.5.6 1.1.3-.3.3-1.5-.1-2.6-.6-2-.7-2-3 .7-1.4 1.5-2.5 2.2-2.5 1.5 0-.7-1.2-2-2.7-2.8-1.6-.9-1.9-1.3-.8-1 3.4 1.1 3.7 1 4.3-.4.2-.8 0-1.1-.5-.8-.5.3-.9-.3-.9-1.4 0-1.8.2-1.8 1.2-.5.6.9 1.5 1.2 1.9.8.5-.4.1.5-.8 2-1 1.6-1.3 2.8-.8 2.8.6 0 1.5-.9 2.1-2 .6-1.1 1.6-1.7 2.2-1.4.8.5.9.1.5-1.2-.7-1.9-.7-1.9.8 0 .8 1.1 1.8 1.7 2.1 1.3.4-.4.1-1.5-.7-2.4-1.2-1.7-1.2-1.7.5-.1 2 1.8 1.2 4.3-1.1 3.4-.8-.4-1.1-.1-.8.5.4.6 1.3.8 2 .5.7-.2 1.7 0 2.3.6.6.6 1.2.6 1.7-.3.5-.7.4-1-.3-.5-.6.3-1.3.2-1.7-.4-.3-.5.3-1 1.4-1 1.2 0 2.1-.5 2.1-1.1 0-.5.5-.7 1.2-.3.6.4.8.3.4-.4-.3-.6-.2-1.3.4-1.7.5-.3 1 0 1 .7 0 1 .3.9.9-.2.6-.8.7-1.8.5-2.2-.3-.4-.1-.8.5-.8.5 0 1.3.4 1.6 1 .3.5 1.2 1 1.8 1 .7 0 .6-.4-.3-1-1.6-1-1.3-1.2 1.9-1.4 1.1 0 2.3-.5 2.8-1 .4-.5.3-.6-.3-.3-1.6.9-2.6-1.9-1.1-3.2.8-.6 1.8-.6 2.7-.1.8.6 2 1 2.5.9.6 0-.1-.6-1.5-1.3-1.4-.8-2.9-1.2-3.4-.9-.5.4-.6.1-.2-.5.3-.6-.2-1.5-1.1-2.1-1.7-1-1.7-1 0-1.1.9 0 1.7.5 1.7 1.1 0 .5.4.8 1 .4.5-.3.7-1.2.3-2-.3-.8 0-1.5.7-1.5.6 0 .9.4.6.9-.3.5.1 1.2 1 1.5.9.3 1.4 1.2 1.1 1.9-.3.8.1 1.4.8 1.4 1 0 1.1-.5.5-1.7-.5-1-.6-2.1-.2-2.5.4-.5 0-.5-.8 0s-1.2.5-.8 0c.4-.4.3-1.4-.3-2.2-.9-.9-.8-1.3 0-1.3.6 0 1.1.5 1.1 1.1 0 .5.5.7 1.2.3.7-.4.8-.3.4.4s-.3 1.2.3 1.2.7.7.4 1.7c-.4 1.1-.3 1.4.6.9.6-.4.9-1.6.6-2.6-.3-1 0-2.2.6-2.6.8-.4.9-.3.5.4s-.2 1.2.3 1.2c.6 0 1.1.8 1.2 1.7 0 1.3.3 1.1 1-.7 1.4-3.3 2-6.4 1.1-5.6-.4.4-.8 1.2-.8 1.7-.4 3-.6 3.2-1.3 1.5-.5-1.3 0-2.6 1.7-4.3 1.9-1.9 2.1-2.7 1.2-3.8-.7-.8-1.7-1.2-2.3-.8-.6.3-.7.1-.3-.5 1.1-1.8 4.4.8 4.2 3.4 0 1.2-.5 2-.9 1.7-.5-.3-.4.4.2 1.4.6 1.1.7 2.4.3 2.8-.4.5-.2.5.5.1.6-.3 1-2 .8-3.6-.4-2.8-.2-2.9 1.7-1.9 1.2.6 1.8.7 1.4.1-.6-1 2.2-2.7 3.8-2.3.5.1.4-.5-.3-1.3s-1.8-1.3-2.5-1c-.7.3-1.9-.3-2.6-1.3-1.2-1.5-1.2-1.6 0-.5 2.1 1.8 3.4 1.5 1.9-.6-1.3-1.5-1.2-1.6.3-.4.9.7 1.8.9 2 .5.3-.4.4-.3.3.2-.2.6.8 1.8 2 2.7 2.1 1.6 2.2 1.6 2.1-.5-.1-1.6.4-2.1 1.9-2 1.1.1 1.4 0 .7-.3-.6-.3-.9-1-.6-1.5.3-.6 1.1-.6 2 .2.7.6 1.1 1.6.7 2.2-.3.5-.2.7.4.4 1.1-.7 1-4.3-.2-5.4-.4-.5-.5-.2-.1.4.4.7.3 1.3-.2 1.3-1.7 0-2.2-1.3-1.1-2.7.9-1.1 1.5-1.1 2.8-.1.9.7 1.3.8.9.4-.4-.5 0-1.4.9-2.1 1.4-1.1 1.4-1.2-.3-1-1.1 0-2.6.5-3.3 1-.9.5-1.2.4-.7-.3.3-.6-.2-1.5-1.1-2.1-1.9-1.1-1.7-1.1 3.2-1.6 1.7-.2 2.4-.1 1.8.2-.7.2-1.3.9-1.3 1.5s.7.5 1.6-.3c1.3-1 1.7-1 2.4.2.7 1 .9.8.7-.8 0-1.2-.6-1.9-1.2-1.6-.5.3-.5 0 .2-.7 1-1.1.9-1.6-.5-2.7-1.5-1.2-1.4-1.3.7-.2 2.1 1 2.3.9 1.8-.5-.5-1.3-.3-1.5 1.2-.7 1 .6 2.2.7 2.6.3.5-.4.5-.1.1.6s-1.2.9-1.8.6c-.7-.5-.8-.2-.3.6.6.9.4 1.1-.5.5-.9-.6-1.1-.4-.5.5.6.9.4 1.1-.4.5-1-.6-1.1-.3-.2 1.4.7 1.2.9 2.6.6 3.1-.3.5-.1 1.1.4 1.4.6.4.8-.7.6-2.4-.3-2.1-.1-2.8.7-2.4.6.4.9.3.6-.2-.7-1.2 1.7-3.5 2.7-2.6.4.4.2-.3-.5-1.5-.8-1.1-1.9-1.9-2.6-1.6-.6.2-1.5-.1-2-.8-.4-.8-.3-1 .5-.5.6.4 1.8.2 2.6-.4 1.2-1 1.9-1 3.3.1.9.7 1.4 1 1.1.6-.4-.5.3-1.9 1.4-3.2 1.7-1.8 2.5-2.1 4-1.3 1.4.7 2.2.6 3.1-.3.8-.9.8-1-.1-.5-1.6.9-4.3-.4-4.3-2.1 0-.8-.4-1.2-.9-.8-1.5.9-2.5-1.5-1.2-2.8.9-.9 1-.7.5.7-.5 1.3-.4 1.7.3 1.3.6-.4 1.6 0 2.3.8.8 1 1.8 1.2 2.9.6.9-.4 2.6-.7 3.8-.6 1.2.1 2-.2 1.7-.7-.3-.5-1.1-.7-1.7-.5-.7.2-1.9-.2-2.9-1-1.2-1.1-1.8-1.1-2.4-.2-.4.7-.3 1 .4.5.6-.3 1.3-.2 1.6.3.3.5 0 1.1-.8 1.4-.8.3-1.8-.4-2.4-1.7-.9-2-.8-2.3 1.1-2 1.2.1 3.1.5 4.2.9s1.6.3 1-.2c-2.4-2-1.3-3.9 1.8-3.4.5.1.6-.3.2-.9-.3-.5.1-1.3 1-1.6 1.1-.5 1.3-1 .5-1.9-1-1.2-.4-2.5 1.2-2.5.5 0 .7.4.4.9-.3.5.2 1.5 1.2 2.2 1.5 1.3 1.6 1.2.4-.3-1.4-1.7-.1-3.5 1.8-2.3.6.3 1 .4 1 .1 0-.3-1-1-2.1-1.7-1.5-.7-1.9-.8-1.5 0 .5.7.1.9-.9.5-1.4-.6-1.3-.9.5-2.1 1.4-1 1.9-2.1 1.5-3.2-.5-1.2-.4-1.3.6-.4 1 1 .9 1.5-.1 2.8-.8 1-.9 1.5-.2 1.5 1.6 0 3.4-3.7 2.2-4.5-1.7-1.1-1.1-2.4 1-2 1.7.3 1.9 0 1.5-2.6-.3-1.6-.2-2.9.3-2.9 1.2 0 4.9 2.9 3.7 3-.6 0-1.6-.5-2.2-1.1-.7-.7-1-.2-.9 1.8.1 1.9-.3 2.7-1.3 2.5-.9-.2-1.1.3-.7 1.3.3.9.1 2.6-.6 3.8-1 1.9-.9 2 .4 1 .8-.7 1.7-1 2-.8.3.3.3-.7 0-2.2-.5-2.5-.4-2.7 1.1-1.4.9.7 1.4 1.8 1 2.5-.3.6 0 .6.7-.1 1.2-1.1 1.1-1.5-.5-2.7-1.8-1.3-1.8-1.4.2-3.1 1.2-1 1.9-2.4 1.6-3.2-.3-.9 0-1.1 1-.7 1.8.7 3.2-1.2 1.6-2.2-.8-.4-.9-.3-.5.4s.3 1.2-.2 1.2c-1.4 0-2.1-1.1-1.5-2.6.4-1 1-1.1 2.5-.3 1.1.6 2.2.8 2.6.5.3-.3 0-.6-.7-.6s-1-.4-.6-1c.3-.5 1.3-.7 2.3-.4.9.3.6-.1-.7-.9-1.3-.8-2-1.7-1.4-2 .5-.3 1.5-.2 2.3.4.8.5 2 .9 2.5.8.6 0-.2-.6-1.7-1.4-3.3-1.8-6.5-1-4.7 1.1.7.8 1 1.7.7 1.9-.8.9-3.6-.6-4.2-2.1-.3-.9-.1-1.2.4-.9.6.3 1.3-.1 1.6-.9.3-.9 1-1.3 1.5-1 .5.3.9 0 .9-.7s.3-.9.7-.6c.3.4 1.3.2 2-.5 1.1-.9 1.7-.9 2.4.3.7 1.1.9 1 .9-.6.1-2 .1-2 1.5-.1.8 1.1 1.5 1.6 1.5 1 0-2-1.7-3.3-3.8-2.9-1.2.2-2.4-.1-2.7-.6-.4-.5-1.1-.6-1.7-.3-.7.4-.8.2-.4-.5.6-.9 1.1-.9 2.4.1 1.3 1.1 1.5 1 .9-.4-.3-1-.2-2 .4-2.3.5-.4.9-.3.8.2-.1.4-.1 1.5.1 2.3.1 1.1.4.9.9-.5.5-1.1.4-2.5-.1-3.2-.5-.7-.5-1.4.1-1.7.6-.4.8-1.3.4-2.1-.3-.8 0-1.5.7-1.5.6 0 .9.4.5.9-.3.5-.1 1.2.4 1.6 1 .6.7 3.7-.5 5.7-.4.6-.3.8.4.4.5-.3 1.3 0 1.6.6.4.9.5.8.5-.2-.2-3 .1-4.1 1.1-3.5.6.3 1 .1 1-.4 0-.6-.5-1.1-1.1-1.1-.5 0-.7-.5-.3-1.2.5-.7.3-.8-.6-.3-1 .6-1.2.4-.7-.8.3-.9.2-1.9-.3-2.2-.6-.4-1-1.2-.9-1.8 0-.9.2-.8.6.1.2.6.9 1 1.4.6.5-.3.5-1.2 0-2.3-.8-1.3-.5-1.7 1.2-1.8 1.2 0 1.6.1 1 .4-.7.3-1.3.9-1.3 1.4 0 .6.4.8.9.4.5-.3 1.6.4 2.4 1.5 1.4 2 1.5 2 1.5-.6 0-1.8-.3-2.2-.9-1.3-.5.9-.8.6-.6-1.1.1-1.4.7-3.1 1.5-3.9.7-.7 1.1-2 .8-2.7-.3-.9 0-1.1 1.1-.7 1 .4 1.4.2 1-.4-.4-.6.3-.9 1.8-.8 1.3.2 3-.3 3.6-1.1.7-.9.8-1.4.3-1.3-2 .3-2.4-.2-1.2-1.5.7-.8 1.8-1.1 2.3-.8.6.3.3-.2-.5-1.3-1.4-1.7-1.3-1.7 1-1.1 2.3.6 2.3.6.5-.5-1.1-.7-2.3-1.7-2.6-2.2-.4-.5-.9-.5-1.3.2-.4.6-.1 1.1.6 1.1.9 0 .9.3-.2 1-1.2.8-1.2 1-.1 1 1.1 0 .9.5-.5 2.1-1 1.2-1.8 2.3-1.6 2.5.1.2-.1.4-.5.3-.5 0-.7-.7-.5-1.5.3-1.3-1-1.9-3.1-1.5-.5.1-.6-.3-.2-.9.4-.7 1.3-.7 2.6.1 2.8 1.4 3.7.3 1.3-1.6-1.8-1.4-1.8-1.5 0-.9 1.6.6 1.7.4.7-1.4-.9-1.8-.9-2.1.3-1.6 1.1.4 1.4-.1 1.2-2-.2-1.4 0-2.3.4-2.1 1.1.7 2.2-2.4 1.3-3.7-.3-.7-.1-.8.6-.4s.9 1.6.5 2.8c-.6 1.9-.5 1.9 2 .3 2.2-1.5 2.4-2 1.4-3.3-1.1-1.3-1.1-1.4.1-.8 1 .7 1.2.3.6-1.5-.9-2.8-.3-2.4 1.5 1 .6 1.3.8 2.1.3 1.8-.5-.4-1 0-1 .8 0 2.2.9 1.8 3.5-1.6 2.1-2.5 2.2-3.2 1.1-4.6-1.2-1.4-1.1-1.5 1.1-.9 1.4.4 2 .4 1.3-.1-.8-.5-.9-1.4-.3-2.3.5-.9.5-1.9-.2-2.8-.8-.9-.8-1.6 0-2.4.6-.6.8-1.8.4-2.7-.5-1.4-.4-1.4 1.1-.2 1.1.9 1.7 1 1.7.2 0-.6-.4-1.1-1-1.1-.5 0-1-.5-1-1.1 0-.6.7-.9 1.5-.6.8.4 1.7.1 2.1-.5.4-.6.3-.8-.3-.5-1.9 1.2-2.4-2.5-.6-3.8 2.3-1.7 3-1 1.2 1.2-1.3 1.6-1.2 1.7.3.4 1.9-1.4 1.9-4.4 0-6.3-.9-.9-1.1-.7-.8.8.3 1.3-.4 2.5-1.6 3.3-1.1.7-1.7.8-1.4.3.3-.6-.6-2-2-3.1-1.5-1.2-2.2-2.1-1.7-2.1.6 0 1.6.6 2.3 1.4 1.3 1.6 4.1 1.1 3.7-.7-.1-.7.5-1 1.3-.8 4 .9 5.8.7 5.3-.5-.2-.7-1.3-1.1-2.3-.9-1.4.3-1.7-.1-1.3-1.3.6-1.5.5-1.5-1-.3-1.9 1.5-1.9 1.5-2.2-1.6-.1-1.2.1-2 .6-1.7.4.2.5 1.2.2 2.2-.6 1.4-.4 1.5.9.5.8-.7 1.8-1 2.1-.6.4.3.7.1.7-.5s-.8-1.6-1.7-2.1c-1.6-.9-1.6-1-.2-1.1 1.9 0 3.3 2.6 2.2 4.2-.3.7-.1.8.5.4.6-.3 1.5.2 2.1 1.1.6 1 1.1 1.4 1.1 1 0-.4-.7-1.8-1.5-3.1-1.4-2.1-1.4-2.4.1-3 .8-.3 2.1-.3 2.6.1.6.3.8.1.4-.5-.3-.6-.2-1.3.4-1.7.5-.3 1-1.2 1-1.8 0-.7-.5-.4-1.1.5-.5 1-1.5 1.8-2.1 1.8-.9 0-.9-.3-.1-1.1.6-.6.9-1.8.6-2.7-.5-1.1-.3-1.3.8-.7.8.4 1.1.5.7 0-.4-.4-.2-1.5.5-2.3.9-1.3.9-1.4 0-.8-.7.4-1.3.3-1.3-.2s.8-1.2 1.8-1.4c1-.3 1.9-1.2 1.9-2.1 0-.9-.4-1.4-.9-1.1-.5.3-.6 1-.3 1.5.4.5-.1.9-1 .9-1.2 0-1.4-.4-.6-1.9.6-1 .7-2.2.3-2.6-.4-.5 0-.6.9-.3.9.4 1.6.1 1.6-.8 0-.7-.4-1.1-.8-.8-.4.2-.8-.4-.8-1.3-.1-3.9-.5-5.3-1.3-5.3-1.1 0-.6 3.2.7 4.3.6.5.3.7-.7.3-1-.3-2-.1-2.3.4-.4.6-1.2 1-1.8 1-.8 0-.7-.4.2-.9.8-.5 1.6-1.7 1.7-2.7.5-3.2 2.3-3.9 4.3-1.7 1.1 1.1 1.7 2.4 1.3 2.9-.4.4-.1.4.6-.1 1.2-.6 1.1-1-.1-2.2-1.3-1.3-1.3-1.8.1-4.3 1.9-3.2 1.2-4.7-1.4-3.2-1.1.6-1.3 1.1-.5 1.6.6.4 1.1.2 1.1-.5s.2-1 .5-.7c.3.3.2 1.3-.1 2.2-.5 1.4-.9 1.5-1.5.4-.7-1-.9-1-.9-.1 0 1.4-2.9 1.8-3.1.5 0-.4-.2-1.4-.4-2.3-.2-1.2.3-1.5 1.6-1.2 1.1.3 1.9 0 1.9-.6 0-.7-.4-1-.9-.6-.5.3-1.3 0-1.7-.6-.4-.7-.3-.9.4-.5.5.3 1.3 0 1.5-.6.4-1 .6-1 .6 0 .1.7.6 1 1.1.7.8-.5.7-1.1-.1-2.1-.9-1.2-1.5-1.2-2.8-.2-1.4 1.2-1.4 1.1-.3-.4.8-1 1.7-1.7 2-1.6 2 .2 2.5-.4 1.2-1.3-1.1-.8-.9-.9 1-.4 2 .6 2.3.5 1.3-.6-.7-.7-1.3-2-1.3-2.9 0-.9.6-.5 1.3 1 1.3 2.4 1.2 5.4-.2 4.6-.4-.3-.7.6-.7 2 0 1.3.4 2.4.9 2.4s.7-.7.4-1.5c-.4-.8-.2-1.7.3-2 .4-.3 1 .1 1.3.7.4 1 .7 1 1.8 0 1.2-1.1 1.2-1.3 0-1-.7.2-1.6-.3-1.8-1-.3-.7.1-1 1-.6.8.3 1.8.1 2.2-.5.4-.7-.1-.9-1.2-.5-1.6.5-1.6.4-.2-.8 1-.8 1.5-2.6 1.4-4.6-.1-1.8.3-3.6.9-4 1.6-1 1.6-4.1 0-3.5-.7.2-1.2 1-1 1.6.1.7.1.9-.1.4-.6-.9-2.3.1-2.3 1.4 0 .6.6.7 1.3.3.6-.4.9-.4.5.1-.5.5-2.3 1-4 1.1-2.6.2-2.9.1-1.3-.6 2.6-1.1 5.5-4.6 4.7-5.6-.4-.4-.2-.4.5 0 .6.3 1.4.2 1.8-.4.6-1-.7-1.4-3.5-1-1 .1-.9-.3.5-1.3 1.7-1.3 1.8-1.7.5-3.3-.8-1.1-1-1.6-.6-1.2.5.4 1.4.3 2.1-.2.8-.7 1.2-.5 1.2.5 0 .8-.3 1.2-.7 1-.3-.2-.6.4-.6 1.4 0 1 .5 1.8 1.1 1.8.6 0 1-2.8 1-6.8 0-3.7-.3-6.5-.8-6.2-.4.2-.7-.1-.7-.6 0-.6.4-1.1.8-1.1 1.1 0 .9-14.2-.2-15.9-.6-.9-.5-1.2.1-.8.7.4 1-.5.9-2.3 0-2.2-.5-2.9-1.6-2.5-1.3.4-1.3.4 0-.7 1.8-1.6 2.3-12.9.6-14-.8-.5-.7-.8.2-.8 1 0 1-.5.1-2.1-.6-1.2-.7-1.9-.1-1.6 1.1.8 1-6.3-.2-8.2-.6-1-.5-1.2.2-.7 1.4.8 1.2-2-.2-4.3-.5-.8-.5-1.2 0-.9.5.4 1-.4 1-1.7.1-1.8-.3-2.3-1.8-2-1.2.3-1.7.1-1.4-.3.4-.4 1.3-.7 1.9-.7 1.4 0 1.6-3.2.4-5.9-.6-1.1-.5-1.6.1-1.2.6.3.9-4.9.7-14.1l-.2-14.6-2.9-2.4-2.9-2.5 3.1 1.5c2.9 1.5 3 1.5 3-.9 0-1.4-.6-2.4-1.4-2.4-1.2 0-1.2.2-.1 1.7 1.3 1.5 1.2 1.5-.8.2-1.3-.8-2.3-1.7-2.3-2.2 0-.4.4-.6.9-.3.4.3.8-1 .7-2.9-.1-2.3-.5-3.4-1.3-3.1-1.6.6-2.7-1-1.3-1.9.5-.3 1-1.1 1-1.6 0-.6-.4-.8-.9-.5-.5.4-.4-.5.2-1.9.7-1.4 2-2.8 3-3.1 1.8-.6 2.4-2.4.7-2.4-.5 0-1 .4-1 1 0 .5-.4 1-.8 1-.5 0-.9-.7-.9-1.5 0-1.3.9-1.9 2.8-1.7.3.1.6-.5.6-1.3s-.4-1.2-.8-.9c-.4.2-.9.1-1.2-.3-.2-.5-.2-.2 0 .5.1.8-.3 1.2-.9.9-.7-.2-1.2-1.1-1-2.1.2-.9-.2-1.6-.8-1.6-.6 0-.9-.4-.5-.9.3-.5 0-1.3-.6-1.7-.8-.4-.9-.3-.5.4s.2 1.2-.3 1.2c-.6 0-1.1-.7-1.1-1.5s.5-1.5 1-1.5c.6 0 1-.5 1-1 0-1.8-1.8-1.1-2.5.9-.6 1.9-2.7 2.2-4.2.7-.4-.4-.3-.7.2-.6 2.7.6 3.3-.2 3-4.1-.3-3.3-.1-3.8 1-2.9.8.6 1.1 1.9.8 2.8-.4 1.4-.3 1.5.6.2.7-1 .6-1.9-.3-3-.7-.8-1.2-2.7-1.1-4.2.1-1.5-.1-2.5-.6-2.3-.7.5-2.3-2.4-2.1-3.8.1-.4-.5-.7-1.5-.7-1.5 0-1.5.2.1 1.9 1.3 1.4 1.4 2.1.5 2.6-.8.6-.7 1 .4 1.6.8.5 1.4 1.7 1.3 2.7-.2.9-.7 1.5-1.2 1.2-.5-.3-.7-1.1-.6-1.9.2-.7-.1-1-.6-.7-.6.3-.9-.2-.8-1.1.2-1-.2-2.1-.8-2.5-.8-.5-.7-.8.2-.8.7 0 1-.5.7-1-.4-.6-1.1-.8-1.6-.5-.5.4-.9.2-.9-.4 0-.5.9-1.3 2-1.6 1.1-.4 1.8-1.1 1.4-1.6-.3-.6-1.2-.5-2.2.3-1.5 1.1-1.5 1.1-.5-.3 1.5-1.8.8-3-1.3-2.2-.8.3-1.4 0-1.4-.6s.3-1 .8-1c1.9.3 2.1-.3.7-2.5-1.2-1.8-1.3-2.6-.4-3.2.9-.5.8-1-.5-1.9-1.5-1.1-1.5-1.3-.1-1.9.9-.3 1.3-.2 1 .4-.3.6.1 1.3.9 1.6.9.3 1.6 1 1.6 1.6 0 .5-.6.6-1.2.2-.8-.5-.7 0 .2 1.1.9 1.1 1 1.6.3 1.1-1.8-1-1.6.2.2 2.1.8.8 1.4 1.8 1.2 2.1-.2.4.4 1.5 1.5 2.4 1 1 1.8 1.4 1.8.9 0-.6-.4-1.3-1-1.6-.5-.3-1-1.1-1-1.8 0-.8.3-.8 1.2.1.7.7 1.6 1.2 2.2 1.2.5 0-.4-1-2.1-2.3-3.9-2.9-4-3.1-2.5-5 1.1-1.3 1-1.6-.8-2.2-1.2-.4-1.9-.9-1.6-1.2.3-.3 0-1.5-.6-2.6-.9-1.7-.8-1.9.6-1.4 1 .4 1.5.3 1.1-.2-.3-.5.1-1.2.7-1.5.7-.3.2-.3-1.1 0-1.7.4-2.1.3-1.6-.6.5-.8 0-.7-1.4.2-1.2.7-2.1 1.6-2.1 2.1 0 .4.4.6.9.2.5-.3 1.2-.1 1.5.4.7 1.1-1.2 2.6-2.1 1.7-.4-.3-.7-1.6-.9-2.9-.4-3.3-.4-3.3-1.2-2-.6.9-1.2.7-2.5-.7-1.6-1.9-1.6-2 .6-1.6 1.2.3 2.4.5 2.7.6.3.2.9.2 1.3.1.5-.1.5.4.1 1.1-.6 1.1-.4 1.1.7 0 1.1-1 .9-1.5-.9-2.8-1.9-1.3-2.1-1.8-1-3.2 1-1.2 1-1.4.1-.8-.8.4-1.3.2-1.3-.6 0-.7-.5-.5-1.1.6-.9 1.4-.8 2.1.2 2.8 1.1.8 1.1.9-.1.5-.8-.2-2.4 0-3.5.6-1.1.5-1.7.6-1.3.2.4-.5.2-1.5-.5-2.4-1.1-1.4-1-1.4.6-.2.9.8 2.1 1.1 2.4.7.4-.4.1-1.2-.7-1.7-1.2-.9-1.2-1 .3-.5 1.3.4 1.7 0 1.7-2 0-1.4.4-2.2 1-1.9.6.3 1 .1 1-.4 0-.6-.4-1.1-.9-1.1-1.3 0-3.2 2.6-2.4 3.4.4.4 0 .4-1 0-.9-.3-1.7-1-1.7-1.6 0-.5.5-.6 1.2-.2.8.5.9.2.5-1-.4-.9-.3-1.4.2-1.1.5.3 1.2.1 1.6-.5.3-.5-.2-1-1.2-1s-2.5-.5-3.3-1.1c-1.2-.8-1-.9.8-.4 1.9.6 2.3.3 2.1-1.2-.2-1 .2-2.8.9-4 1.1-2 1-2.1-.8-1.8-2.5.5-2.7-1.2-.2-1.8 1.6-.4 1.6-.5-.1-.6-1 0-1.5-.5-1.2-1.1.4-.6-.1-.7-1.2-.3-1.6.6-1.7.5-.3-1.2.9-1.1 1-1.6.3-1.1-.7.4-1.3.3-1.3-.3 0-.5.3-1.1.8-1.4.4-.2.1-.2-.6-.1-.7.2-1.7-.6-2.2-1.9-.6-1.4-.9-1.7-1.1-.7-.1.8-.3 1.9-.4 2.5-.2.5-.3 1.6-.4 2.2 0 .7-.9 1.3-1.8 1.3-1.5 0-1.4-.2.3-1.6 1.6-1.3 1.6-1.5.2-1-1 .3-2 .1-2.3-.5-.4-.5-1.1-.7-1.6-.4-.5.4-.9.2-.9-.4 0-.5.5-1.1 1.2-1.3.7-.3.9-1.2.5-2.2-.5-1.3-1.1-1.5-2.6-.6-1.4.7-2.2.7-2.7-.2-.4-.6-.3-.8.2-.5.6.3 1.6.2 2.4-.4 1.3-.7 1.3-.9.1-.9-1.1 0-1-.3.3-1.3 1.7-1.2 1.6-1.5-.8-4.4-1.5-1.7-2.5-3.5-2.4-4 .5-1.5-3.7-6-5.2-5.5-1.9.6-1.1-.2 1.7-1.6 1.9-1.1 2-.9 1.5 1.1s-.4 2.1 1.3.7c1-.8 1.6-1 1.2-.4-.4.7 0 1.7.8 2.4.7.6 1.2 1.7.9 2.4-.2.6.4 1.2 1.6 1.3 1.1.1 2-.3 2-.8 0-.6-.4-.8-.9-.5-.5.3-1.2-.2-1.6-1.2-1.3-2.8-1.4-4.2-.4-4.8.5-.3.9-1.1.9-1.7 0-.8-.4-.7-.9.2-1.2 1.9-4.1 2.3-3.4.5.3-.8 0-1.4-.7-1.4s-1-.8-.7-2c.4-1.6.2-1.8-1.3-1-2.1 1.1-3.9-.5-3.5-3.3.2-.9-.1-1.5-.6-1.1-1.5.9-1-.8.7-2.7 1.7-1.8.2-2.2-2.3-.6-1.6 1-1.7-.5-.1-2.1.9-.9.9-1.2-.2-1.3-.8-.1-1.9-.1-2.4 0s-.6-.5-.2-1.4c.3-.9.2-1.3-.3-1-.5.3-1.2.1-1.6-.5-.3-.5-1.2-1-1.8-1-.8 0-.8.3-.2.8 1.5 1.1 1.8 4.2.4 4.2-.7 0-.9-.3-.6-.6.3-.4.2-1.4-.3-2.3-.8-1.6 0-4.4 1.4-4.2 1.9.3 2.6 0 2.6-1 0-.6-.5-.7-1.2-.2-1.9 1.1-3.7 1.2-4.4.2-.3-.5 0-.9.7-.9.8 0 .7-.5-.2-1.7-1.2-1.5-1.2-1.6.3-1 1 .3 2 .2 2.2-.2.6-.9-1.7-.7-5.1.4-1.3.4-2 1.2-1.6 1.9.3.6.3.8-.2.4-.4-.4-1.4 0-2.2 1-1.3 1.5-1.3 1.5-.3-.6s.7-2.6-1.3-2.3c-.5.1-.5-.4-.1-1 .5-.9.2-1-1-.6-.9.4-1.5.3-1.2-.2.3-.5 1.7-.9 3.2-.9 1.6 0 2.1.3 1.4.8-.9.5-.9.9-.1 1.4.6.4 1.1.2 1.1-.4 0-.6.5-.8 1.3-.4.8.5.8.2-.2-.9-1-1.3-1.1-2-.2-3 .8-1 .7-1.4-.4-1.4-.8 0-1.2.4-1 .8.3.4-.2 1-1.1 1.3-2.3.9-2.8.7-1.7-.7 2.1-2.6.8-6.7-2.2-6.7-.5 0-.3.5.5 1s1.1 1 .6 1c-.5 0-.3.6.3 1.4.9 1.1.9 1.6 0 2.2-.8.4-.9.3-.5-.4s.3-1.2-.1-1.2c-.5 0-1.3-1-1.8-2.3-.6-1.2-1.6-2.1-2.3-2-.7.2-1.1 0-1.1-.5.3-1.9-.2-2.5-1.1-1.2-.7 1.1-1 1.1-1 .2 0-.7-.4-1.1-.8-.8-.4.2-.9-.5-.9-1.7-.2-1.8 0-1.9.8-.7.9 1.3 1 1.3.6 0-.2-.8-1.1-1.4-2.1-1.2-.9.2-1.6-.2-1.6-.7 0-.6-.6-.9-1.2-.7-.7.1-1 .1-.5-.1.4-.3.4-1 0-1.6-.5-.8-.2-.8.9 0 .8.7 1.9.9 2.3.5.5-.4.5-.1 0 .7-.5.9-.4 1.2.3.7 1.5-.9 3.7.5 3.7 2.4 0 .8.6 1.4 1.3 1.2.8-.1 1.1.2.6.9-.5.8-.3.9.6.4.9-.6 1.1-.4.5.5-.6.9-.4 1.1.5.5.8-.5 1.1-.4.7.3-.5.6.1.8 1.5.4 1.6-.4 1.8-.7.8-1-2.5-.9-4.2-3.2-3.6-4.8.3-.8.2-1.3-.3-.9-1.6.9-4.3-.7-3.8-2.4.3-1.2-.3-1.7-1.7-1.8-1.2-.1-1.5.1-.8.4.6.3 1.2.9 1.2 1.4 0 1.2-8-2.8-8.1-4.1-.1-.6-.2-1.5-.3-2.2 0-.6-.7-1.3-1.4-1.6-.8-.2-1 .2-.5 1.5.3 1 .3 1.5-.1 1.1-.4-.3-.8-1.2-1-2-.1-.7-.5-1.9-1-2.7-.7-1.1-1.3-.9-2.8 1-1.9 2.3-1.5.7.5-1.9.7-.9 1.3-.9 2.3-.1.8.6 1.4.7 1.4.3 0-.5-.9-1.5-2.1-2.2-1.6-1-1.8-1.6-.9-2.7 1.1-1.3.9-1.3-2.9-.6-.2.1.2.7.8 1.4.8 1 .7 1.9-.3 3.3-.8 1-1.8 1.6-2.2 1.1-.4-.4-.2-.7.4-.7.7 0 1.2-.5 1.2-1.1 0-.5-.6-.7-1.2-.3-1 .6-.9.3 0-.8 1.2-1.4 1-1.9-1.4-3.1-2.1-1.1-2.3-1.5-1.1-2 1-.4 2 0 2.5 1 .8 1.4 1 1.3 1.6-.2.9-2.6-.2-3.5-3-2.5-1.9.8-2.8.6-4.3-.9-1.1-1.1-2.1-1.9-2.3-1.8-.2.1.9-1 2.4-2.6 3.3-3.2 2.8-3.6-.9-.7-2 1.5-2.9 1.7-3.9.9-.8-.6-1.4-.8-1.4-.4s-.7.2-1.5-.5c-.9-.7-1.4-1.9-1.1-2.5.7-2-1.5-3.5-3.5-2.4-1.5.7-1.7.6-1.3-.6.3-.8 1-1.2 1.5-.9.5.3.9.1.9-.5 0-.5-.5-1.1-1.2-1.3-.9-.3-1.3-1.6-1.7-6.2-.1-.6-.8-.1-1.7 1-1 1.3-1.4 1.4-1.1.4.3-.9-.1-2.4-.9-3.5-.8-1-1.4-1.3-1.4-.7 0 .7-.5 1.2-1.2 1.2-.6 0-.8-.3-.5-.7.4-.3-.2-1.2-1.3-2-1.1-.7-1.7-2-1.4-2.8.4-.8-.1-1.8-1-2.1-.9-.3-1.3-1-1-1.5.3-.5 0-.9-.5-.9-1.6 0-1.3 2 .4 2.6.8.4 1.5 1 1.5 1.5 0 1.7-4.1-1.1-5.2-3.6-.6-1.3-1.9-2.6-3-2.8-1.1-.3-1.7-1-1.3-1.6.3-.6.1-1.1-.4-1.1-1.4 0-1.4 1.7-.1 2.5.6.3 1 1.1 1 1.7 0 .6-.9.3-1.9-.6-1.4-1.3-2.1-1.4-2.7-.5-.4.8-.3 1 .4.5.8-.5 1-.2.6.9-.5 1.3-.1 1.5 1.9 1.1 1.4-.2 2.8-.1 3 .2.2.4.2 0 0-.8-.3-1.1-.1-1.2.8-.3 1.6 1.6.2 3.5-1.9 2.4-.9-.4-2.3-.6-2.9-.4-.7.3-1.6-.2-1.9-1.1-.3-.9-.9-1.4-1.3-1.2-.4.3-1.3 0-2.1-.5-1.2-.8-1.1-.9.4-.7 1 .2 2.1-.2 2.3-.9.2-.6-.4-1-1.4-.9-2.4.4-7.3-1.3-7.3-2.6 0-.5-.5-.6-1.2-.2-.6.4-.8.3-.4-.4.3-.6-.8-2.7-2.5-4.6-1.7-2.1-2.7-4-2.3-4.7.4-.8.3-.9-.4-.5s-1.2.2-1.2-.4c0-.6-.5-.8-1.2-.4-.8.5-.9.2-.5-1 .5-1.2.3-1.5-.5-.9-2.1 1.2-4.9 1.1-4.4-.3.3-.7-.2-1.8-1-2.5-1.2-1-1.2-1.4-.2-2.2.9-.6.8-.7-.4-.3-1.6.5-2.3-.5-1.9-2.7.1-.5-.4-.5-1.1-.1-2 1.2-4.8 1.5-4.8.5 0-.5.6-1.2 1.3-1.4.9-.4.9-.6 0-.6-2.4-.2-2.5 2.2-.2 4.1 1.3 1.1 1.9 1.7 1.2 1.4-.6-.4-1.4.2-1.6 1.1-.4 1.4-.5 1.3-.6-.4-.1-2.4-1.6-3.9-2.5-2.4-.3.5-1.6.7-2.8.3-1.6-.4-1.9-.2-1.3.9.5.8.4 1 0 .6-1.3-1.2-1.5-3.9-.3-6 .7-1.4.6-2.2-.2-3.1-.8-.8-.9-.6-.4.8.7 1.8.6 1.8-1.8.2-1.3-.9-2.7-1.3-3.1-1-.3.4-1.7-.3-3.1-1.4l-2.5-1.9 2.2-1.2c2.1-1.1.6-.8-3 .6-1.7.6-1.7.5 0-1.4.9-1.1 1.7-2.3 1.7-2.7 0-.5-.8.2-1.9 1.5-1.7 2.1-1.9 5.5-.2 4.5.4-.3 1.3-.1 2.1.5 1.4.8.8 1.1-1.6.8-.3 0-1.2.8-2.1 1.8-.8 1-1.2 1.2-.8.5.3-.6.2-1.2-.4-1.2-.5 0-1.3-1-1.7-2.2l-.7-2.2-1.8 2.3c-1.1 1.3-1.9 1.9-1.9 1.4s1.2-2 2.8-3.4c1.5-1.3 2.4-2 2-1.5-.9 1.1.9 4.6 2.4 4.6.7 0 .6-.6-.3-1.6-1-1.3-1-2 .4-4.4 1.6-2.7 1.6-2.8 0-2.5-1 .2-2.1.4-2.5.4-.5.1-.8.7-.8 1.5 0 1.7-2.3 2.7-3.9 1.6-.9-.5-1-1-.2-1.4.6-.4 1.1-.1 1.1.6s.6.2 1.3-1.2c1.3-2.5 1.9-6.5.8-5.4-.3.3-.6 1.3-.6 2.1 0 .9-.6 1.8-1.3 2-.6.3-1-.1-.9-.9.2-.7.2-1 0-.6-.3.4-1.6 0-2.9-.9-1.8-1.1-2.8-1.3-3.6-.5-1.4 1.4 0 3.5 1.9 2.8.8-.3 1.1-.1.8.4-.3.6-.1 1 .4 1 .6 0 1.1-.5 1.1-1.1 0-.5.5-.7 1.1-.3.7.4.7.9.2 1.3-.5.3-1.5 1.5-2.2 2.6-.9 1.5-1.1 1.5-.7.3.3-1.1-.2-2.2-1.4-2.8-1.6-.9-2-.7-2 .7 0 1.3-.5.9-1.5-1.1-1.7-3.2-2-4.9-.5-2.6.5.8 1 1 1 .5-.1-.6-.7-1.9-1.5-2.9-.8-1.1-1.5-1.5-1.5-1s-1 1-2.2 1.1c-2.2.2-2.2.1-.4-1.3 1.1-.8 1.5-1.4 1-1.4-.6 0-1.4.3-1.8.7-.3.4-1.6.7-2.7.8-1.4.1-1.8-.3-1.4-1.4.3-.8.3-1.2-.1-.8-.4.4-1.6-.1-2.6-1-1.8-1.6-1.8-1.6-1.2.1.6 1.6.5 1.7-1.4.5l-2.2-1.4 2.3-1.2c1.2-.7 1.8-1.2 1.2-1.2-.5-.1-1.7.4-2.5.9-1.1.7-2.2.1-4.4-2.3-1.7-1.8-2.7-2.4-2.3-1.4.4 1.1.1 2-.8 2.3-.8.4-1.2 1-.9 1.5.3.5.9.7 1.3.5.4-.3.8.4.8 1.6.2 1.9.2 1.9-1.7-.2-1.3-1.5-2-1.7-2.3-.8-.3.8-.6.8-.6.2-.1-.6.6-1.7 1.4-2.4.8-.7 1.5-1.8 1.5-2.4 0-.6-.4-.4-1 .4-.5.8-1.2 1.1-1.6.7-.4-.4-.2-1.3.4-1.9.7-.7 1.2-1.9 1.2-2.8 0-.8-.7-.2-1.5 1.4-.8 1.5-1.2 3.3-.8 3.9.4.6.1.7-.7.2-1-.6-1.2-.4-.7.8.3.9-.1 2.1-1.1 2.9-1.5 1.2-1.6 1.1-.4-.4.8-1 .9-1.9.3-2.2-.5-.4-1.4.2-2 1.1-.6 1-1.1 1.3-1.1.6 0-.6.5-1.5 1-1.8.6-.3 1-1.4 1-2.3-.1-1.6-.2-1.5-1.4.1-1.9 2.4-5.3 3-5.1.8 0-.9.4-2.2.8-2.9.6-.8.3-1-.8-.6-1.1.5-1.4.2-.9-1.2.5-1.6.4-1.7-.5-.4-1 1.3-1.3 1.3-2.6-.4-1.5-2-1.5-2-1.5 0 0 1.6-.2 1.7-1 .4-.8-1.3-1-1.2-1 .4 0 1.2.5 1.6 1.5 1.2 2.1-.8 5.1.4 3.5 1.4-1.9 1.2-6.5-.5-6.2-2.2.1-.9-.4-1.8-1.1-2.1-.8-.3-1.4.1-1.4.9 0 .7.5 1 1 .7.6-.3.7-.1.3.5-.4.6-1.4.8-2.3.5-1.2-.5-1.4-.3-.8.8.7 1.1.6 1.2-.7.2-.8-.7-1.8-1-2.2-.6-.3.4-1.5.7-2.6.8-1.1.1-1.8-.1-1.5-.3.6-.7-1.5-3.2-2.6-3.2-.5 0-.9.8-.9 1.7 0 1.5-.2 1.6-1 .3-.6-1-.6-1.6 0-1.8.6-.2.8-.8.4-1.3-.3-.5-1.7-.1-3.2.9-2.9 2-6.2 3.4-6.2 2.6 0-.2 1.1-.9 2.5-1.4 3-1.1 3.3-2.5.5-2.7-1.3-.1-1.8.2-1.4.9.4.6-.3.4-1.5-.5-1.3-.8-3-1.3-3.8-1-1.2.5-1.4.1-.8-1.8.7-2.1.6-2.2-.8-1-.9.7-1.4 1.7-1.1 2.2.3.5.1.9-.5.9-.5 0-1.1-.5-1.3-1.1-.3-.9-.9-.9-2.5 0-1.2.6-2.4.7-2.7.3-.3-.5 0-.9.7-1 4.5-.6 5.7-.9 6.3-1.5.4-.4.2-.7-.5-.7s-1-.4-.6-.9c.3-.5-.3-1.2-1.2-1.4-1-.3-.6-.4.8-.4 1.6.1 2.5.6 2.2 1.2-.2.7.3 1.2 1.2 1.2 1 0 1.3-.6.9-1.9-.3-1 0-1.8.6-1.8s.8.5.4 1.2-.3.8.4.4c.8-.4 1-.2.6.7-.3.8.2 1.7 1.1 2.1 1.1.4 1.4.2 1-.7-.4-.6-.1-.5.7.3 1.3 1.5 3.1 2.2 5.5 2.3.7 0 1 .4.8.8-.6.9 2.2.6 3.1-.4.4-.4 1.2-.7 1.8-.7.6 0 .2.8-.9 1.7-1.7 1.3-1.7 1.5-.2.9 1.1-.3 1.6-.2 1.2.4-.3.6-.1 1 .4 1 .6 0 1.1-.5 1.1-1.1 0-.8.4-.8 1.4.1.8.6 1.2 1.9 1 2.8-.5 1.5-.4 1.5.9-.1 1.6-1.9 3.2-2.4 2.1-.5-.4.7-.3.8.5.4.6-.4.9-1.2.6-1.7-.4-.5 0-1.2.9-1.5.8-.3 1.7-1.3 2.1-2.2.4-1.2-.1-1-1.8.6-2.8 2.7-3.7 2.8-3.8.4 0-1.4-.2-1.4-.9.3-.9 2.2-1 2.1-1.4-1.2-.2-1.3-.6-2.6-1.1-3-.4-.5-.4.3-.1 1.7.6 2.3.6 2.3-.7.8-1-1.3-1.6-1.5-2.5-.6-.9.9-1.2.9-1.2 0 0-.6.9-1.7 2-2.4s2-1.7 2-2.2c0-.5-.9-.1-2 .9-2 1.9-2.8.9-1-1.3.7-.9.7-.9-.2-.2-1.4 1.2-3.1 1.3-2.4.2.3-.5-30.3-.9-68-.9-40.3-.1-68.4.3-68.4.8s-.5.9-1.1.9c-.5 0-.8-.4-.5-.8.2-.4-1.5-.8-4-.8-2.4 0-4.5.5-4.5 1.1zm8.1.6c.3.1 1 .3 1.5.4.6.1 1.9.6 2.9 1 1.4.6 2.3.3 3.4-1.1.9-1.2 1.3-1.3 1-.4-.3.8-1.5 2.1-2.9 2.7-1.3.7-1.8 1.3-1.1 1.3s1 .5.6 1.1c-.4.8-.9.7-1.5-.2-.4-.7-.6-1.6-.3-2 .2-.4 0-1-.6-1.4-.5-.3-1-.1-1 .6 0 .8-.4.8-1.5-.1-1-.8-1.5-.9-1.5-.2 0 .6.9 1.6 1.9 2.2 1.1.5 1.9 1.9 1.8 2.9 0 1.1-.5 1.7-1.1 1.4-.5-.3-1.5.2-2.3 1.2-.7 1.1-1.3 1.4-1.3.9 0-.6.5-1.5 1.1-2.1.9-.9.5-1.1-1.7-.9-1.5.2-3 .9-3.2 1.6-.3.8 0 1 .8.5.9-.5 1.1-.4.6.4-.6.9-1.1.9-2.2 0-1-.8-1.4-.8-1.4 0 0 .6-.4 1.1-1 1.1-1.8 0-1-1.9 1.1-2.5 2-.7 2-.7.2-2.2-1-.8-1.2-1.2-.6-.8.9.4 1.1.1.7-.9-.4-.9-.1-1.6.6-1.6 1 0 1-.3.1-1.4-.9-1.1-.9-1.5.1-1.8 1.3-.5 5.8-.3 6.8.3zm6-.1c0 .5-.2 1-.4 1-.3 0-.8-.5-1.1-1-.3-.6-.1-1 .4-1 .6 0 1.1.4 1.1 1zm9 .7c0 .3-.9.3-2 0-1.5-.4-2 0-2 1.3s.6 1.8 1.9 1.5c1.5-.3 1.8 0 1.4 1.3-.4 1-.8 1.2-1.1.4-.2-.7-.8-1-1.3-.6-1.2.7-2.3-2.1-1.6-4 .5-1.3 4.7-1.2 4.7.1zm14.7-.2c0 .8-.4 1.2-.9.9-.5-.3-.6-1-.3-1.5.9-1.3 1.2-1.1 1.2.6zm104.5.6c-.1.9.2.8 1.2-.4 1.2-1.6 1.5-1.6 2.7-.1 1.6 1.9 2 5.6.5 4.6-.6-.4-1.3-.7-1.6-.8-.3 0-1.8-.7-3.5-1.4-1.6-.7-3.3-1.3-3.6-1.2-.3 0-.6-.5-.6-1.2s1.1-1.2 2.6-1.1c1.6.1 2.5.7 2.3 1.6zm-116.7-.2c.3.5.2 1.2-.3 1.5-.5.3-.9-.1-.9-.9 0-1.7.3-1.9 1.2-.6zm101.9.7c.3.8.2 1.2-.4.9-.6-.3-1-.1-1 .6s-.2 1-.5.7c-.5-.5.4-3.8 1-3.8.2 0 .6.7.9 1.6zm-98.5.8c.9 1.1.9 1.6-.1 2.2-.7.4-1 .4-.6-.1.4-.4.3-1.4-.3-2.2-.6-.7-.9-1.3-.6-1.3.2 0 1 .6 1.6 1.4zM397 4c0 .5-.5 1-1.1 1-.5 0-.7-.5-.4-1 .3-.6.8-1 1.1-1 .2 0 .4.4.4 1zm-119.6.9c1.2 1.8-.5 3.6-3.4 3.7-2.8.2-2.9.1-1.3-2.2 1.6-2.5 3.7-3.1 4.7-1.5zm124.8.5c.7-.4.8-.2.4.5-.9 1.3-2.6.5-2.5-1.2 0-.9.2-.8.6.1.2.6 1 .9 1.5.6zM295.3 6.7c-.4 1-.2 1.4.5.9.6-.3 1.3-.3 1.6.2.2.4-.4.9-1.5.9-1.8.2-2.6-1.7-1.2-3 1.1-1.1 1.3-.8.6 1zm19.2-.7c.3.5.1 1-.4 1-.6 0-1.1-.5-1.1-1 0-.6.2-1 .4-1 .3 0 .8.4 1.1 1zm84.5.4c0 .2-.8 1-1.7 1.7-1.6 1.3-1.7 1.2-.4-.4 1.3-1.6 2.1-2.1 2.1-1.3zm-18.6 2.2c.3.8.2 1.2-.4.9-.6-.3-1-1-1-1.6 0-1.4.7-1.1 1.4.7zm7.1-.6c.3.6-.1.7-.9.4-1.8-.7-2.1-1.4-.7-1.4.6 0 1.3.4 1.6 1zM293 10c0 .5-.4 1-1 1-.5 0-1-.5-1-1 0-.6.5-1 1-1 .6 0 1 .4 1 1zm99.4.6c.3.8.2 1.2-.4.9-.6-.3-1-1-1-1.6 0-1.4.7-1.1 1.4.7zm11.5-.2c.9 1.1.9 1.6-.1 2.2-.7.4-1 .4-.6-.1.4-.4.3-1.4-.3-2.2-.6-.7-.9-1.3-.6-1.3.2 0 1 .6 1.6 1.4zm4.6-.4c.3.6-.1.7-.9.4-1.8-.7-2.1-1.4-.7-1.4.6 0 1.3.4 1.6 1zm6.1 2.2c0 1.6-.1 1.6-2.1 0-1.1-.9-2.1-1.8-2.3-1.8-.2-.1.7-.1 2-.1 1.5.1 2.4.8 2.4 1.9zm-149.1 1.7c0 1.6-.4 2.7-.8 2.4-.5-.3-.6-1.1-.3-1.9.7-1.8-.2-1.8-1.9 0-.8.7-1.1 1.7-.7 2.1.4.5.2.5-.5.2-.6-.4-1.3-.4-1.6 0-.2.5-.2.3-.1-.4.2-.7-.1-1.5-.7-1.8-1.5-1-.1-2.4 2-2 1 .2 2.4-.1 3.2-.6.8-.5 1.4-.9 1.4-.9.1 0 .1 1.3 0 2.9zm23.2-.6c0 .7-.9 1.4-2 1.4-1.9.2-1.9.2-.1-1.2 1.1-.8 1.9-1.5 2-1.5 0 0 .1.6.1 1.3zm136 .3c-.3.3-1.2.4-1.9.1-.8-.3-.5-.6.6-.6 1.1-.1 1.7.2 1.3.5zm-147.7.8c0 .2-.6.9-1.4 1.5-1.1.9-1.6.9-2.2 0-.4-.7-.3-.9.4-.5.6.3 1.3.2 1.7-.4.6-1 1.5-1.4 1.5-.6zm145.1 2.3c1.3 1.6 1.2 1.7-.3.4-1-.7-1.8-1.5-1.8-1.7 0-.8.8-.3 2.1 1.3zm19.3-.9c.2.4-.4.8-1.4.8-1 0-1.6-.4-1.4-.8.3-.4.9-.8 1.4-.8.5 0 1.1.4 1.4.8zM449 17c0 .5-.8 1-1.7 1-1.5 0-1.6-.2-.3-1 1.9-1.2 2-1.2 2 0zm26.3 6.3c1.1-.6 2.8 1.7 2.1 2.9-1 1.5-2.6.8-2-.8.5-1.4.4-1.5-.9-.4-1.4 1.2-2 .7-1.6-1.4.1-.5-.5-.6-1.2-.3-.8.3-2 0-2.7-.6-1-.9-1.2-.9-.7.4.3.9 0 1.6-.8 1.6-1 0-1.1-.5-.5-1.7.5-.9.5-2.2-.1-3.1-1.9-3.1-.7-2.9 3.2.5 2.3 1.9 4.6 3.3 5.2 2.9zm-237-3.5c1.5 1.6 1.5 1.8-.3 1.8-1 0-1.6-.4-1.3-.9.3-.5-.1-1.3-.8-1.8-.8-.5-.9-.9-.3-.9.6 0 1.8.8 2.7 1.8zm-1 5.8c-.7.3-.9 1.3-.6 2.2.4 1.4.3 1.4-.5.2-1.2-1.6-.7-3 1.1-2.9.9 0 .9.2 0 .5zM470 27c-.6 1.1-1.3 2-1.6 2-.2 0 0-.9.6-2s1.3-2 1.6-2c.2 0 0 .9-.6 2zm11.3-.1c-.3 1.2 1 1.5 2.1.4 1.3-1.3 3.5-1.1 2.9.2-.5 1.5-4.2 1.6-6 .2-.9-.6-1.3-.6-1.3.2 0 .6-.5 1.1-1 1.1-.6 0-.5-.8.2-2 1.3-2.1 3.5-2.1 3.1-.1zm-15 .6c-.3.9-.8 1.4-1 1.1-.3-.3-.2-.9.2-1.5.9-1.6 1.5-1.3.8.4zm-224.3.1c0 .8-1.9 1.3-2.4.6-.3-.5.1-.9.9-.9s1.5.2 1.5.3zm232.4.3c.4.5-.3.7-1.4.4-2.3-.6-2.6-1.3-.6-1.3.8 0 1.7.4 2 .9zm18.6.1c0 .5-.4 1-1 1-.5 0-1-.5-1-1 0-.6.5-1 1-1 .6 0 1 .4 1 1zm-266 2c0 .5-.5 1-1.1 1-.5 0-.7-.5-.4-1 .3-.6.8-1 1.1-1 .2 0 .4.4.4 1zm276.2 2.2c-.7.7-1.2.8-1.2.2 0-1.4 1.2-2.6 1.9-1.9.2.3-.1 1.1-.7 1.7zM211 34c0 .5-.5 1-1.1 1-.5 0-.7-.5-.4-1 .3-.6.8-1 1.1-1 .2 0 .4.4.4 1zm301.8 5.6c.5-.3 1.8.1 2.8.9 1.2.9 1.4 1.4.6 1.5-.7 0-1.1.4-.7.9.3.5 0 1.3-.6 1.7-.8.5-.9.3-.4-.6.6-1 .3-1.2-1.1-.7-1.8.7-1.8.6-.2-.6 2.3-1.8 1.5-2.5-2.2-2.1-2.8.3-3.8-.5-2.3-1.9.3-.4 1.2-.2 1.9.4.7.6 1.7.8 2.2.5zm-6.5 1.9c-.3.9-.8 1.4-1 1.1-.3-.3-.2-.9.2-1.5.9-1.6 1.5-1.3.8.4zM200 41.4c0 .2-.7.7-1.6 1-.8.3-1.2.2-.9-.4.6-1 2.5-1.4 2.5-.6zm3 0c0 .3-.4.8-1 1.1-.5.3-1 .1-1-.4 0-.6.5-1.1 1-1.1.6 0 1 .2 1 .4zm305.5 1.5c.3.5.2 1.2-.3 1.5-.5.3-.9-.1-.9-.9 0-1.7.3-1.9 1.2-.6zm2.2 1.3c-.3.8-.6.5-.6-.6-.1-1.1.2-1.7.5-1.3.3.3.4 1.2.1 1.9zm-314.6.5c1.3 1.6 1.2 1.7-.3.4-1-.7-1.8-1.5-1.8-1.7 0-.8.8-.3 2.1 1.3zM503 43.6c0 .8-1.9 1.3-2.4.6-.3-.5.1-.9.9-.9s1.5.2 1.5.3zm28.6 4.4c1.7 1.9 2 2.9 1.2 4.3-.8 1.5-1.2 1.6-2.5.6-1-.9-1.1-1.5-.4-1.7.6-.2.9-.8.6-1.2-.3-.5-1.3-.7-2.3-.4-1.4.5-1.4.4-.3-.4 1.2-.9 1.3-1.3.1-2.7-2.3-2.8 1-1.4 3.6 1.5zm6.9 6.2c2.4 1.1 3.5 3.8 1.5 3.8-.5 0-.9-.5-.7-1.1.1-.6-.4-1.4-1.1-1.6-.8-.3-1 .2-.6 1.4.5 1.4.4 1.5-.4.3-.6-.8-.8-1.8-.5-2.4.4-.5-.1-.7-1.1-.3-1 .4-2 .7-2.2.7-.3 0-.3.4 0 .8.3.5-.1.9-.9.9-2.2 0-1.8-1.2.8-2.5 1.2-.6 2.3-1.1 2.4-1.1.1-.1 1.4.4 2.8 1.1zm-379.7 3.1c-.1.2.3 1.1 1 2 1 1.2 1 1.7.1 2.3-.7.4-1.7 0-2.3-.8-.6-.8-1.8-1.3-2.6-1.1-.8.3-.4-.5 1-1.6 2.1-1.7 3.9-2.2 2.8-.8zm386.6 4.6c.4.5-.3.7-1.4.4-2.3-.6-2.6-1.3-.6-1.3.8 0 1.7.4 2 .9zM549 68c0 .5-.2 1-.4 1-.3 0-.8-.5-1.1-1-.3-.6-.1-1 .4-1 .6 0 1.1.4 1.1 1zm18.4 5.9c.3.5-.1 1.1-.9 1.4-.9.4-1.2.1-.8-.9.6-1.6 1-1.7 1.7-.5zm-3.4 1.6c0 1.2-1.9 1.2-2.3 0-.4-.9-.1-1.2.9-.8.7.3 1.4.7 1.4.8zm-423.9 1.8c-1 .9-1.1.8-.5-.6.3-1 .9-1.5 1.2-1.2.3.3 0 1.1-.7 1.8zm432.3.6c.9.7 1.3 1.7 1 2.2-.3.5.1 1 .8 1.1.7 0 1.8.2 2.3.3.6.2 1.4.3 1.9.4.5 0 .3.7-.3 1.5-.9 1-.8 1.5.3 1.9.7.3 1.9.1 2.5-.4.8-.6.8-.5.1.3-.6.8-.6 1.7.2 2.7 1 1.3 1 1.4-.2.3-.8-.6-1.8-1.2-2.3-1.2-.4 0-.5.6-.1 1.2.4.8.3 1-.2.5s-.9-1.4-.9-2c0-.7-.9-1.1-2-.9-2 .4-2 .3 0-1.2 1.4-1.2 1.6-1.6.5-1.5-3.1.3-3.9-.2-3.5-2.2.2-1.2 0-1.9-.7-1.7-1.8.6-1.8 3.7 0 4.7 1.5.9 1.4 1-.4.8-1.5-.1-2-.7-1.9-2.4 0-1.2.4-2.5.8-2.9 1.5-1.5.6-2.6-1-1.3-.9.8-1.4.9-1 .2.4-.6.1-1.4-.5-1.7-.7-.2-.3-.4.9-.2 1.1.1 2.8.8 3.7 1.5zm-6-.1c.2.4-.5.9-1.7.9-1.7.2-1.9 0-.7-.7 1.8-1.2 1.8-1.2 2.4-.2zm-437.4 6c0 .4-.9 1.3-1.9 1.9-1.5 1-2 .9-2.5-.2-.3-.9 0-1.2 1-.8.8.3 1.4.2 1.3-.3-.3-1.8.1-2.5 1.1-1.9.6.3 1 .9 1 1.3zm1 3.2c-1.2 2.3-1.6 2.4-2.6.8-.4-.6-.3-.8.3-.5.6.4 1.3 0 1.7-.8.3-.8.8-1.5 1.1-1.5.3 0 .1.9-.5 2zm-6.6 8.8c.2.4-.4.8-1.4.8-1 0-1.6-.4-1.4-.8.3-.4.9-.8 1.4-.8.5 0 1.1.4 1.4.8zm-4.9 4.1c.3.5.2 1.2-.3 1.5-.5.3-.9-.1-.9-.9 0-1.7.3-1.9 1.2-.6zm472.9-.1c.3.5-.1.9-.9.9s-1.5-.4-1.5-.9c0-.4.4-.8.9-.8.6 0 1.2.4 1.5.8zm-481.3 5.5c-1 .9-1.1.8-.5-.6.3-1 .9-1.5 1.2-1.2.3.3 0 1.1-.7 1.8zm490.9 3.1c0 .2-.8 1-1.7 1.7-1.6 1.3-1.7 1.2-.4-.4 1.3-1.6 2.1-2.1 2.1-1.3zm-494 1c0 .3-.4.8-1 1.1-.5.3-1 .1-1-.4 0-.6.5-1.1 1-1.1.6 0 1 .2 1 .4zm499.7 6.8c-.3.8-.6.5-.6-.6-.1-1.1.2-1.7.5-1.3.3.3.4 1.2.1 1.9zM99.5 116c.3.6-.1.7-.9.4-1.8-.7-2.1-1.4-.7-1.4.6 0 1.3.4 1.6 1zm-4.5 3.8c0 .4-.9.8-2 .9-1.1.1-2-.2-2-.5 0-.4.9-.8 2-.9 1.1-.1 2 .2 2 .5zm519 2.8c0 .2-.7.4-1.5.4s-1.5-.4-1.5-1c0-.5.7-.7 1.5-.4.8.4 1.5.8 1.5 1zm-519.3.9c0 .8-.4 1.2-.9.9-.5-.3-.6-1-.3-1.5.9-1.3 1.2-1.1 1.2.6zm-6.3 4.1c.3.8.2 1.2-.4.9-.6-.3-1-1-1-1.6 0-1.4.7-1.1 1.4.7zm-1.9 4.4c.3.6-.1.7-.9.4-1.8-.7-2.1-1.4-.7-1.4.6 0 1.3.4 1.6 1zm-9 3c-.4.6-.1 1.7.5 2.5.9 1.1.9 1.5.1 1.5-.6 0-1.1-.5-1.1-1 0-.6-.5-1-1.1-1-.6 0-.8.7-.5 1.6.3.8.2 1.2-.4.9-1.4-.9-1.2-2.1.6-3.9 1.8-1.8 2.8-2.1 1.9-.6zm547.9.6c.5 1.4.4 1.5-.9.4-1.7-1.4-1.9-2-.6-2 .5 0 1.2.7 1.5 1.6zm-551.9 5.2c.3 1.6 0 1.9-1.2 1.5-1.1-.4-1.4-.3-.9.6.9 1.4-2 5.1-3.9 5.1-.6 0-1.2-.7-1.2-1.4 0-.8.3-1.4.6-1.3.3.1 1.8-1.1 3.3-2.6 1.5-1.5 2.3-2.7 1.7-2.7-.6 0-.7-.5-.4-1.1.9-1.3 1.5-.7 2 1.9zm553.2-.6c-.3.8-.6.5-.6-.6-.1-1.1.2-1.7.5-1.3.3.3.4 1.2.1 1.9zM78 143.6c0 .8-1.9 1.3-2.4.6-.3-.5.1-.9.9-.9s1.5.2 1.5.3zm558.7 2.8c-.3.7-.1 1.8.5 2.4.6.6.6 1.2-.2 1.7-1.7 1.1-3-1.5-1.9-3.7 1.1-2.1 2.4-2.4 1.6-.4zm-563.7 1c0 .3-.4.8-1 1.1-.5.3-1 .1-1-.4 0-.6.5-1.1 1-1.1.6 0 1 .2 1 .4zm-2.4 3.9c.1.9-.2 1.5-.7 1.1-.5-.3-.7-.9-.4-1.4.3-.4 0-1.1-.5-1.3-.6-.3-.5-.4.1-.3.7.1 1.3 1 1.5 1.9zM60 157.6c-.1.4.4 1 1 1.4.9.5.9.9.1 1.4-.6.4-1.1.3-1.1-.3s-.8-.8-1.7-.5c-1.4.4-1.5.3-.5-.4.8-.5 1.3-1.2 1.3-1.6-.1-.3-.1-1.2 0-1.9 0-.9.2-.9.6 0 .2.7.4 1.5.3 1.9zm584.2-1.2c.3-.5.3-.3.1.4-.6 2.3.8 3.4 2.5 2 1.4-1 1.3-.8-.1.8-1.6 1.9-1.6 2.2-.2 2.7.8.4 1.4 1 1.3 1.4-.2.4.5 1.8 1.4 3.1 1 1.5 1.7 1.9 2 1.1.3-.9.7-.7 1.1.5.4.9.3 1.5-.2 1.1-.5-.3-1.2-.1-1.6.4-.3.6-1.3.7-2.1.4-1.2-.4-1.3-.8-.3-1.3.9-.6.9-1.2-.3-2.4-.9-.8-1.9-1.2-2.4-.8-.5.4-.2-.2.6-1.2 1.4-1.8 1.3-1.9-.3-1.3-1.1.4-1.6.3-1.2-.3.3-.6.1-1-.5-1s-1-.6-.9-1.3c.3-2.5-.1-3.8-1.1-3.2-.6.3-.7-.1-.3-1 .4-1.2.8-1.3 1.3-.5.4.7 1 .8 1.2.4zm-2.7 3.6c-.3.5-1.2 1-1.8 1-.7 0-.6-.4.3-1 1.9-1.2 2.3-1.2 1.5 0zm-581.8 3.8c-1 1-1.4 2.2-1 2.7.5.4-.3.4-1.5 0-2.4-.7-2.4-.7-.6 2.1 1.8 2.7 1.8 2.7-.3 1.6-2.6-1.4-3.8-.3-1.5 1.5 1.3 1 1.4 1.3.2 1.1-.9-.2-1.5.5-1.5 1.6s-.6 2.1-1.4 2.4c-1 .3-1.1-.2-.6-1.8.5-1.7.4-2.1-.5-1.5-1.5 1-.6-1 1.9-3.9.9-1 1.4-2.1 1.2-2.5-.2-.3.6-1.1 1.8-1.7 1.3-.7 2.8-1.7 3.4-2.3 1.8-1.8 2.1-1.2.4.7zm586.2 5.2c0 1-.2 1.1-.6.2-.2-.6-1-.9-1.6-.5-.7.3-.9.3-.5-.2.4-.4.2-1.5-.5-2.3-1.1-1.3-.9-1.4 1.1-.1 1.2.8 2.2 2.1 2.1 2.9zm-587.5 4.8c.2.4-.5.9-1.7.9-1.7.2-1.9 0-.7-.7 1.8-1.2 1.8-1.2 2.4-.2zm-1.4 3.6c0 .2-.7.7-1.6 1-.8.3-1.2.2-.9-.4.6-1 2.5-1.4 2.5-.6zm-7.6 6.4c.3.5-.1.9-.9.9s-1.2-.4-.9-.9c.3-.4.7-.8.9-.8.2 0 .6.4.9.8zm607 .3c-.2.4.1.9.8 1.1.7.3.4.7-.7 1.2-1.1.4-1.6.4-1.2 0 .4-.4.2-1.2-.3-1.9-.7-.8-.5-1.2.5-1.2.8 0 1.2.4.9.8zm-614.6 2.4c-.6 1.4-1.5 2.5-2 2.5s-.1-1.1.8-2.5 1.8-2.5 2-2.5c.2 0-.2 1.1-.8 2.5zm2.5 9c-.7 2.1-1.2 1.9-1-.4 0-1.1.5-1.8.9-1.5.4.3.5 1.1.1 1.9zm624.2 2.1c.2 1.1.4 2.3.4 2.7.1.5.5.6 1 .3s.8.2.7 1.2c0 .9.5 1.6 1.2 1.4.6-.1 1.2.2 1.2.8 0 .5-.5 1-1.1 1-.6 0-.8.7-.5 1.6.5 1.4.4 1.5-.9.4-.8-.7-1.5-1.8-1.4-2.4.3-2.4-.2-3.5-1.3-3.2-.7.1-1 .1-.5-.1 1.5-.9.6-2.2-1-1.7-1.1.4-1.4.3-.7-.3.6-.4 1-1.8.9-3.1-.2-2.6 1.4-1.5 2 1.4zm-631.5.9c0 .2-.7.8-1.5 1.5-1.2 1-1.5 1-1.5-.2 0-.8.7-1.5 1.5-1.5s1.5.1 1.5.2zm3.7 3.2c-.4.3-.1 1.3.6 2.1 1.1 1.3.9 1.4-1 .1-1.6-.9-1.9-1.6-1-2.1 1.5-.9 2.3-1 1.4-.1zm-1.7 7.7c0 .3-.4.8-1 1.1-.5.3-1 .1-1-.4 0-.6.5-1.1 1-1.1.6 0 1 .2 1 .4zm-5.5 2.6c.3.6-.1.7-.9.4-1.8-.7-2.1-1.4-.7-1.4.6 0 1.3.4 1.6 1zm637.5 0c0 .5-.4 1-1 1-.5 0-1-.5-1-1 0-.6.5-1 1-1 .6 0 1 .4 1 1zm-639.7 3c-.3 1.2-.8 1.9-1.1 1.6-.5-.6.5-3.6 1.2-3.6.2 0 .2.9-.1 2zM671 227.4c0 .3-.4.8-1 1.1-.5.3-1 .1-1-.4 0-.6.5-1.1 1-1.1.6 0 1 .2 1 .4zm4 .6c0 .5-.2 1-.4 1-.3 0-.8-.5-1.1-1-.3-.6-.1-1 .4-1 .6 0 1.1.4 1.1 1zm1.5 2c-.3.5-.1 1 .6 1 .8 0 .9.3 0 1.3-.6.8-.7 1.8-.3 2.2.4.5.2.5-.4.2-.6-.3-1-1.6-.8-2.9.3-2.8.3-2.8 1-2.8.3 0 .2.4-.1 1zm-647.1 2.2c-.3.4-.9.8-1.5.8-.5 0-.9-.4-.9-.8 0-.5.7-.9 1.5-.9s1.2.4.9.9zm651.1 2.6c-.3.3-1.1 0-1.8-.7-.9-1-.8-1.1.6-.5 1 .3 1.5.9 1.2 1.2zM32 237.6c0 .8-1.9 1.3-2.4.6-.3-.5.1-.9.9-.9s1.5.2 1.5.3zm656 21.9c1-.6.4 3.5-.6 4.4-.4.3-.5-.1-.1-1.1.6-1.8-2.5-5.3-3.7-4.1-.4.4-.4-.1 0-1.1.6-1.5.4-1.7-.6-1.1-.9.6-1.1.4-.5-.5.6-1 1.3-.6 2.7 1.4 1.1 1.4 2.4 2.4 2.8 2.1zm-2.9 2.8c-.6.8-.7 1.8-.3 2.2.4.5.1.5-.6.1-1-.6-1-1.1-.1-2.2.6-.8 1.4-1.4 1.6-1.4.3 0 0 .6-.6 1.3zm-672.4 3.2c0 .8-.4 1.2-.9.9-.5-.3-.6-1-.3-1.5.9-1.3 1.2-1.1 1.2.6zm680.2 4c.3.4.7 1.1.7 1.6.1.5.2 1 .4 1.1.7 1 .7 3.7-.1 3.2-.5-.3-.9-.1-.9.5 0 .5.4 1.1.9 1.3.5.2.4 1-.2 1.9-1.1 1.5-1.4 1.5-2.7.1-1.3-1.4-1.2-1.5.2-1 1.2.5 1.5.1 1.4-1.8-.1-2.6-1.6-3.4-1.6-.9 0 .8-.5 1.5-1 1.5-.7 0-.7-.6 0-2 .6-1.1 1.5-2 2.1-2 .6 0 .7-.5.3-1.2-.5-.8-1.3-.5-2.5 1-1.5 2-1.8 2-2.4.5-.3-1-.3-1.4.1-1 .8.8 3.4-1.1 3.4-2.5 0-.6-.6-.5-1.5.2-.8.6-2 1-2.7.7-.7-.3-.4-.6.7-.6 1.7-.1 1.8-.3.5-1.1-1.1-.8-.8-.9 1.4-.6 1.6.3 3.1.8 3.5 1.1zm-675.9 1c-.7.9-1.5 1.3-1.9 1-.3-.3.1-1 .9-1.5 2.1-1.4 2.4-1.2 1 .5zm.4 5.3c.2.4-.4.8-1.4.8-1 0-1.6-.4-1.4-.8.3-.4.9-.8 1.4-.8.5 0 1.1.4 1.4.8zm668.7 5.5c-1 .9-1.1.8-.5-.6.3-1 .9-1.5 1.2-1.2.3.3 0 1.1-.7 1.8zm6.9 6.5c0 .5-.7.9-1.5.9s-1.2-.4-.9-.9c.3-.4.9-.8 1.5-.8.5 0 .9.4.9.8zm-675 1.8c0 .8-1.9 1.3-2.4.6-.3-.5.1-.9.9-.9s1.5.2 1.5.3zm-5.4 5.9c.3 1.7-1.2 2-2.1.5-.3-.6-.1-1 .5-1s.8-.6.4-1.3c-.4-.6-.3-.8.1-.4.5.4 1 1.4 1.1 2.2zm680.2 1c-.3.3-.9-.2-1.2-1.2-.6-1.4-.5-1.5.5-.6.7.7 1 1.5.7 1.8zm-680.2 4.3c0 1-.6 1.9-1.3 1.9-.8 0-.9-.6-.2-1.9.5-1 1.1-1.8 1.2-1.8.2 0 .3.8.3 1.8zm685.3 1.2c1.1 2.4 1.1 2.4-.3.6-1.1-1.3-1.6-1.5-1.6-.6 0 .7-.2 1.1-.5.8-.3-.3-.3-1.3.1-2.2.7-1.9.7-1.9 2.3 1.4zm0 3.4c.9 1.1.9 1.6-.1 2.2-.7.4-1 .4-.6-.1.4-.4.3-1.4-.3-2.2-.6-.7-.9-1.3-.6-1.3.2 0 1 .6 1.6 1.4zm-693.3 1c.3.8.1 2.3-.5 3.3-.9 1.5-1 1.3-.5-1s.4-2.6-1.2-2c-1.2.4-1.5.3-1-.5 1-1.6 2.5-1.5 3.2.2zm9.8-.5c.3.5-.2 1.5-1.2 2.2-1.5 1.2-1.6 1.2-.5-.2.7-.9 1-1.9.6-2.2-.3-.4-.4-.7 0-.7.3 0 .8.4 1.1.9zm-6 1.7c.3.8.2 1.2-.4.9-.6-.3-1-1-1-1.6 0-1.4.7-1.1 1.4.7zm-.8 2.6c.4.7.3.8-.4.4s-1.2-.2-1.2.5-.3 1-.6.6c-.6-.5.3-2.7 1.1-2.7.2 0 .7.5 1.1 1.2zm690.1-.6c-.3.3-1.2.4-1.9.1-.8-.3-.5-.6.6-.6 1.1-.1 1.7.2 1.3.5zm-685.3 5c.3.8.2 1.2-.4.9-.6-.3-1-1-1-1.6 0-1.4.7-1.1 1.4.7zm-5.7 1.6c0 1.3-.1 1.7-.4 1-.3-.6-1-.9-1.6-.5-.7.4-.6-.1.2-1 1.7-2.1 1.7-2.1 1.8.5zm-2.9 3.3c-.3.3-.9-.2-1.2-1.2-.6-1.4-.5-1.5.5-.6.7.7 1 1.5.7 1.8zm694.2-2.1c0 .2-.8 1-1.7 1.7-1.6 1.3-1.7 1.2-.4-.4 1.3-1.6 2.1-2.1 2.1-1.3zm-687 4c0 .3-.4.8-1 1.1-.5.3-1 .1-1-.4 0-.6.5-1.1 1-1.1.6 0 1 .2 1 .4zm-.5 4.6c.3.5.1 1-.4 1-.6 0-1.1-.5-1.1-1 0-.6.2-1 .4-1 .3 0 .8.4 1.1 1zm-6.4 2.7c1.3 1.6 1.2 1.7-.3.4-1-.7-1.8-1.5-1.8-1.7 0-.8.8-.3 2.1 1.3zm9.9.7c0 .2-.8 1-1.7 1.7-1.6 1.3-1.7 1.2-.4-.4 1.3-1.6 2.1-2.1 2.1-1.3zm-7.5 8.5c-.9.8-3.6 1-3 .2.2-.4 1.1-.8 2-.8.8 0 1.3.3 1 .6zm0 10.1c.3.5.1 1-.4 1-.6 0-1.1-.5-1.1-1 0-.6.2-1 .4-1 .3 0 .8.4 1.1 1zm690.2 12.5c0 .8-.4 1.2-.9.9-.5-.3-.6-1-.3-1.5.9-1.3 1.2-1.1 1.2.6zM2.5 372c.3.5.1 1-.4 1-.6 0-1.1-.5-1.1-1 0-.6.2-1 .4-1 .3 0 .8.4 1.1 1zm6.5 1.4c0 .2-.7.7-1.6 1-.8.3-1.2.2-.9-.4.6-1 2.5-1.4 2.5-.6zm-4.6 2.4c.3.5-.1.9-.9.9s-1.2-.4-.9-.9c.3-.4.7-.8.9-.8.2 0 .6.4.9.8zm.3 9.2c-.1 2.1-1 1.8-1.3-.5-.1-.8.2-1.5.6-1.5.5 0 .8.9.7 2zm3.4 3.7c1.3 1.6 1.2 1.7-.3.4-1-.7-1.8-1.5-1.8-1.7 0-.8.8-.3 2.1 1.3zM5 390c0 .5-.2 1-.4 1-.3 0-.8-.5-1.1-1-.3-.6-.1-1 .4-1 .6 0 1.1.4 1.1 1zm7.5.8c-.3.3-1.1 0-1.8-.7-.9-1-.8-1.1.6-.5 1 .3 1.5.9 1.2 1.2zM3 392.5c0 .8-.2 1.5-.4 1.5s-.6-.7-1-1.5c-.3-.8-.1-1.5.4-1.5.6 0 1 .7 1 1.5zm695.4-.6c.3.5-.2 1.5-1.2 2.2-1.5 1.3-1.6 1.2-.4-.3 1-1.3 1-1.7 0-2.1-.9-.4-.9-.6-.1-.6.6-.1 1.4.3 1.7.8zm-688.2 2.5c1-.5 1-.4.1.6-1 1.1-1.5 1.1-2.8 0-1.8-1.5-2 .1-.2 1.9 1 1 .9 1.1-.5.6-1.8-.7-2.4-2.6-1.1-3.8.3-.4 1.2-.2 1.9.4.7.6 1.9.7 2.6.3zm4.8-.4c0 .5-.5 1-1.1 1-.5 0-.7-.5-.4-1 .3-.6.8-1 1.1-1 .2 0 .4.4.4 1zm679.4-.2c.3.5-.1.9-.9.9s-1.2-.4-.9-.9c.3-.4.7-.8.9-.8.2 0 .6.4.9.8zm4 5.6c-.3.8-1.2 1.7-2 2-1.1.4-1.2.2-.1-1.4 1.4-2.3 2.9-2.7 2.1-.6zm-687.2 2.3c-1 .4-.9 1 .5 2.7l1.8 2.1-2.2-1.9c-2.3-1.9-2.2-3.7 0-3.5.8 0 .8.2-.1.6zm5.3 4.3c.3.5.1 1-.4 1-.6 0-1.1-.5-1.1-1 0-.6.2-1 .4-1 .3 0 .8.4 1.1 1zm678.5 2.2c0 1.9-1.6.5-1.7-1.4-.2-1.8 0-2 .7-.8.5.8 1 1.8 1 2.2zm-681.7.8c.3 1.1.1 1.8-.4 1.4-.5-.3-.9-1.2-.9-2 0-2 .7-1.7 1.3.6zm681.1 3.9c-.2.3-1.2-.3-2.2-1.3-1.6-1.7-1.6-1.8.5-.5 1.2.7 2 1.5 1.7 1.8zM15 414c0 .5-.5 1-1.1 1-.5 0-.7-.5-.4-1 .3-.6.8-1 1.1-1 .2 0 .4.4.4 1zm677.3 1.5c-.3.9-.8 1.4-1 1.1-.3-.3-.2-.9.2-1.5.9-1.6 1.5-1.3.8.4zM16.5 418c.3.5.1 1-.4 1-.6 0-1.1-.5-1.1-1 0-.6.2-1 .4-1 .3 0 .8.4 1.1 1zm672.9 1.8c.3.5-.1.9-.9.9s-1.2-.4-.9-.9c.3-.4.7-.8.9-.8.2 0 .6.4.9.8zm7.6.4c0 .4-.5.8-1.1.8-.8 0-.8.4 0 1.4.9 1 .8 1.6-.4 2.6-1.2 1-1.5.9-1.6-.6-.1-1.1-.1-2.2 0-2.7 0-.4-.7-.7-1.6-.8-1.6 0-1.5-.1.2-.8 2.5-1 4.5-1 4.5.1zm-8.4 2.7c-.4.5 0 1.2.6 1.5.7.2.3.4-.9.2-1.2-.1-2.6-.6-3-1.1-.5-.4-.3-.5.4-.1.6.3 1.4.2 1.8-.4.3-.5.8-1 1.1-1 .3 0 .3.4 0 .9zM14.5 424c.4.6-.1.7-1.2.4-1.7-.5-1.7-.5 0 .9.9.8 1.7 2.3 1.6 3.3 0 1.8-.1 1.8-.9-.1-.5-1.1-.9-1.6-.9-1.1-.1.5-.8.3-1.6-.4-1.2-1-1.3-1.6-.4-2.6 1.3-1.6 2.5-1.8 3.4-.4zm4.5 2c0 .5-.5 1-1.1 1-.5 0-.7-.5-.4-1 .3-.6.8-1 1.1-1 .2 0 .4.4.4 1zm-2 6c0 .5-.2 1-.4 1-.3 0-.8-.5-1.1-1-.3-.6-.1-1 .4-1 .6 0 1.1.4 1.1 1zm0 7.1c1.1 1.9 1 2-.9.9-1.6-.8-2.1-.8-2.1.1 0 .7-.2 1-.5.7-.8-.7.5-3.8 1.6-3.8.4 0 1.3.9 1.9 2.1zm1 7c0 1.1-2.9 1.9-3.4 1-.3-.5-.3-1-.1-1.3.8-.7 3.5-.5 3.5.3zm669.4 3.6c-.3 1.6-.6 3.4-.6 4-.2 1.6-.8 1.6-3-.1-2.1-1.5-2.3-2.7-.5-2.4.6.2 1.1-.5 1.1-1.4-.1-1.1.4-1.4 1.4-1.1 1 .4 1.3.2.8-.5-.4-.7-.2-1.2.4-1.2.6 0 .8 1.1.4 2.7zm-668.7-.3c0 .8-1 1.3-2.4 1.2-2.9-.1-2.9-.4 0-1.6 1.2-.5 2.2-.9 2.3-.9 0-.1.1.5.1 1.3zm666.3 7.3c0-.5.5-.5 1-.2.8.5.7 1.1 0 2-.7.8-.9 1.9-.6 2.4.4.5-.2 1.4-1.1 2-1.3.7-1.4 1-.4 1.1.8 0 1.1.3.8.6-.4.4-1.3.1-2.1-.5-.8-.7-2.1-.9-2.7-.5-.8.4-.9.3-.5-.5.4-.6 1.3-1.1 1.9-1 2.6.3 3.4-.2 3.2-2.1-.1-1.1-.4-2.3-.8-2.6-.4-.4-.7-1.2-.7-1.8 0-.6.5-.4 1 .4s1 1.1 1 .7zm-660.3 1.8c0 .8-.4 1.2-.9.9-.4-.3-.8-.9-.8-1.5 0-.5.4-.9.8-.9.5 0 .9.7.9 1.5zm4.3 2c0 .5-.5.3-1-.5s-1-2-1-2.5c0-.6.5-.3 1 .5s1 1.9 1 2.5zm653.8-.4c-.3.8-.7.3-1.1-1-.4-1.7-.3-2.1.5-1.3.5.5.8 1.6.6 2.3zM26.5 464c-.3.5-1.2 1-1.8 1-.7 0-.6-.4.3-1 1.9-1.2 2.3-1.2 1.5 0zm2 2c.3.5.1 1-.4 1-.6 0-1.1-.5-1.1-1 0-.6.2-1 .4-1 .3 0 .8.4 1.1 1zm646.2 2.5c0 .8-.4 1.2-.9.9-.4-.3-.8-.9-.8-1.5 0-.5.4-.9.8-.9.5 0 .9.7.9 1.5zm-646.2.5c.3.5.1 1-.4 1-.6 0-1.1-.5-1.1-1 0-.6.2-1 .4-1 .3 0 .8.4 1.1 1zm647.9 3.5c-.4.8-.8 1.5-1 1.5-.2 0-.4-.7-.4-1.5s.4-1.5 1-1.5c.5 0 .7.7.4 1.5zm-2.4 4.9c0 .7-4 1.4-4.4.7-.3-.4.6-.8 2-.9 1.3-.1 2.4 0 2.4.2zm1.3 2.9c.3.7 0 2-.7 2.9-1 1.4-1.3 1.4-2.6 0s-1.2-1.5.3-.9c.9.3 1.9.2 2.2-.3.4-.6.1-1-.4-1-.6 0-1.1-.5-1.1-1 0-1.4 1.7-1.2 2.3.3zM33 484.2c0 1.9-1.6.5-1.7-1.4-.2-1.8 0-2 .7-.8.5.8 1 1.8 1 2.2zm639 .2c0 .2-.7.7-1.6 1-.8.3-1.2.2-.9-.4.6-1 2.5-1.4 2.5-.6zm.8 3.2c-.4 1.1-2.8 1.4-2.8.4 0-.8 2.2-2 2.8-1.4.2.1.2.6 0 1zm-633.8 2c0 .8-1.9 1.3-2.4.6-.3-.5.1-.9.9-.9s1.5.2 1.5.3zm634.4 3.9c-.3.7-1.2 1.6-2.1 1.9-1.2.5-1.3.9-.3 2.1 1 1.2 1 1.8 0 3-.7.9-1.5 1.3-1.8 1-.3-.2.1-1.2.9-2.2 1.2-1.5 1.2-1.6-.2-1.1-1.3.5-1.6.2-1.2-1.3.3-1 .9-1.9 1.2-1.9.4 0 .8-.7.8-1.5s-.5-1.5-1.1-1.5c-.6 0-.4-.4.4-1 1.8-1.1 4.1.6 3.4 2.5zM36 491.4c0 .3-.4.8-1 1.1-.5.3-1 .1-1-.4 0-.6.5-1.1 1-1.1.6 0 1 .2 1 .4zm4.1 5.8c-1.1 1.1-1.3 1-.7 0 .4-.7.2-2.1-.5-3-1.2-1.5-1.1-1.5.6 0 1.6 1.5 1.7 2 .6 3zm628.9-3.8c0 .3-.4.8-1 1.1-.5.3-1 .1-1-.4 0-.6.5-1.1 1-1.1.6 0 1 .2 1 .4zm-628.9 8.9c-.6.6-1.1 1.8-1.1 2.6.1 1.3.4 1.2 1.5-.3.8-1.1 1.8-1.6 2.2-1.2.4.4.1 1.1-.7 1.6-.8.6-1.1 1-.6 1 .5 0 .3.6-.3 1.3-.6.8-.7 1.8-.3 2.3.4.4-.1.2-1-.5-1-.7-1.6-1.7-1.3-2.1.3-.5.1-1.1-.5-1.5-.6-.4-.8-1.1-.5-1.6.4-.5 0-1.2-.8-1.5-1.6-.6-1.7-2-.4-4.1.6-.9 1.3-.7 2.8.8 1.5 1.5 1.8 2.4 1 3.2zm617.4 5.7c.3.6-.1.7-.9.4-1.8-.7-2.1-1.4-.7-1.4.6 0 1.3.4 1.6 1zm-612.9 8.5c-.3.9.3 1.9 1.5 2.6 1.1.6 1.8 1.3 1.5 1.7-.9.8-5.6-3.9-5-4.9.9-1.5 2.6-1 2 .6zm4.1.9c0 .8-.6 1.2-1.5.9-1.1-.5-1.1-.7 0-1.4.7-.5 1.3-.9 1.4-.9 0 0 .1.6.1 1.4zm4.3 0c0 .2-.7.7-1.6 1-.8.3-1.2.2-.9-.4.6-1 2.5-1.4 2.5-.6zm602 2.2c0 .8-1.9 1.3-2.4.6-.3-.5.1-.9.9-.9s1.5.2 1.5.3zM47 523c0 .5.5 1 1.1 1 .5 0 .7-.6.3-1.3-.6-.9-.4-.9.8.1 1.3 1 1.7 1 2.2 0 .3-.7.3-.2 0 1.1s-.2 2.1.2 1.9c.5-.3 1.7.3 2.7 1.4.9 1 1.3 1.8.8 1.8-.6 0-1.3-.5-1.6-1.1-.4-.6-1.2-.8-1.9-.6-.7.3-2.3-.1-3.7-.9-1.3-.7-2-1.3-1.5-1.4.5 0 .3-.7-.4-1.5-.9-1-.9-1.5-.1-1.5.6 0 1.1.4 1.1 1zm9.4.8c.3.5-.1.9-.9.9s-1.2-.4-.9-.9c.3-.4.7-.8.9-.8.2 0 .6.4.9.8zm594.1.1c.3.5.2 1.2-.3 1.5-.5.3-.9-.1-.9-.9 0-1.7.3-1.9 1.2-.6zm-592 4c.3.5.2 1.2-.3 1.5-.5.3-.9-.1-.9-.9 0-1.7.3-1.9 1.2-.6zM62 540c0 .5-.5 1-1.1 1-.5 0-.7-.5-.4-1 .3-.6.8-1 1.1-1 .2 0 .4.4.4 1zm-1.5 5.1c.4 2.1.3 2.2-1.1.7-.9-.9-1.3-2.1-.9-2.8.9-1.4 1.4-.9 2 2.1zm8.1-.9c.3.4-.1.5-1 .4-.8-.1-1.8-.5-2.2-.8-.3-.4.1-.5 1-.4.8.1 1.8.5 2.2.8zm565.4 4.2c0 .2-.7.7-1.6 1-.8.3-1.2.2-.9-.4.6-1 2.5-1.4 2.5-.6zM72.5 553c.3.5.1 1-.4 1-.6 0-1.1-.5-1.1-1 0-.6.2-1 .4-1 .3 0 .8.4 1.1 1zm559.4 4.1c-1.2.7-1.2.9 0 .9.8 0 1.2.3.8.6-.3.3-1.4.1-2.4-.5s-1.2-1.1-.5-1.1c.6 0 1.1-.3 1.1-.8-.1-.4-.1-1.4 0-2.2.1-1.2.4-1.1 1.2.4.9 1.4.8 2-.2 2.7zm-554.5-1.3c.3.5-.1.9-.9.9s-1.2-.4-.9-.9c.3-.4.7-.8.9-.8.2 0 .6.4.9.8zm3.6 4c0 .5-.7.9-1.5.9s-1.2-.4-.9-.9c.3-.4.9-.8 1.5-.8.5 0 .9.4.9.8zm543.7 1.7c0 .8-.4 1.2-.9.9-.5-.3-.6-1-.3-1.5.9-1.3 1.2-1.1 1.2.6zM76 562c-1 .6-1.1 1-.2 1 .6 0 1.2 1 1.2 2.2 0 1.3.4 1.8.8 1.3.9-1.2 3.2-1.8 3.2-.8 0 .5-1.1 1.3-2.5 2-1.4.6-2.3.7-1.9.2.3-.5 0-.9-.6-.9-.7 0-1-.7-.7-1.5.4-.8.2-1.7-.4-2-1.2-.8-.2-2.5 1.4-2.5.7 0 .6.4-.3 1zm6.7 6.2c-.3.8-.6.5-.6-.6-.1-1.1.2-1.7.5-1.3.3.3.4 1.2.1 1.9zm539.3-.3c0 .5-.7 1.2-1.6 1.5-1.4.5-1.5.4-.4-.9 1.4-1.7 2-1.9 2-.6zm-541.2 1.8c-.2.9-1 1.9-1.8 2.1-1.2.4-1.3.3-.3-1 .7-.8 1-1.8.6-2.1-.3-.4-.1-.7.6-.7s1.1.8.9 1.7zm6.5 2.8c-.3.9-.8 1.4-1 1.1-.3-.3-.2-.9.2-1.5.9-1.6 1.5-1.3.8.4zm531.5-.3c-.2.6-1 1.3-1.6 1.4-.7.1-.8 0-.2-.3.5-.2.8-.9.4-1.4-.3-.5 0-.9.6-.9.7 0 1 .5.8 1.2zM85 573.8c0 .5-.7.9-1.5.9s-1.2-.4-.9-.9c.3-.4.9-.8 1.5-.8.5 0 .9.4.9.8zm7.5 2.1c.3.5.2 1.2-.3 1.5-.5.3-.9-.1-.9-.9 0-1.7.3-1.9 1.2-.6zm523 .1c-.3.5-1.1 1-1.6 1-.6 0-.7-.5-.4-1 .3-.6 1.1-1 1.6-1 .6 0 .7.4.4 1zm3.5 0c0 .5-1.1 1.7-2.5 2.6-1.4.9-2.2 2.1-1.8 2.7.3.6.1.7-.6.3-.6-.4-.9-1.2-.6-1.7.9-1.3-.9-1.1-2.5.3-1.2 1.1-1.2 1-.1-.5.8-.9 1.9-1.6 2.5-1.6 1.8.3 4.6-1.2 4-2.2-.3-.5 0-.9.5-.9.6 0 1.1.4 1.1 1zm-528.3 4.4c-.3.6-1.1.9-1.8.7-.8-.2-2-.4-2.6-.4-2.8-.1-1.1-1.4 1.7-1.4 1.8 0 2.9.5 2.7 1.1zm3.8.6c.3.6-.1.7-.9.4-1.8-.7-2.1-1.4-.7-1.4.6 0 1.3.4 1.6 1zm6 2.2c.5-.4.5-.1.1.5-1 1.8-2.3 1.6-3-.3-.5-1.3-.4-1.4.7-.6.8.7 1.8.8 2.2.4zm2 2.8c-.3.5-1.2 1-1.8 1-.7 0-.6-.4.3-1 1.9-1.2 2.3-1.2 1.5 0zm503.5 2.1c0 .5.5.7 1.2.3.7-.4.8-.3.4.5-.4.6-1.2.8-1.8.5-.8-.5-.9-.1-.5 1 .4 1 .3 1.5-.3 1.1-.6-.3-1 0-1.1.7 0 1-.2 1-.6 0-.2-.6-.9-1-1.4-.7-.5.4-.6-.1-.3-.9.3-.9 1.3-1.6 2.1-1.6s1.1-.5.8-1c-.3-.6-.1-1 .4-1 .6 0 1.1.5 1.1 1.1zm-503.6 2.5c-1.9 1.5-1.9 1.6.1 1 2-.6 2-.6.1.9-1.4 1.1-2.3 1.2-3.3.4-1.4-1.2-.8-3.3.7-2.4.5.3 1.1.1 1.5-.5.3-.5 1.1-1 1.8-1 .6 0 .2.7-.9 1.6zm4.1-.6c.3.5.1 1-.4 1-.6 0-1.1-.5-1.1-1 0-.6.2-1 .4-1 .3 0 .8.4 1.1 1zm494.5-.6c0 .3-.4.8-1 1.1-.5.3-1 .1-1-.4 0-.6.5-1.1 1-1.1.6 0 1 .2 1 .4zM109.5 596c1 1.1 1.6 2 1.3 2-.3 0-1.3-.9-2.3-2-1-1.1-1.6-2-1.3-2 .3 0 1.3.9 2.3 2zm481.5 2c0 .5-.5 1-1.1 1-.5 0-.7-.5-.4-1 .3-.6.8-1 1.1-1 .2 0 .4.4.4 1zm-474.5 1.9c-.9.8-3.6 1-3 .2.2-.4 1.1-.8 2-.8.8 0 1.3.3 1 .6zm4.2 3.6c0 .8-.4 1.2-.9.9-.5-.3-.6-1-.3-1.5.9-1.3 1.2-1.1 1.2.6zm463.8 2.2c-.2 1-.4 2.1-.4 2.5-.1.5-.6.8-1.2.8s-.7-.5-.2-1.3c.4-.6.8-1.5.9-2 .3-1.4.4-1.7.8-1.7.2 0 .3.8.1 1.7zm-460.4 3c1.3 1.6 1.2 1.7-.3.4-1-.7-1.8-1.5-1.8-1.7 0-.8.8-.3 2.1 1.3zm462.9-.2c-.7.8-.9 1.5-.4 1.5.4 0-.2 1-1.4 2.3-1.2 1.3-2 2.7-1.7 3 .3.4.3.6.1.4-.2-.1-.4-.4-.3-.7 0-.3-.5-1.5-1.2-2.7-.9-1.9-.9-2.2.3-1.7.9.3 2-.3 2.8-1.5.7-1.2 1.7-2.1 2.2-2.1.4 0 .3.7-.4 1.5zm-455.9 7.2c1.3 1.6 1.2 1.7-.3.4-1.7-1.3-2.2-2.1-1.4-2.1.2 0 1 .8 1.7 1.7zm5.7.8c-.3.3-.9-.2-1.2-1.2-.6-1.4-.5-1.5.5-.6.7.7 1 1.5.7 1.8zm438.8-.4c.3.6 1.6.8 2.8.5 2-.5 2-.5.2.9-2.2 1.7-4 2-3.1.6.3-.6-.3-1.4-1.2-2-1-.6-1.3-1.1-.6-1.1.6 0 1.5.5 1.9 1.1zm-440.9 1.4c0 .8-.4 1.2-.9.9-.5-.3-.6-1-.3-1.5.9-1.3 1.2-1.1 1.2.6zm1.6 3c-.3.9-.8 1.4-1 1.1-.3-.3-.2-.9.2-1.5.9-1.6 1.5-1.3.8.4zm432.9-.1c.7-.4.8-.2.4.5-.9 1.3-2.6.5-2.5-1.2 0-.9.2-.8.6.1.2.6 1 .9 1.5.6zM141 623.6c0 .2-.9 0-2-.6s-2-1.3-2-1.6c0-.2.9 0 2 .6s2 1.3 2 1.6zm422.5-1.6c-.3.5-1.2 1-1.8 1-.7 0-.6-.4.3-1 1.9-1.2 2.3-1.2 1.5 0zm-426 2c.3.5 1.5 1 2.6 1 1 0 1.9.4 1.9 1 0 .5-.7.6-1.7.3-1.1-.4-1.4-.3-.9.5.5.8.2 1-.8.6s-1.6-.1-1.6.7c-.1.9-.9.4-2.1-1-1.5-1.9-1.7-2.6-.7-3.2 1.7-1.1 2.6-1.1 3.3.1zm429 0c-.3.5-1.1 1-1.6 1-.6 0-.7-.5-.4-1 .3-.6 1.1-1 1.6-1 .6 0 .7.4.4 1zm-410.4 9.3c-1 .9-1.1.8-.5-.6.3-1 .9-1.5 1.2-1.2.3.3 0 1.1-.7 1.8zm400.2-.8c.4.8.2 1.7-.3 2-.5.3-.7 1.2-.3 2 .4 1.1.1 1.3-1.1.9-.9-.3-1.6-.1-1.6.6 0 .6-.4.9-.9.5-1.5-.8-.9-4.8.9-6.2 2-1.6 2.7-1.6 3.3.2zm-9.7 2.4c-.8 1.2.4 4.1 1.6 4.1.6 0 .8-.6.5-1.3-.3-.8-.2-2 .3-2.7.5-.7.7.2.7 2.3-.1 2-.4 3.4-.8 3.2-.3-.3-1.4.4-2.4 1.5-2 2.2-3.5 2.6-3.5 1 0-.6.8-1 1.8-1 1.4-.1 1.3-.4-.7-2-1.3-1.1-1.9-2-1.3-2 .5 0 1.5.7 2.2 1.5 1.7 2.1 2.4 1.1 1-1.4-1-1.9-.7-4.1.6-4.1.3 0 .3.4 0 .9zM173.5 648c-.3.6-1.2 1-1.8 1-.7 0-.6-.4.3-1 1.1-.8.3-.9-2.7-.6-2.4.3-4.3.2-4.4-.2 0-.4-.2-1.7-.3-2.9l-.3-2.2 4.9 2.5c2.7 1.4 4.6 2.9 4.3 3.4zm1.1-3.4c.1.9 0 1.3-.4 1-.3-.4-.7-1.4-.8-2.2-.1-.9 0-1.3.4-1 .3.4.7 1.4.8 2.2zm1.9 5.7c.2 1.8-.2 2.3-1.9 2.3-2.2 0-2.2-.1-.7-2.7 1.8-3.1 2.3-3 2.6.4zm6.5 1.8c0 .5-.4.9-.8.9-.5 0-.9-.7-.9-1.5s.4-1.2.9-.9c.4.3.8.9.8 1.5zm338.6.1c.3.4-.1.5-1 .4-.8-.1-1.8-.5-2.2-.8-.3-.4.1-.5 1-.4.8.1 1.8.5 2.2.8zm-328.8 6.3c0 3.3-1 3.8-3.8 1.8l-2.3-1.6 2.4-1.8c2.8-2.1 3.7-1.8 3.7 1.6zm5.2-.5c-.8.5-2.2.9-3 .9-1 0-.8-.3.5-.9 2.7-1.2 4.3-1.2 2.5 0zm305 2.1c0 .4-1.1.6-2.4.5-1.3 0-2.2-.4-2-.8.6-.9 4.4-.6 4.4.3zm-294 2.3c0 .2-.8 1-1.7 1.7-1.6 1.3-1.7 1.2-.4-.4 1.3-1.6 2.1-2.1 2.1-1.3zm2 3.2c0 .8-1.9 1.3-2.4.6-.3-.5.1-.9.9-.9s1.5.2 1.5.3zm286 .4c0 .5-.4 1-1 1-.5 0-1-.5-1-1 0-.6.5-1 1-1 .6 0 1 .4 1 1zm-5.5 3.8c-.3.3-1.1 0-1.8-.7-.9-1-.8-1.1.6-.5 1 .3 1.5.9 1.2 1.2zm-261.2 1.7c-.6 1.7-1.9 1.9-2.8.5-.4-.6-.1-.9.7-.8.7.2 1.2-.3 1-1-.1-.8.2-1.1.7-.7.6.3.8 1.2.4 2zm248.2-1.5c-.3.5-.2 1 .3 1 1.7 0 2.1 2.8.7 4-1.1.9-1.6.6-2.6-1.2-.9-1.9-.9-2.1.2-1.1 2.1 2 3.4 1.5 1.6-.5-1-1-1.4-2.2-1-2.5 1-1 1.5-.8.8.3zm4.5-.6c0 .3-.4.8-1 1.1-.5.3-1 .1-1-.4 0-.6.5-1.1 1-1.1.6 0 1 .2 1 .4zm-262 3c0 .6.5.4 1-.4.6-.9 1-1 1-.3 0 2-1.8 2.4-3.4.7-2-1.9-2-2.5-.1-1.8.8.4 1.5 1.1 1.5 1.8zm13.3.6c.3 1.1.1 1.8-.4 1.4-.5-.3-.9-1.2-.9-2 0-2 .7-1.7 1.3.6zm2.4-1.3c-.4.3-.1 1.3.6 2.2 1.1 1.4 1 1.4-.5.2-1.6-1.2-1.6-3.1-.1-3.1.4 0 .3.3 0 .7zm236.1 1.8c-.3.3-.9-.2-1.2-1.2-.6-1.4-.5-1.5.5-.6.7.7 1 1.5.7 1.8zm12.2-1.7c0 1.3-1.2 2.2-2.2 1.6-1-.6-.1-2.4 1.3-2.4.5 0 .9.4.9.8zM241 677c0 .5-.2 1-.4 1-.3 0-.8-.5-1.1-1-.3-.6-.1-1 .4-1 .6 0 1.1.4 1.1 1zm218 1c0 .5-.5 1-1.1 1-.5 0-.7-.5-.4-1 .3-.6.8-1 1.1-1 .2 0 .4.4.4 1zm-224.3 1.4c0 .8-.6 1.2-1.4.9-.7-.3-1-.9-.7-1.4.8-1.4 2.1-1.1 2.1.5zm227.3.1c-.7.8-1.7 1.5-2.3 1.5-.6 0-.2-.7.9-1.5 2.5-1.9 3-1.9 1.4 0zM249 681c0 .5-.7 1-1.6 1-.8 0-1.2.5-.9 1 .4.6 1.1.8 1.6.5.5-.4.9-.1.9.4 0 1.3-1.7 1.4-2.4.2-.8-1.2-3-.8-5 .8-1 .9-1.6.9-1.6.3 0-1.2 3.5-3.4 5.8-3.8.8-.1 1.6-.5 2-.8.8-.9 1.2-.7 1.2.4zm202 .4c0 .3-.4.8-1 1.1-.5.3-1 .1-1-.4 0-.6.5-1.1 1-1.1.6 0 1 .2 1 .4zm-198.3 1.9c-.1.5.4 1.2 1.1 1.4.8.3 1-.1.5-1.3-.6-1.6-.5-1.7.9-.4 1.1 1 1.2 1.7.4 2.6-.6.7-1.5.9-2.1.6-.5-.4-1.4-.7-1.9-.7s-1-.7-1.1-1.6c-.2-.9.3-1.6 1.1-1.6.7 0 1.2.5 1.1 1zm200 1.3c.1 1.8-.2 2.3-.9 1.6-.6-.6-.8-1.8-.5-2.6.9-2.2 1.2-2 1.4 1zm-155.2-.6c.3.6-.1.7-.9.4-1.8-.7-2.1-1.4-.7-1.4.6 0 1.3.4 1.6 1zm-21.4 2.3c-.8.8-1.4.7-2.3-.2-1.1-1-.9-1.1.6-.5 1.5.6 1.7.4 1.1-.6-.6-.9-.4-1.1.4-.5.9.5 1 1 .2 1.8zm-11.4.6c-.1 1.5-.4 1.7-1.4.9-1.7-1.4-1.6-2.8.1-2.8.8 0 1.4.9 1.3 1.9zm29.8-.9c.3.5.1 1-.4 1-.6 0-1.1-.5-1.1-1 0-.6.2-1 .4-1 .3 0 .8.4 1.1 1zm113 0c-.3.5-1.2 1-1.8 1-.7 0-.6-.4.3-1 1.9-1.2 2.3-1.2 1.5 0zm3 1.9c-.1 1.1-.6 2.5-1.2 3.3-.8.9-.8 1.6.2 2.5 1.5 1.4 2.6.7 1.8-1.3-.3-.8.1-1.4 1.1-1.4.9 0 1.6.5 1.6 1.1 0 .5-.4.7-1 .4-.5-.3-.7 0-.5.7.3.8 1.5 1.4 2.6 1.5 1.8.2 1.9 0 .7-1.4-.9-1.2-1-1.5 0-.9.7.4 1.2.2 1.2-.8 0-.8.5-1.8 1.1-2.2.8-.4.9.1.4 1.7-.7 2.1-.6 2.2.9 1 .9-.7 1.5-2 1.4-2.9-.2-.8.3-1.7 1.1-2 .9-.3 1.1.1.7 1.6-.5 1.5-.1 2.4 1.2 3.1 1.1.6 2.1.8 2.4.6.9-.9.2 3-.8 4.5-.5.8-1.9 1.6-3.1 1.6-1.3.1-2-.3-1.7-.7.3-.5 0-.9-.6-.9s-.8-.5-.5-1.1c.5-.6 1.1-.5 1.9.6 1 1.4 1.3 1.4 3.1 0 1.9-1.6 1.9-1.6-.2-.5-2.7 1.3-3.2-.4-.6-1.8 1.3-.8 1-1-1.4-.9-1.7.1-2.9.6-2.6 1.1.4.5 0 .6-.7.1-.9-.6-1.1-.4-.5.5.6.9.4 1.1-.6.5-1.1-.6-1.2-.5-.1.6.6.7 1.2 1.6 1.2 1.9 0 1-3.4.8-4.7-.3-.9-.6-1.3-.6-1.3.3 0 1-.3 1-1.5 0s-1.5-1-1.5.1c-.1 1-.4.9-1.1-.3-.5-1-1.7-1.5-2.7-1.2-1.4.5-1.4.4-.2-.4 1-.8 1.8-.8 2.7 0 .9.7 1.3.7 1.3 0 0-.6-.8-1.5-1.7-2.1-1.6-.8-1.6-1.1-.2-2.8.8-1 1.4-2.8 1.3-4 0-1.2.2-2.1.6-1.8.4.2.6 1.3.5 2.4zm10.5-2.5c0 .2-.7.7-1.6 1-.8.3-1.2.2-.9-.4.6-1 2.5-1.4 2.5-.6zM289 687c0 .5-.2 1-.4 1-.3 0-.8-.5-1.1-1-.3-.6-.1-1 .4-1 .6 0 1.1.4 1.1 1zm128 1.1c0 .5-.5.7-1.2.3-.8-.5-.9-.1-.4 1.2.5 1.4.4 1.6-.5.7-.6-.6-.8-1.6-.5-2.2.9-1.4 2.6-1.4 2.6 0zm-122.6 1.5c.3.8.2 1.2-.4.9-.6-.3-1-1-1-1.6 0-1.4.7-1.1 1.4.7zm2.7.1c1.3 1.6 1.2 1.7-.3.4-1-.7-1.8-1.5-1.8-1.7 0-.8.8-.3 2.1 1.3zm-7.6 4.2c-.1 3.4-.5 4.5-1.9 4.7-1.4.2-1.5 0-.4-1.3 1.1-1.4 1.1-1.5-.8-.5-1.2.6-2.4.8-2.8.5-.3-.3-.6-.1-.6.4 0 1.1-4.5 1.1-5.6.1-.5-.6 4.5-4.1 6.1-4.4.6 0 1.6-.2 2.3-.2.8-.1 1-.7.6-1.5-.5-.8-.2-.8.9.2 1 .8 1.7.9 1.7.3 0-.6-.8-1.5-1.7-2.1-1.6-.9-1.6-1 .3-.8 1.8.1 2.1.7 1.9 4.6zm105.2-3.4c0 .8-.4 1.2-.9.9-.5-.3-.6-1-.3-1.5.9-1.3 1.2-1.1 1.2.6zm4.3-.5c0 .5-.5 1-1.1 1-.5 0-.7-.5-.4-1 .3-.6.8-1 1.1-1 .2 0 .4.4.4 1zm6-.2c0 1.2-2.2 3.2-3.4 3.2-.6 0-.3-.5.7-1.1.9-.6 1.5-1.4 1.2-2-.4-.5-.1-.9.4-.9.6 0 1.1.4 1.1.8zM300.5 692c.3.5.1 1-.4 1-.6 0-1.1-.5-1.1-1 0-.6.2-1 .4-1 .3 0 .8.4 1.1 1zm8.5 0c0 .5-.5 1-1.1 1-.5 0-.7-.5-.4-1 .3-.6.8-1 1.1-1 .2 0 .4.4.4 1zm4-.6c0 .2-.7.7-1.6 1-.8.3-1.2.2-.9-.4.6-1 2.5-1.4 2.5-.6zm77 0c0 .2-.8 1-1.7 1.7-1.6 1.3-1.7 1.2-.4-.4 1.3-1.6 2.1-2.1 2.1-1.3zm6.7 2.1c0 .8-.4 1.2-.9.9-.5-.3-.6-1-.3-1.5.9-1.3 1.2-1.1 1.2.6zm-94 2.4c-.1 1.9-2.7 1.8-2.7-.1 0-.5.5-.6 1-.3.6.3 1 .1 1-.4 0-.6.2-1.1.4-1.1.3 0 .4.9.3 1.9zm102.6-1.2c-.7.2-1.9.2-2.5 0-.7-.3-.2-.5 1.2-.5s1.9.2 1.3.5zm-4.8 1.1c-.3.3.2 1 1 1.6 1.3.9 1 1.1-1.2 1.2-1.6.1-2.2-.1-1.5-.3.9-.4 1-.9.3-1.7-.8-.9-.6-1.3.4-1.3.8 0 1.3.3 1 .5zm-91 2.2c.3.6-.1.7-.9.4-1.8-.7-2.1-1.4-.7-1.4.6 0 1.3.4 1.6 1z"/><path d="M281.7 3.6c.2.7 0 1.5-.6 1.8-.6.4-.8 1.3-.4 2.2.5 1.2.7 1.2 1.9-.3 1.3-1.7 1.4-1.7.8-.1-.7 2 1.1 2.5 2.2.7.4-.8.9-.7 1.5.2.4.7 1.1 1 1.5.6.4-.4-.2-1.5-1.5-2.3-1.2-.9-2-2.1-1.8-2.8.3-.7-.4-1.2-1.8-1.2s-2.1.5-1.8 1.2zm3.1 1.6c.9 1.1 1 1.8.2 2.3-.6.4-1 .3-.9-.2.4-2-.2-2.4-1.8-1.2-1.5 1.3-1.5 1.2-.2-.8.7-1.2 1.4-2.1 1.4-2 0 .1.6.9 1.3 1.9zM418.6 3.2c.3.5 1 .6 1.5.3 1.3-.9 1.1-1.2-.6-1.2-.8 0-1.2.4-.9.9zM422.5 3.9c-.3.5 0 1.3.6 1.7.8.5.9.3.4-.6-.6-1-.4-1.2.9-.7 1 .4 1.5.3 1.1-.3-.8-1.3-2.2-1.3-3-.1zM274.7 6.4c-.4 1-.1 1.3.8.9.8-.3 1.2-.9.9-1.4-.7-1.2-1.1-1.1-1.7.5zM259.6 14.2c.3.5 1 .6 1.5.3 1.3-.9 1.1-1.2-.6-1.2-.8 0-1.2.4-.9.9zM468 20.4c0 .2.8 1 1.8 1.7 1.5 1.3 1.6 1.2.3-.4s-2.1-2.1-2.1-1.3zM530.7 48.9c.6.7.9 2 .6 2.7-.3.8-.3 1.4 0 1.4 1.4 0 1.4-3-.1-4.1-1.4-1.1-1.5-1.1-.5 0zM157.7 57.6c-.8.8.3 3.4 1.5 3.4.7 0 .6-.5-.1-1.3-.6-.8-.8-1.7-.4-2 .3-.4.4-.7.1-.7-.2 0-.7.3-1.1.6zM69.1 145.3c-1.3 2.1-1.2 2.1.5.5 1-1 1.6-2 1.3-2.2-.3-.3-1.1.5-1.8 1.7zM685 451.5c-.7.9-.8 1.5-.2 1.5.5 0 1.2-.7 1.6-1.5.3-.8.4-1.5.2-1.5s-.9.7-1.6 1.5zM671.3 492.5c0 .8.4 1.2.9.9.5-.3.6-1 .3-1.5-.9-1.3-1.2-1.1-1.2.6zM37.2 500.9c.7 1.1 1.6 1.7 2 1.4 1-.5-1-3.3-2.3-3.3-.5 0-.4.9.3 1.9zM583.9 611.7c-1.3 1.6-1.2 1.7.4.4 1.6-1.3 2.1-2.1 1.3-2.1-.2 0-1 .8-1.7 1.7zM135.9 624.8c.9.7 1 1.1.2 1.5-.7.4-.8.5 0 .3 1.5-.2 1.3-2-.3-2.4-1-.3-1-.2.1.6zM553.3 633.2c-1.6 2.7-1.2 4 .8 2.3 1-1 1.6-2.2 1.3-2.6-.7-1.2-1.1-1.1-2.1.3zM165.5 645c-.7 1.1-.8 1.1 2.3 1.4 2.7.3 2.8 0 .3-1.4-1.3-.7-2.2-.7-2.6 0zM174.6 650.7c-.6 1.4-.5 1.5.5.6.7-.7 1-1.5.7-1.8-.3-.3-.9.2-1.2 1.2zM190.4 657.5c-.4.8-1 1.2-1.5.9-.5-.3-.9-.3-.9 0s.8 1 1.8 1.5c1.4.7 1.7.5 1.8-1.5.2-2.7-.4-3.1-1.2-.9zM420.6 691.8c-.3.5.1.9.9.9s1.2-.4.9-.9c-.3-.4-.7-.8-.9-.8-.2 0-.6.4-.9.8zM411 696c0 .5.5 1 1 1 .6 0 1-.5 1-1 0-.6-.4-1-1-1-.5 0-1 .4-1 1zM414.4 696.2c.3 1.5 2.6 2.3 2.6.8 0-.6-.4-.9-.9-.6-.5.4-1.2.1-1.4-.4-.3-.6-.4-.5-.3.2zM287 693.8c0 .5-1.1.9-2.4.8-1.4 0-2.4.3-2.3.9.3 1.3 2.7 1.6 2.7.4 0-.6.4-.8.8-.5.4.2 1.4.1 2.1-.3.9-.6 1-1.1.2-1.5-.6-.4-1.1-.3-1.1.2zM435 4.2c0 .4.4.8.9.8.6 0 1.2-.4 1.5-.8.3-.5-.1-.9-.9-.9s-1.5.4-1.5.9zM414.7 6.5c.3.8.9 1.3 1.3 1 .5-.3 1 0 1.2.7.3.8.6.9 1.1.1.3-.5-.5-1.5-1.8-2.1-2-.9-2.3-.9-1.8.3zM451.7 9.6c-.3.4.1 1.7 1 3 1.4 2.2 1.4 2.4-.1 2.4-1 0-1.3.5-.9 1.6.5 1.4.9 1.3 2.5-.7 1.8-2.4 1.9-2.4 3.3-.5 1.6 2.1 2.1 1 .6-1.3-.5-.8-1.6-1.1-2.6-.7-1.3.4-1.6.2-1.1-.9.3-.8 0-1.4-.7-1.2-.7.1-1.1-.4-.9-1.1.2-1.3-.1-1.5-1.1-.6zM253.3 12.2c.4 1 .2 1.8-.3 1.8-.6 0-1-.6-1-1.3 0-.8-.3-.7-1 .3-1.3 2 .5 3.7 2.3 2.2.8-.7 1.8-.8 2.3-.4.4.4.2-.2-.6-1.3-2.1-3-2.4-3.2-1.7-1.3zM431 12.1c0 .5.5.7 1 .4.6-.3 1-.8 1-1.1 0-.2-.4-.4-1-.4-.5 0-1 .5-1 1.1zM243.5 13c-.3.5-.1 1 .4 1 .6 0 1.1-.5 1.1-1 0-.6-.2-1-.4-1-.3 0-.8.4-1.1 1zM231.5 14c-.3.5-.1 1 .4 1 .6 0 1.1-.5 1.1-1 0-.6-.2-1-.4-1-.3 0-.8.4-1.1 1zM246.5 14.9c.3 1.2.2 2.1-.3 2.1-.6 0-1.2-.5-1.4-1.2-.3-.8-.6-.7-1 .3s.1 1.5 1.2 1.6c2.8.2 4.1-1.9 2.3-3.6-1.3-1.2-1.4-1.1-.8.8zM471.7 15c.7.8 2 1.5 2.9 1.6.9.1 1.3-.1.9-.4-.4-.4-1-.7-1.3-.7-.4 0-1.4-.4-2.2-.9-1.2-.7-1.3-.6-.3.4zM227 15.9c0 .6.4 1.3 1 1.6.6.3.7-.1.4-.9-.7-1.8-1.4-2.1-1.4-.7zM231.5 17c-.3.6.1.7.9.4 1.8-.7 2.1-1.4.7-1.4-.6 0-1.3.4-1.6 1zM221 19.9c0 .6.4 1.3 1 1.6.6.3.7-.1.4-.9-.7-1.8-1.4-2.1-1.4-.7zM489.3 24.5c0 .8.4 1.2.9.9.5-.3.6-1 .3-1.5-.9-1.3-1.2-1.1-1.2.6zM211.8 27.8c-.3 1.1 0 1.9.7 1.9s1-.8.7-1.9c-.2-1-.6-1.8-.7-1.8-.1 0-.5.8-.7 1.8zM197.3 29.5c0 .8.4 1.2.9.9.5-.3.6-1 .3-1.5-.9-1.3-1.2-1.1-1.2.6zM187.6 36.5c-.9 2.6-.7 3.2.5 1.2.6-1 .9-2.1.6-2.3-.2-.3-.7.2-1.1 1.1zM510.7 36.1c.7.7 1.5 1 1.8.7.3-.3-.2-.9-1.2-1.2-1.4-.6-1.5-.5-.6.5zM520.5 40.8c.4 1.5.2 2.2-.5 2-2.2-.5-2.2 1.9 0 2.5 2.8.7 3.4-.8 1.5-4-1.3-2.3-1.5-2.4-1-.5zM166.6 44.2c.3.5 1 .6 1.5.3 1.3-.9 1.1-1.2-.6-1.2-.8 0-1.2.4-.9.9zM171 45c.8.5 2 1 2.5 1 .6 0 .3-.5-.5-1s-1.9-1-2.5-1c-.5 0-.3.5.5 1zM169.6 48.7c.4 2.3.3 2.5-1.1 1.3-1.4-1.1-1.6-1.1-1.3.1.2.8-.3 1.3-.9 1.1-.7-.1-1.3.3-1.3.9 0 .6.6.9 1.4.6.7-.3 1.8-.1 2.3.4.7.7 1.7.2 3-1.5 1.1-1.4 2.3-2.3 2.6-2 .3.3 1-.4 1.7-1.5.7-1.4.7-2.1 0-2.1-.5 0-1 .8-1.1 1.7 0 1.3-.2 1.4-.6.4-.4-1-.9-.8-2 1-1.2 2.1-1.3 2.1-.8.3.4-1.4 0-2.4-.9-2.7-1.1-.4-1.3 0-1 2zm1.4 2.9c0 .8-1.9 1.3-2.4.6-.3-.5.1-.9.9-.9s1.5.2 1.5.3zM538.5 48c-.3.6.1.7.9.4 1.8-.7 2.1-1.4.7-1.4-.6 0-1.3.4-1.6 1zM543 52c-.9.6-1 1-.3 1 .6 0 1.5-.5 1.8-1 .8-1.2.4-1.2-1.5 0zM546.3 54.3c1.1.9 1.4 1.8.8 2.1-.5.4-1.2.2-1.6-.4-.4-.6-1.1-.7-1.7-.4-.6.4-.2 1.5 1.1 2.8 1.2 1.1 3.1 3.4 4.2 4.9 1.6 2 2.6 2.6 4.1 2.1 1.2-.3 1.8-.2 1.5.3-.4.5 0 1 .8 1 1.9 0 1.9-.5.1-2.2-.8-.8-1.7-1-2.2-.5-.5.5-1.5.5-2.4-.1-1.3-.9-1.2-1 .3-.5 1.4.4 1.6.1 1.3-1.9-.2-1.3.1-2.6.7-2.8.6-.2.2-.6-1.1-.9-1.8-.5-2-.3-1.2 1.2.5.9.6 2 .3 2.4-1.2 1.1-2.1.6-1.9-1.2 0-.9-.5-1.6-1.1-1.5-.7.2-1.3-.2-1.3-.7 0-.6.5-1 1-1 1.8 0 1-1.9-1.2-3-2.1-1-2.2-1-.5.3zM555.5 58c-.3.5-.1 1 .4 1 .6 0 1.1-.5 1.1-1 0-.6-.2-1-.4-1-.3 0-.8.4-1.1 1zM149.9 60.3c1.1 1.4 1.1 2 .1 3.2-.7.8-1.7 1.2-2.3.8-.5-.3-.7-.1-.3.5.3.6.2 1.3-.4 1.7-.5.3-1 0-1-.7 0-1-.2-1-.9.1-.5.8-1.6 1.1-2.4.8-1.2-.4-1.4-.2-1 1.1.6 1.5.5 1.5-1.1.3-1.5-1.2-1.7-1.2-1.4 0 .2.8-.3 1.3-1 1.1-1-.2-1 .2 0 1.8 1.7 2.6 2.2 2.5 5.1-.9l2.4-2.9 1.3 2.3c1.7 3.1 3 2.3 2.5-1.5-.2-1.7 0-2.8.5-2.5.5.3 1.1.1 1.5-.5.4-.6 1-.8 1.5-.5 2.1 1.3.1-2.7-2.1-4.2-2.3-1.6-2.3-1.6-1 0zm3.1 2.1c0 .2-.8 1-1.7 1.7-1.6 1.3-1.7 1.2-.4-.4 1.3-1.6 2.1-2.1 2.1-1.3zm-4 5c0 .3-.4.8-1 1.1-.5.3-1 .1-1-.4 0-.6.5-1.1 1-1.1.6 0 1 .2 1 .4zm-6.5 2.6c-1.7 1.9-4.1 1.8-2.9-.1.3-.5.9-.7 1.4-.4.5.3 1.1.1 1.5-.5.3-.5.9-1 1.2-1 .3 0-.2.9-1.2 2zM558 64.4c0 .8.4 1.7.9 2 .5.4.7-.3.4-1.4-.6-2.3-1.3-2.6-1.3-.6zM131.3 70.5c0 .8.4 1.2.9.9.5-.3.6-1 .3-1.5-.9-1.3-1.2-1.1-1.2.6zM575.3 72.5c0 .8.4 1.2.9.9.5-.3.6-1 .3-1.5-.9-1.3-1.2-1.1-1.2.6zM574.6 75.8c-.3.5.1.9.9.9s1.2-.4.9-.9c-.3-.4-.7-.8-.9-.8-.2 0-.6.4-.9.8zM122 80c-.9.6-1 1-.3 1 .6 0 1.5-.5 1.8-1 .8-1.2.4-1.2-1.5 0zM583.5 85.9c-.3.5.5 1.7 1.7 2.5 1.2.9 1.9 1.6 1.4 1.6s-.1.9.8 1.9c1 1.1 1.5 2.4 1.2 3-.4.5-.2 1.2.4 1.6.5.3 1-.1 1-.9s.8-2 1.8-2.6c1.4-.9 1.3-1-.8-.4-2.3.6-2.4.6-1-1.2.8-1 1-1.6.6-1.2-.9.8-4.6-2.8-4.6-4.4 0-1.1-1.7-1-2.5.1zM112 88.5c-.7.8-1.7 1.2-2.3.8-.6-.4-.7-.1-.3.6.6.9 1.3.8 2.7-.5 1-.9 1.9-1.9 1.9-2.1 0-.7-.8-.2-2 1.2zM112.3 92.7c.4.6.2 1.3-.4 1.5-.6.2-1 1.2-.8 2.2.4 1.7.5 1.7 2.2-.1 1.7-1.9 1.7-2.1 0-3.4-.9-.8-1.4-.9-1-.2zM591.5 95c-.4.6-.3 1.6.3 2.2.6.6 1.2.6 1.7-.2.4-.6.3-1.6-.3-2.2-.6-.6-1.2-.6-1.7.2zM601.6 96.7c-.6 1.4-.5 1.5.5.6.7-.7 1-1.5.7-1.8-.3-.3-.9.2-1.2 1.2zM100 98c-.8.5-1 1-.5 1 .6 0 1.7-.5 2.5-1s1.1-1 .5-1c-.5 0-1.7.5-2.5 1z"/><path d="M596.7 98.4c-1.6 1.3-1.6 1.5-.2 3 1.3 1.2 2.1 1.3 4 .4 2.3-1 3.5-3 1.8-2.7-2.3.4-4.3-.2-3.8-1.1.8-1.3.4-1.2-1.8.4zm3.1 1.9c1.4-.4 1.4-.3.2.5-1.6 1.2-3 .7-2.9-1.1 0-.9.2-.9.5 0 .3.7 1.3.9 2.2.6zM97 105.9c0 1 1.4 1.5 3.3 1.2.5-.1.6.3.3.8-.4.5-1.5.8-2.5.6-1-.2-2.4.1-3.2.7-1.1.8-1.1.9.3.4 1-.3 2-.1 2.3.4.8 1.3 4.1-.4 4.8-2.4.4-.9 0-1.3-1.1-1.1-.9.1-2.3-.2-2.9-.8-.9-.6-1.3-.6-1.3.2zM609.6 108.7c-.6 1.4-.5 1.5.5.6.7-.7 1-1.5.7-1.8-.3-.3-.9.2-1.2 1.2zM86 112c-.9.6-1 1-.3 1 .6 0 1.5-.5 1.8-1 .8-1.2.4-1.2-1.5 0zM609.6 112.6c-.4 1-.4 1.5 0 1.2.9-1 3.7 2 3 3.1-.7 1 2 4.1 3.5 4.1.5 0 .7-1.1.5-2.4-.2-1.4.1-2.7.7-3 .7-.3.6-.5-.3-.5-3.1.2-4.1-.1-3.4-1.3.4-.6.3-.8-.4-.4-.6.3-1.5-.1-2-1-.8-1.5-1-1.4-1.6.2zm6 6c.2 1.2-.1 1.3-1.2.3-.7-.6-1.1-1.6-.8-2.1.7-1.1 1.7-.3 2 1.8zM615.3 112.5c0 .8.4 1.2.9.9.5-.3.6-1 .3-1.5-.9-1.3-1.2-1.1-1.2.6zM79.5 120.9c-.3.5-.2 1.2.3 1.5.5.3.9-.1.9-.9 0-1.7-.3-1.9-1.2-.6zM77.6 124.3c.3 1 .9 1.5 1.2 1.2.3-.3 0-1.1-.7-1.8-1-.9-1.1-.8-.5.6zM627 126.9c0 .6.4 1.3 1 1.6.6.3.7-.1.4-.9-.7-1.8-1.4-2.1-1.4-.7zM69 128c0 .5.5 1 1.1 1 .5 0 .7-.5.4-1-.3-.6-.8-1-1.1-1-.2 0-.4.4-.4 1zM73.3 129.5c0 .8.4 1.2.9.9.5-.3.6-1 .3-1.5-.9-1.3-1.2-1.1-1.2.6zM68.1 136.6c0 1.1.3 1.4.6.6.3-.7.2-1.6-.1-1.9-.3-.4-.6.2-.5 1.3zM632.6 135.8c-.3.5.1.9.9.9s1.2-.4.9-.9c-.3-.4-.7-.8-.9-.8-.2 0-.6.4-.9.8zM635.7 139.7c-1 .9-.9 2.3.1 2.3.5 0 .9-.7.9-1.5 0-1.7-.1-1.8-1-.8zM61 146c0 .5.5 1 1.1 1 .5 0 .7-.5.4-1-.3-.6-.8-1-1.1-1-.2 0-.4.4-.4 1zM640.5 146c-.3.6.1.7.9.4 1.8-.7 2.1-1.4.7-1.4-.6 0-1.3.4-1.6 1zM63.6 149c.6.8 1.3 2.2 1.6 3 .3.9.7 1 1.1.3.4-.6-.3-1.9-1.6-2.9-1.2-1.1-1.7-1.2-1.1-.4zM55.7 150.7c-1 .9-.9 2.3.1 2.3.5 0 .9-.7.9-1.5 0-1.7-.1-1.8-1-.8zM645 152c0 .5.5 1 1.1 1 .5 0 .7-.5.4-1-.3-.6-.8-1-1.1-1-.2 0-.4.4-.4 1zM53.6 160.5c-.3.9-.2 1.4.3 1 .5-.3 1.1.1 1.4.7.2.7.7 1.1 1 .8.3-.3 0-1.3-.8-2.3-1.1-1.6-1.3-1.6-1.9-.2zM650 164c0 .5.5 1 1.1 1 .5 0 .7-.5.4-1-.3-.6-.8-1-1.1-1-.2 0-.4.4-.4 1zM43 167.9c0 .6.4 1.3 1 1.6.6.3.7-.1.4-.9-.7-1.8-1.4-2.1-1.4-.7zM44.3 172.6c-.3.8-1.2 1.3-2 1-.8-.3-1.1-.1-.8.4 1 1.6 2.3 1.2 3.5-1 .6-1.1.8-2 .5-2-.3 0-.8.7-1.2 1.6zM659.6 172.7c-.4.9-.3 2 .1 2.4.4.4.9-.3.9-1.7.2-2.8-.1-3.1-1-.7zM45.6 174.6c-.6 1.7 1.2 4.9 2.2 3.9 1.1-1.1 1-3.4-.3-4.5-.9-.8-1.4-.6-1.9.6zm2.1 1.9c0 .8-.4 1.2-.9.9-.4-.3-.8-.9-.8-1.5 0-.5.4-.9.8-.9.5 0 .9.7.9 1.5zM654 174.4c0 .2.8 1 1.8 1.7 1.5 1.3 1.6 1.2.3-.4s-2.1-2.1-2.1-1.3zM38.5 180c-.3.6.1.7.9.4 1.8-.7 2.1-1.4.7-1.4-.6 0-1.3.4-1.6 1zM657.6 180.7c2.2 1.6 3.4 1.7 3.4.2 0-.5-.4-.7-1-.4-.5.3-1 .2-1-.3s-.7-.9-1.6-.9c-1.4 0-1.4.2.2 1.4zM660.9 183.6c-.1.2-.2.7-.3 1.1-.1.5-.5 1.3-.9 1.9-1 1.7 1.5 3.5 3.3 2.4 1.3-.8 1.3-1 .1-1-.8 0-1.1-.3-.8-.7.4-.3.2-1.2-.4-2-1.6-1.8.1-1.6 2.2.3 1.1 1 1.9 1.2 2.4.4.4-.6.1-.9-.7-.8-.7.2-1.2-.2-1.1-.7.2-1-3.6-1.9-3.8-.9zm.8 3.9c0 .8-.4 1.2-.9.9-.5-.3-.6-1-.3-1.5.9-1.3 1.2-1.1 1.2.6zM662.9 190.7c-.1.5-.1 1.1 0 1.5 0 .5-.4.8-1 .8-.5 0-.7.5-.3 1.2.5.7 1.1.5 2.1-.7.7-1.1 1.3-2.2 1.3-2.7 0-1-2-1.1-2.1-.1zM31 196.2c0 .4.4.8.9.8.6 0 1.2-.4 1.5-.8.3-.5-.1-.9-.9-.9s-1.5.4-1.5.9zM674.9 205.7c-1.3 1.6-1.2 1.7.4.4 1.6-1.3 2.1-2.1 1.3-2.1-.2 0-1 .8-1.7 1.7zM674.6 208.8c-.3.5.1.9.9.9s1.2-.4.9-.9c-.3-.4-.7-.8-.9-.8-.2 0-.6.4-.9.8zM23 224.5c0 .8.4 1.5 1 1.5.5 0 .7-.7.4-1.5-.4-.8-.8-1.5-1-1.5-.2 0-.4.7-.4 1.5zM17.6 225.8c-.3.5.1.9.9.9s1.2-.4.9-.9c-.3-.4-.7-.8-.9-.8-.2 0-.6.4-.9.8zM685.5 230.1c-.6.8-.4 1 .5.4 1-.6 1.2-.4.6 1.1s-.5 1.7.5.6c.9-.9 1-1.5.2-2.3-.8-.8-1.3-.7-1.8.2zM687 236.9c0 .5.5 1.3 1 1.6.6.3 1 .2 1-.4 0-.5-.4-1.3-1-1.6-.5-.3-1-.2-1 .4zM15 238c0 .5.5 1 1 1 .6 0 1-.5 1-1 0-.6-.4-1-1-1-.5 0-1 .4-1 1zM689 248c0 .5.5 1 1.1 1 .5 0 .7-.5.4-1-.3-.6-.8-1-1.1-1-.2 0-.4.4-.4 1zM11.5 250c.3.5.8 1 1.1 1 .2 0 .4-.5.4-1 0-.6-.5-1-1.1-1-.5 0-.7.4-.4 1zM11.5 255c-.3.6.1.7.9.4.9-.3 1.6-.1 1.6.5s-.8 1.1-1.7 1.1c-1.5 0-1.5.2-.4.9 1 .7 1.9.4 2.7-.7.9-1.3.9-1.9.1-2.4-1.6-1-2.5-1-3.2.2zM694.7 266.5c.3.8.9 1.2 1.4.9 1.2-.7 1.1-1.1-.5-1.7-1-.4-1.3-.1-.9.8zM1.3 270.5c0 .8.4 1.2.9.9.5-.3.6-1 .3-1.5-.9-1.3-1.2-1.1-1.2.6zM9 272.5c-.7.8-1.7 1.2-2.3.8-.6-.4-.7-.1-.3.6.6.9 1.3.8 2.7-.5 2.3-2.1 2.4-1.2.3 2.2-1.5 2.2-1.5 2.4 0 1.8 1.2-.4 1.6 0 1.6 1.6 0 1.1.5 1.8 1 1.5.7-.4.7-1.2 0-2.5s-.6-2.1.5-3c1.2-1 1.3-1.6.4-2.6-1.5-1.8-2.4-1.8-3.9.1zm4 .9c0 .2-.8 1-1.7 1.7-1.6 1.3-1.7 1.2-.4-.4 1.3-1.6 2.1-2.1 2.1-1.3zM699 279.1c0 .5-.4.8-.9.5-.5-.3-1.4.1-2 .8-.9 1-.9 1.6-.1 2.1s.6 1.1-.6 1.9c-1.5 1.2-1.5 1.3.6 1.1 2.4-.2 4.2-2.5 2-2.5-.6 0-.8-.5-.5-1 .4-.6 1-.8 1.4-.6.4.3.8-.4.8-1.5.1-1 0-1.9-.3-1.9-.2 0-.4.5-.4 1.1zM1.8 280.9c2.6 2.3 2.8 3.4.7 5.1-1.8 1.5-2-.1-.2-1.9.8-.9.8-1.2 0-.7-.6.3-1.3.1-1.5-.5-.2-.7-.4 2.7-.4 7.4.1 7.1.3 8.6 1.6 8.4 1.8-.3 5.9-2.6 4.6-2.7-.4 0 .5-1.4 2.2-3.1 3.2-3.3 3.7-6.9 1.2-9.2-1-1-1.2-.9-.7.5.4 1.2.1 1.8-.9 1.8-.8 0-1.3-.4-.9-.9.3-.5 0-1.3-.6-1.7-.8-.4-.9-.3-.5.4s.2 1.2-.3 1.2c-.6 0-1.1-.6-1.1-1.4 0-.7-1.2-2.1-2.8-3l-2.7-1.7 2.3 2zm7.5 6.3c.5-.1.6.2.2.8-.3.5-.2 1 .3 1 .6 0-.3 1.4-1.9 3.1-1.6 1.7-2.9 3.5-2.9 4s-.5.9-1.2.9c-.9 0-.9-.3 0-1.2.7-.7 1.2-1.7 1.2-2.3-.1-.5-.9 0-1.9 1.2L1.2 297l.3-4.5c.3-5.8 1.9-7.9 4.9-6.3 1.1.7 2.5 1.1 2.9 1z"/><path d="M3.5 287c-.4.7-.9 2.5-1 4.1-.2 2.2 0 2.7 1 1.9.6-.5 1.4-.8 1.7-.5.3.3 1.3-.3 2.2-1.4 1.1-1.2 1.4-2.1.7-2.6-.6-.3-1.1-.3-1.1.1s-.6 0-1.3-1.1c-1.1-1.4-1.6-1.5-2.2-.5zm3.8 2.4c.8-.5.8-.3 0 .6-1.9 2-4.1 2.1-3.8.1.2-.9.4-2.1.5-2.6 0-.6.5-.2 1.1.8.6.9 1.6 1.4 2.2 1.1zM698.3 286.7c-1.5.5-1.7 2.3-.4 2.3.5 0 1.1-.7 1.5-1.5.3-.8.4-1.5.3-1.4-.1 0-.8.3-1.4.6zM697.6 291.2c.3.5 1 .6 1.5.3 1.3-.9 1.1-1.2-.6-1.2-.8 0-1.2.4-.9.9zM.4 406.4c0 4.1.4 7.2.9 6.9 1.2-.7.8 1.2-.5 2.5-.9.9-.9 1.2 0 1.2.7 0 1.2-.5 1.2-1 0-.6 1-.2 2.2 1 1.5 1.3 2.4 1.6 2.9.9.4-.7.9-.7 1.3-.1.3.5-.3 1.7-1.4 2.7-1.9 1.7-2 1.7-2 0 0-1-.3-1.6-.6-1.2-.4.3-.4 1.4 0 2.3.5 1.2 1 1.4 1.9.5 1-.8 1.7-.7 2.5.1.9.9 1.2.9 1.2.1 0-.6.7-1.9 1.6-2.7.8-.9 1.1-1.6.5-1.6-.6 0-1.1-.6-1.1-1.4 0-.8-1.1-2.8-2.5-4.4-2.2-2.6-2.3-3.1-1-4.9 1.3-1.8 1.3-2.2 0-2.6-.8-.4-1.2-.1-.9.7.3.8-.5 1.2-2.6 1.2-1.6 0-3-.3-3-.8 0-.4.4-.8.9-.8 1.3 0 .7-5.3-.6-5.7-.7-.3-1 2.4-.9 7.1zm4.8 1.9c.3-.4.4-.3.2.3-.1.7.6 2.1 1.7 3.2 1 1.2 1.9 2.8 1.9 3.6 0 .8.4 1.7 1 2.1 1.1.7.2 3.5-1.2 3.5-.7 0-.6-.5.1-1.4.9-1 .8-1.6-.4-2.6-.8-.7-1.3-1.6-1-2 .3-.5.1-1.1-.4-1.5-.6-.3-.8.3-.6 1.5.5 2.7-1.1 2.5-3.1-.4-2.7-4.2-2.6-8.9.1-6.6.7.6 1.5.7 1.7.3z"/><path d="M2.5 409.7c.2 1 .4 2.1.4 2.5.1 1.1 3.1 1 3.1 0 0-.5-.9-1.7-1.9-2.6-1.9-1.7-1.9-1.7-1.6.1zM1.5 419c.3.5.8 1 1.1 1 .2 0 .4-.5.4-1 0-.6-.5-1-1.1-1-.5 0-.7.4-.4 1zM.1 420.7c-.1 1.7 1.6 2.5 2.5 1.2.4-.7.3-.9-.4-.5-.5.3-1.3 0-1.5-.6-.4-.9-.6-1-.6-.1zM3.5 427c1 1.1 2 2 2.3 2 .3 0-.3-.9-1.3-2s-2-2-2.3-2c-.3 0 .3.9 1.3 2zM694.8 433.7c.6.2 1.8.2 2.5 0 .6-.3.1-.5-1.3-.5-1.4 0-1.9.2-1.2.5zM686.5 437c.4.6 1.1.8 1.6.5 1.4-.9 1.1-1.5-.7-1.5-.8 0-1.2.5-.9 1zM692.6 439.7c-.6 1.4-.5 1.5.5.6.7-.7 1-1.5.7-1.8-.3-.3-.9.2-1.2 1.2zM12.1 456.7c-.1 1.7 1.6 2.5 2.5 1.2.4-.7.3-.9-.4-.5-.5.3-1.3 0-1.5-.6-.4-.9-.6-1-.6-.1zM15.6 463.5c.4.8.8 1.5 1 1.5.2 0 .4-.7.4-1.5s-.4-1.5-1-1.5c-.5 0-.7.7-.4 1.5zM19.3 468.4c1.5 1.4 2.6 2.9 2.4 3.4-.2.4.4 1.4 1.3 2.3 1.6 1.5 1.8 1.5 2.8-.2.8-1.3.8-2-.3-2.9-.8-.6-1.8-.9-2.4-.6-.5.3-1.1-.1-1.5-.9-.3-.8-.1-1.7.4-2 .6-.4 1-.1 1 .5s.5.8 1.1.4c.8-.4.7-.9-.2-1.5-.8-.4-1.8-.4-2.3.1-.5.5-1.7.5-3-.2-1.5-.8-1.3-.4.7 1.6zm5.8 3.9c-.1 1.2-1.5.9-1.9-.4-.3-.6.1-1 .8-.8.6.3 1.1.8 1.1 1.2zM685.4 467.8c.4.3 1.4.7 2.2.8.9.1 1.3 0 1-.4-.4-.3-1.4-.7-2.2-.8-.9-.1-1.3 0-1 .4zM17.1 473.3c.2.1 1.3.9 2.4 1.7 1.9 1.4 1.9 1.4.6-.3-.7-.9-1.8-1.7-2.4-1.7-.6 0-.8.1-.6.3zM682 476c0 .4.7.7 1.5.6 2.3-.3 2.6-1.2.5-1.3-1.1-.1-2 .2-2 .7zM23.5 478c-.3.5-.2 1 .4 1 .6 0 .8.8.5 1.7-.5 1.4-.4 1.5.4.4.6-.8.8-2 .5-2.8-.6-1.6-1-1.6-1.8-.3zM26.5 480.9c-.3.6-.3 1.1.2 1.1.4.1-.3.8-1.7 1.6s-1.8 1.3-.8 1c1.6-.5 5.3 2.6 4.3 3.6-.3.3.3.8 1.4 1.1 2 .5 2 .4.3-1.9-.9-1.3-2-2.4-2.4-2.4-.5 0-.8-.5-.8-1.1 0-.5.4-.8.9-.5.5.4.8-.1.7-.9-.3-2.1-1.3-2.8-2.1-1.6z"/><path d="M25.5 488c.3.5.8 1 1.1 1 .2 0 .4-.5.4-1 0-.6-.5-1-1.1-1-.5 0-.7.4-.4 1zM675.7 488.7c-1 .9-.9 2.3.1 2.3.5 0 .9-.7.9-1.5 0-1.7-.1-1.8-1-.8zM27.5 497c-.3.6.1.7.9.4 1.8-.7 2.1-1.4.7-1.4-.6 0-1.3.4-1.6 1zM28 500c-1.2.7-1 .9.7.7 1.2 0 1.9-.5 1.7-.9-.6-1-.6-1-2.4.2zM673 502c0 .5.5 1 1.1 1 .5 0 .7-.5.4-1-.3-.6-.8-1-1.1-1-.2 0-.4.4-.4 1zM666.3 506.7c.1 1.7.4 1.9 1.4 1.1 1.5-1.2 1.8-2.2.4-1.4-.5.4-1.1 0-1.4-.6-.3-.7-.4-.3-.4.9zM663.5 507c-.3.5-.1 1 .4 1 .6 0 1.1-.5 1.1-1 0-.6-.2-1-.4-1-.3 0-.8.4-1.1 1zM660.7 508.4c-.3.8.1 2 .9 2.7 1.2 1 1.3.9.8-.5-.5-1.3-.2-1.5 1.2-1 2 .8 1.9.6-.7-1.4-1.4-1-1.8-1-2.2.2zM665 511c-.8.5-1.2 1.2-.9 1.5.4.3 1.2-.1 1.9-1 1.4-1.7 1.1-1.9-1-.5zM39.6 520.2c.3.4.9.8 1.5.8.5 0 .9-.4.9-.8 0-.5-.7-.9-1.5-.9s-1.2.4-.9.9zM661.1 523.3c-1.3 2.1-1.2 2.1.5.5 1-1 1.6-2 1.3-2.2-.3-.3-1.1.5-1.8 1.7zM654 526c-1.8 2.6-1.9 3-.5 3 .9 0 1.4.4 1.1.8-.3.5.1.9.9.9s1.1-.5.8-1c-.4-.6 0-.8.8-.5 1 .4 1.5-.4 1.6-2.8.2-4.3-1.8-4.5-4.7-.4zm3.6-.3c-.1 2-1.6 3.4-2.8 2.7-.8-.5 1.2-4.4 2.3-4.4.4 0 .6.8.5 1.7zM42.6 525.7c-.6 1.4-.5 1.5.5.6.7-.7 1-1.5.7-1.8-.3-.3-.9.2-1.2 1.2zM51 530c0 .5.5 1 1.1 1 .5 0 .7-.5.4-1-.3-.6-.8-1-1.1-1-.2 0-.4.4-.4 1zM48 532c-1.2.7-1 .9.7.7 1.2 0 1.9-.5 1.7-.9-.6-1-.6-1-2.4.2zM51.6 533.7c-.6 1.4-.5 1.5.5.6.7-.7 1-1.5.7-1.8-.3-.3-.9.2-1.2 1.2zM648.2 533.3c-.8.9-.5 1.9.9 3.7 1.4 1.8 1.7 2 1.2.6-.4-1.3-.3-1.7.5-1.2s1 .2.6-.8c-.3-.9-1-1.6-1.6-1.6-.5 0-.6-.5-.3-1 .9-1.4-.1-1.2-1.3.3zM654 532.4c0 .2.7.7 1.6 1 .8.3 1.2.2.9-.4-.6-1-2.5-1.4-2.5-.6zM53.6 539.4c.3.8 1.4 1.4 2.4 1.3 1.7-.1 1.8-1.2.2-1.2-.4 0-1.3-.4-1.9-.8-.9-.6-1.1-.3-.7.7zM643.5 538.9c-.3.5-.2 1.2.3 1.5.5.3.9-.1.9-.9 0-1.7-.3-1.9-1.2-.6zM55 546c0 .5.5 1 1.1 1 .5 0 .7-.5.4-1-.3-.6-.8-1-1.1-1-.2 0-.4.4-.4 1zM647.6 548.2c.3.5 1 .6 1.5.3 1.3-.9 1.1-1.2-.6-1.2-.8 0-1.2.4-.9.9zM64.5 549c-.3.5-.3 1 .1 1s-.1.7-1.2 1.5c-1.3 1.1-1.4 1.4-.4 1.3.8-.2 1.8-.7 2.2-1.3 1-1.4 2.1.1 1.2 1.7-1.6 2.5-1.3 3.8.6 2.8 1.3-.7 2-.6 2.4.6.9 2.4.7 2.8-.7 1.6-.9-.8-1.7-.8-2.7 0-1.3.8-1.2.9.2.5 1.9-.6 4.2 1.5 3 2.8-.4.5-.1.5.6.1s1-1.2.7-1.7c-.4-.5-.1-.9.5-.9s.4-1-.6-2.4c-1-1.7-2.1-2.3-3.2-1.9-1.5.6-1.5.4-.4-.9 1-1.3 1.1-2.2.2-3.7-1.2-2.4-1.6-2.5-2.5-1.1zM639.5 549c-.3.5-.1 1 .4 1 .6 0 1.1-.5 1.1-1 0-.6-.2-1-.4-1-.3 0-.8.4-1.1 1zM642 550.4c0 .2.7.7 1.6 1 .8.3 1.2.2.9-.4-.6-1-2.5-1.4-2.5-.6zM635.4 561.8c.3.6-.2 1.5-1.1 2.1-1 .6-1.3 1.1-.7 1.1 2 0 3.7-2.7 2.3-3.6-.7-.4-.9-.3-.5.4zM71.3 567.3c0 .8.6 1.4 1.4 1.4.9 0 1-.4.2-1.4-.6-.7-1.2-1.3-1.4-1.3-.1 0-.2.6-.2 1.3zM77.6 576.2c.3.5 1 .6 1.5.3 1.3-.9 1.1-1.2-.6-1.2-.8 0-1.2.4-.9.9zM617.5 582c.3.5.8 1 1.1 1 .2 0 .4-.5.4-1 0-.6-.5-1-1.1-1-.5 0-.7.4-.4 1zM85 584.2c0 .6.3.8.7.5.3-.4 1.5 0 2.5 1 2.2 2 2.4 1.1.2-1.1-1.8-1.9-3.4-2.1-3.4-.4zM85.5 588c.3.5.8 1 1.1 1 .2 0 .4-.5.4-1 0-.6-.5-1-1.1-1-.5 0-.7.4-.4 1zM601 594.4c0 .2.8 1 1.8 1.7 1.5 1.3 1.6 1.2.3-.4s-2.1-2.1-2.1-1.3zM103 596c0 .6-.5.8-1.1.5-.6-.4-.5.2.2 1.3.7 1.2 1.8 1.8 2.3 1.5.6-.4.5-.8-.3-1.1-1-.3-1-.6-.1-1.2.9-.5.9-.9.1-1.4-.6-.4-1.1-.2-1.1.4zM100.1 599.6c0 1.1.3 1.4.6.6.3-.7.2-1.6-.1-1.9-.3-.4-.6.2-.5 1.3zM103.5 602.9c-.3.5-.2 1.2.3 1.5.5.3.9-.1.9-.9 0-1.7-.3-1.9-1.2-.6zM106 603.4c0 .2.8 1 1.8 1.7 1.5 1.3 1.6 1.2.3-.4s-2.1-2.1-2.1-1.3zM588.5 604c.3.5.8 1 1.1 1 .2 0 .4-.5.4-1 0-.6-.5-1-1.1-1-.5 0-.7.4-.4 1zM108.9 608.3c.6.8.7 1.8.3 2.2-.4.5-.1.5.6.1 1-.6 1-1.1.1-2.2-.6-.8-1.4-1.4-1.6-1.4-.3 0 0 .6.6 1.3zM117.6 610.5c-.3.8-1.2 1.5-2 1.5-2 0-2.9 1.7-1.5 2.6.8.5.9.3.4-.6-.6-1-.3-1.2 1.3-.8 1.2.4 2 .2 1.7-.2-.3-.5-.1-1.1.5-1.5.5-.3 1-.1 1 .5s.4.9.9.6c.5-.3 1.5.2 2.2 1.1 1.2 1.4 1.1 1.5-.9.9-1.2-.4-2.2-.3-2.2.2s.6.9 1.3.9c.6 0 1.9.4 2.8.7 1 .5 1.9.1 2.3-.9.3-.9.2-1.3-.4-1-.5.3-1.4-.3-2-1.4-1.5-3-4.7-4.4-5.4-2.6zM119.6 618.2c.3.5 1 .6 1.5.3 1.3-.9 1.1-1.2-.6-1.2-.8 0-1.2.4-.9.9zM123.5 619c.3.5.8 1 1.1 1 .2 0 .4-.5.4-1 0-.6-.5-1-1.1-1-.5 0-.7.4-.4 1zM129.6 628.2c.3.5 1 .6 1.5.3 1.3-.9 1.1-1.2-.6-1.2-.8 0-1.2.4-.9.9zM559.5 631c-.3.5-.1 1 .4 1 .6 0 1.1-.5 1.1-1 0-.6-.2-1-.4-1-.3 0-.8.4-1.1 1zM149.6 639.8c-.3.5.1.9.9.9s1.5-.4 1.5-.9c0-.4-.4-.8-.9-.8-.6 0-1.2.4-1.5.8zM155 640.1c0 .5-.4.7-1 .4-.6-.3-.7.1-.4 1 .5 1.1 1.4 1.5 2.9 1.1 1.9-.5 2.2-.3 1.8 1.4-.3 1.1-1 1.7-1.6 1.3-.6-.3-.7-.1-.3.6.9 1.4 2.6.5 2.6-1.5 0-.8.8-1.4 1.7-1.4 1.3 0 1.4-.3.5-1.2-1.5-1.5-4.2-1.9-4.2-.7 0 .5-.4.9-1 .9-.5 0-.7-.7-.4-1.5.4-.8.3-1.5 0-1.5s-.6.5-.6 1.1zM550.1 644.2c-1.4 2.3-1.4 2.3.8.4 2.2-2 2.5-2.6 1.3-2.6-.4 0-1.3 1-2.1 2.2zM169.3 655.1c-.2 2.3.3 2.5 1 .4.4-.8.3-1.6-.1-1.9-.4-.3-.9.4-.9 1.5zM178.3 654.3c.4 1 .2 2.8-.4 3.9-1.7 3.1-.5 3 1.3-.2 1.5-2.7 1.5-3 0-4.2-1.4-1.1-1.5-1-.9.5zM174.7 655.6c.7.3.9 1.3.6 2.2-.4 1.5-.3 1.5.6.2 1.5-2.2 1.4-3-.6-2.9-1 0-1.3.3-.6.5zM180.1 659.6c0 1.1.3 1.4.6.6.3-.7.2-1.6-.1-1.9-.3-.4-.6.2-.5 1.3zM509.9 660c-.8 1.2-2.1 2.2-3 2.3-.8.2-3.6 2-6.2 4.1-2.8 2.3-5.1 3.5-5.9 3-1-.5-1-.4-.1.6 1 1.1 1.5 1.1 2.9-.1 1.6-1.2 1.7-1.2 1.1.3-1 2.7 0 2.1 1.8-1 1.5-2.6 1.6-2.6 1-.2l-.6 2.5 1.3-2.3c1.3-2.1 1.5-2.1 3.1-.5 1.5 1.6 1.6 1.5 1.1-1.1-.3-1.6-.1-2.5.5-2.2.5.4 1.3.1 1.7-.5.4-.8.3-.9-.4-.5s-1.2.2-1.2-.5c0-.6.8-.9 1.9-.6 1.5.3 1.8.1 1.4-1.1-.5-1.1-.3-1.3.8-.6.8.5 2.6.9 4 1 1.9 0 2.5-.4 2.4-2-.2-2.3-2-3.2-3-1.6-.5.8-1.1.8-2 0-.9-.8-1.6-.5-2.6 1zm6.5.3c-.6 1.6-4.1 1.9-5 .5-.5-.7-.1-.9.9-.5.9.3 1.9.2 2.2-.3.9-1.5 2.5-1.2 1.9.3zm-10.8 5.1c-.1 1.6-.5 2.1-1.2 1.5-.6-.5-1.3-.8-1.5-.6-.2.1.3-.6 1.1-1.5s1.6-1.7 1.6-1.7c.1-.1.1 1 0 2.3zM519 661.1c0 .5.5.7 1 .4.6-.3 1-.8 1-1.1 0-.2-.4-.4-1-.4-.5 0-1 .5-1 1.1z"/><path d="M509.5 666c-.2.3.9.6 2.5.6 1.7 0 2.7-.2 2.5-.5-.8-.7-4.5-.9-5-.1zM488.6 672.7c.2.7-.3 1.3-1.1 1.3-.7 0-1.6.4-2 1-.3.5.7.5 2.5-.1 1.6-.6 3-1.5 3-2.1 0-.5-.4-.7-.9-.4-.5.4-1.1.3-1.4-.1-.2-.5-.2-.2-.1.4zM506.6 672.2c.3.5 1 .6 1.5.3 1.3-.9 1.1-1.2-.6-1.2-.8 0-1.2.4-.9.9zM201.5 674c-.2.3.5.6 1.5.7 1.1.1 2.2-.2 2.4-.5.3-.4-.4-.8-1.5-.8s-2.2.3-2.4.6zM230 676.5c-.8.9-.8 1.5-.2 1.5 1.2 0 2.6-1.9 1.9-2.6-.2-.2-1 .2-1.7 1.1zM486.6 678.2c.3.5 1 .6 1.5.3 1.3-.9 1.1-1.2-.6-1.2-.8 0-1.2.4-.9.9zM228.6 680.5c.4.8.8 1.5 1 1.5.2 0 .4-.7.4-1.5s-.4-1.5-1-1.5c-.5 0-.7.7-.4 1.5zM229 683.5c0 .5.5 1.7 1 2.5s1 1 1 .5c0-.6-.5-1.7-1-2.5s-1-1.1-1-.5zM444.6 685.9c-1.5 1.6-2.2 1.8-3.2 1-1.1-.9-1.5-.7-2 .6-.5 1.3-.9 1.4-1.5.3-.5-.7-.9-.9-.9-.3 0 .5.9 2.1 1.9 3.4 1.3 1.7 1.8 1.9 1.8.7 0-.9-.4-1.6-.8-1.6-.5 0-.6-.7-.2-1.6.3-.9.9-1.2 1.2-.7.3.4 1.5 1.5 2.6 2.3 1.8 1.4 1.9 1.4.7-.2-.9-1.1-1-1.8-.2-2.3.5-.3 1-.1 1 .4 0 .6.5 1.1 1.2 1.1.6 0 .8-.3.5-.7-.4-.3.1-1.2 1.1-2 .9-.8 1.2-1.2.5-.9-.6.4-1.3.1-1.5-.5-.2-.6-1.2-.1-2.2 1zM463.5 685.9c-.6 1.1 1.3 2.6 2.2 1.7.4-.3.1-.6-.6-.6s-.9-.5-.6-1c.3-.6.4-1 .1-1-.3 0-.7.4-1.1.9zM470.6 686.2c.3.5 1 .6 1.5.3 1.3-.9 1.1-1.2-.6-1.2-.8 0-1.2.4-.9.9zM428.6 688.8c-.3.5.1.9.9.9s1.2-.4.9-.9c-.3-.4-.7-.8-.9-.8-.2 0-.6.4-.9.8zM266 690.9c0 .6.4 1.3 1 1.6.6.3.7-.1.4-.9-.7-1.8-1.4-2.1-1.4-.7zM261.5 692c.3.5.8 1 1.1 1 .2 0 .4-.5.4-1 0-.6-.5-1-1.1-1-.5 0-.7.4-.4 1zM292.3 694.7c0 1.8.2 2.1.8 1.2.8-1.1 1.1-1.1 2 .3 1.3 2.3 2.5 2.3 2.5-.1 0-1.1-1.1-2.2-2.7-2.8-2.4-.9-2.6-.8-2.6 1.4zM433.4 693.8c.3.5 0 1.3-.6 1.5-.9.4-1 .6-.1.6 1.7.1 2.5-1.6 1.2-2.5-.7-.4-.9-.3-.5.4zM437 694.4c0 .2.8 1 1.8 1.7 1.5 1.3 1.6 1.2.3-.4s-2.1-2.1-2.1-1.3zM269 695.8c0 .5.7.9 1.5.9s1.2-.4.9-.9c-.7-1-2.4-1-2.4 0zM267.3 698.5c0 .8.4 1.2.9.9.5-.3.6-1 .3-1.5-.9-1.3-1.2-1.1-1.2.6zM430 698.1c0 .5.5.7 1 .4.6-.3 1-.8 1-1.1 0-.2-.4-.4-1-.4-.5 0-1 .5-1 1.1zM272 698.4c0 .2.7.7 1.6 1 .8.3 1.2.2.9-.4-.6-1-2.5-1.4-2.5-.6z"/></svg>