<svg aria-hidden="true" style="position:absolute;width:0;height:0;overflow:hidden" xmlns="http://www.w3.org/2000/svg"><defs><symbol id="icon-close_icon-1" viewBox="0 0 32 32"><path d="m27.725 24.194-8.2-8.231 8.219-8.125a.869.869 0 0 0 0-1.225l-2.337-2.35c-.163-.162-.381-.25-.613-.25s-.45.094-.613.25L16 12.363 7.806 4.269c-.162-.162-.381-.25-.612-.25s-.45.094-.612.25l-2.331 2.35a.869.869 0 0 0 0 1.225l8.219 8.125-8.194 8.225c-.162.163-.256.381-.256.613s.088.45.256.613l2.338 2.35a.861.861 0 0 0 1.224 0L16 19.57l8.169 8.194a.86.86 0 0 0 1.226 0l2.337-2.35a.864.864 0 0 0 .256-.613.895.895 0 0 0-.262-.606z"/></symbol></defs></svg>