<svg aria-hidden="true" style="position: absolute; width: 0; height: 0; overflow: hidden;" version="1.1" xmlns="http://www.w3.org/2000/svg" xmlns:xlink="http://www.w3.org/1999/xlink">
<defs>
<symbol id="icon-angle" viewBox="0 0 32 32"><path  d="M6.742 3.2l16.826 12.8-16.826 12.8"></path></symbol>
<symbol id="icon-burger" viewBox="0 0 32 32"><path d="M0 6.4h32M0 16h32M0 25.6h32"></path></symbol>
<symbol id="icon-close" viewBox="0 0 32 32"><path d="M2.52 2l26.96 28M2 29.48l28-26.96"></path></symbol>
<symbol id="icon-ellipse" viewBox="0 0 32 32"><path d="M30.511 16c0 8.157-6.612 14.769-14.769 14.769s-14.769-6.612-14.769-14.769c0-8.157 6.612-14.769 14.769-14.769s14.769 6.612 14.769 14.769z"></path></symbol>
<symbol id="icon-facebook" viewBox="0 0 32 32"><path d="M15.971 31.515c8.569 0 15.515-6.946 15.515-15.515s-6.946-15.515-15.515-15.515c-8.568 0-15.515 6.946-15.515 15.515s6.947 15.515 15.515 15.515z"></path><path d="M20.282 15.982h-2.531v9.328h-3.835v-9.329h-1.823v-3.278h1.823v-2.121c0-1.518 0.718-3.892 3.869-3.892l2.841 0.012v3.182h-2.062c-0.337 0-0.814 0.171-0.814 0.894v1.93h2.866l-0.335 3.274z"></path></symbol>
<symbol id="icon-github" viewBox="0 0 32 32"><path  d="M32 16c0 8.837-7.163 16-16 16s-16-7.163-16-16c0-8.837 7.163-16 16-16s16 7.163 16 16z"></path><path d="M16 6.588c-5.17 0-9.412 4.242-9.412 9.412 0 4.411 3.096 8.418 7.206 9.412v-3.114c-0.407 0.089-0.782 0.092-1.197-0.030-0.556-0.165-1.008-0.535-1.343-1.1-0.214-0.361-0.593-0.752-0.988-0.723l-0.097-1.1c0.855-0.072 1.594 0.522 2.033 1.26 0.195 0.327 0.42 0.52 0.708 0.605 0.278 0.082 0.577 0.042 0.926-0.080 0.087-0.698 0.407-0.96 0.648-1.327-2.451-0.366-3.428-1.667-3.816-2.693-0.514-1.363-0.238-3.066 0.67-4.142 0.018-0.021 0.050-0.076 0.038-0.114-0.417-1.259 0.090-2.3 0.11-2.41 0.48 0.142 0.558-0.143 2.088 0.786l0.264 0.159c0.11 0.066 0.076 0.028 0.187 0.020 0.589-0.167 1.268-0.268 1.969-0.279l0.006-0c0.717 0.011 1.404 0.114 2.058 0.299l-0.056-0.014 0.086 0.008c-0.008 0 0.023-0.005 0.075-0.036 1.91-1.157 1.842-0.779 2.354-0.945 0.019 0.11 0.52 1.168 0.108 2.41-0.056 0.172 1.656 1.74 0.707 4.256-0.388 1.027-1.365 2.328-3.816 2.693v0.001c0.314 0.479 0.692 0.734 0.69 1.722v3.887c4.11-0.994 7.206-5 7.206-9.412 0-5.17-4.242-9.412-9.412-9.412z"></path></symbol>
<symbol id="icon-home" viewBox="0 0 32 32"><path d="M30.129 15.446c0.236-0.253 0.381-0.594 0.381-0.969 0-0.433-0.194-0.822-0.499-1.082l-0.002-0.002-13.637-11.769c-0.295-0.244-0.677-0.393-1.093-0.393-0.43 0-0.823 0.158-1.124 0.419l0.002-0.002-13.681 12.372c-0.292 0.26-0.475 0.637-0.475 1.057 0 0.388 0.156 0.739 0.409 0.994l-0-0 0.345 0.352c0.566 0.586 1.487 0.655 2.053 0.155l1.022-0.903v13.226c0.006 0.811 0.665 1.467 1.477 1.467 0.004 0 0.009-0 0.013-0h5.331c0.004 0 0.008 0 0.012 0 0.812 0 1.471-0.656 1.477-1.467v-9.253h6.804v9.253c-0.012 0.812 0.576 1.467 1.398 1.467h5.652c0.003 0 0.006 0 0.010 0 0.812 0 1.471-0.656 1.477-1.467v-13.039l0.633 0.546c0.347 0.3 1.078 0.059 1.63-0.542l0.389-0.418z"></path></symbol>
<symbol id="icon-telegram" viewBox="0 0 32 32"><path d="M31.258 16c0 8.569-6.946 15.515-15.515 15.515s-15.515-6.946-15.515-15.515c0-8.569 6.946-15.515 15.515-15.515s15.515 6.946 15.515 15.515z"></path><path d="M12.705 18.303l-0.307 4.044c0.44 0 0.631-0.177 0.86-0.389l2.065-1.842 4.281 2.926c0.785 0.407 1.338 0.193 1.551-0.674l2.809-12.289h0.001c0.249-1.084-0.42-1.507-1.185-1.241l-16.516 5.902c-1.127 0.407-1.11 0.995-0.192 1.261l4.223 1.226 9.807-5.728c0.462-0.285 0.882-0.127 0.536 0.158l-7.933 6.648z"></path></symbol>
</defs>
</svg>
