<?xml version="1.0" standalone="no"?>
<!DOCTYPE svg PUBLIC "-//W3C//DTD SVG 20010904//EN"
 "http://www.w3.org/TR/2001/REC-SVG-20010904/DTD/svg10.dtd">
<svg version="1.0" xmlns="http://www.w3.org/2000/svg"
 width="700.000000pt" height="700.000000pt" viewBox="0 0 700.000000 700.000000"
 preserveAspectRatio="xMidYMid meet">
<metadata>
Created by potrace 1.14, written by Peter Selinger 2001-2017
</metadata>
<g transform="translate(0.000000,700.000000) scale(0.100000,-0.100000)"
fill="#000000" stroke="none">
<path d="M2669 6983 c-13 -16 -12 -17 4 -4 9 7 17 15 17 17 0 8 -8 3 -21 -13z"/>
<path d="M2696 6983 c-6 -14 -5 -15 5 -6 7 7 10 15 7 18 -3 3 -9 -2 -12 -12z"/>
<path d="M2715 6974 c-9 -14 -15 -27 -13 -30 2 -2 12 10 22 26 21 37 15 40 -9
4z"/>
<path d="M2755 6990 c-3 -5 -1 -10 4 -10 6 0 11 5 11 10 0 6 -2 10 -4 10 -3 0
-8 -4 -11 -10z"/>
<path d="M2789 6985 c-1 -5 -1 -16 0 -23 2 -10 -2 -10 -19 0 -19 12 -24 10
-45 -16 -12 -16 -21 -36 -20 -45 2 -9 4 -20 4 -24 1 -5 6 -5 12 -1 8 4 7 9 -2
16 -11 7 -10 8 4 4 10 -3 16 -2 13 2 -2 4 10 8 27 9 27 1 28 0 11 -10 -10 -6
-22 -12 -26 -13 -5 -1 -11 -2 -15 -3 -5 -1 -1 -6 7 -12 13 -9 12 -10 -2 -5
-11 3 -18 0 -18 -7 -1 -7 -10 5 -21 26 -11 22 -23 36 -26 33 -3 -3 0 -12 7
-21 7 -8 9 -15 5 -15 -4 0 -1 -8 6 -17 12 -14 12 -16 0 -8 -11 6 -13 4 -8 -9
4 -11 3 -15 -4 -11 -6 4 -8 12 -6 19 3 7 -1 23 -9 37 -7 13 -13 18 -14 10 0
-11 -3 -11 -15 -1 -13 11 -14 10 -10 -2 4 -9 0 -15 -10 -15 -10 0 -14 6 -10
16 3 9 -3 6 -13 -7 -14 -18 -20 -20 -31 -10 -7 7 -6 0 4 -15 10 -15 15 -30 11
-34 -3 -3 -6 0 -6 7 0 9 -5 7 -15 -6 -15 -19 -15 -19 -8 1 6 17 5 18 -9 7 -9
-7 -24 -9 -34 -5 -17 6 -17 5 -5 -10 9 -11 10 -17 2 -17 -6 0 -11 5 -11 11 0
8 -4 8 -15 -1 -8 -6 -20 -8 -26 -4 -9 5 -10 2 -6 -9 3 -10 2 -17 -3 -17 -9 0
-14 20 -11 46 1 6 -10 16 -24 22 -38 18 -45 14 -10 -5 18 -10 25 -18 17 -21
-7 -2 -18 0 -25 5 -7 4 -5 1 5 -9 27 -24 22 -33 -8 -13 -22 14 -28 14 -47 3
-12 -8 -32 -13 -44 -12 -12 1 -20 -2 -17 -7 2 -4 11 -6 19 -2 11 4 13 1 9 -11
-5 -13 -10 -13 -27 -4 -12 6 -19 7 -15 3 4 -4 3 -17 -3 -29 -9 -19 -9 -19 4
-4 14 17 32 19 55 5 6 -5 12 -6 12 -3 0 2 3 13 7 23 6 16 5 16 -10 4 -19 -15
-23 -1 -5 17 18 18 25 15 31 -13 3 -19 -1 -29 -16 -36 -11 -6 -22 -7 -26 -3
-11 15 -29 14 -42 -3 -12 -14 -11 -15 11 -9 21 6 22 5 7 -4 -9 -6 -22 -8 -27
-5 -6 3 -10 1 -10 -5 0 -6 -4 -9 -9 -6 -5 4 -11 1 -13 -6 -3 -8 -7 -6 -11 5
-3 9 -1 19 5 23 7 4 8 3 4 -4 -5 -8 -1 -10 9 -5 13 5 14 7 3 14 -7 5 -8 9 -2
9 6 0 11 7 11 16 0 14 -2 15 -11 2 -6 -8 -17 -14 -24 -12 -7 1 -8 0 -2 -3 7
-3 8 -9 1 -17 -13 -15 -7 -52 9 -48 6 1 9 -2 5 -8 -5 -8 -11 -7 -21 1 -8 6
-12 14 -10 17 3 2 1 14 -5 25 -8 14 -8 18 0 13 6 -4 11 -5 11 -2 0 3 -9 10
-20 16 -16 9 -19 8 -13 -7 5 -12 2 -15 -9 -11 -8 4 -15 1 -15 -7 0 -10 5 -11
17 -5 12 7 16 4 17 -13 0 -12 -1 -16 -4 -9 -3 6 -9 12 -14 12 -6 0 -7 -5 -3
-12 5 -7 3 -8 -6 -3 -9 6 -12 4 -8 -7 4 -8 1 -15 -7 -15 -7 0 -11 7 -8 14 3 8
0 13 -8 11 -8 -2 -13 4 -11 14 1 9 -2 19 -8 23 -6 4 -7 -1 -3 -11 5 -12 3 -15
-6 -9 -10 6 -11 3 -2 -12 10 -20 6 -33 -11 -33 -4 0 -8 5 -8 11 0 5 5 7 12 3
7 -4 8 -3 4 5 -4 6 -12 8 -18 5 -7 -5 -9 -1 -5 9 5 13 2 14 -24 5 -16 -5 -29
-14 -29 -20 0 -5 -6 -6 -12 -2 -9 5 -9 2 1 -9 15 -19 1 -23 -17 -5 -9 9 -12 9
-12 0 0 -7 5 -12 11 -12 5 0 7 -5 3 -12 -5 -7 -11 -5 -21 8 -11 14 -14 15 -13
4 4 -28 0 -41 -10 -35 -6 4 -7 12 -3 18 4 7 0 6 -10 -2 -9 -7 -17 -17 -17 -22
0 -11 50 -3 63 10 5 5 17 7 26 4 12 -4 13 -3 3 5 -11 7 -11 10 3 15 9 4 13 3
10 -3 -3 -6 -2 -10 4 -10 18 0 23 20 6 26 -12 5 -13 9 -4 20 17 21 34 17 18
-3 -13 -16 -12 -17 4 -4 11 9 17 10 17 2 0 -6 -5 -11 -11 -11 -5 0 -7 -5 -4
-10 4 -6 12 -7 18 -4 7 4 8 3 4 -2 -5 -5 -12 -9 -15 -9 -4 -1 -17 -6 -30 -13
-12 -7 -27 -10 -32 -7 -6 3 -10 1 -10 -4 0 -6 -6 -11 -14 -11 -8 0 -18 -5 -22
-12 -5 -8 -1 -9 12 -4 15 6 17 5 7 -5 -10 -10 -16 -10 -25 -1 -7 7 -17 12 -22
12 -6 0 -5 -5 2 -12 7 -7 12 -16 12 -22 0 -5 -6 -2 -13 9 -9 11 -19 15 -28 10
-11 -6 -12 -5 -1 6 6 7 12 17 12 23 0 5 -6 2 -13 -9 -10 -12 -16 -14 -21 -7
-4 7 -12 12 -19 12 -6 0 -3 -6 8 -13 11 -9 15 -19 10 -27 -6 -10 -2 -11 19 -6
14 3 26 3 26 -2 0 -14 -43 -11 -64 5 -20 15 -20 15 -1 9 16 -6 17 -5 8 5 -9 9
-16 9 -26 1 -8 -7 -17 -9 -20 -5 -4 3 1 12 11 20 15 13 15 13 -6 3 -12 -6 -20
-15 -17 -19 2 -5 -2 -14 -9 -20 -9 -8 -17 -8 -20 -2 -3 5 0 12 6 14 9 4 10 6
1 6 -13 1 -28 -17 -20 -25 10 -11 47 -13 41 -2 -5 7 -2 8 6 3 8 -5 11 -4 6 3
-3 5 0 9 6 8 21 -3 38 -16 38 -29 0 -7 -5 -4 -11 6 -10 17 -29 15 -29 -4 0 -6
4 -7 10 -4 6 3 7 -1 3 -10 -3 -9 -9 -12 -12 -7 -7 10 -41 12 -41 3 0 -4 9 -12
20 -19 11 -7 20 -17 20 -22 0 -6 -9 -1 -20 10 -20 20 -40 19 -40 -1 0 -6 4 -8
9 -5 5 4 8 -2 6 -11 -1 -10 1 -23 6 -29 5 -7 3 -11 -5 -11 -8 0 -13 8 -11 18
5 26 -19 43 -35 24 -10 -12 -10 -18 1 -32 13 -17 13 -17 -5 -3 -11 8 -40 15
-68 16 -44 0 -48 -2 -32 -13 10 -7 23 -13 28 -13 6 0 4 5 -4 10 -12 7 -10 9 8
7 12 0 22 -5 22 -10 0 -4 5 -5 10 -2 6 3 10 2 10 -3 0 -6 -10 -10 -22 -9 -13
0 -30 -2 -38 -5 -8 -2 -11 -3 -7 0 5 2 -2 10 -15 16 -22 12 -33 9 -76 -20 -7
-5 15 -36 24 -34 5 0 10 -7 11 -17 3 -16 2 -15 -5 1 -10 22 -21 10 -17 -17 3
-15 1 -16 -11 -6 -11 9 -16 7 -23 -12 -5 -13 -7 -27 -5 -30 2 -4 -6 -15 -19
-25 -12 -10 -19 -15 -15 -10 4 5 3 17 -3 28 -8 16 -13 17 -25 7 -8 -7 -13 -17
-11 -24 9 -21 -41 -10 -69 15 -16 14 -22 17 -15 8 12 -16 9 -22 -11 -19 -4 0
-4 -7 -1 -16 5 -12 3 -14 -7 -8 -8 5 -11 4 -6 -3 3 -6 -2 -12 -11 -14 -15 -3
-14 -5 5 -10 14 -4 20 -2 15 4 -4 7 -1 8 7 3 8 -5 11 -4 7 3 -5 6 1 8 15 4 14
-3 19 -2 14 7 -4 6 -12 9 -17 6 -5 -4 -9 -2 -9 4 0 20 19 21 30 1 10 -18 8
-22 -9 -27 -11 -3 -17 -11 -15 -18 3 -7 1 -16 -5 -20 -7 -4 -8 0 -4 11 4 12 3
15 -6 10 -7 -5 -10 -17 -8 -28 3 -11 3 -17 0 -14 -4 3 -13 0 -21 -7 -13 -10
-14 -9 -2 12 11 21 10 26 -6 38 -11 8 -18 19 -17 24 2 5 -1 9 -6 9 -6 0 -9 -9
-8 -19 0 -11 4 -18 8 -15 6 3 19 -19 19 -33 0 -3 -12 3 -27 13 -20 13 -25 13
-16 2 13 -15 8 -28 -9 -28 -5 0 -6 4 -3 10 3 6 -1 7 -10 3 -9 -3 -12 -9 -7
-12 5 -3 8 -14 6 -23 -1 -10 5 -22 14 -28 10 -6 12 -10 4 -10 -7 0 -20 13 -31
30 -10 16 -21 27 -24 23 -10 -10 -8 -25 2 -19 5 3 11 -4 15 -17 8 -31 7 -32
-12 -29 -12 3 -14 1 -4 -10 9 -11 6 -14 -13 -14 -13 0 -21 4 -18 10 3 5 1 6
-5 2 -6 -3 -14 -1 -18 5 -5 9 0 10 14 7 14 -4 20 -2 15 4 -3 6 -2 8 3 5 6 -3
16 -2 23 2 9 6 10 11 2 15 -6 4 -11 2 -11 -4 0 -6 -4 -9 -10 -5 -5 3 -6 13 -3
22 6 15 5 16 -9 3 -9 -9 -12 -18 -6 -21 5 -3 0 -9 -12 -12 -21 -5 -21 -7 -5
-31 9 -13 22 -24 28 -22 7 1 9 1 5 -1 -4 -2 -4 -12 -1 -21 5 -14 4 -14 -9 1
-13 18 -14 18 -32 -2 -13 -15 -15 -21 -6 -21 7 0 11 -3 8 -6 -4 -3 -16 -1 -27
5 -14 8 -18 17 -14 29 6 15 5 15 -8 2 -17 -16 -21 -50 -7 -50 4 0 8 5 8 10 0
6 10 4 23 -5 13 -8 27 -12 32 -8 4 5 5 2 1 -5 -5 -9 -12 -9 -27 -2 -21 12 -43
4 -34 -11 4 -5 3 -9 0 -9 -3 0 -13 15 -21 33 l-14 32 5 -37 c3 -21 1 -38 -4
-38 -15 0 -23 18 -12 25 6 3 8 12 5 20 -5 13 -8 12 -21 0 -8 -9 -19 -12 -25
-9 -7 4 -8 2 -4 -4 4 -6 13 -9 21 -5 11 4 13 1 9 -11 -5 -12 -10 -13 -26 -5
-11 6 -22 8 -25 6 -5 -6 37 -22 68 -26 6 0 3 -8 -5 -17 -9 -8 -16 -20 -16 -25
0 -5 -7 -9 -16 -9 -10 0 -14 -5 -10 -16 3 -9 2 -12 -5 -9 -5 4 -16 1 -25 -5
-11 -10 -12 -16 -3 -26 6 -8 8 -14 4 -14 -4 0 -14 8 -21 18 -13 16 -13 16 -14
0 0 -10 -5 -18 -10 -18 -7 0 -7 7 0 20 6 11 16 17 22 14 7 -5 9 -2 5 9 -4 11
-2 14 7 11 8 -3 17 0 21 6 4 7 -2 9 -19 6 -14 -2 -27 1 -30 7 -3 8 -5 8 -5 -1
-1 -7 -6 -10 -13 -6 -7 4 -8 3 -4 -5 4 -6 12 -9 17 -6 5 4 9 2 9 -3 0 -16 -13
-22 -27 -11 -8 8 -13 8 -13 1 0 -6 6 -12 13 -15 6 -2 9 -8 5 -12 -4 -4 -15 -2
-25 6 -11 9 -14 10 -9 2 4 -8 2 -13 -6 -13 -10 0 -9 -3 2 -9 8 -6 18 -7 24 -4
5 3 6 1 2 -6 -4 -6 -2 -19 6 -28 9 -12 9 -15 1 -9 -16 9 -17 -6 -2 -21 8 -8 7
-13 -2 -18 -7 -5 -10 -4 -5 3 11 18 -15 25 -32 9 -12 -13 -13 -19 -4 -30 10
-12 8 -14 -14 -11 -18 2 -24 -1 -20 -11 3 -9 0 -12 -9 -8 -8 3 -13 9 -10 13 3
5 -1 11 -7 14 -7 3 -1 3 14 1 16 -2 28 1 28 6 0 5 -5 9 -12 9 -15 0 0 15 15
15 7 1 11 7 9 14 -1 7 2 10 9 5 8 -5 9 -3 4 6 -5 8 -4 11 3 6 6 -3 9 0 8 9 -4
26 -14 27 -38 5 -20 -19 -21 -20 -3 -14 18 7 18 6 6 -9 -7 -9 -18 -14 -24 -10
-6 3 -7 1 -3 -5 3 -6 -2 -15 -12 -21 -19 -10 -23 -44 -7 -58 4 -5 5 -2 0 6 -6
10 -4 12 4 7 7 -5 10 -10 7 -13 -3 -3 -1 -13 4 -23 6 -12 5 -17 -6 -17 -8 0
-13 6 -10 14 3 7 -3 17 -14 23 -12 6 -17 17 -14 28 5 13 4 14 -4 3 -5 -7 -16
-18 -23 -23 -11 -8 -10 -9 3 -4 10 3 20 1 23 -3 7 -12 -24 -23 -38 -15 -9 5
-8 3 0 -6 9 -10 4 -19 -28 -42 -21 -15 -39 -31 -39 -35 0 -3 9 2 20 12 11 10
22 16 24 14 6 -6 -27 -45 -39 -47 -14 -3 -12 -22 8 -59 16 -30 16 -32 0 -26
-12 5 -14 3 -8 -8 8 -12 6 -12 -8 0 -14 11 -17 11 -21 0 -14 -43 -14 -44 -15
-26 -1 9 -6 17 -12 17 -5 0 -7 5 -4 10 4 6 10 8 15 5 17 -10 22 17 6 33 -10
11 -16 12 -16 4 0 -7 5 -12 10 -12 6 0 10 -4 10 -9 0 -11 -19 -9 -40 4 -12 7
-13 6 -3 -7 14 -17 8 -29 -12 -22 -7 3 -16 1 -20 -5 -3 -7 0 -8 9 -5 9 3 16 1
16 -5 0 -6 -4 -11 -9 -11 -5 0 -8 -8 -6 -17 2 -10 4 -22 4 -26 1 -5 7 -5 14
-2 10 6 -6 -9 -48 -43 -6 -5 -17 -7 -25 -5 -9 3 -8 0 3 -7 14 -9 16 -15 6 -26
-6 -7 -15 -11 -20 -8 -5 3 -6 -3 -2 -13 6 -16 5 -17 -12 -3 -18 15 -18 14 -1
-12 10 -16 15 -28 12 -28 -4 0 0 -11 9 -23 13 -20 13 -24 1 -24 -9 0 -12 7 -9
16 5 13 3 13 -7 4 -7 -6 -20 -9 -29 -5 -14 5 -14 4 -2 -12 10 -11 11 -20 5
-24 -12 -8 -28 -43 -26 -54 1 -5 -3 -8 -9 -8 -5 0 -7 -5 -4 -10 4 -6 11 -7 17
-4 7 4 8 2 4 -5 -6 -9 -11 -9 -22 0 -11 9 -11 15 1 39 8 15 11 30 8 34 -4 3 0
6 8 6 11 0 11 2 -1 10 -8 5 -10 10 -4 10 15 0 13 28 -2 34 -8 3 -11 0 -7 -11
3 -8 0 -19 -8 -24 -11 -7 -11 -9 -1 -9 7 0 10 -5 7 -10 -4 -6 -11 -7 -17 -4
-7 4 -8 2 -4 -4 4 -7 2 -12 -4 -12 -6 0 -9 -4 -5 -9 3 -5 1 -12 -4 -16 -6 -3
-8 -12 -5 -20 4 -8 10 -13 14 -10 13 8 19 -22 7 -34 -8 -8 -8 -11 1 -11 7 0
12 -5 12 -11 0 -5 -4 -8 -9 -4 -5 3 -12 1 -15 -4 -4 -5 2 -12 11 -14 17 -4 17
-5 1 -6 -10 0 -18 -6 -18 -12 0 -5 -4 -7 -10 -4 -10 6 -14 -7 -11 -32 1 -7 -3
-13 -9 -13 -6 0 -8 -4 -5 -10 3 -6 -1 -7 -10 -4 -20 8 -16 -15 5 -34 13 -11
12 -11 -7 -2 -12 5 -26 9 -30 8 -4 -2 -9 2 -10 7 -1 6 6 9 15 7 15 -2 15 -1 2
7 -13 10 -13 11 0 11 12 0 12 2 2 9 -10 6 -9 11 4 22 16 12 17 12 11 -4 -5
-13 -3 -17 5 -14 7 2 12 11 10 20 -1 8 8 23 20 31 12 9 19 16 14 16 -5 0 -3 7
4 15 7 8 9 15 5 15 -4 0 -1 8 6 18 7 9 9 14 5 10 -5 -4 -15 -3 -22 3 -14 11
-14 -6 -1 -28 8 -13 -26 -37 -36 -26 -4 3 -9 -2 -12 -11 -3 -9 -7 -23 -10 -31
-4 -13 -9 -14 -26 -5 -16 9 -24 9 -33 -1 -8 -9 -8 -10 1 -5 17 10 41 -3 39
-22 -2 -9 -9 -18 -16 -20 -8 -3 -10 0 -5 9 5 8 4 11 0 6 -11 -9 -14 -48 -4
-42 4 3 10 -2 13 -11 9 -24 8 -26 -15 -14 -11 7 -23 9 -26 7 -2 -3 5 -8 16
-12 12 -3 21 -14 21 -23 0 -11 -3 -13 -8 -6 -5 9 -11 8 -21 -3 -11 -12 -10
-14 4 -11 10 2 20 -2 22 -9 3 -8 -4 -10 -20 -7 -16 2 -30 -2 -38 -14 -13 -15
-12 -16 4 -3 13 10 20 11 31 2 11 -9 18 -8 30 4 15 15 16 15 12 -7 -2 -13 2
-29 8 -37 8 -11 8 -13 -1 -8 -6 4 -14 1 -17 -5 -3 -7 -3 0 -1 15 3 19 0 27 -8
24 -7 -3 -11 -11 -9 -18 1 -9 -3 -8 -11 4 -20 25 -27 21 -14 -7 7 -13 15 -22
19 -20 4 3 5 -3 1 -12 -4 -10 -2 -15 4 -11 5 3 10 0 10 -8 0 -8 -4 -12 -8 -10
-3 3 -12 -2 -19 -10 -10 -12 -10 -18 1 -32 8 -9 9 -14 3 -10 -13 8 -28 -19
-25 -43 1 -11 -1 -10 -9 3 -6 9 -15 15 -20 12 -5 -3 -12 0 -16 6 -5 8 -3 9 6
4 9 -6 11 -4 5 5 -5 7 -4 11 1 7 5 -3 18 1 29 9 10 8 14 14 9 14 -13 0 -16 38
-3 45 5 4 9 1 9 -5 0 -6 5 -8 10 -5 17 10 2 23 -26 23 -18 0 -22 -3 -13 -9 13
-8 6 -13 -16 -10 -5 1 -2 -5 7 -12 10 -8 15 -17 11 -20 -3 -4 -13 -1 -22 6
-14 11 -14 10 -2 -5 11 -15 11 -19 -3 -24 -10 -4 -15 -13 -11 -22 6 -17 -13
-44 -26 -37 -4 3 -6 -3 -4 -14 2 -14 -1 -18 -11 -14 -8 3 -14 -1 -14 -8 0 -7
3 -9 6 -6 4 3 15 2 26 -4 18 -9 18 -8 8 10 -8 16 -8 21 2 19 6 -2 12 2 13 9 0
6 4 15 9 20 5 5 6 3 2 -4 -4 -7 -3 -13 3 -13 5 0 11 6 14 13 3 6 5 3 4 -9 -1
-12 -7 -21 -15 -20 -8 1 -17 -6 -19 -14 -3 -10 -2 -11 4 -3 6 8 14 9 23 3 13
-8 12 -10 -3 -10 -14 0 -17 -5 -11 -22 6 -21 6 -21 -10 -5 -27 26 -43 19 -37
-17 1 -4 -4 -15 -11 -24 -8 -10 -9 -13 -1 -9 6 4 13 4 16 0 2 -5 3 -3 1 3 -1
6 3 17 9 23 8 8 7 11 -3 11 -7 0 -10 3 -7 6 8 9 37 -15 37 -30 0 -6 -5 -4 -10
4 -11 17 -12 16 -14 -25 -1 -16 3 -34 9 -38 6 -5 3 -7 -7 -3 -13 4 -18 0 -18
-14 0 -18 11 -25 33 -21 5 1 6 -3 2 -8 -3 -6 -13 -7 -23 -4 -15 6 -16 5 -2
-13 14 -17 13 -18 -1 -7 -9 7 -18 11 -21 8 -2 -3 -5 2 -5 10 0 8 5 11 10 8 6
-3 7 -1 3 6 -4 6 -12 9 -17 6 -5 -4 -9 -1 -9 6 0 7 -3 9 -6 6 -4 -4 -1 -13 5
-21 7 -9 8 -17 2 -20 -5 -3 -12 0 -15 6 -2 7 -4 3 -2 -9 1 -12 5 -26 9 -29 4
-4 2 -13 -4 -20 -7 -9 -6 -12 8 -10 11 2 18 11 17 25 -2 23 4 25 26 11 13 -8
12 -10 -4 -10 -11 0 -16 -3 -13 -7 4 -3 2 -12 -4 -20 -9 -9 -8 -17 0 -27 9
-10 8 -16 -3 -25 -14 -12 -11 -45 3 -37 4 3 7 -4 7 -14 0 -11 -5 -16 -15 -12
-9 4 -12 1 -7 -7 6 -10 4 -10 -12 0 -12 7 -18 18 -15 24 4 5 3 7 -2 3 -4 -4
-15 -2 -24 5 -14 11 -14 10 -2 -5 18 -24 5 -23 -25 1 -26 20 -19 35 13 25 17
-5 17 -5 -1 6 -14 10 -21 9 -32 -2 -12 -12 -10 -17 18 -38 17 -13 38 -23 45
-23 7 0 23 -12 35 -25 13 -14 17 -22 11 -18 -16 9 -16 1 -3 -25 6 -11 7 -18 2
-17 -11 3 -56 -43 -60 -61 -1 -7 4 -11 12 -9 14 3 16 0 16 -24 0 -9 -3 -8 -10
2 -5 8 -12 11 -16 7 -4 -3 -1 -14 7 -23 13 -16 12 -16 -8 -4 -16 11 -19 17
-11 27 7 9 7 13 -1 13 -20 0 -25 -32 -8 -45 18 -13 22 -25 8 -25 -5 0 -16 15
-25 33 -8 17 -16 26 -16 19 0 -7 -4 -10 -10 -7 -17 11 -11 -7 7 -21 13 -10 14
-13 3 -9 -11 4 -16 -2 -18 -20 -1 -14 4 -25 11 -25 8 0 7 -3 -2 -9 -12 -8 -13
-14 -3 -36 8 -16 8 -24 2 -20 -16 10 -7 -39 10 -61 14 -18 14 -18 -2 -5 -16
12 -18 11 -18 -8 0 -12 4 -20 9 -16 5 3 13 1 16 -5 4 -6 1 -9 -7 -8 -11 2 -13
-57 -14 -319 0 -225 3 -323 10 -323 6 0 5 -4 -2 -9 -15 -9 -13 -42 3 -53 6 -5
5 -8 -2 -8 -7 0 -13 -5 -13 -12 0 -6 3 -8 7 -5 3 4 13 -2 20 -13 8 -11 19 -17
25 -14 7 4 5 10 -6 16 -9 5 -16 17 -15 26 0 12 2 13 6 3 9 -22 41 -50 47 -40
2 5 3 4 2 -3 -2 -7 -14 -13 -28 -12 -21 1 -25 -3 -24 -22 1 -26 16 -34 16 -9
0 8 3 15 8 15 14 0 52 -31 52 -43 0 -8 -3 -8 -9 2 -5 8 -11 9 -15 3 -4 -6 2
-16 11 -22 15 -9 14 -10 -7 -4 -22 6 -23 5 -12 -9 8 -9 19 -14 27 -11 7 3 16
1 20 -5 4 -7 0 -8 -12 -4 -15 6 -15 2 4 -30 14 -22 18 -39 12 -43 -6 -3 -15
-17 -20 -31 -8 -22 -11 -24 -27 -12 -16 13 -16 12 1 -7 9 -11 15 -24 12 -27
-3 -4 -2 -5 1 -2 4 2 15 -5 25 -17 22 -25 25 -35 6 -19 -10 8 -17 7 -27 -2
-10 -10 -12 -8 -6 8 6 16 5 17 -5 8 -9 -9 -9 -16 -1 -26 7 -8 9 -17 5 -20 -3
-4 -1 -7 6 -7 7 0 11 7 8 15 -4 8 -2 17 3 20 6 4 10 -1 10 -9 0 -10 6 -13 17
-9 15 6 16 4 6 -9 -7 -8 -9 -19 -5 -23 4 -5 0 -6 -9 -3 -9 4 -22 2 -30 -3 -11
-8 -10 -9 6 -7 14 2 20 -3 20 -17 0 -11 6 -19 13 -18 6 2 12 -2 12 -8 0 -6 9
-9 20 -6 11 3 18 2 15 -3 -3 -4 -14 -10 -25 -13 -11 -3 -18 -1 -15 3 7 11 -22
7 -32 -5 -4 -4 -3 -5 4 -1 6 3 14 2 18 -4 3 -5 -2 -10 -12 -11 -14 0 -13 -2 6
-10 17 -7 21 -12 13 -22 -7 -8 -7 -18 -2 -27 5 -8 7 -17 4 -21 -2 -4 3 -12 11
-19 14 -11 14 -15 -1 -31 -16 -17 -15 -18 9 -6 17 8 22 16 16 23 -5 6 -4 15 2
21 8 8 8 13 0 17 -6 4 -11 0 -11 -9 0 -9 -5 -13 -10 -10 -8 5 -7 12 2 23 10
12 10 14 0 8 -6 -4 -12 -2 -12 3 0 16 9 14 37 -9 14 -11 21 -20 15 -20 -14 0
-9 -30 7 -40 8 -4 10 -13 6 -20 -5 -9 -2 -10 14 -5 13 4 21 2 21 -5 0 -6 -4
-8 -10 -5 -5 3 -10 1 -10 -5 0 -6 -4 -9 -9 -6 -5 4 -11 3 -14 -1 -2 -5 -2 -2
-1 5 2 6 -2 12 -9 12 -8 0 -8 3 2 9 9 6 10 11 2 15 -6 4 -11 2 -11 -4 0 -6 -5
-8 -12 -4 -9 6 -9 3 0 -9 8 -9 11 -21 7 -27 -6 -9 8 -14 28 -11 17 3 46 -20
41 -33 -3 -7 7 -24 23 -36 16 -14 20 -20 10 -17 -13 5 -17 3 -14 -5 2 -7 10
-12 16 -11 6 2 10 -2 8 -9 -1 -7 3 -12 10 -13 6 0 14 -3 18 -7 6 -5 -19 -4
-35 2 -3 1 -9 2 -13 1 -5 -1 -6 3 -3 8 4 5 2 12 -4 16 -5 3 -10 -1 -10 -9 0
-8 7 -19 16 -24 10 -5 18 -21 18 -34 1 -14 9 -37 19 -51 23 -36 22 -38 -20
-32 -35 4 -36 4 -13 -7 14 -6 32 -10 40 -9 11 1 10 -2 -3 -10 -10 -6 -24 -7
-30 -2 -7 4 -4 0 8 -11 11 -10 19 -25 17 -32 -2 -8 1 -14 6 -14 16 0 22 13 11
26 -7 8 -7 14 1 19 5 3 10 3 10 -1 0 -3 8 0 17 7 15 12 16 12 8 -1 -5 -8 -11
-21 -12 -28 -2 -6 -4 -18 -6 -25 -1 -6 -6 -17 -9 -23 -8 -12 -5 -40 5 -50 3
-4 4 5 1 20 -3 20 -1 24 11 20 8 -3 13 -10 10 -14 -3 -5 -1 -12 5 -15 8 -5 7
-12 -2 -23 -7 -10 -8 -14 -3 -9 4 4 17 0 27 -9 14 -13 15 -20 7 -31 -18 -21
-1 -29 19 -8 9 10 12 15 5 11 -6 -3 -10 0 -9 6 6 34 18 57 33 63 16 5 16 5 0
-12 -17 -19 -18 -38 -3 -63 5 -8 6 -12 1 -8 -5 5 -15 -1 -23 -13 -13 -19 -12
-22 7 -35 21 -15 31 -41 11 -29 -6 3 -10 2 -10 -3 0 -6 7 -12 15 -15 8 -4 12
-15 10 -27 -2 -11 0 -18 5 -15 14 8 40 -6 33 -19 -5 -8 -3 -8 8 1 26 21 61
-28 36 -53 -12 -13 -8 -20 21 -33 l27 -12 -25 21 c-25 21 -25 21 -1 10 19 -10
22 -9 18 2 -2 7 -9 12 -15 11 -11 -3 -10 23 1 32 4 3 5 2 2 -1 -2 -4 3 -13 11
-21 8 -9 13 -22 10 -29 -3 -8 0 -14 7 -14 9 0 8 -3 -1 -9 -8 -4 -13 -11 -13
-15 3 -20 0 -26 -9 -21 -6 4 -5 -5 2 -19 11 -26 19 -30 47 -26 13 1 13 -1 1
-15 -7 -9 -19 -14 -27 -11 -8 3 -11 1 -8 -4 9 -15 19 -12 44 9 21 18 21 20 4
25 -18 6 -27 46 -11 46 4 0 8 -10 8 -22 0 -12 3 -18 7 -15 3 4 13 -2 20 -13 8
-11 19 -18 24 -14 5 3 9 2 8 -3 -4 -25 3 -52 21 -71 12 -12 17 -28 14 -39 -5
-16 -4 -16 10 1 9 11 16 16 16 10 -1 -14 -23 -39 -40 -42 -8 -2 -21 -7 -30
-12 -12 -7 -10 -9 8 -7 12 1 22 4 22 8 0 9 27 6 36 -4 4 -4 2 -7 -5 -7 -8 0
-6 -8 5 -24 10 -17 21 -23 32 -19 15 6 15 5 3 -10 -21 -27 13 -34 40 -8 21 19
46 20 33 0 -3 -5 -9 -7 -13 -5 -13 8 -28 -28 -20 -49 5 -14 8 -15 8 -4 1 9 10
15 25 15 14 0 22 -4 20 -8 -3 -4 -1 -8 5 -8 5 0 12 6 14 13 4 7 6 8 6 1 1 -6
-6 -17 -14 -24 -11 -9 -15 -9 -15 -1 0 7 -5 9 -12 5 -7 -5 -8 -3 -3 6 5 9 4
11 -4 6 -6 -4 -9 -12 -6 -17 4 -5 2 -9 -3 -9 -19 0 -7 -26 12 -28 40 -2 78
-10 84 -17 4 -4 0 -5 -8 -3 -9 1 -17 -1 -18 -6 -1 -5 9 -10 22 -11 17 0 22 4
19 15 -2 8 2 5 9 -8 8 -12 18 -19 23 -15 4 4 5 2 1 -4 -5 -8 -1 -13 11 -14 16
0 16 -1 -2 -8 -22 -9 -38 -4 -30 9 8 13 -18 18 -40 8 -18 -8 -18 -8 3 -4 12 2
22 0 22 -5 0 -9 -15 -13 -33 -10 -5 1 -6 -3 -2 -9 4 -7 12 -7 24 0 18 9 31 4
31 -12 0 -5 -4 -7 -9 -3 -5 3 -12 1 -16 -4 -3 -6 3 -8 14 -6 11 2 26 -4 33
-13 11 -14 10 -15 -7 -8 -15 5 -17 4 -8 -5 9 -9 19 -7 44 5 18 9 30 13 26 10
-4 -4 1 -13 11 -20 11 -9 13 -13 4 -14 -7 0 -10 -5 -7 -10 4 -6 10 -8 15 -5
13 8 52 -14 45 -24 -6 -11 24 -23 37 -15 8 5 -6 -30 -17 -44 -1 -1 -8 5 -16
15 -12 15 -12 16 6 10 l20 -7 -20 16 c-11 8 -19 20 -18 25 2 5 -2 9 -7 9 -6 0
-10 -5 -10 -11 0 -5 -5 -7 -11 -3 -8 4 -7 9 2 15 10 6 7 8 -9 6 -12 0 -22 -2
-22 -3 0 -2 18 -20 40 -42 22 -21 40 -45 41 -53 0 -8 4 -5 8 6 5 11 13 21 20
21 24 3 26 5 11 14 -9 6 -10 10 -3 10 21 0 23 -17 3 -35 -11 -10 -20 -23 -20
-28 0 -6 14 2 32 19 18 16 27 22 20 12 -11 -14 -10 -17 7 -23 12 -3 21 -11 21
-16 0 -6 4 -7 10 -4 6 4 7 -1 3 -12 -6 -16 -5 -17 12 -3 11 9 16 10 11 3 -4
-8 -2 -13 6 -13 8 0 9 -3 3 -8 -12 -9 -17 -62 -6 -62 5 0 15 8 22 17 12 14 12
16 0 8 -10 -6 -12 -4 -6 5 6 9 4 11 -5 5 -9 -5 -11 -4 -6 3 5 9 14 7 31 -5 12
-10 21 -22 18 -27 -3 -4 -8 -4 -12 2 -3 5 -14 0 -24 -13 -12 -17 -14 -26 -5
-31 6 -4 9 -3 6 2 -3 5 -1 14 6 19 16 14 48 15 43 1 -2 -6 -9 -11 -15 -11 -7
0 -12 -4 -11 -10 1 -5 5 -9 10 -8 9 3 13 -11 10 -34 -1 -6 3 -14 9 -18 6 -4 7
1 4 12 -5 17 -5 17 9 0 10 -12 16 -14 19 -6 2 7 14 13 26 14 18 1 20 -1 9 -13
-10 -13 -9 -14 8 -5 11 6 23 10 27 10 3 -1 10 1 14 6 4 4 0 7 -9 7 -10 0 -17
5 -17 10 0 7 7 7 21 0 17 -10 18 -14 8 -27 -11 -12 -10 -14 7 -11 10 1 23 8
27 13 5 6 5 -1 1 -15 -6 -23 -6 -24 12 -10 18 14 18 14 5 -3 -14 -18 -16 -18
-28 -1 -9 12 -13 13 -13 4 0 -10 -5 -9 -19 4 -17 15 -19 15 -32 -1 -7 -10 -9
-14 -4 -10 5 4 15 -3 22 -15 l14 -23 -7 25 c-6 22 -5 23 10 11 9 -8 14 -21 11
-30 -4 -14 -4 -14 7 -1 13 15 61 20 74 8 11 -11 -6 -27 -22 -21 -13 5 -13 7
-2 14 9 6 9 9 1 9 -17 0 -25 -17 -12 -26 13 -7 49 -14 86 -17 12 0 20 -4 17
-8 -2 -4 2 -9 8 -12 10 -3 8 -9 -4 -24 -10 -11 -18 -24 -18 -29 0 -5 5 -1 11
8 5 10 15 18 21 18 6 0 5 -7 -3 -17 -8 -9 -9 -14 -3 -10 7 4 15 0 18 -9 4 -11
12 -13 28 -8 21 6 22 5 8 -12 -11 -15 -11 -16 0 -6 21 18 34 15 19 -5 -11 -15
-11 -16 1 -6 18 17 35 17 22 0 -7 -8 -7 -18 -2 -27 6 -9 10 -10 10 -3 0 7 9
10 21 8 15 -3 23 2 26 16 5 19 6 19 17 -3 9 -17 19 -22 41 -21 27 2 24 -1 -13
-13 -10 -3 -10 -8 2 -26 8 -13 16 -27 16 -33 1 -5 4 -12 7 -15 4 -3 3 1 -1 8
-4 7 -2 12 6 12 10 0 10 2 -1 9 -8 5 -10 14 -6 21 6 9 4 11 -5 5 -9 -5 -11 -4
-6 4 4 6 11 9 16 6 5 -3 11 -1 15 5 3 5 11 10 18 10 6 0 1 -7 -12 -16 -20 -15
-21 -18 -8 -26 9 -5 14 -15 11 -22 -3 -8 -1 -17 5 -21 7 -4 8 0 4 11 -5 14 -3
15 15 5 14 -7 23 -8 27 -1 4 6 11 7 17 4 7 -4 7 -9 0 -13 -7 -4 -8 -12 -2 -21
8 -12 10 -11 10 4 0 16 3 17 12 8 9 -9 9 -15 0 -24 -7 -7 -12 -17 -12 -22 0
-6 5 -3 11 7 15 25 32 22 19 -4 -7 -11 -9 -23 -7 -26 3 -2 8 5 12 16 3 12 11
21 16 21 6 0 6 -7 0 -18 -7 -14 -6 -19 4 -19 8 0 11 7 8 16 -5 13 -3 14 8 4
18 -18 29 -16 29 5 0 13 -2 14 -9 3 -6 -9 -11 -10 -15 -2 -4 6 -2 11 3 11 6 0
11 5 11 11 0 8 -5 8 -15 -1 -10 -9 -15 -9 -15 -1 0 6 -6 10 -12 9 -7 -2 -12 3
-10 10 1 8 -2 11 -9 6 -8 -5 -9 -3 -4 6 5 8 4 11 -2 7 -6 -4 -16 0 -22 7 -16
19 10 16 34 -4 16 -14 17 -13 11 8 -4 12 -3 22 2 22 5 0 9 -7 10 -15 1 -8 3
-22 4 -30 1 -9 7 -14 15 -11 8 3 16 -1 19 -9 4 -8 10 -12 15 -9 5 3 6 -1 3 -9
-7 -18 28 -16 53 4 16 13 17 12 5 -2 -10 -13 -9 -19 5 -30 15 -12 16 -12 9 6
-7 20 -7 20 12 0 11 -11 17 -24 14 -29 -2 -4 -7 -4 -11 2 -3 5 -14 8 -24 6 -9
-1 -15 2 -12 6 3 5 -4 7 -15 5 -11 -2 -18 0 -15 6 4 5 2 9 -4 9 -5 0 -13 -4
-16 -10 -3 -5 -1 -10 4 -10 6 0 10 -5 9 -11 -2 -6 3 -13 10 -14 7 -2 8 -1 2 2
-5 2 -7 9 -4 14 3 6 11 6 20 -2 7 -6 12 -15 9 -19 -3 -5 -1 -12 5 -15 6 -4 9
-1 8 6 -2 6 3 14 11 17 9 3 11 0 6 -9 -6 -11 -5 -12 6 -2 7 7 20 13 29 12 10
0 11 -2 3 -6 -10 -3 -10 -8 1 -19 20 -19 32 -18 15 2 -12 15 -11 16 8 10 15
-5 25 -2 33 11 11 16 11 17 6 0 -3 -11 0 -17 10 -17 8 0 12 4 9 10 -4 6 1 7
11 3 14 -5 13 -8 -7 -19 -13 -7 -18 -13 -11 -14 7 0 10 -5 6 -12 -4 -7 -3 -8
5 -4 6 4 9 12 6 17 -4 5 1 9 9 9 8 0 19 7 24 16 8 15 10 15 16 -1 3 -9 3 -21
0 -26 -3 -5 -7 -22 -9 -37 -2 -15 -2 -21 1 -14 3 6 10 12 15 12 6 0 7 -6 3
-12 -6 -10 -4 -11 7 0 23 21 33 13 13 -10 -13 -16 -14 -19 -2 -10 13 10 17 10
21 0 3 -7 4 -2 2 12 -2 14 -4 26 -6 28 -1 1 -2 7 -3 12 0 6 -8 15 -16 20 -8 5
-10 10 -4 10 5 0 19 -7 30 -15 13 -10 15 -14 5 -15 -20 0 -5 -13 20 -17 11 -2
18 1 15 5 -3 5 1 9 9 9 12 0 12 -4 -2 -19 -11 -13 -19 -15 -24 -7 -3 6 -6 -1
-6 -15 0 -32 11 -41 29 -24 20 19 38 20 44 3 5 -12 10 -13 20 -4 11 9 16 6 23
-12 8 -20 10 -21 10 -5 1 18 2 19 21 1 11 -10 23 -15 27 -12 3 4 0 7 -8 7 -8
0 -4 6 9 16 12 8 20 20 17 25 -3 5 1 6 9 3 14 -5 14 -8 1 -21 -16 -16 -20 -33
-7 -33 4 0 13 5 19 11 8 8 14 5 23 -12 l13 -22 12 24 c8 14 10 30 5 40 -6 11
-5 16 5 16 7 0 11 -7 7 -15 -3 -9 -1 -13 5 -9 6 4 13 0 17 -8 3 -8 0 -17 -6
-21 -7 -4 -8 -3 -4 4 4 7 2 12 -3 12 -15 0 -14 -13 4 -36 11 -13 13 -14 9 -3
-3 10 2 19 12 23 14 5 14 9 3 24 -13 15 -12 16 3 3 10 -7 15 -17 12 -22 -6
-11 25 -7 44 5 7 4 19 3 26 -3 9 -7 19 -6 35 5 12 9 25 13 28 10 4 -3 1 -6 -6
-6 -7 0 -9 -5 -5 -12 4 -7 4 -10 -1 -6 -9 9 -45 -9 -45 -23 0 -6 7 -6 19 1 26
13 31 13 31 -5 0 -8 -5 -15 -11 -15 -5 0 -7 6 -3 13 5 6 -7 0 -25 -16 -18 -15
-37 -25 -42 -21 -11 6 -12 24 -1 23 21 -4 29 3 27 23 -1 12 -7 24 -13 26 -7 2
-9 -7 -6 -24 l5 -27 -20 24 -20 24 3 -27 c2 -15 9 -34 16 -43 8 -9 8 -15 2
-15 -16 0 -41 40 -36 55 3 7 1 16 -5 19 -6 4 -9 -3 -7 -16 4 -36 16 -57 37
-63 11 -4 17 -10 15 -13 -6 -10 138 -9 145 0 3 5 4 29 3 54 -2 37 0 43 9 30 7
-8 24 -19 38 -25 17 -6 25 -16 24 -30 -2 -29 -12 -36 -29 -22 -14 12 -36 8
-36 -7 0 -12 63 -12 79 1 9 7 12 8 8 1 -5 -8 121 -12 464 -12 364 -1 468 2
462 11 -5 9 -3 9 8 0 20 -16 111 -15 102 1 -4 6 1 5 10 -3 12 -9 17 -10 17 -2
0 7 5 9 13 4 16 -11 207 -11 207 0 0 5 -7 6 -16 3 -10 -4 -14 -2 -11 6 2 7 10
12 16 10 8 -1 9 2 5 9 -5 9 -2 10 10 6 11 -4 15 -3 11 4 -4 6 -14 8 -22 5 -9
-4 -13 -1 -11 6 5 15 38 19 38 5 1 -7 6 -3 13 8 14 23 42 33 34 12 -3 -7 1
-14 8 -14 16 0 4 31 -17 43 -6 4 -8 3 -5 -3 3 -5 0 -10 -8 -11 -8 -1 -22 -3
-30 -4 -8 -1 -11 -6 -8 -12 4 -6 -2 -4 -12 4 -10 8 -16 10 -12 3 5 -8 1 -11
-14 -8 -30 6 -30 7 -8 34 10 13 19 18 19 13 0 -6 -4 -14 -10 -17 -6 -3 -10
-12 -10 -18 0 -7 11 0 24 14 19 23 24 24 33 11 6 -10 14 -12 23 -7 11 7 10 10
-6 16 -16 6 -16 8 -2 8 9 1 20 -4 24 -11 5 -7 11 -5 21 7 7 11 13 13 13 6 0
-7 5 -9 10 -6 8 5 7 11 -1 21 -18 22 -2 17 19 -6 19 -20 19 -20 37 0 23 26 59
10 51 -23 -3 -12 -3 -16 0 -9 3 6 10 12 15 12 6 0 8 -4 5 -8 -3 -5 1 -9 9 -9
8 0 13 5 12 11 -1 5 3 10 8 11 6 0 16 4 23 8 14 10 35 -1 27 -14 -3 -5 1 -6 9
-3 12 5 12 8 -2 23 -21 21 -56 26 -48 6 3 -9 0 -12 -9 -9 -11 5 -12 10 -3 24
12 18 24 20 46 6 9 -5 22 0 36 13 22 20 24 21 37 4 8 -9 9 -14 2 -10 -6 4 -14
3 -18 -3 -4 -6 -11 -7 -17 -4 -7 5 -8 2 -3 -6 5 -9 4 -11 -3 -6 -7 4 -12 2
-12 -3 0 -15 17 -14 26 1 5 7 11 5 21 -7 7 -11 13 -13 13 -6 0 7 5 9 13 5 9
-6 9 -5 0 8 -7 8 -10 18 -6 21 3 4 12 -1 20 -11 12 -16 13 -16 6 2 -5 14 -3
17 7 11 8 -5 11 -4 7 1 -3 6 3 15 14 22 16 11 19 9 19 -9 0 -13 -4 -18 -12
-13 -7 4 -8 3 -4 -5 12 -19 26 -2 24 30 -1 17 -6 25 -11 20 -5 -5 -17 -7 -26
-4 -14 4 -14 3 -1 -7 13 -10 13 -11 0 -7 -8 2 -22 -2 -30 -9 -13 -11 -18 -10
-28 6 -7 12 -8 20 -2 20 5 0 10 -4 10 -10 0 -5 5 -10 11 -10 6 0 8 9 4 23 -4
15 -3 18 3 8 7 -10 14 -11 31 -2 11 7 21 16 21 21 0 6 8 2 18 -8 10 -9 17 -27
16 -39 -1 -13 1 -25 6 -28 5 -3 7 3 5 12 -1 10 2 26 7 35 7 15 12 16 28 6 10
-7 16 -16 13 -22 -4 -5 -1 -6 7 -1 10 6 7 13 -11 27 -15 11 -18 18 -9 17 22
-3 51 12 44 22 -5 9 11 14 31 9 6 -1 15 -3 20 -4 6 -1 21 -8 35 -15 l25 -12
-24 19 c-13 11 -21 24 -17 31 4 6 2 11 -5 11 -7 0 -9 3 -6 6 4 4 13 1 22 -6
12 -10 18 -10 30 0 8 7 12 16 9 21 -3 5 2 6 10 3 11 -4 13 0 10 18 -3 17 -2
19 3 5 8 -16 10 -16 26 3 10 12 22 18 27 15 6 -3 10 -1 10 5 0 6 5 8 10 5 6
-3 10 0 10 8 0 7 11 20 25 27 13 7 22 17 19 21 -2 4 0 10 5 13 5 4 8 -2 7 -11
-2 -9 -8 -19 -14 -21 -7 -2 -9 -8 -6 -13 4 -6 11 -6 19 1 10 8 19 8 34 1 11
-6 26 -11 33 -10 7 0 3 4 -9 9 -13 5 -23 17 -22 27 0 16 1 16 8 -1 7 -17 8
-18 14 -3 3 9 12 14 20 11 15 -5 16 -31 2 -54 -8 -13 -6 -13 8 -1 16 13 18 35
4 58 -4 6 -3 14 3 18 9 6 14 -1 11 -17 0 -5 3 -8 9 -8 5 0 8 -6 6 -12 -1 -7
-1 -10 1 -5 3 4 10 4 15 1 7 -5 8 -2 2 7 -5 8 -9 18 -9 24 0 5 -11 15 -25 22
-15 8 -19 13 -10 13 9 0 21 -5 27 -11 8 -8 13 -8 17 0 4 6 3 11 -2 11 -5 0 -9
7 -9 16 0 14 2 15 11 2 6 -8 15 -15 19 -16 5 0 12 -4 15 -8 4 -4 1 -4 -7 1
-10 6 -12 4 -6 -5 6 -9 4 -11 -5 -5 -9 6 -11 4 -5 -5 6 -9 4 -11 -4 -5 -10 6
-11 3 -2 -14 14 -25 23 -28 14 -5 -5 14 -3 15 18 5 23 -11 23 -11 5 3 -18 15
-15 21 7 17 5 -1 6 3 3 8 -4 5 -2 12 4 16 10 6 13 -3 13 -37 0 -10 3 -15 8
-13 8 6 5 38 -6 54 -3 5 -1 12 5 16 5 3 10 -2 10 -11 0 -10 3 -15 6 -11 3 3 3
15 -1 26 -6 20 -7 20 -30 -7 -14 -15 -25 -22 -25 -15 0 7 -12 20 -27 28 -16 9
-19 13 -8 10 34 -11 37 -10 43 4 2 8 0 11 -5 8 -5 -3 -9 3 -9 14 0 18 2 18 12
5 6 -9 15 -12 19 -8 5 4 1 -5 -8 -20 -10 -16 -13 -28 -8 -28 6 0 15 9 21 20 6
11 16 17 22 14 8 -5 9 -1 5 12 -7 19 -7 19 8 0 8 -11 18 -17 21 -13 4 4 1 15
-7 24 -12 17 -12 17 5 1 20 -18 12 -43 -11 -34 -8 4 -11 1 -8 -5 4 -6 13 -8
20 -5 7 2 17 0 23 -6 6 -6 12 -6 17 3 5 7 4 10 -3 5 -6 -3 -13 -2 -17 4 -3 5
3 10 14 10 12 0 21 5 21 11 0 5 5 7 12 3 6 -4 8 -3 4 4 -3 6 -2 13 4 17 5 3
10 0 10 -7 0 -10 3 -9 9 2 6 8 7 18 5 22 -3 4 -1 8 5 8 5 0 13 -4 16 -10 3 -5
12 -10 18 -10 7 0 6 4 -3 10 -16 10 -13 12 19 14 11 0 23 5 28 10 4 5 3 6 -3
3 -16 -9 -26 19 -11 32 8 6 18 6 27 1 8 -6 20 -10 25 -9 6 0 -1 6 -15 13 -14
8 -29 12 -34 9 -5 -4 -6 -1 -2 5 3 6 -2 15 -11 21 -17 10 -17 10 0 11 9 0 17
-5 17 -11 0 -5 4 -8 10 -4 5 3 7 12 3 20 -3 8 0 15 7 15 6 0 9 -4 6 -9 -3 -5
1 -12 10 -15 9 -3 14 -12 11 -19 -3 -8 1 -14 8 -14 10 0 11 5 5 17 -5 10 -6
21 -2 25 4 5 0 5 -8 0 -8 -5 -12 -5 -8 0 4 4 3 14 -3 22 -9 9 -8 13 0 13 6 0
11 -5 11 -11 0 -5 5 -7 12 -3 7 4 8 3 4 -4 -4 -7 -3 -12 3 -12 6 0 7 -7 4 -17
-4 -11 -3 -14 6 -9 6 4 9 16 6 26 -3 10 0 22 6 26 8 4 9 3 5 -4 -4 -7 -2 -12
3 -12 6 0 11 -8 12 -17 0 -13 3 -11 10 7 14 33 20 64 11 56 -4 -4 -8 -12 -8
-17 -4 -30 -6 -32 -13 -15 -5 13 0 26 17 43 19 19 21 27 12 38 -7 8 -17 12
-23 8 -6 -3 -7 -1 -3 5 11 18 44 -8 42 -34 0 -12 -5 -20 -9 -17 -5 3 -4 -4 2
-14 6 -11 7 -24 3 -28 -4 -5 -2 -5 5 -1 6 3 10 20 8 36 -4 28 -2 29 17 19 12
-6 18 -7 14 -1 -6 10 22 27 38 23 5 -1 4 5 -3 13 -7 8 -18 13 -25 10 -7 -3
-19 3 -26 13 -12 15 -12 16 0 5 21 -18 34 -15 19 6 -13 15 -12 16 3 4 9 -7 18
-9 20 -5 3 4 4 3 3 -2 -2 -6 8 -18 20 -27 21 -16 22 -16 21 5 -1 16 4 21 19
20 11 -1 14 0 7 3 -6 3 -9 10 -6 15 3 6 11 6 20 -2 7 -6 11 -16 7 -22 -3 -5
-2 -7 4 -4 11 7 10 43 -2 54 -4 5 -5 2 -1 -4 4 -7 3 -13 -2 -13 -17 0 -22 13
-11 27 9 11 15 11 28 1 9 -7 13 -8 9 -4 -4 5 0 14 9 21 14 11 14 12 -3 10 -11
0 -26 -5 -33 -10 -9 -5 -12 -4 -7 3 3 6 -2 15 -11 21 -19 11 -17 11 32 16 17
2 24 1 18 -2 -7 -2 -13 -9 -13 -15 0 -6 7 -5 16 3 13 10 17 10 24 -2 7 -10 9
-8 7 8 0 12 -6 19 -12 16 -5 -3 -5 0 2 7 10 11 9 16 -5 27 -15 12 -14 13 7 2
21 -10 23 -9 18 5 -5 13 -3 15 12 7 10 -6 22 -7 26 -3 5 4 5 1 1 -6 -4 -7 -12
-9 -18 -6 -7 5 -8 2 -3 -6 6 -9 4 -11 -5 -5 -9 6 -11 4 -5 -5 6 -9 4 -11 -4
-5 -10 6 -11 3 -2 -14 7 -12 9 -26 6 -31 -3 -5 -1 -11 4 -14 6 -4 8 7 6 24 -3
21 -1 28 7 24 6 -4 9 -3 6 2 -7 12 17 35 27 26 4 -4 2 3 -5 15 -8 11 -19 19
-26 16 -6 -2 -15 1 -20 8 -4 8 -3 10 5 5 6 -4 18 -2 26 4 12 10 19 10 33 -1 9
-7 14 -10 11 -6 -4 5 3 19 14 32 17 18 25 21 40 13 14 -7 22 -6 31 3 8 9 8 10
-1 5 -16 -9 -43 4 -43 21 0 8 -4 12 -9 8 -15 -9 -25 15 -12 28 9 9 10 7 5 -7
-5 -13 -4 -17 3 -13 6 4 16 0 23 -8 8 -10 18 -12 29 -6 9 4 26 7 38 6 12 -1
20 2 17 7 -3 5 -11 7 -17 5 -7 -2 -19 2 -29 10 -12 11 -18 11 -24 2 -4 -7 -3
-10 4 -5 6 3 13 2 16 -3 3 -5 0 -11 -8 -14 -8 -3 -18 4 -24 17 -9 20 -8 23 11
20 12 -1 31 -5 42 -9 11 -4 16 -3 10 2 -24 20 -13 39 18 34 5 -1 6 3 2 9 -3 5
1 13 10 16 11 5 13 10 5 19 -10 12 -4 25 12 25 5 0 7 -4 4 -9 -3 -5 2 -15 12
-22 15 -13 16 -12 4 3 -14 17 -1 35 18 23 6 -3 10 -4 10 -1 0 3 -10 10 -21 17
-15 7 -19 8 -15 0 5 -7 1 -9 -9 -5 -14 6 -13 9 5 21 14 10 19 21 15 32 -5 12
-4 13 6 4 10 -10 9 -15 -1 -28 -8 -10 -9 -15 -2 -15 16 0 34 37 22 45 -17 11
-11 24 10 20 17 -3 19 0 15 26 -3 16 -2 29 3 29 12 0 49 -29 37 -30 -6 0 -16
5 -22 11 -7 7 -10 2 -9 -18 1 -19 -3 -27 -13 -25 -9 2 -11 -3 -7 -13 3 -9 1
-26 -6 -38 -10 -19 -9 -20 4 -10 8 7 17 10 20 8 3 -3 3 7 0 22 -5 25 -4 27 11
14 9 -7 14 -18 10 -25 -3 -6 0 -6 7 1 12 11 11 15 -5 27 -18 13 -18 14 2 31
12 10 19 24 16 32 -3 9 0 11 10 7 18 -7 32 12 16 22 -8 4 -9 3 -5 -4 4 -7 3
-12 -2 -12 -14 0 -21 11 -15 26 4 10 10 11 25 3 11 -6 22 -8 26 -5 3 3 0 6 -7
6 -7 0 -10 4 -6 10 3 5 13 7 23 4 9 -3 6 1 -7 9 -13 8 -20 17 -14 20 5 3 15 2
23 -4 8 -5 20 -9 25 -8 6 0 -2 6 -17 14 -33 18 -65 10 -47 -11 7 -8 10 -17 7
-19 -8 -9 -36 6 -42 21 -3 9 -1 12 4 9 6 -3 13 1 16 9 3 9 10 13 15 10 5 -3 9
0 9 7 0 7 3 9 7 6 3 -4 13 -2 20 5 11 9 17 9 24 -3 7 -11 9 -10 9 6 1 20 1 20
15 1 8 -11 15 -16 15 -10 0 20 -17 33 -38 29 -12 -2 -24 1 -27 6 -4 5 -11 6
-17 3 -7 -4 -8 -2 -4 5 6 9 11 9 24 -1 13 -11 15 -10 9 4 -3 10 -2 20 4 23 5
4 9 3 8 -2 -1 -4 -1 -15 1 -23 1 -11 4 -9 9 5 5 11 4 25 -1 32 -5 7 -5 14 1
17 6 4 8 13 4 21 -3 8 0 15 7 15 6 0 9 -4 5 -9 -3 -5 -1 -12 4 -16 10 -6 7
-37 -5 -57 -4 -6 -3 -8 4 -4 5 3 13 0 16 -6 4 -9 5 -8 5 2 -2 30 1 41 11 35 6
-3 10 -1 10 4 0 6 -5 11 -11 11 -5 0 -7 5 -3 12 5 7 3 8 -6 3 -10 -6 -12 -4
-7 8 3 9 2 19 -3 22 -6 4 -10 12 -9 18 0 9 2 8 6 -1 2 -6 9 -10 14 -6 5 3 5
12 0 23 -8 13 -5 17 12 18 12 0 16 -1 10 -4 -7 -3 -13 -9 -13 -14 0 -6 4 -8 9
-4 5 3 16 -4 24 -15 14 -20 15 -20 15 6 0 18 -3 22 -9 13 -5 -9 -8 -6 -6 11 1
14 7 31 15 39 7 7 11 20 8 27 -3 9 0 11 11 7 10 -4 14 -2 10 4 -4 6 3 9 18 8
13 -2 30 3 36 11 7 9 8 14 3 13 -20 -3 -24 2 -12 15 7 8 18 11 23 8 6 -3 3 2
-5 13 -14 17 -13 17 10 11 23 -6 23 -6 5 5 -11 7 -23 17 -26 22 -4 5 -9 5 -13
-2 -4 -6 -1 -11 6 -11 9 0 9 -3 -2 -10 -12 -8 -12 -10 -1 -10 11 0 9 -5 -5
-21 -10 -12 -18 -23 -16 -25 1 -2 -1 -4 -5 -3 -5 0 -7 7 -5 15 3 13 -10 19
-31 15 -5 -1 -6 3 -2 9 4 7 13 7 26 -1 28 -14 37 -3 13 16 -18 14 -18 15 0 9
16 -6 17 -4 7 14 -9 18 -9 21 3 16 11 -4 14 1 12 20 -2 14 0 23 4 21 11 -7 22
24 13 37 -3 7 -1 8 6 4 7 -4 9 -16 5 -28 -6 -19 -5 -19 20 -3 22 15 24 20 14
33 -11 13 -11 14 1 8 10 -7 12 -3 6 15 -9 28 -3 24 15 -10 6 -13 8 -21 3 -18
-5 4 -10 0 -10 -8 0 -22 9 -18 35 16 21 25 22 32 11 46 -12 14 -11 15 11 9 14
-4 20 -4 13 1 -8 5 -9 14 -3 23 5 9 5 19 -2 28 -8 9 -8 16 0 24 6 6 8 18 4 27
-5 14 -4 14 11 2 11 -9 17 -10 17 -2 0 6 -4 11 -10 11 -5 0 -10 5 -10 11 0 6
7 9 15 6 8 -4 17 -1 21 5 4 6 3 8 -3 5 -19 -12 -24 25 -6 38 23 17 30 10 12
-12 -13 -16 -12 -17 3 -4 19 14 19 44 0 63 -9 9 -11 7 -8 -8 3 -13 -4 -25 -16
-33 -11 -7 -17 -8 -14 -3 3 6 -6 20 -20 31 -15 12 -22 21 -17 21 6 0 16 -6 23
-14 13 -16 41 -11 37 7 -1 7 5 10 13 8 40 -9 58 -7 53 5 -2 7 -13 11 -23 9
-14 -3 -17 1 -13 13 6 15 5 15 -10 3 -19 -15 -19 -15 -22 16 -1 12 1 20 6 17
4 -2 5 -12 2 -22 -6 -14 -4 -15 9 -5 8 7 18 10 21 6 4 -3 7 -1 7 5 0 6 -8 16
-17 21 -16 9 -16 10 -2 11 19 0 33 -26 22 -42 -3 -7 -1 -8 5 -4 6 3 15 -2 21
-11 6 -10 11 -14 11 -10 0 4 -7 18 -15 31 -14 21 -14 24 1 30 8 3 21 3 26 -1
6 -3 8 -1 4 5 -3 6 -2 13 4 17 5 3 10 12 10 18 0 7 -5 4 -11 -5 -5 -10 -15
-18 -21 -18 -9 0 -9 3 -1 11 6 6 9 18 6 27 -5 11 -3 13 8 7 8 -4 11 -5 7 0 -4
4 -2 15 5 23 9 13 9 14 0 8 -7 -4 -13 -3 -13 2 0 5 8 12 18 14 10 3 19 12 19
21 0 9 -4 14 -9 11 -5 -3 -6 -10 -3 -15 4 -5 -1 -9 -10 -9 -12 0 -14 4 -6 19
6 10 7 22 3 26 -4 5 0 6 9 3 9 -4 16 -1 16 8 0 7 -4 11 -8 8 -4 -2 -8 4 -8 13
-1 39 -5 53 -13 53 -11 0 -6 -32 7 -43 6 -5 3 -7 -7 -3 -10 3 -20 1 -23 -4 -4
-6 -12 -10 -18 -10 -8 0 -7 4 2 9 8 5 16 17 17 27 5 32 23 39 43 17 11 -11 17
-24 13 -29 -4 -4 -1 -4 6 1 12 6 11 10 -1 22 -13 13 -13 18 1 43 19 32 12 47
-14 32 -11 -6 -13 -11 -5 -16 6 -4 11 -2 11 5 0 7 2 10 5 7 3 -3 2 -13 -1 -22
-5 -14 -9 -15 -15 -4 -7 10 -9 10 -9 1 0 -14 -29 -18 -31 -5 0 4 -2 14 -4 23
-2 12 3 15 16 12 11 -3 19 0 19 6 0 7 -4 10 -9 6 -5 -3 -13 0 -17 6 -4 7 -3 9
4 5 5 -3 13 0 15 6 4 10 6 10 6 0 1 -7 6 -10 11 -7 8 5 7 11 -1 21 -9 12 -15
12 -28 2 -14 -12 -14 -11 -3 4 8 10 17 17 20 16 20 -2 25 4 12 13 -11 8 -9 9
10 4 20 -6 23 -5 13 6 -7 7 -13 20 -13 29 0 9 6 5 13 -10 13 -24 12 -54 -2
-46 -4 3 -7 -6 -7 -20 0 -13 4 -24 9 -24 5 0 7 7 4 15 -4 8 -2 17 3 20 4 3 10
-1 13 -7 4 -10 7 -10 18 0 12 11 12 13 0 10 -7 -2 -16 3 -18 10 -3 7 1 10 10
6 8 -3 18 -1 22 5 4 7 -1 9 -12 5 -16 -5 -16 -4 -2 8 10 8 15 26 14 46 -1 18
3 36 9 40 16 10 16 41 0 35 -7 -2 -12 -10 -10 -16 1 -7 1 -9 -1 -4 -6 9 -23
-1 -23 -14 0 -6 6 -7 13 -3 6 4 9 4 5 -1 -5 -5 -23 -10 -40 -11 -26 -2 -29 -1
-13 6 26 11 55 46 47 56 -4 4 -2 4 5 0 6 -3 14 -2 18 4 6 10 -7 14 -35 10 -10
-1 -9 3 5 13 17 13 18 17 5 33 -8 11 -10 16 -6 12 5 -4 14 -3 21 2 8 7 12 5
12 -5 0 -8 -3 -12 -7 -10 -3 2 -6 -4 -6 -14 0 -10 5 -18 11 -18 6 0 10 28 10
68 0 37 -3 65 -8 62 -4 -2 -7 1 -7 6 0 6 4 11 8 11 11 0 9 142 -2 159 -6 9 -5
12 1 8 7 -4 10 5 9 23 0 22 -5 29 -16 25 -13 -4 -13 -4 0 7 18 16 23 129 6
140 -8 5 -7 8 2 8 10 0 10 5 1 21 -6 12 -7 19 -1 16 11 -8 10 63 -2 82 -6 10
-5 12 2 7 14 -8 12 20 -2 43 -5 8 -5 12 0 9 5 -4 10 4 10 17 1 18 -3 23 -18
20 -12 -3 -17 -1 -14 3 4 4 13 7 19 7 14 0 16 32 4 59 -6 11 -5 16 1 12 6 -3
9 49 7 141 l-2 146 -29 24 -29 25 31 -15 c29 -15 30 -15 30 9 0 14 -6 24 -14
24 -12 0 -12 -2 -1 -17 13 -15 12 -15 -8 -2 -13 8 -23 17 -23 22 0 4 4 6 9 3
4 -3 8 10 7 29 -1 23 -5 34 -13 31 -16 -6 -27 10 -13 19 5 3 10 11 10 16 0 6
-4 8 -9 5 -5 -4 -4 5 2 19 7 14 20 28 30 31 18 6 24 24 7 24 -5 0 -10 -4 -10
-10 0 -5 -4 -10 -8 -10 -5 0 -9 7 -9 15 0 13 9 19 28 17 3 -1 6 5 6 13 0 8 -4
12 -8 9 -4 -2 -9 -1 -12 3 -2 5 -2 2 0 -5 1 -8 -3 -12 -9 -9 -7 2 -12 11 -10
21 2 9 -2 16 -8 16 -6 0 -9 4 -5 9 3 5 0 13 -6 17 -8 4 -9 3 -5 -4 4 -7 2 -12
-3 -12 -6 0 -11 7 -11 15 0 8 5 15 10 15 6 0 10 5 10 10 0 18 -18 11 -25 -9
-6 -19 -27 -22 -42 -7 -4 4 -3 7 2 6 27 -6 33 2 30 41 -3 33 -1 38 10 29 8 -6
11 -19 8 -28 -4 -14 -3 -15 6 -2 7 10 6 19 -3 30 -7 8 -12 27 -11 42 1 15 -1
25 -6 23 -7 -5 -23 24 -21 38 1 4 -5 7 -15 7 -15 0 -15 -2 1 -19 13 -14 14
-21 5 -26 -8 -6 -7 -10 4 -16 8 -5 14 -17 13 -27 -2 -9 -7 -15 -12 -12 -5 3
-7 11 -6 19 2 7 -1 10 -6 7 -6 -3 -9 2 -8 11 2 10 -2 21 -8 25 -8 5 -7 8 2 8
7 0 10 5 7 10 -4 6 -11 8 -16 5 -5 -4 -9 -2 -9 4 0 5 9 13 20 16 11 4 18 11
14 16 -3 6 -12 5 -22 -3 -15 -11 -15 -11 -5 3 15 18 8 30 -13 22 -8 -3 -14 0
-14 6 0 6 3 10 8 10 19 -3 21 3 7 25 -12 18 -13 26 -4 32 9 5 8 10 -5 19 -15
11 -15 13 -1 19 9 3 13 2 10 -4 -3 -6 1 -13 9 -16 9 -3 16 -10 16 -16 0 -5 -6
-6 -12 -2 -8 5 -7 0 2 -11 9 -11 10 -16 3 -11 -18 10 -16 -2 2 -21 8 -8 14
-18 12 -21 -2 -4 4 -15 15 -24 10 -10 18 -14 18 -9 0 6 -4 13 -10 16 -5 3 -10
11 -10 18 0 8 3 8 12 -1 7 -7 16 -12 22 -12 5 0 -4 10 -21 23 -39 29 -40 31
-25 50 11 13 10 16 -8 22 -12 4 -19 9 -16 12 3 3 0 15 -6 26 -9 17 -8 19 6 14
10 -4 15 -3 11 2 -3 5 1 12 7 15 7 3 2 3 -11 0 -17 -4 -21 -3 -16 6 5 8 0 7
-14 -2 -12 -7 -21 -16 -21 -21 0 -4 4 -6 9 -2 5 3 12 1 15 -4 7 -11 -12 -26
-21 -17 -4 3 -7 16 -9 29 -4 33 -4 33 -12 20 -6 -9 -12 -7 -25 7 -16 19 -16
20 6 16 12 -3 24 -5 27 -6 3 -2 9 -2 13 -1 5 1 5 -4 1 -11 -6 -11 -4 -11 7 0
11 10 9 15 -9 28 -19 13 -21 18 -10 32 10 12 10 14 1 8 -8 -4 -13 -2 -13 6 0
7 -5 5 -11 -6 -9 -14 -8 -21 2 -28 11 -8 11 -9 -1 -5 -8 2 -24 0 -35 -6 -11
-5 -17 -6 -13 -2 4 5 2 15 -5 24 -11 14 -10 14 6 2 9 -8 21 -11 24 -7 4 4 1
12 -7 17 -12 9 -12 10 3 5 13 -4 17 0 17 20 0 14 4 22 10 19 6 -3 10 -1 10 4
0 6 -4 11 -9 11 -13 0 -32 -26 -24 -34 4 -4 0 -4 -10 0 -9 3 -17 10 -17 16 0
5 5 6 12 2 8 -5 9 -2 5 10 -4 9 -3 14 2 11 5 -3 12 -1 16 5 3 5 -2 10 -12 10
-10 0 -25 5 -33 11 -12 8 -10 9 8 4 19 -6 23 -3 21 12 -2 10 2 28 9 40 11 20
10 21 -8 18 -25 -5 -27 12 -2 18 16 4 16 5 -1 6 -10 0 -15 5 -12 11 4 6 -1 7
-12 3 -16 -6 -17 -5 -3 12 9 11 10 16 3 11 -7 -4 -13 -3 -13 3 0 5 3 11 8 14
4 2 1 2 -6 1 -7 -2 -17 6 -22 19 -6 14 -9 17 -11 7 -1 -8 -3 -19 -4 -25 -2 -5
-3 -16 -4 -22 0 -7 -9 -13 -18 -13 -15 0 -14 2 3 16 16 13 16 15 2 10 -10 -3
-20 -1 -23 5 -4 5 -11 7 -16 4 -5 -4 -9 -2 -9 4 0 5 5 11 12 13 7 3 9 12 5 22
-5 13 -11 15 -26 6 -14 -7 -22 -7 -27 2 -4 6 -3 8 2 5 6 -3 16 -2 24 4 13 7
13 9 1 9 -11 0 -10 3 3 13 17 12 16 15 -8 44 -15 17 -25 35 -24 40 5 15 -37
60 -52 55 -19 -6 -11 2 17 16 19 11 20 9 15 -11 -5 -20 -4 -21 13 -7 10 8 16
10 12 4 -4 -7 0 -17 8 -24 7 -6 12 -17 9 -24 -2 -6 4 -12 16 -13 11 -1 20 3
20 8 0 6 -4 8 -9 5 -5 -3 -12 2 -16 12 -13 28 -14 42 -4 48 5 3 9 11 9 17 0 8
-4 7 -9 -2 -12 -19 -41 -23 -34 -5 3 8 0 14 -7 14 -7 0 -10 8 -7 20 4 16 2 18
-13 10 -21 -11 -39 5 -35 33 2 9 -1 15 -6 11 -15 -9 -10 8 7 27 17 18 2 22
-23 6 -16 -10 -17 5 -1 21 9 9 9 12 -2 13 -8 1 -19 1 -24 0 -5 -1 -6 5 -2 14
3 9 2 13 -3 10 -5 -3 -12 -1 -16 5 -3 5 -12 10 -18 10 -8 0 -8 -3 -2 -8 15
-11 18 -42 4 -42 -7 0 -9 3 -6 6 3 4 2 14 -3 23 -8 16 0 44 14 42 19 -3 26 0
26 10 0 6 -5 7 -12 2 -19 -11 -37 -12 -44 -2 -3 5 0 9 7 9 8 0 7 5 -2 17 -12
15 -12 16 3 10 10 -3 20 -2 22 2 6 9 -17 7 -51 -4 -13 -4 -20 -12 -16 -19 3
-6 3 -8 -2 -4 -4 4 -14 0 -22 -10 -13 -15 -13 -15 -3 6 10 21 7 26 -13 23 -5
-1 -5 4 -1 10 5 9 2 10 -10 6 -9 -4 -15 -3 -12 2 3 5 17 9 32 9 16 0 21 -3 14
-8 -9 -5 -9 -9 -1 -14 6 -4 11 -2 11 4 0 6 5 8 13 4 8 -5 8 -2 -2 9 -10 13
-11 20 -2 30 8 10 7 14 -4 14 -8 0 -12 -4 -10 -8 3 -4 -2 -10 -11 -13 -23 -9
-28 -7 -17 7 21 26 8 67 -22 67 -5 0 -3 -5 5 -10 8 -5 11 -10 6 -10 -5 0 -3
-6 3 -14 9 -11 9 -16 0 -22 -8 -4 -9 -3 -5 4 4 7 3 12 -1 12 -5 0 -13 10 -18
23 -6 12 -16 21 -23 20 -7 -2 -11 0 -11 5 3 19 -2 25 -11 12 -7 -11 -10 -11
-10 -2 0 7 -4 11 -8 8 -4 -2 -9 5 -9 17 -2 18 0 19 8 7 9 -13 10 -13 6 0 -2 8
-11 14 -21 12 -9 -2 -16 2 -16 7 0 6 -6 9 -12 7 -7 -1 -10 -1 -5 1 4 3 4 10 0
16 -5 8 -2 8 9 0 8 -7 19 -9 23 -5 5 4 5 1 0 -7 -5 -9 -4 -12 3 -7 15 9 37 -5
37 -24 0 -8 6 -14 13 -12 8 1 11 -2 6 -9 -5 -8 -3 -9 6 -4 9 6 11 4 5 -5 -6
-9 -4 -11 5 -5 8 5 11 4 7 -3 -5 -6 1 -8 15 -4 16 4 18 7 8 10 -25 9 -42 32
-36 48 3 8 2 13 -3 9 -16 -9 -43 7 -38 24 3 12 -3 17 -17 18 -12 1 -15 -1 -8
-4 6 -3 12 -9 12 -14 0 -12 -80 28 -81 41 -1 6 -2 15 -3 22 0 6 -7 13 -14 16
-8 2 -10 -2 -5 -15 3 -10 3 -15 -1 -11 -4 3 -8 12 -10 20 -1 7 -5 19 -10 27
-7 11 -13 9 -28 -10 -19 -23 -15 -7 5 19 7 9 13 9 23 1 8 -6 14 -7 14 -3 0 5
-9 15 -21 22 -16 10 -18 16 -9 27 11 13 9 13 -29 6 -2 -1 2 -7 8 -14 8 -10 7
-19 -3 -33 -8 -10 -18 -16 -22 -11 -4 4 -2 7 4 7 7 0 12 5 12 11 0 5 -6 7 -12
3 -10 -6 -9 -3 0 8 12 14 10 19 -14 31 -21 11 -23 15 -11 20 10 4 20 0 25 -10
8 -14 10 -13 16 2 9 26 -2 35 -30 25 -19 -8 -28 -6 -43 9 -11 11 -21 19 -23
18 -2 -1 9 10 24 26 33 32 28 36 -9 7 -20 -15 -29 -17 -39 -9 -8 6 -14 8 -14
4 0 -4 -7 -2 -15 5 -9 7 -14 19 -11 25 7 20 -15 35 -35 24 -15 -7 -17 -6 -13
6 3 8 10 12 15 9 5 -3 9 -1 9 5 0 5 -5 11 -12 13 -9 3 -13 16 -17 62 -1 6 -8
1 -17 -10 -10 -13 -14 -14 -11 -4 3 9 -1 24 -9 35 -8 10 -14 13 -14 7 0 -7 -5
-12 -12 -12 -6 0 -8 3 -5 7 4 3 -2 12 -13 20 -11 7 -17 20 -14 28 4 8 -1 18
-10 21 -9 3 -13 10 -10 15 3 5 0 9 -5 9 -16 0 -13 -20 4 -26 8 -4 15 -10 15
-15 0 -17 -41 11 -52 36 -6 13 -19 26 -30 28 -11 3 -17 10 -13 16 3 6 1 11 -4
11 -14 0 -14 -17 -1 -25 6 -3 10 -11 10 -17 0 -6 -9 -3 -19 6 -14 13 -21 14
-27 5 -4 -8 -3 -10 4 -5 8 5 10 2 6 -9 -5 -13 -1 -15 19 -11 14 2 28 1 30 -2
2 -4 2 0 0 8 -3 11 -1 12 8 3 16 -16 2 -35 -19 -24 -9 4 -23 6 -29 4 -7 -3
-16 2 -19 11 -3 9 -9 14 -13 12 -4 -3 -13 0 -21 5 -12 8 -11 9 4 7 10 -2 21 2
23 9 2 6 -4 10 -14 9 -24 -4 -73 13 -73 26 0 5 -5 6 -12 2 -6 -4 -8 -3 -4 4 3
6 -8 27 -25 46 -17 21 -27 40 -23 47 4 8 3 9 -4 5 -7 -4 -12 -2 -12 4 0 6 -5
8 -12 4 -8 -5 -9 -2 -5 10 5 12 3 15 -5 9 -21 -12 -49 -11 -44 3 3 7 -2 18
-10 25 -12 10 -12 14 -2 22 9 6 8 7 -4 3 -16 -5 -23 5 -19 27 1 5 -4 5 -11 1
-20 -12 -48 -15 -48 -5 0 5 6 12 13 14 9 4 9 6 0 6 -24 2 -25 -22 -2 -41 13
-11 19 -17 12 -14 -6 4 -14 -2 -16 -11 -4 -14 -5 -13 -6 4 -1 24 -16 39 -25
24 -3 -5 -16 -7 -28 -3 -16 4 -19 2 -13 -9 5 -8 4 -10 0 -6 -13 12 -15 39 -3
60 7 14 6 22 -2 31 -8 8 -9 6 -4 -8 7 -18 6 -18 -18 -2 -13 9 -27 13 -31 10
-3 -4 -17 3 -31 14 l-25 19 22 12 c21 11 6 8 -30 -6 -17 -6 -17 -5 0 14 9 11
17 23 17 27 0 5 -8 -2 -19 -15 -17 -21 -19 -55 -2 -45 4 3 13 1 21 -5 14 -8 8
-11 -16 -8 -3 0 -12 -8 -21 -18 -8 -10 -12 -12 -8 -5 3 6 2 12 -4 12 -5 0 -13
10 -17 22 l-7 22 -18 -23 c-11 -13 -19 -19 -19 -14 0 5 12 20 28 34 15 13 24
20 20 15 -9 -11 9 -46 24 -46 7 0 6 6 -3 16 -10 13 -10 20 4 44 16 27 16 28 0
25 -10 -2 -21 -4 -25 -4 -5 -1 -8 -7 -8 -15 0 -17 -23 -27 -39 -16 -9 5 -10
10 -2 14 6 4 11 1 11 -6 0 -7 6 -2 13 12 13 25 19 65 8 54 -3 -3 -6 -13 -6
-21 0 -9 -6 -18 -13 -20 -6 -3 -10 1 -9 9 2 7 2 10 0 6 -3 -4 -16 0 -29 9 -18
11 -28 13 -36 5 -14 -14 0 -35 19 -28 8 3 11 1 8 -4 -3 -6 -1 -10 4 -10 6 0
11 5 11 11 0 5 5 7 11 3 7 -4 7 -9 2 -13 -5 -3 -15 -15 -22 -26 -9 -15 -11
-15 -7 -3 3 11 -2 22 -14 28 -16 9 -20 7 -20 -7 0 -13 -5 -9 -15 11 -17 32
-20 49 -5 26 5 -8 10 -10 10 -5 -1 6 -7 19 -15 29 -8 11 -15 15 -15 10 0 -5
-10 -10 -22 -11 -22 -2 -22 -1 -4 13 11 8 15 14 10 14 -6 0 -14 -3 -18 -7 -3
-4 -16 -7 -27 -8 -14 -1 -18 3 -14 14 3 8 3 12 -1 8 -4 -4 -16 1 -26 10 -18
16 -18 16 -12 -1 6 -16 5 -17 -14 -5 l-22 14 23 12 c12 7 18 12 12 12 -5 1
-17 -4 -25 -9 -11 -7 -22 -1 -44 23 -17 18 -27 24 -23 14 4 -11 1 -20 -8 -23
-8 -4 -12 -10 -9 -15 3 -5 9 -7 13 -5 4 3 8 -4 8 -16 2 -19 2 -19 -17 2 -13
15 -20 17 -23 8 -3 -8 -6 -8 -6 -2 -1 6 6 17 14 24 8 7 15 18 15 24 0 6 -4 4
-10 -4 -5 -8 -12 -11 -16 -7 -4 4 -2 13 4 19 7 7 12 19 12 28 0 8 -7 2 -15
-14 -8 -15 -12 -33 -8 -39 4 -6 1 -7 -7 -2 -10 6 -12 4 -7 -8 3 -9 -1 -21 -11
-29 -15 -12 -16 -11 -4 4 8 10 9 19 3 22 -5 4 -14 -2 -20 -11 -6 -10 -11 -13
-11 -6 0 6 5 15 10 18 6 3 10 14 10 23 -1 16 -2 15 -14 -1 -19 -24 -53 -30
-51 -8 0 9 4 22 8 29 6 8 3 10 -8 6 -11 -5 -14 -2 -9 12 5 16 4 17 -5 4 -10
-13 -13 -13 -26 4 -15 20 -15 20 -15 0 0 -16 -2 -17 -10 -4 -8 13 -10 12 -10
-4 0 -12 5 -16 15 -12 21 8 51 -4 35 -14 -19 -12 -65 5 -62 22 1 9 -4 18 -11
21 -8 3 -14 -1 -14 -9 0 -7 5 -10 10 -7 6 3 7 1 3 -5 -4 -6 -14 -8 -23 -5 -12
5 -14 3 -8 -8 7 -11 6 -12 -7 -2 -8 7 -18 10 -22 6 -3 -4 -15 -7 -26 -8 -11
-1 -18 1 -15 3 6 7 -15 32 -26 32 -5 0 -9 -8 -9 -17 0 -15 -2 -16 -10 -3 -6
10 -6 16 0 18 6 2 8 8 4 13 -3 5 -17 1 -32 -9 -29 -20 -62 -34 -62 -26 0 2 11
9 25 14 30 11 33 25 5 27 -13 1 -18 -2 -14 -9 4 -6 -3 -4 -15 5 -13 8 -30 13
-38 10 -12 -5 -14 -1 -8 18 7 21 6 22 -8 10 -9 -7 -14 -17 -11 -22 3 -5 1 -9
-5 -9 -5 0 -11 5 -13 11 -3 9 -9 9 -25 0 -12 -6 -24 -7 -27 -3 -3 5 0 9 7 10
45 6 57 9 63 15 4 4 2 7 -5 7 -7 0 -10 4 -6 9 3 5 -3 12 -12 14 -10 3 -6 4 8
4 16 -1 25 -6 22 -12 -2 -7 3 -12 12 -12 10 0 13 6 9 19 -3 10 0 18 6 18 6 0
8 -5 4 -12 -4 -7 -3 -8 4 -4 8 4 10 2 6 -7 -3 -8 2 -17 11 -21 11 -4 14 -2 10
7 -4 6 -1 5 7 -3 13 -15 31 -22 55 -23 7 0 10 -4 8 -8 -6 -9 22 -6 31 4 4 4
12 7 18 7 6 0 2 -8 -9 -17 -17 -13 -17 -15 -2 -9 11 3 16 2 12 -4 -3 -6 -1
-10 4 -10 6 0 11 5 11 11 0 8 4 8 14 -1 8 -6 12 -19 10 -28 -5 -15 -4 -15 9 1
16 19 32 24 21 5 -4 -7 -3 -8 5 -4 6 4 9 12 6 17 -4 5 0 12 9 15 8 3 17 13 21
22 4 12 -1 10 -18 -6 -28 -27 -37 -28 -38 -4 0 14 -2 14 -9 -3 -9 -22 -10 -21
-14 12 -2 13 -6 26 -11 30 -4 5 -4 -3 -1 -17 6 -23 6 -23 -7 -8 -10 13 -16 15
-25 6 -9 -9 -12 -9 -12 0 0 6 9 17 20 24 11 7 20 17 20 22 0 5 -9 1 -20 -9
-20 -19 -28 -9 -10 13 7 9 7 9 -2 2 -14 -12 -31 -13 -24 -2 3 5 -303 9 -680 9
-403 1 -684 -3 -684 -8 0 -5 -5 -9 -11 -9 -5 0 -8 4 -5 8 2 4 -15 8 -40 8 -24
0 -45 -5 -45 -11z m81 -6 c3 -1 10 -3 15 -4 6 -1 19 -6 29 -10 14 -6 23 -3 34
11 9 12 13 13 10 4 -3 -8 -15 -21 -29 -27 -13 -7 -18 -13 -11 -13 7 0 10 -5 6
-11 -4 -8 -9 -7 -15 2 -4 7 -6 16 -3 20 2 4 0 10 -6 14 -5 3 -10 1 -10 -6 0
-8 -4 -8 -15 1 -10 8 -15 9 -15 2 0 -6 9 -16 19 -22 11 -5 19 -19 18 -29 0
-11 -5 -17 -11 -14 -5 3 -15 -2 -23 -12 -7 -11 -13 -14 -13 -9 0 6 5 15 11 21
9 9 5 11 -17 9 -15 -2 -30 -9 -32 -16 -3 -8 0 -10 8 -5 9 5 11 4 6 -4 -6 -9
-11 -9 -22 0 -10 8 -14 8 -14 0 0 -6 -4 -11 -10 -11 -18 0 -10 19 11 25 20 7
20 7 2 22 -10 8 -12 12 -6 8 9 -4 11 -1 7 9 -4 9 -1 16 6 16 10 0 10 3 1 14
-9 11 -9 15 1 18 13 5 58 3 68 -3z m60 1 c0 -5 -2 -10 -4 -10 -3 0 -8 5 -11
10 -3 6 -1 10 4 10 6 0 11 -4 11 -10z m90 -7 c0 -3 -9 -3 -20 0 -15 4 -20 0
-20 -13 0 -13 6 -18 19 -15 15 3 18 0 14 -13 -4 -10 -8 -12 -11 -4 -2 7 -8 10
-13 6 -12 -7 -23 21 -16 40 5 13 47 12 47 -1z m147 2 c0 -8 -4 -12 -9 -9 -5 3
-6 10 -3 15 9 13 12 11 12 -6z m1045 -6 c-1 -9 2 -8 12 4 12 16 15 16 27 1 16
-19 20 -56 5 -46 -6 4 -13 7 -16 8 -3 0 -18 7 -35 14 -16 7 -33 13 -36 12 -3
0 -6 5 -6 12 0 7 11 12 26 11 16 -1 25 -7 23 -16z m-1167 2 c3 -5 2 -12 -3
-15 -5 -3 -9 1 -9 9 0 17 3 19 12 6z m1019 -7 c3 -8 2 -12 -4 -9 -6 3 -10 1
-10 -6 0 -7 -2 -10 -5 -7 -5 5 4 38 10 38 2 0 6 -7 9 -16z m-985 -8 c9 -11 9
-16 -1 -22 -7 -4 -10 -4 -6 1 4 4 3 14 -3 22 -6 7 -9 13 -6 13 2 0 10 -6 16
-14z m891 4 c0 -5 -5 -10 -11 -10 -5 0 -7 5 -4 10 3 6 8 10 11 10 2 0 4 -4 4
-10z m-1196 -9 c12 -18 -5 -36 -34 -37 -28 -2 -29 -1 -13 22 16 25 37 31 47
15z m1248 -5 c7 4 8 2 4 -5 -9 -13 -26 -5 -25 12 0 9 2 8 6 -1 2 -6 10 -9 15
-6z m-1069 -13 c-4 -10 -2 -14 5 -9 6 3 13 3 16 -2 2 -4 -4 -9 -15 -9 -18 -2
-26 17 -12 30 11 11 13 8 6 -10z m192 7 c3 -5 1 -10 -4 -10 -6 0 -11 5 -11 10
0 6 2 10 4 10 3 0 8 -4 11 -10z m845 -4 c0 -2 -8 -10 -17 -17 -16 -13 -17 -12
-4 4 13 16 21 21 21 13z m-186 -22 c3 -8 2 -12 -4 -9 -6 3 -10 10 -10 16 0 14
7 11 14 -7z m71 6 c3 -6 -1 -7 -9 -4 -18 7 -21 14 -7 14 6 0 13 -4 16 -10z
m-945 -20 c0 -5 -4 -10 -10 -10 -5 0 -10 5 -10 10 0 6 5 10 10 10 6 0 10 -4
10 -10z m994 -6 c3 -8 2 -12 -4 -9 -6 3 -10 10 -10 16 0 14 7 11 14 -7z m115
2 c9 -11 9 -16 -1 -22 -7 -4 -10 -4 -6 1 4 4 3 14 -3 22 -6 7 -9 13 -6 13 2 0
10 -6 16 -14z m46 4 c3 -6 -1 -7 -9 -4 -18 7 -21 14 -7 14 6 0 13 -4 16 -10z
m61 -22 c0 -16 -1 -16 -21 0 -11 9 -21 18 -23 18 -2 1 7 1 20 1 15 -1 24 -8
24 -19z m-1491 -17 c0 -16 -4 -27 -8 -24 -5 3 -6 11 -3 19 7 18 -2 18 -19 0
-8 -7 -11 -17 -7 -21 4 -5 2 -5 -5 -2 -6 4 -13 4 -16 0 -2 -5 -2 -3 -1 4 2 7
-1 15 -7 18 -15 10 -1 24 20 20 10 -2 24 1 32 6 8 5 14 9 14 9 1 0 1 -13 0
-29z m232 6 c0 -7 -9 -14 -20 -14 -19 -2 -19 -2 -1 12 11 8 19 15 20 15 0 0 1
-6 1 -13z m1360 -3 c-3 -3 -12 -4 -19 -1 -8 3 -5 6 6 6 11 1 17 -2 13 -5z
m-1477 -8 c0 -2 -6 -9 -14 -15 -11 -9 -16 -9 -22 0 -4 7 -3 9 4 5 6 -3 13 -2
17 4 6 10 15 14 15 6z m1451 -23 c13 -16 12 -17 -3 -4 -10 7 -18 15 -18 17 0
8 8 3 21 -13z m193 9 c2 -4 -4 -8 -14 -8 -10 0 -16 4 -14 8 3 4 9 8 14 8 5 0
11 -4 14 -8z m76 -12 c0 -5 -8 -10 -17 -10 -15 0 -16 2 -3 10 19 12 20 12 20
0z m263 -63 c11 6 28 -17 21 -29 -10 -15 -26 -8 -20 8 5 14 4 15 -9 4 -14 -12
-20 -7 -16 14 1 5 -5 6 -12 3 -8 -3 -20 0 -27 6 -10 9 -12 9 -7 -4 3 -9 0 -16
-8 -16 -10 0 -11 5 -5 17 5 9 5 22 -1 31 -19 31 -7 29 32 -5 23 -19 46 -33 52
-29z m-2370 35 c15 -16 15 -18 -3 -18 -10 0 -16 4 -13 9 3 5 -1 13 -8 18 -8 5
-9 9 -3 9 6 0 18 -8 27 -18z m-10 -58 c-7 -3 -9 -13 -6 -22 4 -14 3 -14 -5 -2
-12 16 -7 30 11 29 9 0 9 -2 0 -5z m2327 -14 c-6 -11 -13 -20 -16 -20 -2 0 0
9 6 20 6 11 13 20 16 20 2 0 0 -9 -6 -20z m113 1 c-3 -12 10 -15 21 -4 13 13
35 11 29 -2 -5 -15 -42 -16 -60 -2 -9 6 -13 6 -13 -2 0 -6 -5 -11 -10 -11 -6
0 -5 8 2 20 13 21 35 21 31 1z m-150 -6 c-3 -9 -8 -14 -10 -11 -3 3 -2 9 2 15
9 16 15 13 8 -4z m-2243 -1 c0 -8 -19 -13 -24 -6 -3 5 1 9 9 9 8 0 15 -2 15
-3z m2324 -3 c4 -5 -3 -7 -14 -4 -23 6 -26 13 -6 13 8 0 17 -4 20 -9z m186 -1
c0 -5 -4 -10 -10 -10 -5 0 -10 5 -10 10 0 6 5 10 10 10 6 0 10 -4 10 -10z
m-2660 -20 c0 -5 -5 -10 -11 -10 -5 0 -7 5 -4 10 3 6 8 10 11 10 2 0 4 -4 4
-10z m2762 -22 c-7 -7 -12 -8 -12 -2 0 14 12 26 19 19 2 -3 -1 -11 -7 -17z
m-2922 -18 c0 -5 -5 -10 -11 -10 -5 0 -7 5 -4 10 3 6 8 10 11 10 2 0 4 -4 4
-10z m3018 -56 c5 3 18 -1 28 -9 12 -9 14 -14 6 -15 -7 0 -11 -4 -7 -9 3 -5 0
-13 -6 -17 -8 -5 -9 -3 -4 6 6 10 3 12 -11 7 -18 -7 -18 -6 -2 6 23 18 15 25
-22 21 -28 -3 -38 5 -23 19 3 4 12 2 19 -4 7 -6 17 -8 22 -5z m-65 -19 c-3 -9
-8 -14 -10 -11 -3 3 -2 9 2 15 9 16 15 13 8 -4z m-3063 1 c0 -2 -7 -7 -16 -10
-8 -3 -12 -2 -9 4 6 10 25 14 25 6z m30 0 c0 -3 -4 -8 -10 -11 -5 -3 -10 -1
-10 4 0 6 5 11 10 11 6 0 10 -2 10 -4z m3055 -15 c3 -5 2 -12 -3 -15 -5 -3 -9
1 -9 9 0 17 3 19 12 6z m22 -13 c-3 -8 -6 -5 -6 6 -1 11 2 17 5 13 3 -3 4 -12
1 -19z m-3146 -5 c13 -16 12 -17 -3 -4 -10 7 -18 15 -18 17 0 8 8 3 21 -13z
m3069 11 c0 -8 -19 -13 -24 -6 -3 5 1 9 9 9 8 0 15 -2 15 -3z m286 -44 c17
-19 20 -29 12 -43 -8 -15 -12 -16 -25 -6 -10 9 -11 15 -4 17 6 2 9 8 6 12 -3
5 -13 7 -23 4 -14 -5 -14 -4 -3 4 12 9 13 13 1 27 -23 28 10 14 36 -15z m69
-62 c24 -11 35 -38 15 -38 -5 0 -9 5 -7 11 1 6 -4 14 -11 16 -8 3 -10 -2 -6
-14 5 -14 4 -15 -4 -3 -6 8 -8 18 -5 24 4 5 -1 7 -11 3 -10 -4 -20 -7 -22 -7
-3 0 -3 -4 0 -8 3 -5 -1 -9 -9 -9 -22 0 -18 12 8 25 12 6 23 11 24 11 1 1 14
-4 28 -11z m-3797 -31 c-1 -2 3 -11 10 -20 10 -12 10 -17 1 -23 -7 -4 -17 0
-23 8 -6 8 -18 13 -26 11 -8 -3 -4 5 10 16 21 17 39 22 28 8z m3866 -46 c4 -5
-3 -7 -14 -4 -23 6 -26 13 -6 13 8 0 17 -4 20 -9z m36 -61 c0 -5 -2 -10 -4
-10 -3 0 -8 5 -11 10 -3 6 -1 10 4 10 6 0 11 -4 11 -10z m184 -59 c3 -5 -1
-11 -9 -14 -9 -4 -12 -1 -8 9 6 16 10 17 17 5z m-34 -16 c0 -12 -19 -12 -23 0
-4 9 -1 12 9 8 7 -3 14 -7 14 -8z m-4239 -18 c-10 -9 -11 -8 -5 6 3 10 9 15
12 12 3 -3 0 -11 -7 -18z m4323 -6 c9 -7 13 -17 10 -22 -3 -5 1 -10 8 -11 7 0
18 -2 23 -3 6 -2 14 -3 19 -4 5 0 3 -7 -3 -15 -9 -10 -8 -15 3 -19 7 -3 19 -1
25 4 8 6 8 5 1 -3 -6 -8 -6 -17 2 -27 10 -13 10 -14 -2 -3 -8 6 -18 12 -23 12
-4 0 -5 -6 -1 -12 4 -8 3 -10 -2 -5 -5 5 -9 14 -9 20 0 7 -9 11 -20 9 -20 -4
-20 -3 0 12 14 12 16 16 5 15 -31 -3 -39 2 -35 22 2 12 0 19 -7 17 -18 -6 -18
-37 0 -47 15 -9 14 -10 -4 -8 -15 1 -20 7 -19 24 0 12 4 25 8 29 15 15 6 26
-10 13 -9 -8 -14 -9 -10 -2 4 6 1 14 -5 17 -7 2 -3 4 9 2 11 -1 28 -8 37 -15z
m-60 1 c2 -4 -5 -9 -17 -9 -17 -2 -19 0 -7 7 18 12 18 12 24 2z m-4374 -60 c0
-4 -9 -13 -19 -19 -15 -10 -20 -9 -25 2 -3 9 0 12 10 8 8 -3 14 -2 13 3 -3 18
1 25 11 19 6 -3 10 -9 10 -13z m10 -32 c-12 -23 -16 -24 -26 -8 -4 6 -3 8 3 5
6 -4 13 0 17 8 3 8 8 15 11 15 3 0 1 -9 -5 -20z m-66 -88 c2 -4 -4 -8 -14 -8
-10 0 -16 4 -14 8 3 4 9 8 14 8 5 0 11 -4 14 -8z m-49 -41 c3 -5 2 -12 -3 -15
-5 -3 -9 1 -9 9 0 17 3 19 12 6z m4729 1 c3 -5 -1 -9 -9 -9 -8 0 -15 4 -15 9
0 4 4 8 9 8 6 0 12 -4 15 -8z m-4813 -55 c-10 -9 -11 -8 -5 6 3 10 9 15 12 12
3 -3 0 -11 -7 -18z m4909 -31 c0 -2 -8 -10 -17 -17 -16 -13 -17 -12 -4 4 13
16 21 21 21 13z m-4940 -10 c0 -3 -4 -8 -10 -11 -5 -3 -10 -1 -10 4 0 6 5 11
10 11 6 0 10 -2 10 -4z m4997 -68 c-3 -8 -6 -5 -6 6 -1 11 2 17 5 13 3 -3 4
-12 1 -19z m-5072 2 c3 -6 -1 -7 -9 -4 -18 7 -21 14 -7 14 6 0 13 -4 16 -10z
m-45 -38 c0 -4 -9 -8 -20 -9 -11 -1 -20 2 -20 5 0 4 9 8 20 9 11 1 20 -2 20
-5z m5190 -28 c0 -2 -7 -4 -15 -4 -8 0 -15 4 -15 10 0 5 7 7 15 4 8 -4 15 -8
15 -10z m-5193 -9 c0 -8 -4 -12 -9 -9 -5 3 -6 10 -3 15 9 13 12 11 12 -6z
m-63 -41 c3 -8 2 -12 -4 -9 -6 3 -10 10 -10 16 0 14 7 11 14 -7z m-19 -44 c3
-6 -1 -7 -9 -4 -18 7 -21 14 -7 14 6 0 13 -4 16 -10z m-90 -30 c-4 -6 -1 -17
5 -25 9 -11 9 -15 1 -15 -6 0 -11 5 -11 10 0 6 -5 10 -11 10 -6 0 -8 -7 -5
-16 3 -8 2 -12 -4 -9 -14 9 -12 21 6 39 18 18 28 21 19 6z m5479 -6 c5 -14 4
-15 -9 -4 -17 14 -19 20 -6 20 5 0 12 -7 15 -16z m-5519 -52 c3 -16 0 -19 -12
-15 -11 4 -14 3 -9 -6 9 -14 -20 -51 -39 -51 -6 0 -12 7 -12 14 0 8 3 14 6 13
3 -1 18 11 33 26 15 15 23 27 17 27 -6 0 -7 5 -4 11 9 13 15 7 20 -19z m5532
6 c-3 -8 -6 -5 -6 6 -1 11 2 17 5 13 3 -3 4 -12 1 -19z m-5487 -34 c0 -8 -19
-13 -24 -6 -3 5 1 9 9 9 8 0 15 -2 15 -3z m5587 -28 c-3 -7 -1 -18 5 -24 6 -6
6 -12 -2 -17 -17 -11 -30 15 -19 37 11 21 24 24 16 4z m-5637 -10 c0 -3 -4 -8
-10 -11 -5 -3 -10 -1 -10 4 0 6 5 11 10 11 6 0 10 -2 10 -4z m-24 -39 c1 -9
-2 -15 -7 -11 -5 3 -7 9 -4 14 3 4 0 11 -5 13 -6 3 -5 4 1 3 7 -1 13 -10 15
-19z m-106 -63 c-1 -4 4 -10 10 -14 9 -5 9 -9 1 -14 -6 -4 -11 -3 -11 3 0 6
-8 8 -17 5 -14 -4 -15 -3 -5 4 8 5 13 12 13 16 -1 3 -1 12 0 19 0 9 2 9 6 0 2
-7 4 -15 3 -19z m5842 12 c3 5 3 3 1 -4 -6 -23 8 -34 25 -20 14 10 13 8 -1 -8
-16 -19 -16 -22 -2 -27 8 -4 14 -10 13 -14 -2 -4 5 -18 14 -31 10 -15 17 -19
20 -11 3 9 7 7 11 -5 4 -9 3 -15 -2 -11 -5 3 -12 1 -16 -4 -3 -6 -13 -7 -21
-4 -12 4 -13 8 -3 13 9 6 9 12 -3 24 -9 8 -19 12 -24 8 -5 -4 -2 2 6 12 14 18
13 19 -3 13 -11 -4 -16 -3 -12 3 3 6 1 10 -5 10 -6 0 -10 6 -9 13 3 25 -1 38
-11 32 -6 -3 -7 1 -3 10 4 12 8 13 13 5 4 -7 10 -8 12 -4z m-27 -36 c-3 -5
-12 -10 -18 -10 -7 0 -6 4 3 10 19 12 23 12 15 0z m-5818 -38 c-10 -10 -14
-22 -10 -27 5 -4 -3 -4 -15 0 -24 7 -24 7 -6 -21 18 -27 18 -27 -3 -16 -26 14
-38 3 -15 -15 13 -10 14 -13 2 -11 -9 2 -15 -5 -15 -16 0 -11 -6 -21 -14 -24
-10 -3 -11 2 -6 18 5 17 4 21 -5 15 -15 -10 -6 10 19 39 9 10 14 21 12 25 -2
3 6 11 18 17 13 7 28 17 34 23 18 18 21 12 4 -7z m5862 -52 c0 -10 -2 -11 -6
-2 -2 6 -10 9 -16 5 -7 -3 -9 -3 -5 2 4 4 2 15 -5 23 -11 13 -9 14 11 1 12 -8
22 -21 21 -29z m-5875 -48 c2 -4 -5 -9 -17 -9 -17 -2 -19 0 -7 7 18 12 18 12
24 2z m-14 -36 c0 -2 -7 -7 -16 -10 -8 -3 -12 -2 -9 4 6 10 25 14 25 6z m-76
-64 c3 -5 -1 -9 -9 -9 -8 0 -12 4 -9 9 3 4 7 8 9 8 2 0 6 -4 9 -8z m6070 -3
c-2 -4 1 -9 8 -11 7 -3 4 -7 -7 -12 -11 -4 -16 -4 -12 0 4 4 2 12 -3 19 -7 8
-5 12 5 12 8 0 12 -4 9 -8z m-6146 -24 c-6 -14 -15 -25 -20 -25 -5 0 -1 11 8
25 9 14 18 25 20 25 2 0 -2 -11 -8 -25z m25 -90 c-7 -21 -12 -19 -10 4 0 11 5
18 9 15 4 -3 5 -11 1 -19z m6242 -21 c2 -11 4 -23 4 -27 1 -5 5 -6 10 -3 5 3
8 -2 7 -12 0 -9 5 -16 12 -14 6 1 12 -2 12 -8 0 -5 -5 -10 -11 -10 -6 0 -8 -7
-5 -16 5 -14 4 -15 -9 -4 -8 7 -15 18 -14 24 3 24 -2 35 -13 32 -7 -1 -10 -1
-5 1 15 9 6 22 -10 17 -11 -4 -14 -3 -7 3 6 4 10 18 9 31 -2 26 14 15 20 -14z
m-6315 -9 c0 -2 -7 -8 -15 -15 -12 -10 -15 -10 -15 2 0 8 7 15 15 15 8 0 15
-1 15 -2z m37 -32 c-4 -3 -1 -13 6 -21 11 -13 9 -14 -10 -1 -16 9 -19 16 -10
21 15 9 23 10 14 1z m-17 -77 c0 -3 -4 -8 -10 -11 -5 -3 -10 -1 -10 4 0 6 5
11 10 11 6 0 10 -2 10 -4z m-55 -26 c3 -6 -1 -7 -9 -4 -18 7 -21 14 -7 14 6 0
13 -4 16 -10z m6375 0 c0 -5 -4 -10 -10 -10 -5 0 -10 5 -10 10 0 6 5 10 10 10
6 0 10 -4 10 -10z m-6397 -30 c-3 -12 -8 -19 -11 -16 -5 6 5 36 12 36 2 0 2
-9 -1 -20z m6397 -124 c0 -3 -4 -8 -10 -11 -5 -3 -10 -1 -10 4 0 6 5 11 10 11
6 0 10 -2 10 -4z m40 -6 c0 -5 -2 -10 -4 -10 -3 0 -8 5 -11 10 -3 6 -1 10 4
10 6 0 11 -4 11 -10z m15 -20 c-3 -5 -1 -10 6 -10 8 0 9 -3 0 -13 -6 -8 -7
-18 -3 -22 4 -5 2 -5 -4 -2 -6 3 -10 16 -8 29 3 28 3 28 10 28 3 0 2 -4 -1
-10z m-6471 -22 c-3 -4 -9 -8 -15 -8 -5 0 -9 4 -9 8 0 5 7 9 15 9 8 0 12 -4 9
-9z m6511 -26 c-3 -3 -11 0 -18 7 -9 10 -8 11 6 5 10 -3 15 -9 12 -12z m-6485
-28 c0 -8 -19 -13 -24 -6 -3 5 1 9 9 9 8 0 15 -2 15 -3z m6560 -219 c10 6 4
-35 -6 -44 -4 -3 -5 1 -1 11 6 18 -25 53 -37 41 -4 -4 -4 1 0 11 6 15 4 17 -6
11 -9 -6 -11 -4 -5 5 6 10 13 6 27 -14 11 -14 24 -24 28 -21z m-29 -28 c-6 -8
-7 -18 -3 -22 4 -5 1 -5 -6 -1 -10 6 -10 11 -1 22 6 8 14 14 16 14 3 0 0 -6
-6 -13z m-6724 -32 c0 -8 -4 -12 -9 -9 -5 3 -6 10 -3 15 9 13 12 11 12 -6z
m6802 -40 c3 -4 7 -11 7 -16 1 -5 2 -10 4 -11 7 -10 7 -37 -1 -32 -5 3 -9 1
-9 -5 0 -5 4 -11 9 -13 5 -2 4 -10 -2 -19 -11 -15 -14 -15 -27 -1 -13 14 -12
15 2 10 12 -5 15 -1 14 18 -1 26 -16 34 -16 9 0 -8 -5 -15 -10 -15 -7 0 -7 6
0 20 6 11 15 20 21 20 6 0 7 5 3 12 -5 8 -13 5 -25 -10 -15 -20 -18 -20 -24
-5 -3 10 -3 14 1 10 8 -8 34 11 34 25 0 6 -6 5 -15 -2 -8 -6 -20 -10 -27 -7
-7 3 -4 6 7 6 17 1 18 3 5 11 -11 8 -8 9 14 6 16 -3 31 -8 35 -11z m-6759 -10
c-7 -9 -15 -13 -19 -10 -3 3 1 10 9 15 21 14 24 12 10 -5z m4 -53 c2 -4 -4 -8
-14 -8 -10 0 -16 4 -14 8 3 4 9 8 14 8 5 0 11 -4 14 -8z m6687 -55 c-10 -9
-11 -8 -5 6 3 10 9 15 12 12 3 -3 0 -11 -7 -18z m69 -65 c0 -5 -7 -9 -15 -9
-8 0 -12 4 -9 9 3 4 9 8 15 8 5 0 9 -4 9 -8z m-6750 -18 c0 -8 -19 -13 -24 -6
-3 5 1 9 9 9 8 0 15 -2 15 -3z m-54 -59 c3 -17 -12 -20 -21 -5 -3 6 -1 10 5
10 6 0 8 6 4 13 -4 6 -3 8 1 4 5 -4 10 -14 11 -22z m6802 -10 c-3 -3 -9 2 -12
12 -6 14 -5 15 5 6 7 -7 10 -15 7 -18z m-6802 -43 c0 -10 -6 -19 -13 -19 -8 0
-9 6 -2 19 5 10 11 18 12 18 2 0 3 -8 3 -18z m6853 -12 c11 -24 11 -24 -3 -6
-11 13 -16 15 -16 6 0 -7 -2 -11 -5 -8 -3 3 -3 13 1 22 7 19 7 19 23 -14z m0
-34 c9 -11 9 -16 -1 -22 -7 -4 -10 -4 -6 1 4 4 3 14 -3 22 -6 7 -9 13 -6 13 2
0 10 -6 16 -14z m-6933 -10 c3 -8 1 -23 -5 -33 -9 -15 -10 -13 -5 10 5 23 4
26 -12 20 -12 -4 -15 -3 -10 5 10 16 25 15 32 -2z m98 5 c3 -5 -2 -15 -12 -22
-15 -12 -16 -12 -5 2 7 9 10 19 6 22 -3 4 -4 7 0 7 3 0 8 -4 11 -9z m-60 -17
c3 -8 2 -12 -4 -9 -6 3 -10 10 -10 16 0 14 7 11 14 -7z m-8 -26 c4 -7 3 -8 -4
-4 -7 4 -12 2 -12 -5 0 -7 -3 -10 -6 -6 -6 5 3 27 11 27 2 0 7 -5 11 -12z
m6901 6 c-3 -3 -12 -4 -19 -1 -8 3 -5 6 6 6 11 1 17 -2 13 -5z m-6853 -50 c3
-8 2 -12 -4 -9 -6 3 -10 10 -10 16 0 14 7 11 14 -7z m-57 -16 c0 -13 -1 -17
-4 -10 -3 6 -10 9 -16 5 -7 -4 -6 1 2 10 17 21 17 21 18 -5z m-29 -33 c-3 -3
-9 2 -12 12 -6 14 -5 15 5 6 7 -7 10 -15 7 -18z m6942 21 c0 -2 -8 -10 -17
-17 -16 -13 -17 -12 -4 4 13 16 21 21 21 13z m-6870 -40 c0 -3 -4 -8 -10 -11
-5 -3 -10 -1 -10 4 0 6 5 11 10 11 6 0 10 -2 10 -4z m-5 -46 c3 -5 1 -10 -4
-10 -6 0 -11 5 -11 10 0 6 2 10 4 10 3 0 8 -4 11 -10z m-64 -27 c13 -16 12
-17 -3 -4 -10 7 -18 15 -18 17 0 8 8 3 21 -13z m99 -7 c0 -2 -8 -10 -17 -17
-16 -13 -17 -12 -4 4 13 16 21 21 21 13z m-75 -85 c-9 -8 -36 -10 -30 -2 2 4
11 8 20 8 8 0 13 -3 10 -6z m0 -101 c3 -5 1 -10 -4 -10 -6 0 -11 5 -11 10 0 6
2 10 4 10 3 0 8 -4 11 -10z m6902 -125 c0 -8 -4 -12 -9 -9 -5 3 -6 10 -3 15 9
13 12 11 12 -6z m-6942 -115 c3 -5 1 -10 -4 -10 -6 0 -11 5 -11 10 0 6 2 10 4
10 3 0 8 -4 11 -10z m65 -14 c0 -2 -7 -7 -16 -10 -8 -3 -12 -2 -9 4 6 10 25
14 25 6z m-46 -24 c3 -5 -1 -9 -9 -9 -8 0 -12 4 -9 9 3 4 7 8 9 8 2 0 6 -4 9
-8z m3 -92 c-1 -21 -10 -18 -13 5 -1 8 2 15 6 15 5 0 8 -9 7 -20z m34 -37 c13
-16 12 -17 -3 -4 -10 7 -18 15 -18 17 0 8 8 3 21 -13z m-31 -13 c0 -5 -2 -10
-4 -10 -3 0 -8 5 -11 10 -3 6 -1 10 4 10 6 0 11 -4 11 -10z m75 -8 c-3 -3 -11
0 -18 7 -9 10 -8 11 6 5 10 -3 15 -9 12 -12z m-95 -17 c0 -8 -2 -15 -4 -15 -2
0 -6 7 -10 15 -3 8 -1 15 4 15 6 0 10 -7 10 -15z m6954 6 c3 -5 -2 -15 -12
-22 -15 -13 -16 -12 -4 3 10 13 10 17 0 21 -9 4 -9 6 -1 6 6 1 14 -3 17 -8z
m-6882 -25 c10 5 10 4 1 -6 -10 -11 -15 -11 -28 0 -18 15 -20 -1 -2 -19 10
-10 9 -11 -5 -6 -18 7 -24 26 -11 38 3 4 12 2 19 -4 7 -6 19 -7 26 -3z m48 4
c0 -5 -5 -10 -11 -10 -5 0 -7 5 -4 10 3 6 8 10 11 10 2 0 4 -4 4 -10z m6794 2
c3 -5 -1 -9 -9 -9 -8 0 -12 4 -9 9 3 4 7 8 9 8 2 0 6 -4 9 -8z m40 -56 c-3 -8
-12 -17 -20 -20 -11 -4 -12 -2 -1 14 14 23 29 27 21 6z m-6872 -23 c-10 -4 -9
-10 5 -27 l18 -21 -22 19 c-23 19 -22 37 0 35 8 0 8 -2 -1 -6z m53 -43 c3 -5
1 -10 -4 -10 -6 0 -11 5 -11 10 0 6 2 10 4 10 3 0 8 -4 11 -10z m6785 -22 c0
-19 -16 -5 -17 14 -2 18 0 20 7 8 5 -8 10 -18 10 -22z m-6817 -8 c3 -11 1 -18
-4 -14 -5 3 -9 12 -9 20 0 20 7 17 13 -6z m6811 -39 c-2 -3 -12 3 -22 13 -16
17 -16 18 5 5 12 -7 20 -15 17 -18z m-6794 -11 c0 -5 -5 -10 -11 -10 -5 0 -7
5 -4 10 3 6 8 10 11 10 2 0 4 -4 4 -10z m6773 -15 c-3 -9 -8 -14 -10 -11 -3 3
-2 9 2 15 9 16 15 13 8 -4z m-6758 -25 c3 -5 1 -10 -4 -10 -6 0 -11 5 -11 10
0 6 2 10 4 10 3 0 8 -4 11 -10z m6729 -18 c3 -5 -1 -9 -9 -9 -8 0 -12 4 -9 9
3 4 7 8 9 8 2 0 6 -4 9 -8z m76 -4 c0 -4 -5 -8 -11 -8 -8 0 -8 -4 0 -14 9 -10
8 -16 -4 -26 -12 -10 -15 -9 -16 6 -1 11 -1 22 0 27 0 4 -7 7 -16 8 -16 0 -15
1 2 8 25 10 45 10 45 -1z m-84 -27 c-4 -5 0 -12 6 -15 7 -2 3 -4 -9 -2 -12 1
-26 6 -30 11 -5 4 -3 5 4 1 6 -3 14 -2 18 4 3 5 8 10 11 10 3 0 3 -4 0 -9z
m-6741 -11 c4 -6 -1 -7 -12 -4 -17 5 -17 5 0 -9 9 -8 17 -23 16 -33 0 -18 -1
-18 -9 1 -5 11 -9 16 -9 11 -1 -5 -8 -3 -16 4 -12 10 -13 16 -4 26 13 16 25
18 34 4z m45 -20 c0 -5 -5 -10 -11 -10 -5 0 -7 5 -4 10 3 6 8 10 11 10 2 0 4
-4 4 -10z m-20 -60 c0 -5 -2 -10 -4 -10 -3 0 -8 5 -11 10 -3 6 -1 10 4 10 6 0
11 -4 11 -10z m0 -71 c11 -19 10 -20 -9 -9 -16 8 -21 8 -21 -1 0 -7 -2 -10 -5
-7 -8 7 5 38 16 38 4 0 13 -9 19 -21z m10 -70 c0 -11 -29 -19 -34 -10 -3 5 -3
10 -1 13 8 7 35 5 35 -3z m6694 -36 c-3 -16 -6 -34 -6 -40 -2 -16 -8 -16 -30
1 -21 15 -23 27 -5 24 6 -2 11 5 11 14 -1 11 4 14 14 11 10 -4 13 -2 8 5 -4 7
-2 12 4 12 6 0 8 -11 4 -27z m-6687 3 c0 -8 -10 -13 -24 -12 -29 1 -29 4 0 16
12 5 22 9 23 9 0 1 1 -5 1 -13z m6663 -73 c0 5 5 5 10 2 8 -5 7 -11 0 -20 -7
-8 -9 -19 -6 -24 4 -5 -2 -14 -11 -20 -13 -7 -14 -10 -4 -11 8 0 11 -3 8 -6
-4 -4 -13 -1 -21 5 -8 7 -21 9 -27 5 -8 -4 -9 -3 -5 5 4 6 13 11 19 10 26 -3
34 2 32 21 -1 11 -4 23 -8 26 -4 4 -7 12 -7 18 0 6 5 4 10 -4 5 -8 10 -11 10
-7z m-6603 -18 c0 -8 -4 -12 -9 -9 -4 3 -8 9 -8 15 0 5 4 9 8 9 5 0 9 -7 9
-15z m43 -20 c0 -5 -5 -3 -10 5 -5 8 -10 20 -10 25 0 6 5 3 10 -5 5 -8 10 -19
10 -25z m6538 4 c-3 -8 -7 -3 -11 10 -4 17 -3 21 5 13 5 -5 8 -16 6 -23z
m-6563 -39 c-3 -5 -12 -10 -18 -10 -7 0 -6 4 3 10 19 12 23 12 15 0z m20 -20
c3 -5 1 -10 -4 -10 -6 0 -11 5 -11 10 0 6 2 10 4 10 3 0 8 -4 11 -10z m6462
-25 c0 -8 -4 -12 -9 -9 -4 3 -8 9 -8 15 0 5 4 9 8 9 5 0 9 -7 9 -15z m-6462
-5 c3 -5 1 -10 -4 -10 -6 0 -11 5 -11 10 0 6 2 10 4 10 3 0 8 -4 11 -10z
m6479 -35 c-4 -8 -8 -15 -10 -15 -2 0 -4 7 -4 15 0 8 4 15 10 15 5 0 7 -7 4
-15z m-24 -49 c0 -7 -40 -14 -44 -7 -3 4 6 8 20 9 13 1 24 0 24 -2z m13 -29
c3 -7 0 -20 -7 -29 -10 -14 -13 -14 -26 0 -13 14 -12 15 3 9 9 -3 19 -2 22 3
4 6 1 10 -4 10 -6 0 -11 5 -11 10 0 14 17 12 23 -3z m-6423 -39 c0 -19 -16 -5
-17 14 -2 18 0 20 7 8 5 -8 10 -18 10 -22z m6390 -2 c0 -2 -7 -7 -16 -10 -8
-3 -12 -2 -9 4 6 10 25 14 25 6z m8 -32 c-4 -11 -28 -14 -28 -4 0 8 22 20 28
14 2 -1 2 -6 0 -10z m-6338 -20 c0 -8 -19 -13 -24 -6 -3 5 1 9 9 9 8 0 15 -2
15 -3z m6344 -39 c-3 -7 -12 -16 -21 -19 -12 -5 -13 -9 -3 -21 10 -12 10 -18
0 -30 -7 -9 -15 -13 -18 -10 -3 2 1 12 9 22 12 15 12 16 -2 11 -13 -5 -16 -2
-12 13 3 10 9 19 12 19 4 0 8 7 8 15 0 8 -5 15 -11 15 -6 0 -4 4 4 10 18 11
41 -6 34 -25z m-6374 21 c0 -3 -4 -8 -10 -11 -5 -3 -10 -1 -10 4 0 6 5 11 10
11 6 0 10 -2 10 -4z m41 -58 c-11 -11 -13 -10 -7 0 4 7 2 21 -5 30 -12 15 -11
15 6 0 16 -15 17 -20 6 -30z m6289 38 c0 -3 -4 -8 -10 -11 -5 -3 -10 -1 -10 4
0 6 5 11 10 11 6 0 10 -2 10 -4z m-6289 -89 c-6 -6 -11 -18 -11 -26 1 -13 4
-12 15 3 8 11 18 16 22 12 4 -4 1 -11 -7 -16 -8 -6 -11 -10 -6 -10 5 0 3 -6
-3 -13 -6 -8 -7 -18 -3 -23 4 -4 -1 -2 -10 5 -10 7 -16 17 -13 21 3 5 1 11 -5
15 -6 4 -8 11 -5 16 4 5 0 12 -8 15 -16 6 -17 20 -4 41 6 9 13 7 28 -8 15 -15
18 -24 10 -32z m6174 -57 c3 -6 -1 -7 -9 -4 -18 7 -21 14 -7 14 6 0 13 -4 16
-10z m-6129 -85 c-3 -9 3 -19 15 -26 11 -6 18 -13 15 -17 -9 -8 -56 39 -50 49
9 15 26 10 20 -6z m41 -9 c0 -8 -6 -12 -15 -9 -11 5 -11 7 0 14 7 5 13 9 14 9
0 0 1 -6 1 -14z m43 0 c0 -2 -7 -7 -16 -10 -8 -3 -12 -2 -9 4 6 10 25 14 25 6z
m6020 -22 c0 -8 -19 -13 -24 -6 -3 5 1 9 9 9 8 0 15 -2 15 -3z m-6080 -34 c0
-5 5 -10 11 -10 5 0 7 6 3 13 -6 9 -4 9 8 -1 13 -10 17 -10 22 0 3 7 3 2 0
-11 -3 -13 -2 -21 2 -19 5 3 17 -3 27 -14 9 -10 13 -18 8 -18 -6 0 -13 5 -16
11 -4 6 -12 8 -19 6 -7 -3 -23 1 -37 9 -13 7 -20 13 -15 14 5 0 3 7 -4 15 -9
10 -9 15 -1 15 6 0 11 -4 11 -10z m94 -8 c3 -5 -1 -9 -9 -9 -8 0 -12 4 -9 9 3
4 7 8 9 8 2 0 6 -4 9 -8z m5941 -1 c3 -5 2 -12 -3 -15 -5 -3 -9 1 -9 9 0 17 3
19 12 6z m-5920 -40 c3 -5 2 -12 -3 -15 -5 -3 -9 1 -9 9 0 17 3 19 12 6z m35
-121 c0 -5 -5 -10 -11 -10 -5 0 -7 5 -4 10 3 6 8 10 11 10 2 0 4 -4 4 -10z
m-15 -51 c4 -21 3 -22 -11 -7 -9 9 -13 21 -9 28 9 14 14 9 20 -21z m81 9 c3
-4 -1 -5 -10 -4 -8 1 -18 5 -22 8 -3 4 1 5 10 4 8 -1 18 -5 22 -8z m5654 -42
c0 -2 -7 -7 -16 -10 -8 -3 -12 -2 -9 4 6 10 25 14 25 6z m-5615 -46 c3 -5 1
-10 -4 -10 -6 0 -11 5 -11 10 0 6 2 10 4 10 3 0 8 -4 11 -10z m5594 -41 c-12
-7 -12 -9 0 -9 8 0 12 -3 8 -6 -3 -3 -14 -1 -24 5 -10 6 -12 11 -5 11 6 0 11
3 11 8 -1 4 -1 14 0 22 1 12 4 11 12 -4 9 -14 8 -20 -2 -27z m-5545 13 c3 -5
-1 -9 -9 -9 -8 0 -12 4 -9 9 3 4 7 8 9 8 2 0 6 -4 9 -8z m36 -40 c0 -5 -7 -9
-15 -9 -8 0 -12 4 -9 9 3 4 9 8 15 8 5 0 9 -4 9 -8z m5437 -17 c0 -8 -4 -12
-9 -9 -5 3 -6 10 -3 15 9 13 12 11 12 -6z m-5487 -5 c-10 -6 -11 -10 -2 -10 6
0 12 -10 12 -22 0 -13 4 -18 8 -13 9 12 32 18 32 8 0 -5 -11 -13 -25 -20 -14
-6 -23 -7 -19 -2 3 5 0 9 -6 9 -7 0 -10 7 -7 15 4 8 2 17 -4 20 -12 8 -2 25
14 25 7 0 6 -4 -3 -10z m67 -62 c-3 -8 -6 -5 -6 6 -1 11 2 17 5 13 3 -3 4 -12
1 -19z m5393 3 c0 -5 -7 -12 -16 -15 -14 -5 -15 -4 -4 9 14 17 20 19 20 6z
m-5412 -18 c-2 -9 -10 -19 -18 -21 -12 -4 -13 -3 -3 10 7 8 10 18 6 21 -3 4
-1 7 6 7 7 0 11 -8 9 -17z m65 -28 c-3 -9 -8 -14 -10 -11 -3 3 -2 9 2 15 9 16
15 13 8 -4z m5315 3 c-2 -6 -10 -13 -16 -14 -7 -1 -8 0 -2 3 5 2 8 9 4 14 -3
5 0 9 6 9 7 0 10 -5 8 -12z m-5338 -16 c0 -5 -7 -9 -15 -9 -8 0 -12 4 -9 9 3
4 9 8 15 8 5 0 9 -4 9 -8z m75 -21 c3 -5 2 -12 -3 -15 -5 -3 -9 1 -9 9 0 17 3
19 12 6z m5230 -1 c-3 -5 -11 -10 -16 -10 -6 0 -7 5 -4 10 3 6 11 10 16 10 6
0 7 -4 4 -10z m35 0 c0 -5 -11 -17 -25 -26 -14 -9 -22 -21 -18 -27 3 -6 1 -7
-6 -3 -6 4 -9 12 -6 17 9 13 -9 11 -25 -3 -12 -11 -12 -10 -1 5 8 9 19 16 25
16 18 -3 46 12 40 22 -3 5 0 9 5 9 6 0 11 -4 11 -10z m-5283 -44 c-3 -6 -11
-9 -18 -7 -8 2 -20 4 -26 4 -28 1 -11 14 17 14 18 0 29 -5 27 -11z m38 -6 c3
-6 -1 -7 -9 -4 -18 7 -21 14 -7 14 6 0 13 -4 16 -10z m60 -22 c5 4 5 1 1 -5
-10 -18 -23 -16 -30 3 -5 13 -4 14 7 6 8 -7 18 -8 22 -4z m20 -28 c-3 -5 -12
-10 -18 -10 -7 0 -6 4 3 10 19 12 23 12 15 0z m5035 -21 c0 -5 5 -7 12 -3 7 4
8 3 4 -5 -4 -6 -12 -8 -18 -5 -8 5 -9 1 -5 -10 4 -10 3 -15 -3 -11 -6 3 -10 0
-11 -7 0 -10 -2 -10 -6 0 -2 6 -9 10 -14 7 -5 -4 -6 1 -3 9 3 9 13 16 21 16 8
0 11 5 8 10 -3 6 -1 10 4 10 6 0 11 -5 11 -11z m-5036 -25 c-19 -15 -19 -16 1
-10 20 6 20 6 1 -9 -14 -11 -23 -12 -33 -4 -14 12 -8 33 7 24 5 -3 11 -1 15 5
3 5 11 10 18 10 6 0 2 -7 -9 -16z m41 6 c3 -5 1 -10 -4 -10 -6 0 -11 5 -11 10
0 6 2 10 4 10 3 0 8 -4 11 -10z m4945 6 c0 -3 -4 -8 -10 -11 -5 -3 -10 -1 -10
4 0 6 5 11 10 11 6 0 10 -2 10 -4z m-4915 -66 c10 -11 16 -20 13 -20 -3 0 -13
9 -23 20 -10 11 -16 20 -13 20 3 0 13 -9 23 -20z m4815 -20 c0 -5 -5 -10 -11
-10 -5 0 -7 5 -4 10 3 6 8 10 11 10 2 0 4 -4 4 -10z m-4745 -19 c-9 -8 -36
-10 -30 -2 2 4 11 8 20 8 8 0 13 -3 10 -6z m42 -36 c0 -8 -4 -12 -9 -9 -5 3
-6 10 -3 15 9 13 12 11 12 -6z m4638 -22 c-2 -10 -4 -21 -4 -25 -1 -5 -6 -8
-12 -8 -6 0 -7 5 -2 13 4 6 8 15 9 20 3 14 4 17 8 17 2 0 3 -8 1 -17z m-4604
-30 c13 -16 12 -17 -3 -4 -10 7 -18 15 -18 17 0 8 8 3 21 -13z m4629 2 c-7 -8
-9 -15 -4 -15 4 0 -2 -10 -14 -23 -12 -13 -20 -27 -17 -30 3 -4 3 -6 1 -4 -2
1 -4 4 -3 7 0 3 -5 15 -12 27 -9 19 -9 22 3 17 9 -3 20 3 28 15 7 12 17 21 22
21 4 0 3 -7 -4 -15z m-4559 -72 c13 -16 12 -17 -3 -4 -17 13 -22 21 -14 21 2
0 10 -8 17 -17z m57 -8 c-3 -3 -9 2 -12 12 -6 14 -5 15 5 6 7 -7 10 -15 7 -18z
m4388 4 c3 -6 16 -8 28 -5 20 5 20 5 2 -9 -22 -17 -40 -20 -31 -6 3 6 -3 14
-12 20 -10 6 -13 11 -6 11 6 0 15 -5 19 -11z m-4409 -14 c0 -8 -4 -12 -9 -9
-5 3 -6 10 -3 15 9 13 12 11 12 -6z m16 -30 c-3 -9 -8 -14 -10 -11 -3 3 -2 9
2 15 9 16 15 13 8 -4z m4329 1 c7 4 8 2 4 -5 -9 -13 -26 -5 -25 12 0 9 2 8 6
-1 2 -6 10 -9 15 -6z m-4282 -32 c0 -2 -9 0 -20 6 -11 6 -20 13 -20 16 0 2 9
0 20 -6 11 -6 20 -13 20 -16z m4225 16 c-3 -5 -12 -10 -18 -10 -7 0 -6 4 3 10
19 12 23 12 15 0z m-4260 -20 c3 -5 15 -10 26 -10 10 0 19 -4 19 -10 0 -5 -7
-6 -17 -3 -11 4 -14 3 -9 -5 5 -8 2 -10 -8 -6 -10 4 -16 1 -16 -7 -1 -9 -9 -4
-21 10 -15 19 -17 26 -7 32 17 11 26 11 33 -1z m4290 0 c-3 -5 -11 -10 -16
-10 -6 0 -7 5 -4 10 3 6 11 10 16 10 6 0 7 -4 4 -10z m-4104 -93 c-10 -9 -11
-8 -5 6 3 10 9 15 12 12 3 -3 0 -11 -7 -18z m4002 8 c4 -8 2 -17 -3 -20 -5 -3
-7 -12 -3 -20 4 -11 1 -13 -11 -9 -9 3 -16 1 -16 -6 0 -6 -4 -9 -9 -5 -15 8
-9 48 9 62 20 16 27 16 33 -2z m-97 -24 c-8 -12 4 -41 16 -41 6 0 8 6 5 13 -3
8 -2 20 3 27 5 7 7 -2 7 -23 -1 -20 -4 -34 -8 -32 -3 3 -14 -4 -24 -15 -20
-22 -35 -26 -35 -10 0 6 8 10 18 10 14 1 13 4 -7 20 -13 11 -19 20 -13 20 5 0
15 -7 22 -15 17 -21 24 -11 10 14 -10 19 -7 41 6 41 3 0 3 -4 0 -9z m-3731
-131 c-3 -6 -12 -10 -18 -10 -7 0 -6 4 3 10 11 8 3 9 -27 6 -24 -3 -43 -2 -44
2 0 4 -2 17 -3 29 l-3 22 49 -25 c27 -14 46 -29 43 -34z m11 34 c1 -9 0 -13
-4 -10 -3 4 -7 14 -8 22 -1 9 0 13 4 10 3 -4 7 -14 8 -22z m19 -57 c2 -18 -2
-23 -19 -23 -22 0 -22 1 -7 27 18 31 23 30 26 -4z m65 -18 c0 -5 -4 -9 -8 -9
-5 0 -9 7 -9 15 0 8 4 12 9 9 4 -3 8 -9 8 -15z m3386 -1 c3 -4 -1 -5 -10 -4
-8 1 -18 5 -22 8 -3 4 1 5 10 4 8 -1 18 -5 22 -8z m-3288 -63 c0 -33 -10 -38
-38 -18 l-23 16 24 18 c28 21 37 18 37 -16z m52 5 c-8 -5 -22 -9 -30 -9 -10 0
-8 3 5 9 27 12 43 12 25 0z m3050 -21 c0 -4 -11 -6 -24 -5 -13 0 -22 4 -20 8
6 9 44 6 44 -3z m-2940 -23 c0 -2 -8 -10 -17 -17 -16 -13 -17 -12 -4 4 13 16
21 21 21 13z m20 -32 c0 -8 -19 -13 -24 -6 -3 5 1 9 9 9 8 0 15 -2 15 -3z
m2860 -4 c0 -5 -4 -10 -10 -10 -5 0 -10 5 -10 10 0 6 5 10 10 10 6 0 10 -4 10
-10z m-55 -38 c-3 -3 -11 0 -18 7 -9 10 -8 11 6 5 10 -3 15 -9 12 -12z m-2612
-17 c-6 -17 -19 -19 -28 -5 -4 6 -1 9 7 8 7 -2 12 3 10 10 -1 8 2 11 7 7 6 -3
8 -12 4 -20z m2482 15 c-3 -5 -2 -10 3 -10 17 0 21 -28 7 -40 -11 -9 -16 -6
-26 12 -9 19 -9 21 2 11 21 -20 34 -15 16 5 -10 10 -14 22 -10 25 10 10 15 8
8 -3z m45 6 c0 -3 -4 -8 -10 -11 -5 -3 -10 -1 -10 4 0 6 5 11 10 11 6 0 10 -2
10 -4z m-2620 -30 c0 -6 5 -4 10 4 6 9 10 10 10 3 0 -20 -18 -24 -34 -7 -20
19 -20 25 -1 18 8 -4 15 -11 15 -18z m133 -6 c3 -11 1 -18 -4 -14 -5 3 -9 12
-9 20 0 20 7 17 13 -6z m24 13 c-4 -3 -1 -13 6 -22 11 -14 10 -14 -5 -2 -16
12 -16 31 -1 31 4 0 3 -3 0 -7z m2361 -18 c-3 -3 -9 2 -12 12 -6 14 -5 15 5 6
7 -7 10 -15 7 -18z m122 17 c0 -13 -12 -22 -22 -16 -10 6 -1 24 13 24 5 0 9
-4 9 -8z m-2440 -52 c0 -5 -2 -10 -4 -10 -3 0 -8 5 -11 10 -3 6 -1 10 4 10 6
0 11 -4 11 -10z m2180 -10 c0 -5 -5 -10 -11 -10 -5 0 -7 5 -4 10 3 6 8 10 11
10 2 0 4 -4 4 -10z m-2243 -14 c0 -8 -6 -12 -14 -9 -7 3 -10 9 -7 14 8 14 21
11 21 -5z m2273 -1 c-7 -8 -17 -15 -23 -15 -6 0 -2 7 9 15 25 19 30 19 14 0z
m-2130 -15 c0 -5 -7 -10 -16 -10 -8 0 -12 -5 -9 -10 4 -6 11 -8 16 -5 5 4 9 1
9 -4 0 -13 -17 -14 -24 -2 -8 12 -30 8 -50 -8 -10 -9 -16 -9 -16 -3 0 12 35
34 58 38 8 1 16 5 20 8 8 9 12 7 12 -4z m2020 -4 c0 -3 -4 -8 -10 -11 -5 -3
-10 -1 -10 4 0 6 5 11 10 11 6 0 10 -2 10 -4z m-1983 -19 c-1 -5 4 -12 11 -14
8 -3 10 1 5 13 -6 16 -5 17 9 4 11 -10 12 -17 4 -26 -6 -7 -15 -9 -21 -6 -5 4
-14 7 -19 7 -5 0 -10 7 -11 16 -2 9 3 16 11 16 7 0 12 -5 11 -10z m2000 -13
c1 -18 -2 -23 -9 -16 -6 6 -8 18 -5 26 9 22 12 20 14 -10z m-1552 6 c3 -6 -1
-7 -9 -4 -18 7 -21 14 -7 14 6 0 13 -4 16 -10z m-214 -23 c-8 -8 -14 -7 -23 2
-11 10 -9 11 6 5 15 -6 17 -4 11 6 -6 9 -4 11 4 5 9 -5 10 -10 2 -18z m-114
-6 c-1 -15 -4 -17 -14 -9 -17 14 -16 28 1 28 8 0 14 -9 13 -19z m298 9 c3 -5
1 -10 -4 -10 -6 0 -11 5 -11 10 0 6 2 10 4 10 3 0 8 -4 11 -10z m1130 0 c-3
-5 -12 -10 -18 -10 -7 0 -6 4 3 10 19 12 23 12 15 0z m30 -19 c-1 -11 -6 -25
-12 -33 -8 -9 -8 -16 2 -25 15 -14 26 -7 18 13 -3 8 1 14 11 14 9 0 16 -5 16
-11 0 -5 -4 -7 -10 -4 -5 3 -7 0 -5 -7 3 -8 15 -14 26 -15 18 -2 19 0 7 14 -9
12 -10 15 0 9 7 -4 12 -2 12 8 0 8 5 18 11 22 8 4 9 -1 4 -17 -7 -21 -6 -22 9
-10 9 7 15 20 14 29 -2 8 3 17 11 20 9 3 11 -1 7 -16 -5 -15 -1 -24 12 -31 11
-6 21 -8 24 -6 9 9 2 -30 -8 -45 -5 -8 -19 -16 -31 -16 -13 -1 -20 3 -17 7 3
5 0 9 -6 9 -6 0 -8 5 -5 11 5 6 11 5 19 -6 10 -14 13 -14 31 0 19 16 19 16 -2
5 -27 -13 -32 4 -6 18 13 8 10 10 -14 9 -17 -1 -29 -6 -26 -11 4 -5 0 -6 -7
-1 -9 6 -11 4 -5 -5 6 -9 4 -11 -6 -5 -11 6 -12 5 -1 -6 6 -7 12 -16 12 -19 0
-10 -34 -8 -47 3 -9 6 -13 6 -13 -3 0 -10 -3 -10 -15 0 -12 10 -15 10 -15 -1
-1 -10 -4 -9 -11 3 -5 10 -17 15 -27 12 -14 -5 -14 -4 -2 4 10 8 18 8 27 0 9
-7 13 -7 13 0 0 6 -8 15 -17 21 -16 8 -16 11 -2 28 8 10 14 28 13 40 0 12 2
21 6 18 4 -2 6 -13 5 -24z m105 25 c0 -2 -7 -7 -16 -10 -8 -3 -12 -2 -9 4 6
10 25 14 25 6z m-1320 -16 c0 -5 -2 -10 -4 -10 -3 0 -8 5 -11 10 -3 6 -1 10 4
10 6 0 11 -4 11 -10z m1280 -11 c0 -5 -5 -7 -12 -3 -8 5 -9 1 -4 -12 5 -14 4
-16 -5 -7 -6 6 -8 16 -5 22 9 14 26 14 26 0z m-1226 -15 c3 -8 2 -12 -4 -9 -6
3 -10 10 -10 16 0 14 7 11 14 -7z m27 -1 c13 -16 12 -17 -3 -4 -10 7 -18 15
-18 17 0 8 8 3 21 -13z m-76 -42 c-1 -34 -5 -45 -19 -47 -14 -2 -15 0 -4 13
11 14 11 15 -8 5 -12 -6 -24 -8 -28 -5 -3 3 -6 1 -6 -4 0 -11 -45 -11 -56 -1
-5 6 45 41 61 44 6 0 16 2 23 2 8 1 10 7 6 15 -5 8 -2 8 9 -2 10 -8 17 -9 17
-3 0 6 -8 15 -17 21 -16 9 -16 10 3 8 18 -1 21 -7 19 -46z m1052 34 c0 -8 -4
-12 -9 -9 -5 3 -6 10 -3 15 9 13 12 11 12 -6z m43 5 c0 -5 -5 -10 -11 -10 -5
0 -7 5 -4 10 3 6 8 10 11 10 2 0 4 -4 4 -10z m60 2 c0 -12 -22 -32 -34 -32 -6
0 -3 5 7 11 9 6 15 14 12 20 -4 5 -1 9 4 9 6 0 11 -4 11 -8z m-1045 -22 c3 -5
1 -10 -4 -10 -6 0 -11 5 -11 10 0 6 2 10 4 10 3 0 8 -4 11 -10z m85 0 c0 -5
-5 -10 -11 -10 -5 0 -7 5 -4 10 3 6 8 10 11 10 2 0 4 -4 4 -10z m40 6 c0 -2
-7 -7 -16 -10 -8 -3 -12 -2 -9 4 6 10 25 14 25 6z m770 0 c0 -2 -8 -10 -17
-17 -16 -13 -17 -12 -4 4 13 16 21 21 21 13z m67 -21 c0 -8 -4 -12 -9 -9 -5 3
-6 10 -3 15 9 13 12 11 12 -6z m-940 -24 c-1 -19 -27 -18 -27 1 0 5 5 6 10 3
6 -3 10 -1 10 4 0 6 2 11 4 11 3 0 4 -9 3 -19z m1026 12 c-7 -2 -19 -2 -25 0
-7 3 -2 5 12 5 14 0 19 -2 13 -5z m-48 -11 c-3 -3 2 -10 10 -16 13 -9 10 -11
-12 -12 -16 -1 -22 1 -15 3 9 4 10 9 3 17 -8 9 -6 13 4 13 8 0 13 -3 10 -5z
m-910 -22 c3 -6 -1 -7 -9 -4 -18 7 -21 14 -7 14 6 0 13 -4 16 -10z"/>
<path d="M2817 6964 c2 -7 0 -15 -6 -18 -6 -4 -8 -13 -4 -22 5 -12 7 -12 19 3
13 17 14 17 8 1 -7 -20 11 -25 22 -7 4 8 9 7 15 -2 4 -7 11 -10 15 -6 4 4 -2
15 -15 23 -12 9 -20 21 -18 28 3 7 -4 12 -18 12 -14 0 -21 -5 -18 -12z m31
-16 c9 -11 10 -18 2 -23 -6 -4 -10 -3 -9 2 4 20 -2 24 -18 12 -15 -13 -15 -12
-2 8 7 12 14 21 14 20 0 -1 6 -9 13 -19z"/>
<path d="M4186 6968 c3 -5 10 -6 15 -3 13 9 11 12 -6 12 -8 0 -12 -4 -9 -9z"/>
<path d="M4225 6961 c-3 -5 0 -13 6 -17 8 -5 9 -3 4 6 -6 10 -4 12 9 7 10 -4
15 -3 11 3 -8 13 -22 13 -30 1z"/>
<path d="M2747 6936 c-4 -10 -1 -13 8 -9 8 3 12 9 9 14 -7 12 -11 11 -17 -5z"/>
<path d="M2596 6858 c3 -5 10 -6 15 -3 13 9 11 12 -6 12 -8 0 -12 -4 -9 -9z"/>
<path d="M4680 6796 c0 -2 8 -10 18 -17 15 -13 16 -12 3 4 -13 16 -21 21 -21
13z"/>
<path d="M5307 6511 c6 -7 9 -20 6 -27 -3 -8 -3 -14 0 -14 14 0 14 30 -1 41
-14 11 -15 11 -5 0z"/>
<path d="M1577 6424 c-8 -8 3 -34 15 -34 7 0 6 5 -1 13 -6 8 -8 17 -4 20 3 4
4 7 1 7 -2 0 -7 -3 -11 -6z"/>
<path d="M691 5547 c-13 -21 -12 -21 5 -5 10 10 16 20 13 22 -3 3 -11 -5 -18
-17z"/>
<path d="M6850 2485 c-7 -9 -8 -15 -2 -15 5 0 12 7 16 15 3 8 4 15 2 15 -2 0
-9 -7 -16 -15z"/>
<path d="M6713 2075 c0 -8 4 -12 9 -9 5 3 6 10 3 15 -9 13 -12 11 -12 -6z"/>
<path d="M372 1991 c7 -11 16 -17 20 -14 10 5 -10 33 -23 33 -5 0 -4 -9 3 -19z"/>
<path d="M5839 883 c-13 -16 -12 -17 4 -4 16 13 21 21 13 21 -2 0 -10 -8 -17
-17z"/>
<path d="M1359 752 c9 -7 10 -11 2 -15 -7 -4 -8 -5 0 -3 15 2 13 20 -3 24 -10
3 -10 2 1 -6z"/>
<path d="M5533 668 c-16 -27 -12 -40 8 -23 10 10 16 22 13 26 -7 12 -11 11
-21 -3z"/>
<path d="M1655 550 c-7 -11 -8 -11 23 -14 27 -3 28 0 3 14 -13 7 -22 7 -26 0z"/>
<path d="M1746 493 c-6 -14 -5 -15 5 -6 7 7 10 15 7 18 -3 3 -9 -2 -12 -12z"/>
<path d="M1904 425 c-4 -8 -10 -12 -15 -9 -5 3 -9 3 -9 0 0 -3 8 -10 18 -15
14 -7 17 -5 18 15 2 27 -4 31 -12 9z"/>
<path d="M4206 82 c-3 -5 1 -9 9 -9 8 0 12 4 9 9 -3 4 -7 8 -9 8 -2 0 -6 -4
-9 -8z"/>
<path d="M4110 40 c0 -5 5 -10 10 -10 6 0 10 5 10 10 0 6 -4 10 -10 10 -5 0
-10 -4 -10 -10z"/>
<path d="M4144 38 c3 -15 26 -23 26 -8 0 6 -4 9 -9 6 -5 -4 -12 -1 -14 4 -3 6
-4 5 -3 -2z"/>
<path d="M2870 62 c0 -5 -11 -9 -24 -8 -14 0 -24 -3 -23 -9 3 -13 27 -16 27
-4 0 6 4 8 8 5 4 -2 14 -1 21 3 9 6 10 11 2 15 -6 4 -11 3 -11 -2z"/>
<path d="M4350 6958 c0 -4 4 -8 9 -8 6 0 12 4 15 8 3 5 -1 9 -9 9 -8 0 -15 -4
-15 -9z"/>
<path d="M4147 6935 c3 -8 9 -13 13 -10 5 3 10 0 12 -7 3 -8 6 -9 11 -1 3 5
-5 15 -18 21 -20 9 -23 9 -18 -3z"/>
<path d="M4517 6904 c-3 -4 1 -17 10 -30 14 -22 14 -24 -1 -24 -10 0 -13 -5
-9 -16 5 -14 9 -13 25 7 18 24 19 24 33 5 16 -21 21 -10 6 13 -5 8 -16 11 -26
7 -13 -4 -16 -2 -11 9 3 8 0 14 -7 12 -7 -1 -11 4 -9 11 2 13 -1 15 -11 6z"/>
<path d="M2533 6878 c4 -10 2 -18 -3 -18 -6 0 -10 6 -10 13 0 8 -3 7 -10 -3
-13 -20 5 -37 23 -22 8 7 18 8 23 4 4 -4 2 2 -6 13 -21 30 -24 32 -17 13z"/>
<path d="M4310 6879 c0 -5 5 -7 10 -4 6 3 10 8 10 11 0 2 -4 4 -10 4 -5 0 -10
-5 -10 -11z"/>
<path d="M2435 6870 c-3 -5 -1 -10 4 -10 6 0 11 5 11 10 0 6 -2 10 -4 10 -3 0
-8 -4 -11 -10z"/>
<path d="M2315 6860 c-3 -5 -1 -10 4 -10 6 0 11 5 11 10 0 6 -2 10 -4 10 -3 0
-8 -4 -11 -10z"/>
<path d="M2465 6851 c3 -12 2 -21 -3 -21 -6 0 -12 5 -14 12 -3 8 -6 7 -10 -3
-4 -10 1 -15 12 -16 28 -2 41 19 23 36 -13 12 -14 11 -8 -8z"/>
<path d="M4717 6850 c7 -8 20 -15 29 -16 9 -1 13 1 9 4 -4 4 -10 7 -13 7 -4 0
-14 4 -22 9 -12 7 -13 6 -3 -4z"/>
<path d="M2270 6841 c0 -6 4 -13 10 -16 6 -3 7 1 4 9 -7 18 -14 21 -14 7z"/>
<path d="M2315 6830 c-3 -6 1 -7 9 -4 18 7 21 14 7 14 -6 0 -13 -4 -16 -10z"/>
<path d="M2210 6801 c0 -6 4 -13 10 -16 6 -3 7 1 4 9 -7 18 -14 21 -14 7z"/>
<path d="M4893 6755 c0 -8 4 -12 9 -9 5 3 6 10 3 15 -9 13 -12 11 -12 -6z"/>
<path d="M2118 6722 c-3 -11 0 -19 7 -19 7 0 10 8 7 19 -2 10 -6 18 -7 18 -1
0 -5 -8 -7 -18z"/>
<path d="M1973 6705 c0 -8 4 -12 9 -9 5 3 6 10 3 15 -9 13 -12 11 -12 -6z"/>
<path d="M1876 6635 c-9 -26 -7 -32 5 -12 6 10 9 21 6 23 -2 3 -7 -2 -11 -11z"/>
<path d="M5107 6639 c7 -7 15 -10 18 -7 3 3 -2 9 -12 12 -14 6 -15 5 -6 -5z"/>
<path d="M5205 6592 c4 -15 2 -22 -5 -20 -22 5 -22 -19 0 -25 28 -7 34 8 15
40 -13 23 -15 24 -10 5z"/>
<path d="M1666 6558 c3 -5 10 -6 15 -3 13 9 11 12 -6 12 -8 0 -12 -4 -9 -9z"/>
<path d="M1710 6550 c8 -5 20 -10 25 -10 6 0 3 5 -5 10 -8 5 -19 10 -25 10 -5
0 -3 -5 5 -10z"/>
<path d="M1696 6513 c4 -23 3 -25 -11 -13 -14 11 -16 11 -13 -1 2 -8 -3 -13
-9 -11 -7 1 -13 -3 -13 -9 0 -6 6 -9 14 -6 7 3 18 1 23 -4 7 -7 17 -2 30 15
11 14 23 23 26 20 3 -3 10 4 17 15 7 14 7 21 0 21 -5 0 -10 -8 -11 -17 0 -13
-2 -14 -6 -4 -4 10 -9 8 -20 -10 -12 -21 -13 -21 -8 -3 4 14 0 24 -9 27 -11 4
-13 0 -10 -20z m14 -29 c0 -8 -19 -13 -24 -6 -3 5 1 9 9 9 8 0 15 -2 15 -3z"/>
<path d="M5385 6520 c-3 -6 1 -7 9 -4 18 7 21 14 7 14 -6 0 -13 -4 -16 -10z"/>
<path d="M5430 6480 c-9 -6 -10 -10 -3 -10 6 0 15 5 18 10 8 12 4 12 -15 0z"/>
<path d="M5463 6457 c11 -9 14 -18 8 -21 -5 -4 -12 -2 -16 4 -4 6 -11 7 -17 4
-6 -4 -2 -15 11 -28 12 -11 31 -34 42 -49 16 -20 26 -26 41 -21 12 3 18 2 15
-3 -4 -5 0 -10 8 -10 19 0 19 5 1 22 -8 8 -17 10 -22 5 -5 -5 -15 -5 -24 1
-13 9 -12 10 3 5 14 -4 16 -1 13 19 -2 13 1 26 7 28 6 2 2 6 -11 9 -18 5 -20
3 -12 -12 5 -9 6 -20 3 -24 -12 -11 -21 -6 -19 12 0 9 -5 16 -11 15 -7 -2 -13
2 -13 7 0 6 5 10 10 10 18 0 10 19 -12 30 -21 10 -22 10 -5 -3z"/>
<path d="M5555 6420 c-3 -5 -1 -10 4 -10 6 0 11 5 11 10 0 6 -2 10 -4 10 -3 0
-8 -4 -11 -10z"/>
<path d="M1499 6397 c11 -14 11 -20 1 -32 -7 -8 -17 -12 -23 -8 -5 3 -7 1 -3
-5 3 -6 2 -13 -4 -17 -5 -3 -10 0 -10 7 0 10 -2 10 -9 -1 -5 -8 -16 -11 -24
-8 -12 4 -14 2 -10 -11 6 -15 5 -15 -11 -3 -15 12 -17 12 -14 0 2 -8 -3 -13
-10 -11 -10 2 -10 -2 0 -18 17 -26 22 -25 51 9 l24 29 13 -23 c17 -31 30 -23
25 15 -2 17 0 28 5 25 5 -3 11 -1 15 5 4 6 10 8 15 5 21 -13 1 27 -21 42 -23
16 -23 16 -10 0z m31 -21 c0 -2 -8 -10 -17 -17 -16 -13 -17 -12 -4 4 13 16 21
21 21 13z m-40 -50 c0 -3 -4 -8 -10 -11 -5 -3 -10 -1 -10 4 0 6 5 11 10 11 6
0 10 -2 10 -4z m-65 -26 c-17 -19 -41 -18 -29 1 3 5 9 7 14 4 5 -3 11 -1 15 5
3 5 9 10 12 10 3 0 -2 -9 -12 -20z"/>
<path d="M5580 6356 c0 -8 4 -17 9 -20 5 -4 7 3 4 14 -6 23 -13 26 -13 6z"/>
<path d="M1313 6295 c0 -8 4 -12 9 -9 5 3 6 10 3 15 -9 13 -12 11 -12 -6z"/>
<path d="M5753 6275 c0 -8 4 -12 9 -9 5 3 6 10 3 15 -9 13 -12 11 -12 -6z"/>
<path d="M5746 6242 c-3 -5 1 -9 9 -9 8 0 12 4 9 9 -3 4 -7 8 -9 8 -2 0 -6 -4
-9 -8z"/>
<path d="M1220 6200 c-9 -6 -10 -10 -3 -10 6 0 15 5 18 10 8 12 4 12 -15 0z"/>
<path d="M5835 6141 c-3 -5 5 -17 17 -25 12 -9 19 -16 14 -16 -5 0 -1 -9 8
-19 10 -11 15 -24 12 -30 -4 -5 -2 -12 4 -16 5 -3 10 1 10 9 0 8 8 20 18 26
14 9 13 10 -8 4 -23 -6 -24 -6 -10 12 8 10 10 16 6 12 -9 -8 -46 28 -46 44 0
11 -17 10 -25 -1z"/>
<path d="M1120 6115 c-7 -8 -17 -12 -23 -8 -6 4 -7 1 -3 -6 6 -9 13 -8 27 5
10 9 19 19 19 21 0 7 -8 2 -20 -12z"/>
<path d="M1123 6073 c4 -6 2 -13 -4 -15 -6 -2 -10 -12 -8 -22 4 -17 5 -17 22
1 17 19 17 21 0 34 -9 8 -14 9 -10 2z"/>
<path d="M5915 6050 c-4 -6 -3 -16 3 -22 6 -6 12 -6 17 2 4 6 3 16 -3 22 -6 6
-12 6 -17 -2z"/>
<path d="M6016 6033 c-6 -14 -5 -15 5 -6 7 7 10 15 7 18 -3 3 -9 -2 -12 -12z"/>
<path d="M1000 6020 c-8 -5 -10 -10 -5 -10 6 0 17 5 25 10 8 5 11 10 5 10 -5
0 -17 -5 -25 -10z"/>
<path d="M5967 6016 c-16 -13 -16 -15 -2 -30 13 -12 21 -13 40 -4 23 10 35 30
18 27 -23 -4 -43 2 -38 11 8 13 4 12 -18 -4z m31 -19 c14 4 14 3 2 -5 -16 -12
-30 -7 -29 11 0 9 2 9 5 0 3 -7 13 -9 22 -6z"/>
<path d="M970 5941 c0 -10 14 -15 33 -12 5 1 6 -3 3 -8 -4 -5 -15 -8 -25 -6
-10 2 -24 -1 -32 -7 -11 -8 -11 -9 3 -4 10 3 20 1 23 -4 8 -13 41 4 48 24 4 9
0 13 -11 11 -9 -1 -23 2 -29 8 -9 6 -13 6 -13 -2z"/>
<path d="M6096 5913 c-6 -14 -5 -15 5 -6 7 7 10 15 7 18 -3 3 -9 -2 -12 -12z"/>
<path d="M860 5880 c-9 -6 -10 -10 -3 -10 6 0 15 5 18 10 8 12 4 12 -15 0z"/>
<path d="M6096 5874 c-4 -10 -4 -15 0 -12 9 10 37 -20 30 -31 -7 -10 20 -41
35 -41 5 0 7 11 5 24 -2 14 1 27 7 30 7 3 6 5 -3 5 -31 -2 -41 1 -34 13 4 6 3
8 -4 4 -6 -3 -15 1 -20 10 -8 15 -10 14 -16 -2z m60 -60 c2 -12 -1 -13 -12 -3
-7 6 -11 16 -8 21 7 11 17 3 20 -18z"/>
<path d="M6153 5875 c0 -8 4 -12 9 -9 5 3 6 10 3 15 -9 13 -12 11 -12 -6z"/>
<path d="M795 5791 c-3 -5 -2 -12 3 -15 5 -3 9 1 9 9 0 17 -3 19 -12 6z"/>
<path d="M776 5757 c3 -10 9 -15 12 -12 3 3 0 11 -7 18 -10 9 -11 8 -5 -6z"/>
<path d="M6270 5731 c0 -6 4 -13 10 -16 6 -3 7 1 4 9 -7 18 -14 21 -14 7z"/>
<path d="M690 5720 c0 -5 5 -10 11 -10 5 0 7 5 4 10 -3 6 -8 10 -11 10 -2 0
-4 -4 -4 -10z"/>
<path d="M733 5705 c0 -8 4 -12 9 -9 5 3 6 10 3 15 -9 13 -12 11 -12 -6z"/>
<path d="M681 5634 c0 -11 3 -14 6 -6 3 7 2 16 -1 19 -3 4 -6 -2 -5 -13z"/>
<path d="M6326 5642 c-3 -5 1 -9 9 -9 8 0 12 4 9 9 -3 4 -7 8 -9 8 -2 0 -6 -4
-9 -8z"/>
<path d="M6357 5603 c-10 -9 -9 -23 1 -23 5 0 9 7 9 15 0 17 -1 18 -10 8z"/>
<path d="M610 5540 c0 -5 5 -10 11 -10 5 0 7 5 4 10 -3 6 -8 10 -11 10 -2 0
-4 -4 -4 -10z"/>
<path d="M6405 5540 c-3 -6 1 -7 9 -4 18 7 21 14 7 14 -6 0 -13 -4 -16 -10z"/>
<path d="M636 5510 c6 -8 13 -22 16 -30 3 -9 7 -10 11 -3 4 6 -3 19 -16 29
-12 11 -17 12 -11 4z"/>
<path d="M557 5493 c-10 -9 -9 -23 1 -23 5 0 9 7 9 15 0 17 -1 18 -10 8z"/>
<path d="M6450 5480 c0 -5 5 -10 11 -10 5 0 7 5 4 10 -3 6 -8 10 -11 10 -2 0
-4 -4 -4 -10z"/>
<path d="M536 5395 c-3 -9 -2 -14 3 -10 5 3 11 -1 14 -7 2 -7 7 -11 10 -8 3 3
0 13 -8 23 -11 16 -13 16 -19 2z"/>
<path d="M6500 5360 c0 -5 5 -10 11 -10 5 0 7 5 4 10 -3 6 -8 10 -11 10 -2 0
-4 -4 -4 -10z"/>
<path d="M430 5321 c0 -6 4 -13 10 -16 6 -3 7 1 4 9 -7 18 -14 21 -14 7z"/>
<path d="M443 5274 c-3 -8 -12 -13 -20 -10 -8 3 -11 1 -8 -4 10 -16 23 -12 35
10 6 11 8 20 5 20 -3 0 -8 -7 -12 -16z"/>
<path d="M6596 5273 c-4 -9 -3 -20 1 -24 4 -4 9 3 9 17 2 28 -1 31 -10 7z"/>
<path d="M456 5254 c-6 -17 12 -49 22 -39 11 11 10 34 -3 45 -9 8 -14 6 -19
-6z m21 -19 c0 -8 -4 -12 -9 -9 -4 3 -8 9 -8 15 0 5 4 9 8 9 5 0 9 -7 9 -15z"/>
<path d="M6540 5256 c0 -2 8 -10 18 -17 15 -13 16 -12 3 4 -13 16 -21 21 -21
13z"/>
<path d="M385 5200 c-3 -6 1 -7 9 -4 18 7 21 14 7 14 -6 0 -13 -4 -16 -10z"/>
<path d="M6576 5193 c22 -16 34 -17 34 -2 0 5 -4 7 -10 4 -5 -3 -10 -2 -10 3
0 5 -7 9 -16 9 -14 0 -14 -2 2 -14z"/>
<path d="M6609 5164 c-1 -2 -2 -7 -3 -11 -1 -5 -5 -13 -9 -19 -10 -17 15 -35
33 -24 13 8 13 10 1 10 -8 0 -11 3 -8 7 4 3 2 12 -4 20 -16 18 1 16 22 -3 11
-10 19 -12 24 -4 4 6 1 9 -7 8 -7 -2 -12 2 -11 7 2 10 -36 19 -38 9z m8 -39
c0 -8 -4 -12 -9 -9 -5 3 -6 10 -3 15 9 13 12 11 12 -6z"/>
<path d="M6629 5093 c-1 -5 -1 -11 0 -15 0 -5 -4 -8 -10 -8 -5 0 -7 -5 -3 -12
5 -7 11 -5 21 7 7 11 13 22 13 27 0 10 -20 11 -21 1z"/>
<path d="M310 5038 c0 -4 4 -8 9 -8 6 0 12 4 15 8 3 5 -1 9 -9 9 -8 0 -15 -4
-15 -9z"/>
<path d="M6749 4943 c-13 -16 -12 -17 4 -4 16 13 21 21 13 21 -2 0 -10 -8 -17
-17z"/>
<path d="M6746 4912 c-3 -5 1 -9 9 -9 8 0 12 4 9 9 -3 4 -7 8 -9 8 -2 0 -6 -4
-9 -8z"/>
<path d="M230 4755 c0 -8 4 -15 10 -15 5 0 7 7 4 15 -4 8 -8 15 -10 15 -2 0
-4 -7 -4 -15z"/>
<path d="M176 4742 c-3 -5 1 -9 9 -9 8 0 12 4 9 9 -3 4 -7 8 -9 8 -2 0 -6 -4
-9 -8z"/>
<path d="M6855 4699 c-6 -8 -4 -10 5 -4 10 6 12 4 6 -11 -6 -15 -5 -17 5 -6 9
9 10 15 2 23 -8 8 -13 7 -18 -2z"/>
<path d="M6870 4631 c0 -5 5 -13 10 -16 6 -3 10 -2 10 4 0 5 -4 13 -10 16 -5
3 -10 2 -10 -4z"/>
<path d="M150 4620 c0 -5 5 -10 10 -10 6 0 10 5 10 10 0 6 -4 10 -10 10 -5 0
-10 -4 -10 -10z"/>
<path d="M6890 4520 c0 -5 5 -10 11 -10 5 0 7 5 4 10 -3 6 -8 10 -11 10 -2 0
-4 -4 -4 -10z"/>
<path d="M115 4500 c3 -5 8 -10 11 -10 2 0 4 5 4 10 0 6 -5 10 -11 10 -5 0 -7
-4 -4 -10z"/>
<path d="M115 4450 c-3 -6 1 -7 9 -4 9 3 16 1 16 -5 0 -6 -8 -11 -17 -11 -15
0 -15 -2 -4 -9 10 -7 19 -4 27 7 9 13 9 19 1 24 -16 10 -25 10 -32 -2z"/>
<path d="M6947 4335 c3 -8 9 -12 14 -9 12 7 11 11 -5 17 -10 4 -13 1 -9 -8z"/>
<path d="M13 4295 c0 -8 4 -12 9 -9 5 3 6 10 3 15 -9 13 -12 11 -12 -6z"/>
<path d="M90 4275 c-7 -8 -17 -12 -23 -8 -6 4 -7 1 -3 -6 6 -9 13 -8 27 5 23
21 24 12 3 -22 -15 -22 -15 -24 0 -18 12 4 16 0 16 -16 0 -11 5 -18 10 -15 7
4 7 12 0 25 -7 13 -6 21 5 30 12 10 13 16 4 26 -15 18 -24 18 -39 -1z m40 -9
c0 -2 -8 -10 -17 -17 -16 -13 -17 -12 -4 4 13 16 21 21 21 13z"/>
<path d="M6990 4209 c0 -5 -4 -8 -9 -5 -5 3 -14 -1 -20 -8 -9 -10 -9 -16 -1
-21 8 -5 6 -11 -6 -19 -15 -12 -15 -13 6 -11 24 2 42 25 20 25 -6 0 -8 5 -5
10 4 6 10 8 14 6 4 -3 8 4 8 15 1 10 0 19 -3 19 -2 0 -4 -5 -4 -11z"/>
<path d="M18 4191 c26 -23 28 -34 7 -51 -18 -15 -20 1 -2 19 8 9 8 12 0 7 -6
-3 -13 -1 -15 5 -2 7 -4 -27 -4 -74 1 -71 3 -86 16 -84 18 3 59 26 46 27 -4 0
5 14 22 31 32 33 37 69 12 92 -10 10 -12 9 -7 -5 4 -12 1 -18 -9 -18 -8 0 -13
4 -9 9 3 5 0 13 -6 17 -8 4 -9 3 -5 -4 4 -7 2 -12 -3 -12 -6 0 -11 6 -11 14 0
7 -12 21 -28 30 l-27 17 23 -20z m75 -63 c5 1 6 -2 2 -8 -3 -5 -2 -10 3 -10 6
0 -3 -14 -19 -31 -16 -17 -29 -35 -29 -40 0 -5 -5 -9 -12 -9 -9 0 -9 3 0 12 7
7 12 17 12 23 -1 5 -9 0 -19 -12 l-19 -23 3 45 c3 58 19 79 49 63 11 -7 25
-11 29 -10z"/>
<path d="M35 4130 c-4 -7 -9 -25 -10 -41 -2 -22 0 -27 10 -19 6 5 14 8 17 5 3
-3 13 3 22 14 11 12 14 21 7 26 -6 3 -11 3 -11 -1 0 -4 -6 0 -13 11 -11 14
-16 15 -22 5z m38 -24 c8 5 8 3 0 -6 -19 -20 -41 -21 -38 -1 2 9 4 21 5 26 0
6 5 2 11 -8 6 -9 16 -14 22 -11z"/>
<path d="M6983 4133 c-15 -5 -17 -23 -4 -23 5 0 11 7 15 15 3 8 4 15 3 14 -1
0 -8 -3 -14 -6z"/>
<path d="M6976 4088 c3 -5 10 -6 15 -3 13 9 11 12 -6 12 -8 0 -12 -4 -9 -9z"/>
<path d="M4 2936 c0 -41 4 -72 9 -69 12 7 8 -12 -5 -25 -9 -9 -9 -12 0 -12 7
0 12 5 12 10 0 6 10 2 22 -10 15 -13 24 -16 29 -9 4 7 9 7 13 1 3 -5 -3 -17
-14 -27 -19 -17 -20 -17 -20 0 0 10 -3 16 -6 12 -4 -3 -4 -14 0 -23 5 -12 10
-14 19 -5 10 8 17 7 25 -1 9 -9 12 -9 12 -1 0 6 7 19 16 27 8 9 11 16 5 16 -6
0 -11 6 -11 14 0 8 -11 28 -25 44 -22 26 -23 31 -10 49 13 18 13 22 0 26 -8 4
-12 1 -9 -7 3 -8 -5 -12 -26 -12 -16 0 -30 3 -30 8 0 4 4 8 9 8 13 0 7 53 -6
57 -7 3 -10 -24 -9 -71z m48 -19 c3 4 4 3 2 -3 -1 -7 6 -21 17 -32 10 -12 19
-28 19 -36 0 -8 4 -17 10 -21 11 -7 2 -35 -12 -35 -7 0 -6 5 1 14 9 10 8 16
-4 26 -8 7 -13 16 -10 20 3 5 1 11 -4 15 -6 3 -8 -3 -6 -15 5 -27 -11 -25 -31
4 -27 42 -26 89 1 66 7 -6 15 -7 17 -3z"/>
<path d="M25 2903 c2 -10 4 -21 4 -25 1 -11 31 -10 31 0 0 5 -9 17 -19 26 -19
17 -19 17 -16 -1z"/>
<path d="M15 2810 c3 -5 8 -10 11 -10 2 0 4 5 4 10 0 6 -5 10 -11 10 -5 0 -7
-4 -4 -10z"/>
<path d="M1 2793 c-1 -17 16 -25 25 -12 4 7 3 9 -4 5 -5 -3 -13 0 -15 6 -4 9
-6 10 -6 1z"/>
<path d="M35 2730 c10 -11 20 -20 23 -20 3 0 -3 9 -13 20 -10 11 -20 20 -23
20 -3 0 3 -9 13 -20z"/>
<path d="M6948 2663 c6 -2 18 -2 25 0 6 3 1 5 -13 5 -14 0 -19 -2 -12 -5z"/>
<path d="M6865 2630 c4 -6 11 -8 16 -5 14 9 11 15 -7 15 -8 0 -12 -5 -9 -10z"/>
<path d="M6926 2603 c-6 -14 -5 -15 5 -6 7 7 10 15 7 18 -3 3 -9 -2 -12 -12z"/>
<path d="M121 2433 c-1 -17 16 -25 25 -12 4 7 3 9 -4 5 -5 -3 -13 0 -15 6 -4
9 -6 10 -6 1z"/>
<path d="M156 2365 c4 -8 8 -15 10 -15 2 0 4 7 4 15 0 8 -4 15 -10 15 -5 0 -7
-7 -4 -15z"/>
<path d="M193 2316 c15 -14 26 -29 24 -34 -2 -4 4 -14 13 -23 16 -15 18 -15
28 2 8 13 8 20 -3 29 -8 6 -18 9 -24 6 -5 -3 -11 1 -15 9 -3 8 -1 17 4 20 6 4
10 1 10 -5 0 -6 5 -8 11 -4 8 4 7 9 -2 15 -8 4 -18 4 -23 -1 -5 -5 -17 -5 -30
2 -15 8 -13 4 7 -16z m58 -39 c-1 -12 -15 -9 -19 4 -3 6 1 10 8 8 6 -3 11 -8
11 -12z"/>
<path d="M6854 2322 c4 -3 14 -7 22 -8 9 -1 13 0 10 4 -4 3 -14 7 -22 8 -9 1
-13 0 -10 -4z"/>
<path d="M171 2267 c2 -1 13 -9 24 -17 19 -14 19 -14 6 3 -7 9 -18 17 -24 17
-6 0 -8 -1 -6 -3z"/>
<path d="M6820 2240 c0 -4 7 -7 15 -6 23 3 26 12 5 13 -11 1 -20 -2 -20 -7z"/>
<path d="M235 2220 c-3 -5 -2 -10 4 -10 6 0 8 -8 5 -17 -5 -14 -4 -15 4 -4 6
8 8 20 5 28 -6 16 -10 16 -18 3z"/>
<path d="M265 2191 c-3 -6 -3 -11 2 -11 4 -1 -3 -8 -17 -16 -14 -8 -18 -13 -8
-10 16 5 53 -26 43 -36 -3 -3 3 -8 14 -11 20 -5 20 -4 3 19 -9 13 -20 24 -24
24 -5 0 -8 5 -8 11 0 5 4 8 9 5 5 -4 8 1 7 9 -3 21 -13 28 -21 16z"/>
<path d="M255 2120 c3 -5 8 -10 11 -10 2 0 4 5 4 10 0 6 -5 10 -11 10 -5 0 -7
-4 -4 -10z"/>
<path d="M6757 2113 c-10 -9 -9 -23 1 -23 5 0 9 7 9 15 0 17 -1 18 -10 8z"/>
<path d="M275 2030 c-3 -6 1 -7 9 -4 18 7 21 14 7 14 -6 0 -13 -4 -16 -10z"/>
<path d="M280 2000 c-12 -7 -10 -9 7 -7 12 0 19 5 17 9 -6 10 -6 10 -24 -2z"/>
<path d="M6730 1980 c0 -5 5 -10 11 -10 5 0 7 5 4 10 -3 6 -8 10 -11 10 -2 0
-4 -4 -4 -10z"/>
<path d="M6663 1933 c1 -17 4 -19 14 -11 15 12 18 22 4 14 -5 -4 -11 0 -14 6
-3 7 -4 3 -4 -9z"/>
<path d="M6635 1930 c-3 -5 -1 -10 4 -10 6 0 11 5 11 10 0 6 -2 10 -4 10 -3 0
-8 -4 -11 -10z"/>
<path d="M6607 1916 c-3 -8 1 -20 9 -27 12 -10 13 -9 8 5 -5 13 -2 15 12 10
20 -8 19 -6 -7 14 -14 10 -18 10 -22 -2z"/>
<path d="M6650 1890 c-8 -5 -12 -12 -9 -15 4 -3 12 1 19 10 14 17 11 19 -10 5z"/>
<path d="M396 1798 c3 -4 9 -8 15 -8 5 0 9 4 9 8 0 5 -7 9 -15 9 -8 0 -12 -4
-9 -9z"/>
<path d="M6611 1767 c-13 -21 -12 -21 5 -5 10 10 16 20 13 22 -3 3 -11 -5 -18
-17z"/>
<path d="M6540 1740 c-18 -26 -19 -30 -5 -30 9 0 14 -4 11 -8 -3 -5 1 -9 9 -9
8 0 11 5 8 10 -4 6 0 8 8 5 10 -4 15 4 16 28 2 43 -18 45 -47 4z m36 3 c-1
-20 -16 -34 -28 -27 -8 5 12 44 23 44 4 0 6 -8 5 -17z"/>
<path d="M426 1743 c-6 -14 -5 -15 5 -6 7 7 10 15 7 18 -3 3 -9 -2 -12 -12z"/>
<path d="M510 1700 c0 -5 5 -10 11 -10 5 0 7 5 4 10 -3 6 -8 10 -11 10 -2 0
-4 -4 -4 -10z"/>
<path d="M480 1680 c-12 -7 -10 -9 7 -7 12 0 19 5 17 9 -6 10 -6 10 -24 -2z"/>
<path d="M516 1663 c-6 -14 -5 -15 5 -6 7 7 10 15 7 18 -3 3 -9 -2 -12 -12z"/>
<path d="M6482 1667 c-8 -9 -5 -19 9 -37 14 -18 17 -20 12 -6 -4 13 -3 17 5
12 8 -5 10 -2 6 8 -3 9 -10 16 -16 16 -5 0 -6 5 -3 10 9 14 -1 12 -13 -3z"/>
<path d="M6540 1676 c0 -2 7 -7 16 -10 8 -3 12 -2 9 4 -6 10 -25 14 -25 6z"/>
<path d="M536 1606 c3 -8 14 -14 24 -13 17 1 18 12 2 12 -4 0 -13 4 -19 8 -9
6 -11 3 -7 -7z"/>
<path d="M6435 1611 c-3 -5 -2 -12 3 -15 5 -3 9 1 9 9 0 17 -3 19 -12 6z"/>
<path d="M550 1540 c0 -5 5 -10 11 -10 5 0 7 5 4 10 -3 6 -8 10 -11 10 -2 0
-4 -4 -4 -10z"/>
<path d="M6476 1518 c3 -5 10 -6 15 -3 13 9 11 12 -6 12 -8 0 -12 -4 -9 -9z"/>
<path d="M645 1510 c-3 -5 -3 -10 1 -10 4 0 -1 -7 -12 -15 -13 -11 -14 -14 -4
-13 8 2 18 7 22 13 10 14 21 -1 12 -17 -16 -25 -13 -38 6 -28 13 7 20 6 24 -6
9 -24 7 -28 -7 -16 -9 8 -17 8 -27 0 -13 -8 -12 -9 2 -5 19 6 42 -15 30 -28
-4 -5 -1 -5 6 -1 7 4 10 12 7 17 -4 5 -1 9 5 9 6 0 4 10 -6 24 -10 17 -21 23
-32 19 -15 -6 -15 -4 -4 9 10 13 11 22 2 37 -12 24 -16 25 -25 11z"/>
<path d="M6395 1510 c-3 -5 -1 -10 4 -10 6 0 11 5 11 10 0 6 -2 10 -4 10 -3 0
-8 -4 -11 -10z"/>
<path d="M6420 1496 c0 -2 7 -7 16 -10 8 -3 12 -2 9 4 -6 10 -25 14 -25 6z"/>
<path d="M6354 1382 c3 -6 -2 -15 -11 -21 -10 -6 -13 -11 -7 -11 20 0 37 27
23 36 -7 4 -9 3 -5 -4z"/>
<path d="M713 1327 c0 -8 6 -14 14 -14 9 0 10 4 2 14 -6 7 -12 13 -14 13 -1 0
-2 -6 -2 -13z"/>
<path d="M776 1238 c3 -5 10 -6 15 -3 13 9 11 12 -6 12 -8 0 -12 -4 -9 -9z"/>
<path d="M6175 1180 c3 -5 8 -10 11 -10 2 0 4 5 4 10 0 6 -5 10 -11 10 -5 0
-7 -4 -4 -10z"/>
<path d="M850 1158 c0 -6 3 -8 7 -5 3 4 15 0 25 -10 22 -20 24 -11 2 11 -18
19 -34 21 -34 4z"/>
<path d="M855 1120 c3 -5 8 -10 11 -10 2 0 4 5 4 10 0 6 -5 10 -11 10 -5 0 -7
-4 -4 -10z"/>
<path d="M6010 1056 c0 -2 8 -10 18 -17 15 -13 16 -12 3 4 -13 16 -21 21 -21
13z"/>
<path d="M1030 1040 c0 -6 -5 -8 -11 -5 -6 4 -5 -2 2 -13 7 -12 18 -18 23 -15
6 4 5 8 -3 11 -10 3 -10 6 -1 12 9 5 9 9 1 14 -6 4 -11 2 -11 -4z"/>
<path d="M1001 1004 c0 -11 3 -14 6 -6 3 7 2 16 -1 19 -3 4 -6 -2 -5 -13z"/>
<path d="M1035 971 c-3 -5 -2 -12 3 -15 5 -3 9 1 9 9 0 17 -3 19 -12 6z"/>
<path d="M1060 966 c0 -2 8 -10 18 -17 15 -13 16 -12 3 4 -13 16 -21 21 -21
13z"/>
<path d="M5885 960 c3 -5 8 -10 11 -10 2 0 4 5 4 10 0 6 -5 10 -11 10 -5 0 -7
-4 -4 -10z"/>
<path d="M1089 917 c6 -8 7 -18 3 -22 -4 -5 -1 -5 6 -1 10 6 10 11 1 22 -6 8
-14 14 -16 14 -3 0 0 -6 6 -13z"/>
<path d="M1176 895 c-3 -8 -12 -15 -20 -15 -20 0 -29 -17 -15 -26 8 -5 9 -3 4
6 -6 10 -3 12 13 8 12 -4 20 -2 17 2 -3 5 -1 11 5 15 5 3 10 1 10 -5 0 -6 4
-9 9 -6 5 3 15 -2 22 -11 12 -14 11 -15 -9 -9 -12 4 -22 3 -22 -2 0 -5 6 -9
13 -9 6 0 19 -4 28 -7 10 -5 19 -1 23 9 3 9 2 13 -4 10 -5 -3 -14 3 -20 14
-15 30 -47 44 -54 26z"/>
<path d="M1196 818 c3 -5 10 -6 15 -3 13 9 11 12 -6 12 -8 0 -12 -4 -9 -9z"/>
<path d="M1235 810 c3 -5 8 -10 11 -10 2 0 4 5 4 10 0 6 -5 10 -11 10 -5 0 -7
-4 -4 -10z"/>
<path d="M1296 718 c3 -5 10 -6 15 -3 13 9 11 12 -6 12 -8 0 -12 -4 -9 -9z"/>
<path d="M5595 690 c-3 -5 -1 -10 4 -10 6 0 11 5 11 10 0 6 -2 10 -4 10 -3 0
-8 -4 -11 -10z"/>
<path d="M1496 602 c-3 -5 1 -9 9 -9 8 0 15 4 15 9 0 4 -4 8 -9 8 -6 0 -12 -4
-15 -8z"/>
<path d="M1550 599 c0 -5 -4 -7 -10 -4 -6 3 -7 -1 -4 -10 5 -11 14 -15 29 -11
19 5 22 3 18 -14 -3 -11 -10 -17 -16 -13 -6 3 -7 1 -3 -6 9 -14 26 -5 26 15 0
8 8 14 17 14 13 0 14 3 5 12 -15 15 -42 19 -42 7 0 -5 -4 -9 -10 -9 -5 0 -7 7
-4 15 4 8 3 15 0 15 -3 0 -6 -5 -6 -11z"/>
<path d="M5501 558 c-14 -23 -14 -23 8 -4 22 20 25 26 13 26 -4 0 -13 -10 -21
-22z"/>
<path d="M1693 449 c-2 -23 3 -25 10 -4 4 8 3 16 -1 19 -4 3 -9 -4 -9 -15z"/>
<path d="M1783 457 c4 -10 2 -28 -4 -39 -17 -31 -5 -30 13 2 15 27 15 30 0 42
-14 11 -15 10 -9 -5z"/>
<path d="M1747 444 c7 -3 9 -13 6 -22 -4 -15 -3 -15 6 -2 15 22 14 30 -6 29
-10 0 -13 -3 -6 -5z"/>
<path d="M1801 404 c0 -11 3 -14 6 -6 3 7 2 16 -1 19 -3 4 -6 -2 -5 -13z"/>
<path d="M5099 400 c-8 -12 -21 -22 -30 -23 -8 -2 -36 -20 -62 -41 -28 -23
-51 -35 -59 -30 -10 5 -10 4 -1 -6 10 -11 15 -11 29 1 16 12 17 12 11 -3 -10
-27 0 -21 18 10 15 26 16 26 10 2 l-6 -25 13 23 c13 21 15 21 31 5 15 -16 16
-15 11 11 -3 16 -1 25 5 22 5 -4 13 -1 17 5 4 8 3 9 -4 5 -7 -4 -12 -2 -12 5
0 6 8 9 19 6 15 -3 18 -1 14 11 -5 11 -3 13 8 6 8 -5 26 -9 40 -10 19 0 25 4
24 20 -2 23 -20 32 -30 16 -5 -8 -11 -8 -20 0 -9 8 -16 5 -26 -10z m65 -3 c-6
-16 -41 -19 -50 -5 -5 7 -1 9 9 5 9 -3 19 -2 22 3 9 15 25 12 19 -3z m-108
-51 c-1 -16 -5 -21 -12 -15 -6 5 -13 8 -15 6 -2 -1 3 6 11 15 8 9 16 17 16 17
1 1 1 -10 0 -23z"/>
<path d="M5190 389 c0 -5 5 -7 10 -4 6 3 10 8 10 11 0 2 -4 4 -10 4 -5 0 -10
-5 -10 -11z"/>
<path d="M5095 340 c-2 -3 9 -6 25 -6 17 0 27 2 25 5 -8 7 -45 9 -50 1z"/>
<path d="M4886 273 c2 -7 -3 -13 -11 -13 -7 0 -16 -4 -20 -10 -3 -5 7 -5 25 1
16 6 30 15 30 21 0 5 -4 7 -9 4 -5 -4 -11 -3 -14 1 -2 5 -2 2 -1 -4z"/>
<path d="M5066 278 c3 -5 10 -6 15 -3 13 9 11 12 -6 12 -8 0 -12 -4 -9 -9z"/>
<path d="M2015 260 c-2 -3 5 -6 15 -7 11 -1 22 2 24 5 3 4 -4 8 -15 8 -11 0
-22 -3 -24 -6z"/>
<path d="M2300 235 c-8 -9 -8 -15 -2 -15 12 0 26 19 19 26 -2 2 -10 -2 -17
-11z"/>
<path d="M4866 218 c3 -5 10 -6 15 -3 13 9 11 12 -6 12 -8 0 -12 -4 -9 -9z"/>
<path d="M2286 195 c4 -8 8 -15 10 -15 2 0 4 7 4 15 0 8 -4 15 -10 15 -5 0 -7
-7 -4 -15z"/>
<path d="M2290 165 c0 -5 5 -17 10 -25 5 -8 10 -10 10 -5 0 6 -5 17 -10 25 -5
8 -10 11 -10 5z"/>
<path d="M4446 141 c-15 -16 -22 -18 -32 -10 -11 9 -15 7 -20 -6 -5 -13 -9
-14 -15 -3 -5 7 -9 9 -9 3 0 -5 9 -21 19 -34 13 -17 18 -19 18 -7 0 9 -4 16
-8 16 -5 0 -6 7 -2 16 3 9 9 12 12 7 3 -4 15 -15 26 -23 18 -14 19 -14 7 2 -9
11 -10 18 -2 23 5 3 10 1 10 -4 0 -6 5 -11 12 -11 6 0 8 3 5 7 -4 3 1 12 11
20 9 8 12 12 5 9 -6 -4 -13 -1 -15 5 -2 6 -12 1 -22 -10z"/>
<path d="M4635 141 c-6 -11 13 -26 22 -17 4 3 1 6 -6 6 -7 0 -9 5 -6 10 3 6 4
10 1 10 -3 0 -7 -4 -11 -9z"/>
<path d="M4706 138 c3 -5 10 -6 15 -3 13 9 11 12 -6 12 -8 0 -12 -4 -9 -9z"/>
<path d="M4286 112 c-3 -5 1 -9 9 -9 8 0 12 4 9 9 -3 4 -7 8 -9 8 -2 0 -6 -4
-9 -8z"/>
<path d="M2660 91 c0 -6 4 -13 10 -16 6 -3 7 1 4 9 -7 18 -14 21 -14 7z"/>
<path d="M2615 80 c3 -5 8 -10 11 -10 2 0 4 5 4 10 0 6 -5 10 -11 10 -5 0 -7
-4 -4 -10z"/>
<path d="M2923 53 c0 -18 2 -21 8 -12 8 11 11 11 20 -3 13 -23 25 -23 25 1 0
11 -11 22 -27 28 -24 9 -26 8 -26 -14z"/>
<path d="M4334 62 c3 -5 0 -13 -6 -15 -9 -4 -10 -6 -1 -6 17 -1 25 16 12 25
-7 4 -9 3 -5 -4z"/>
<path d="M4370 56 c0 -2 8 -10 18 -17 15 -13 16 -12 3 4 -13 16 -21 21 -21 13z"/>
<path d="M2690 42 c0 -5 7 -9 15 -9 8 0 12 4 9 9 -7 10 -24 10 -24 0z"/>
<path d="M2673 15 c0 -8 4 -12 9 -9 5 3 6 10 3 15 -9 13 -12 11 -12 -6z"/>
<path d="M4300 19 c0 -5 5 -7 10 -4 6 3 10 8 10 11 0 2 -4 4 -10 4 -5 0 -10
-5 -10 -11z"/>
<path d="M2720 16 c0 -2 7 -7 16 -10 8 -3 12 -2 9 4 -6 10 -25 14 -25 6z"/>
</g>
</svg>
